<svg width="98" height="24" viewBox="0 0 98 24" fill="none" xmlns="http://www.w3.org/2000/svg">
<path fill-rule="evenodd" clip-rule="evenodd" d="M41.0323 23.6944V7.49122H40.9285L34.5137 23.6944H32.0647L25.6345 7.49122H25.5318V23.6944H22.5234V1.67854H26.343L33.2302 19.2233H33.3483L40.22 1.67975H44.0551V23.6952H41.0323V23.6944ZM60.6901 23.6944H57.6368V20.9791H57.5635C56.7075 22.9016 55.13 23.9839 52.7556 23.9839C49.3789 23.9839 47.3124 21.7111 47.3124 18.0347V7.64381H50.498V17.3933C50.498 19.8341 51.6198 21.1458 53.816 21.1458C56.1183 21.1458 57.5044 19.4983 57.5044 16.9964V7.64381H60.6889V23.6944H60.6901ZM69.4207 7.35352C73.0334 7.35352 75.3786 9.42945 75.4824 12.3887H72.4882C72.311 10.8334 71.2047 9.85703 69.4207 9.85703C67.6945 9.85703 66.5441 10.7259 66.5441 12.0087C66.5441 13.0156 67.2527 13.7005 68.9329 14.0979L71.4547 14.6929C74.6261 15.4559 75.8351 16.7379 75.8351 19.0562C75.8351 21.9865 73.1951 24 69.5383 24C65.6597 24 63.3276 22.032 63.0336 18.9805H66.1895C66.4847 20.6582 67.5911 21.4824 69.538 21.4824C71.4543 21.4824 72.6352 20.6582 72.6352 19.3465C72.6352 18.3085 72.0602 17.6989 70.3634 17.3015L67.8411 16.692C64.8917 15.9898 63.431 14.5251 63.431 12.1923C63.4318 9.32235 65.8511 7.35352 69.4207 7.35352ZM78.0455 3.40298C78.0455 2.34931 78.8721 1.51064 79.8885 1.51064C80.9065 1.51064 81.7189 2.35052 81.7189 3.40298C81.7189 4.43973 80.9065 5.2941 79.8885 5.2941C79.3781 5.28967 78.943 5.10326 78.584 4.73445C78.2246 4.36565 78.0455 3.92196 78.0466 3.40298H78.0455V3.40298ZM78.2959 7.64381H81.4815V23.6944H78.2959V7.64381ZM94.9313 13.1674C94.6067 11.4587 93.368 10.1002 91.2888 10.1002C88.826 10.1002 87.2036 12.2204 87.2036 15.6681C87.2036 19.1935 88.8402 21.2384 91.3185 21.2384C93.2784 21.2384 94.5632 20.1247 94.9313 18.2626H98C97.6612 21.6801 95.0212 23.9996 91.29 23.9996C86.8506 23.9996 83.9602 20.8559 83.9602 15.6697C83.9602 10.5733 86.8506 7.35392 91.2606 7.35392C95.2574 7.35392 97.6909 10.0096 97.9707 13.1678H94.9325L94.9313 13.1674ZM12.7799 3.82654C11.9557 4.82746 10.6488 5.62184 9.34028 5.50427C9.16909 4.15065 9.82452 2.70845 10.5636 1.8263C11.3866 0.794377 12.8084 0.0599909 13.9739 0C14.1165 1.41361 13.5772 2.79582 12.7811 3.82774L12.7799 3.82654ZM13.9596 5.7696C14.6963 5.82838 16.8226 6.06231 18.1842 8.14548C18.0709 8.23446 15.6612 9.67183 15.6893 12.6935C15.7174 16.3055 18.7509 17.5077 18.779 17.5379C18.7505 17.6269 18.2983 19.2406 17.1924 20.9123C16.2278 22.381 15.236 23.8188 13.6477 23.8486C12.1161 23.8772 11.605 22.9089 9.8483 22.9089C8.09045 22.9089 7.5222 23.8184 6.077 23.8772C4.54542 23.9348 3.38475 22.3211 2.42023 20.8535C0.434127 17.8894 -1.06773 12.4898 0.973846 8.85007C1.96571 7.03102 3.78062 5.88636 5.737 5.85616C7.24005 5.82878 8.62977 6.88446 9.53643 6.88446C10.4443 6.88446 12.0595 5.65203 13.9592 5.76839L13.9596 5.7696Z" fill="black"/>
</svg>
