<svg width="87" height="79" viewBox="0 0 87 79" fill="none" xmlns="http://www.w3.org/2000/svg">
<path d="M16.1183 1.49731H5.3687L0 10.8039L5.3687 20.1105H16.1183L21.4993 10.8039L16.1183 1.49731Z" fill="#FF1241"/>
<path d="M33.5676 23.8029C33.3712 23.6556 33.0276 23.496 32.4997 23.6311C29.4188 24.3921 26.3378 25.1654 23.2445 25.9387C22.4958 26.1229 22.2257 26.4788 22.2257 27.2521V34.1874C20.6545 33.8437 19.0343 34.4574 18.0891 35.7954C17.5858 36.5073 17.4385 37.342 17.6718 38.1153C17.905 38.8764 18.5065 39.4778 19.3043 39.7724C19.7094 39.9197 20.139 40.0057 20.5809 40.0057C21.0105 40.0057 21.4647 39.932 21.9189 39.7847C23.4778 39.2814 24.4229 38.0049 24.4229 36.36V35.0466C24.4229 33.6841 24.4229 32.3094 24.4229 30.8855C25.945 30.5172 27.4671 30.1367 28.9891 29.7562L31.8123 29.0565V32.2725C30.4621 31.9657 29.2101 32.3339 28.0931 33.3895C27.197 34.2365 26.9147 35.5254 27.3934 36.5319C27.8476 37.4771 28.6945 37.9926 29.9097 38.0662C31.0636 38.1276 32.0947 37.7839 32.8434 37.0843C33.5922 36.3846 33.9973 35.3658 33.9973 34.2242C33.9973 31.7815 33.9973 29.3389 33.9973 26.8839V24.7849C33.985 24.2571 33.764 23.9625 33.5676 23.8029ZM31.8123 26.0492C31.8123 26.2947 31.8123 26.5402 31.8123 26.7857C29.6765 27.3258 27.5284 27.8659 25.3926 28.3937L24.4229 28.6392C24.4229 28.3814 24.4229 28.1359 24.4229 27.9027C26.0186 27.4976 27.6144 27.0926 29.2101 26.6998L31.8123 26.0492ZM29.4556 35.1203C29.787 34.6538 30.2903 34.3838 30.8795 34.3593C31.395 34.3593 31.7019 34.4697 31.7878 34.6907C31.8614 34.8871 31.7019 35.1939 31.4073 35.4394C30.8795 35.8691 30.3148 36.0041 29.7134 35.8445C29.517 35.7954 29.3819 35.6972 29.3328 35.5745C29.296 35.4517 29.3451 35.2921 29.4556 35.1203ZM22.1275 36.9983C21.7102 37.6734 21.0596 37.7962 20.7282 37.8207C20.1881 37.8207 19.8444 37.698 19.7585 37.4893C19.6848 37.2807 19.8321 36.9861 20.139 36.7406C20.5195 36.4337 20.9369 36.2741 21.3665 36.2741C21.5138 36.2741 21.6734 36.2987 21.8452 36.3355C22.0293 36.3846 22.1521 36.4705 22.2012 36.581C22.2503 36.6915 22.2257 36.8388 22.1275 36.9983Z" fill="#0C0C0C"/>
<path d="M50.6051 31.2787C51.5625 31.291 52.52 31.291 53.4774 31.291C54.2753 31.291 55.0608 31.2787 55.8587 31.2787C55.8955 31.2787 55.9446 31.291 55.9815 31.291H70.834C71.9019 31.291 72.7857 30.4072 72.7857 29.3393C72.7857 28.2714 71.9019 27.3876 70.834 27.3876H55.9815C55.9569 27.3876 55.9324 27.3999 55.9078 27.3999C55.38 27.3876 54.8522 27.3876 54.3244 27.3876H53.4897H52.5691C51.9062 27.3876 51.2434 27.3753 50.5928 27.3999C49.4022 27.4244 48.5184 28.2714 48.5306 29.3638C48.5184 30.4563 49.4022 31.2664 50.6051 31.2787Z" fill="#0C0C0C"/>
<path d="M50.4455 13.4312H50.4578C51.5011 13.4189 52.3849 12.5228 52.3726 11.4795C52.3726 10.9885 52.1517 10.4852 51.7835 10.1292C51.4152 9.76099 50.961 9.54005 50.421 9.5646C49.93 9.5646 49.439 9.78554 49.0707 10.1538C48.7025 10.522 48.4938 11.0253 48.5061 11.5163C48.5184 12.5474 49.4267 13.4312 50.4455 13.4312Z" fill="#0C0C0C"/>
<path d="M77.2782 27.3999C76.7873 27.3999 76.2963 27.6086 75.928 27.9768C75.5598 28.3451 75.3511 28.8361 75.3511 29.327C75.3511 29.818 75.5598 30.309 75.9403 30.6773C76.3085 31.0455 76.7995 31.2542 77.2905 31.2542C77.7815 31.2542 78.2848 31.0455 78.6407 30.6773C79.009 30.309 79.2177 29.818 79.2177 29.3148C79.2177 28.8238 79.009 28.3205 78.6407 27.9645C78.2602 27.6086 77.7692 27.3999 77.2782 27.3999Z" fill="#0C0C0C"/>
<path d="M50.4455 45.2351C49.9546 45.2351 49.4636 45.4438 49.0953 45.812C48.7271 46.1803 48.5184 46.6713 48.5184 47.1623C48.5184 48.1933 49.4267 49.0894 50.4578 49.0894C51.5012 49.0894 52.385 48.2056 52.385 47.15C52.3727 46.1189 51.4889 45.2351 50.4455 45.2351Z" fill="#0C0C0C"/>
<path d="M51.3048 68.2014C50.7769 68.2014 50.3228 68.3733 49.9423 68.7292C49.5617 69.0852 49.3531 69.5762 49.3408 70.0917C49.3162 71.1474 50.1509 72.0434 51.2066 72.068C51.2188 72.068 51.2434 72.068 51.2557 72.068C51.7344 72.068 52.2008 71.8839 52.5568 71.5402C52.9373 71.1842 53.146 70.6809 53.1583 70.1777C53.1951 69.122 52.3604 68.2382 51.3048 68.2014Z" fill="#0C0C0C"/>
<path d="M78.7267 1.02113H61.947C47.4505 1.03341 32.9539 1.03341 18.4574 0.996582C18.4574 0.996582 18.4451 0.996582 18.4328 0.996582C14.2348 0.996582 10.8224 3.70932 10.1351 7.52678L10 7.73545V59.2896L10.1228 59.7561C10.5033 60.9345 10.8838 62.1497 11.7553 63.1808C13.4002 65.1447 15.5237 66.139 18.0646 66.139C22.594 66.1513 27.1111 66.139 31.6405 66.139H37.3974C37.1274 66.8878 36.6609 67.4156 35.9735 67.747C35.4948 67.9802 34.8933 68.1275 34.2182 68.1889C30.769 68.4712 28.3877 70.3861 27.5039 73.5653C27.2952 74.3263 27.2707 75.1364 27.2707 75.8852C27.283 76.8549 27.7249 77.5914 28.535 77.9842L68.379 78.0333L68.4772 77.9842C69.2996 77.5668 69.717 76.8058 69.7538 75.6765C69.8765 71.5645 66.8324 68.3485 62.6712 68.2012C61.2719 68.1521 60.2899 67.526 59.6762 66.3108C59.6516 66.2617 59.6271 66.2126 59.6025 66.1513H78.6898C83.5875 66.1513 86.9999 62.7389 86.9999 57.8658C86.9999 41.6999 86.9999 25.5217 86.9999 9.34345C87.0244 4.4458 83.6121 1.02113 78.7267 1.02113ZM13.8911 9.42938C13.8911 6.52025 15.4991 4.91225 18.4083 4.91225H39.6928V53.1277C39.6928 53.1768 39.7051 53.2259 39.7051 53.275H13.8911V9.42938ZM62.5485 72.08C64.046 72.1659 65.0525 72.8288 65.6172 74.1053H31.4318C31.8369 72.9392 33.0398 72.1168 34.4514 72.1046C36.44 72.0923 38.4408 72.0923 40.4293 72.0923H44.8482C46.9718 72.08 47.2172 70.742 47.2295 70.1651C47.2295 69.625 47.0577 69.1709 46.7263 68.8272C46.3212 68.4098 45.6952 68.2012 44.885 68.2012C43.9276 68.2012 42.9824 68.2012 42.025 68.2012H40.7484L41.4849 66.1513C41.5708 66.1513 41.6568 66.139 41.7427 66.139H45.2287C48.5675 66.139 51.9185 66.139 55.2695 66.1267C55.6255 66.139 55.6132 66.1267 55.6869 66.4459C56.3374 69.6619 59.0256 71.8591 62.5485 72.08ZM81.5867 61.3764C80.8502 61.9656 79.9664 62.2479 78.8985 62.2479H57.8841C45.0692 62.2356 31.8246 62.2356 18.7888 62.297C17.0949 62.2847 15.7446 61.7814 14.8977 60.824C14.1366 59.9648 13.7929 58.7496 13.8911 57.2889H83.1211C83.2193 59.216 82.7528 60.4558 81.5867 61.3764ZM64.2056 53.2873H63.2972H51.2557H43.5716C43.5716 53.2382 43.5839 53.1891 43.5839 53.14V4.91225H51.2434H64.1933H78.6285C81.4885 4.91225 83.1211 6.5448 83.1211 9.38028V53.2873H64.2056Z" fill="#0C0C0C"/>
<path d="M77.2537 45.2107H60.6704C60.6336 45.2107 60.5845 45.223 60.5477 45.223C59.222 45.223 57.8963 45.2107 56.5584 45.223C55.3677 45.2352 54.4716 46.0331 54.4471 47.1256C54.4348 47.6288 54.6189 48.0953 54.9504 48.4512C55.3432 48.8563 55.9201 49.0895 56.5706 49.1018C57.2089 49.1141 57.8472 49.1141 58.4855 49.1018H59.3325H60.204C60.3513 49.1018 60.5109 49.1018 60.6582 49.1018H60.6704H77.2537C78.3216 49.1018 79.2054 48.218 79.2054 47.1501C79.2054 46.0822 78.3216 45.2107 77.2537 45.2107Z" fill="#0C0C0C"/>
<path d="M77.2537 39.2693H55.9692C55.9201 39.2693 55.8833 39.2816 55.8464 39.2816C54.1771 39.2816 52.52 39.2693 50.8506 39.2816H50.5315C49.6845 39.2816 49.0217 39.6989 48.6902 40.4477C48.4202 41.0491 48.457 41.6874 48.7884 42.2152C49.1567 42.7922 49.8195 43.1358 50.5683 43.1604C51.1697 43.1727 51.7712 43.1727 52.3727 43.1727C52.8637 43.1727 53.3547 43.1727 53.8334 43.1727H55.1836H55.8833C55.9078 43.1727 55.9446 43.1849 55.9692 43.1849H77.2414C78.3093 43.1849 79.1931 42.3012 79.1931 41.2333C79.2054 40.1531 78.3216 39.2693 77.2537 39.2693Z" fill="#0C0C0C"/>
<path d="M77.2537 33.3286H55.9692C55.9569 33.3286 55.9446 33.3286 55.9324 33.3286H54.8767C53.4897 33.3286 52.1026 33.3286 50.7156 33.3286H50.7033C49.6968 33.3286 49.0094 33.7337 48.6657 34.5315C48.4079 35.133 48.4447 35.7713 48.7884 36.2868C49.1689 36.8638 49.8686 37.2075 50.6665 37.2197C52.3972 37.232 54.128 37.2197 55.871 37.2197C55.9078 37.2197 55.9324 37.232 55.9569 37.232H61.3701C61.3947 37.232 61.4192 37.232 61.4315 37.232C61.4438 37.232 61.4438 37.232 61.4438 37.232H77.2292C78.2971 37.232 79.1809 36.3482 79.1809 35.2803C79.2054 34.2124 78.3216 33.3286 77.2537 33.3286Z" fill="#0C0C0C"/>
<path d="M77.2537 21.4338H52.9987C52.9618 21.4338 52.925 21.4461 52.8882 21.4461C52.1394 21.4461 51.3907 21.4461 50.6542 21.4461C50.0036 21.4461 49.4267 21.6793 49.0339 22.0844C48.6902 22.4404 48.5061 22.9068 48.5061 23.4101C48.5184 24.5271 49.4144 25.3127 50.6787 25.325C51.0224 25.325 51.3784 25.325 51.7221 25.325C52.0044 25.325 52.2867 25.325 52.5813 25.325H52.9496C52.9618 25.325 52.9741 25.325 52.9987 25.325H77.2537C78.3216 25.325 79.2054 24.4412 79.2054 23.3733C79.2054 22.3176 78.3216 21.4338 77.2537 21.4338Z" fill="#0C0C0C"/>
<path d="M77.2537 15.4932H52.9987C52.9496 15.4932 52.9128 15.5054 52.876 15.5054C52.0904 15.5054 51.3171 15.5054 50.5315 15.5054C49.6354 15.5054 48.9726 15.9596 48.6534 16.7575C48.4202 17.3589 48.4816 17.9849 48.813 18.4759C49.1935 19.0406 49.8686 19.372 50.6542 19.372C51.403 19.3843 52.164 19.3843 52.9128 19.3843C52.9251 19.3843 52.9496 19.3843 52.9619 19.3843C52.9742 19.3843 52.9864 19.3843 52.9987 19.3843H77.2537C78.3216 19.3843 79.2054 18.5005 79.2054 17.4326C79.2054 16.377 78.3216 15.4932 77.2537 15.4932Z" fill="#0C0C0C"/>
<path d="M77.2537 9.55225H59.5289C59.5044 9.55225 59.4675 9.56452 59.443 9.56452C58.4855 9.56452 57.5404 9.55225 56.5829 9.56452C55.9447 9.56452 55.3677 9.79774 54.9749 10.2028C54.6313 10.5588 54.4471 11.0375 54.4594 11.5408C54.484 12.6332 55.3555 13.4188 56.5707 13.4311C57.2212 13.4434 57.8595 13.4434 58.5101 13.4434H59.3325H59.443C59.4798 13.4434 59.5044 13.4556 59.5412 13.4556H77.266C78.3339 13.4556 79.2177 12.5718 79.2177 11.5039C79.2177 10.436 78.3216 9.55225 77.2537 9.55225Z" fill="#0C0C0C"/>
</svg>
