<svg width="94" height="82" viewBox="0 0 94 82" fill="none" xmlns="http://www.w3.org/2000/svg">
<path d="M15.4865 9.59082H5.15826L0 18.5326L5.15826 27.4743H15.4865L20.6565 18.5326L15.4865 9.59082Z" fill="#FF1241"/>
<path d="M40.7757 53.9417C51.8779 51.7606 59.2093 44.9022 61.9815 34.0891C64.767 23.2234 61.6662 13.8818 52.745 6.32701C50.2224 4.1854 47.2005 2.59561 43.745 1.5708C42.4574 1.18977 41.1961 1.82043 40.8282 3.02919C40.4604 4.25109 41.0779 5.44671 42.3392 5.91971C42.4706 5.97226 42.602 6.01168 42.7465 6.05109L42.983 6.12992C53.2049 9.55913 59.7085 20.0832 58.1056 30.6073C56.2137 43.0891 44.8881 51.4322 32.3406 49.5796C26.4282 48.7125 21.0151 45.2964 17.4808 40.238C13.9727 35.219 12.6589 29.0175 13.8545 23.2496C15.6151 14.8015 20.7392 9.02044 29.0691 6.06423C30.6589 5.49927 31.3552 4.32992 30.9085 2.98978C30.7114 2.41167 30.3435 1.96496 29.8311 1.71532C29.2136 1.41313 28.4516 1.41313 27.6238 1.70218C18.5056 4.88175 12.5275 11.1226 9.84717 20.254C9.51871 21.3708 9.32163 22.5402 9.13768 23.657C9.04571 24.1694 8.96688 24.6818 8.86177 25.1942C8.84863 25.2336 8.84863 25.273 8.84863 25.3124L8.86177 29.5037L8.92746 29.8847C8.96688 30.1475 9.01944 30.4102 9.04571 30.6862C9.92601 38.0964 13.9202 44.876 20.0034 49.3037C24.6545 52.6935 30.0676 54.4541 35.6122 54.4541C37.3333 54.4541 39.0545 54.2833 40.7757 53.9417Z" fill="#070707"/>
<path d="M29.6211 17.5155V30.6673C29.3714 30.6542 29.1218 30.641 28.8722 30.6279C27.8473 30.5753 26.8619 30.5359 25.8765 30.5491C22.7495 30.6016 20.2532 33.0717 20.0561 36.2907C19.8721 39.2863 22.1714 42.0717 25.1802 42.5053C25.9291 42.6104 26.678 42.6104 27.4006 42.6104H27.6503H27.6634C29.6342 42.6104 31.2897 42.006 32.4459 40.8498C33.6021 39.6936 34.2196 38.0381 34.2196 36.0542V34.1753C34.2196 31.5476 34.2327 28.9199 34.1933 26.3052C34.1933 25.8323 34.2065 25.8191 34.6006 25.714C36.4926 25.2016 38.3714 24.6366 40.2371 24.0717L44.3627 22.8498V27.6585C44.1131 27.6454 43.8766 27.6454 43.6269 27.6323C42.6021 27.5928 41.5247 27.5403 40.4736 27.5797C37.6357 27.6848 35.1787 29.9709 34.8897 32.7826C34.5612 35.8834 36.3612 38.6294 39.1729 39.3257C40.4211 39.641 41.7481 39.6016 42.9174 39.5753C46.478 39.4965 48.9612 36.9476 48.9744 33.3739C48.9875 27.1067 48.9744 20.8396 48.9744 14.5724V13.0746C48.9744 11.8264 48.4751 11.1957 48.0547 10.8804C47.6342 10.5651 46.8853 10.2629 45.6634 10.6045L31.7627 14.5987C30.0809 15.0979 29.6211 15.7286 29.6211 17.5155ZM26.4152 35.1213C26.5335 35.1213 26.6649 35.1213 26.7831 35.1213H27.1773H27.5714C27.8079 35.1213 28.0313 35.1082 28.2678 35.1345C29.0035 35.2002 29.5554 35.7783 29.6079 36.5009C29.6473 37.2235 29.1349 37.8673 28.4517 37.9461C27.5977 38.0513 26.7174 38.0513 25.8371 37.9593C25.1408 37.8804 24.6152 37.2629 24.6415 36.5272C24.6678 35.7783 25.2459 35.187 26.0079 35.1345C26.1393 35.1345 26.2707 35.1213 26.4152 35.1213ZM34.2065 21.0629C34.2065 20.2483 34.2065 19.4731 34.2196 18.6979C37.57 17.7257 40.9203 16.7534 44.3627 15.768V18.0541L34.2065 21.0629ZM44.3758 33.5578C44.389 34.2804 43.8503 34.898 43.1539 34.9768C42.8649 35.0031 42.5758 35.0031 42.2736 34.9899L41.8401 34.9768C41.6955 34.9768 41.551 34.9768 41.4065 34.9899C41.1437 35.0031 40.8678 35.0162 40.605 34.9768C39.9087 34.8848 39.4094 34.2804 39.4225 33.5315C39.4357 32.7958 39.9349 32.2308 40.605 32.1783C41.4722 32.1126 42.3525 32.1126 43.1933 32.1783C43.8503 32.2439 44.3758 32.8483 44.3758 33.5578Z" fill="#070707"/>
<path d="M67.7488 19.6213C69.3123 21.0928 70.8758 22.5512 72.4525 24.0228C72.7809 24.325 73.7663 25.2578 75.159 24.6666C76.105 24.2724 76.578 23.4578 76.5517 22.249C76.5386 21.4476 76.5386 20.633 76.5386 19.8052V19.4374C78.8116 19.8184 80.1517 21.1454 80.5328 23.3921C80.6247 23.9439 80.6247 24.522 80.6247 25.2447C80.6247 26.7162 80.6247 28.1746 80.6247 29.6461C80.6247 31.2359 80.6247 32.8257 80.6247 34.4155C80.6247 36.0841 81.5313 37.0169 83.1474 37.0432C84.4087 37.0564 85.6569 37.0564 86.9182 37.0564C88.1795 37.0564 89.4277 37.0564 90.689 37.0432C92.2919 37.0301 93.1853 36.1235 93.1853 34.4943L93.1985 31.4461C93.2116 28.7133 93.2247 25.8885 93.1722 23.1031C93.0802 18.268 91.1357 14.2476 87.3912 11.1337C84.4218 8.62421 80.8612 7.2315 76.8276 6.98187C76.6306 6.96873 76.5386 6.94245 76.5123 6.95559C76.4992 6.91617 76.4992 6.83734 76.5123 6.67968C76.5517 6.11471 76.5386 5.54975 76.5386 4.98479C76.5386 4.72201 76.5255 4.4461 76.5255 4.18332C76.5386 2.83004 75.7634 2.22566 75.1328 1.94975C74.5152 1.68697 73.5561 1.55558 72.5576 2.48843L69.6539 5.20814C67.4072 7.28406 65.1736 9.37311 62.94 11.4753C62.3357 12.0534 62.0203 12.6578 62.0203 13.3016C62.0203 13.9454 62.3357 14.5498 62.94 15.1279C64.543 16.6257 66.1459 18.1235 67.7488 19.6213ZM88.5999 32.379H85.2233C85.2233 32.3133 85.2233 32.2345 85.2233 32.1556C85.2233 31.3147 85.2233 30.4739 85.2233 29.6461C85.2364 27.8855 85.2364 26.125 85.1839 24.3775C85.0262 18.7541 81.689 15.233 76.0393 14.6943C74.5941 14.5629 73.5298 14.5103 72.8203 15.1147C72.2685 15.5877 72.0846 16.3366 71.9926 17.322L67.6963 13.3016L71.9795 9.29428C72.1766 10.8446 73.0174 11.4622 74.8306 11.4622C76.8802 11.4622 78.6802 11.7512 80.3225 12.3162C85.578 14.1293 88.5999 18.3468 88.5999 23.8914V29.9483V32.379Z" fill="#070707"/>
<path d="M88.6263 43.6115C85.1708 40.1692 80.5985 38.264 75.7503 38.264C75.7372 38.264 75.7372 38.264 75.724 38.264C65.6598 38.2772 57.4875 46.4757 57.4875 56.5531C57.4875 61.4144 59.3926 65.9998 62.8481 69.4422C66.3036 72.8845 70.8759 74.7765 75.7372 74.7765C75.7372 74.7765 75.7503 74.7765 75.7635 74.7765C80.6379 74.7765 85.2102 72.8714 88.6657 69.4159C92.108 65.9604 94.0131 61.375 94 56.5137C94 51.6524 92.0949 47.067 88.6263 43.6115ZM75.7372 70.1911C75.7109 70.1911 75.6978 70.1911 75.6715 70.1911C72.0321 70.1779 68.6029 68.7458 66.0408 66.1575C63.4656 63.556 62.0598 60.0874 62.0729 56.4086C62.1124 48.9327 68.2481 42.8626 75.7372 42.8626C75.7503 42.8626 75.7635 42.8626 75.7766 42.8626C79.416 42.8757 82.8452 44.3078 85.4204 46.8962C88.0087 49.4976 89.4277 52.9662 89.4146 56.6319C89.3883 64.121 83.2525 70.1911 75.7372 70.1911Z" fill="#070707"/>
<path d="M55.0967 65.0528C53.0997 63.1871 51.1026 61.3214 49.1055 59.4557C48.6982 59.0616 47.7259 58.155 46.3464 58.7331C44.888 59.3506 44.9011 60.809 44.9011 61.2951C44.9142 62.0835 44.9142 62.8718 44.9011 63.6732V64.0937C42.1288 64.0017 41.0383 62.8455 40.8018 59.8236C40.6836 58.444 39.8033 57.6032 38.4763 57.59C35.8485 57.5637 33.2339 57.5637 30.6062 57.59C29.9098 57.6032 29.2923 57.8528 28.885 58.2864C28.4777 58.7199 28.2675 59.3243 28.3069 60.0075L28.3201 60.2703C28.3858 61.5054 28.4514 62.7929 28.7668 64.028C30.304 70.0981 34.4296 74.0791 41.012 75.8528C42.0106 76.1287 43.0485 76.2733 44.0471 76.4046C44.3361 76.4441 44.6252 76.4835 44.9142 76.536V76.8514C44.9142 77.5083 44.9142 78.1652 44.9142 78.8222C44.9011 79.374 44.8748 80.8587 46.3332 81.4762C46.6486 81.6076 46.9376 81.6601 47.2135 81.6601C48.1464 81.6601 48.8164 81.0295 49.1449 80.7141C51.0632 78.901 52.9945 77.101 54.9259 75.301L58.2894 72.1608C58.7756 71.701 59.4325 70.9915 59.4325 70.0981C59.4325 69.2178 58.7887 68.5083 58.3026 68.0616L55.0967 65.0528ZM36.4792 62.2411C37.2281 65.828 39.6325 67.9433 43.6266 68.5214C44.7697 68.6922 45.9128 68.7448 46.885 68.7711C47.7391 68.7973 48.3566 68.6003 48.8164 68.1667C49.2763 67.7331 49.5128 67.0762 49.5259 66.1827C49.5259 66.1565 49.5259 66.1302 49.5259 66.1039L53.796 70.0849L49.4996 74.0922C49.3551 72.6733 48.5011 71.9243 47.0164 71.9243H47.0033C44.2573 71.9506 42.0369 71.5433 40.0792 70.7024C36.1639 69.0076 33.8777 66.2221 33.1025 62.228H36.4792V62.2411Z" fill="#070707"/>
<path d="M35.8879 4.97087C35.8879 4.97087 35.901 4.97087 35.8879 4.97087C36.4923 4.97087 37.0835 4.72124 37.504 4.27452C37.9375 3.81467 38.1872 3.21029 38.1609 2.59277C38.1215 1.35773 37.1229 0.411743 35.8748 0.411743C35.8616 0.411743 35.8222 0.411743 35.8222 0.411743C34.574 0.438021 33.5755 1.47598 33.5886 2.71102C33.6149 3.93291 34.666 4.97087 35.8879 4.97087Z" fill="#070707"/>
<path d="M77.9975 53.9479C76.9333 53.5275 75.9873 53.1464 75.107 52.6603C74.9888 52.5946 74.7917 52.3056 74.7654 52.2399C74.8311 51.9377 75.1202 51.5435 75.3567 51.4253C76.053 51.0837 76.7362 51.3727 77.1961 51.6749C77.8793 52.1216 78.5888 52.2924 79.2326 52.161C79.7975 52.0428 80.2705 51.7012 80.6121 51.1888C81.3085 50.1114 80.98 48.7581 79.7056 47.8384C79.5479 47.7201 79.3508 47.5756 79.088 47.4968C78.2209 47.2472 77.9318 46.9055 77.945 46.0647C77.945 45.5523 77.7348 45.0661 77.3537 44.7114C76.8807 44.2778 76.1975 44.0676 75.5275 44.1333C74.4238 44.2384 73.6092 45.0924 73.5041 46.2618C73.491 46.38 73.5041 46.5114 73.5041 46.6296C73.5041 46.6953 73.5172 46.7873 73.5172 46.8136C73.399 47.142 73.3202 47.234 73.3333 47.234C71.3231 48.2326 70.2194 49.9274 70.1406 52.161C70.0618 54.2238 71.0734 55.8267 73.0574 56.8121C73.872 57.2063 74.6997 57.561 75.5143 57.8895C75.8559 58.034 76.1975 58.1654 76.526 58.3099C77.3537 58.6647 77.4326 59.0851 77.4063 59.4399C77.3537 60.2807 76.6837 60.9377 75.8428 60.9902C74.8574 61.0691 74.0428 60.872 73.2545 60.399C72.5056 59.9523 71.6647 59.8997 70.9289 60.2545C70.18 60.6224 69.6807 61.3713 69.5756 62.2778C69.5625 62.4224 69.5888 62.58 69.6807 62.7114C69.7596 62.8297 69.8121 62.9479 69.8778 63.0793C70.0618 63.4472 70.2851 63.8545 70.6793 64.1172C71.5596 64.7216 72.3742 65.1026 73.1494 65.2997C73.399 65.3654 73.4515 65.418 73.4515 65.418C73.4515 65.418 73.491 65.4837 73.491 65.7596C73.491 66.6267 73.872 67.3888 74.5158 67.8224C74.8705 68.072 75.291 68.1902 75.7114 68.1902C76.0004 68.1902 76.2764 68.1377 76.5654 68.0326C77.288 67.7435 78.1421 67.0735 78.0501 65.4705C78.0369 65.2078 78.0369 65.1683 78.3654 65.0107C80.7304 63.8807 81.9786 61.8837 81.9917 59.2559C82.0048 56.8515 80.5859 54.9727 77.9975 53.9479Z" fill="#070707"/>
</svg>
