<svg width="111" height="22" viewBox="0 0 111 22" fill="none" xmlns="http://www.w3.org/2000/svg">
<path d="M26.6752 14.6486C26.6752 19.0654 29.398 21.7075 33.4316 21.7075C35.4485 21.7075 37.1426 21.1428 38.0905 19.6705V21.7075H41.7814V0.671875H37.9494V9.60647C37.0821 8.13418 35.4686 7.46862 33.4518 7.46862C29.519 7.46862 26.6752 10.1712 26.6752 14.6486ZM38.0704 14.6486C38.0704 17.1696 36.3561 18.7428 34.2989 18.7428C32.161 18.7428 30.5274 17.1696 30.5274 14.6486C30.5274 12.0872 32.1812 10.4737 34.2989 10.4737C36.3561 10.4737 38.0704 12.1074 38.0704 14.6486Z" fill="black"/>
<path d="M53.7012 16.2814C53.2575 17.915 52.1482 18.7217 50.3936 18.7217C48.3566 18.7217 46.6826 17.4915 46.6423 15.3133H56.3029C56.4239 14.7687 56.4844 14.204 56.4844 13.5788C56.4844 9.66612 53.8222 7.46777 49.8894 7.46777C45.6944 7.46777 42.8103 10.4527 42.8103 14.5065C42.8103 19.0243 45.9969 21.7268 50.3936 21.7268C53.7214 21.7268 55.9802 20.3352 56.9685 17.5721L53.7012 16.2814ZM46.6423 12.7519C47.0053 11.1788 48.3162 10.251 49.8894 10.251C51.6037 10.251 52.7735 11.1788 52.7735 12.6309L52.7533 12.7519H46.6423Z" fill="black"/>
<path d="M67.92 16.2814C67.4763 17.915 66.367 18.7217 64.6124 18.7217C62.5754 18.7217 60.9014 17.4915 60.8611 15.3133H70.5217C70.6427 14.7687 70.7032 14.204 70.7032 13.5788C70.7032 9.66612 68.041 7.46777 64.1082 7.46777C59.9131 7.46777 57.0291 10.4527 57.0291 14.5065C57.0291 19.0243 60.2157 21.7268 64.6124 21.7268C67.9402 21.7268 70.199 20.3352 71.1873 17.5721L67.92 16.2814ZM60.8611 12.7519C61.2241 11.1788 62.535 10.251 64.1082 10.251C65.8225 10.251 66.9923 11.1788 66.9923 12.6309L66.9721 12.7519H60.8611Z" fill="black"/>
<path d="M84.2162 21.7268V18.2579H76.169L83.9943 10.6342V7.46777H71.6109V10.7754H79.1741L71.3689 18.4192V21.7268H84.2162Z" fill="black"/>
<path d="M95.409 16.2814C94.9653 17.915 93.8561 18.7217 92.1014 18.7217C90.0644 18.7217 88.3904 17.4915 88.3501 15.3133H98.0108C98.1318 14.7687 98.1923 14.204 98.1923 13.5788C98.1923 9.66612 95.5301 7.46777 91.5972 7.46777C87.4022 7.46777 84.5181 10.4527 84.5181 14.5065C84.5181 19.0243 87.7047 21.7268 92.1014 21.7268C95.4292 21.7268 97.6881 20.3352 98.6763 17.5721L95.409 16.2814ZM88.3501 12.7519C88.7131 11.1788 90.0241 10.251 91.5972 10.251C93.3115 10.251 94.4813 11.1788 94.4813 12.6309L94.4611 12.7519H88.3501Z" fill="black"/>
<path d="M107.268 12.3911C107.268 12.5323 107.268 12.7945 107.268 12.7945H110.999C110.999 12.7945 110.999 12.0886 110.999 11.7054C110.999 9.26504 109.467 7.49022 106.905 7.49022C105.251 7.49022 104.082 8.29696 103.477 9.62807V7.49022H99.6245V21.7291H103.477V12.5525C103.477 11.1004 104.263 10.2936 105.453 10.2936C106.562 10.3138 107.268 11.3424 107.268 12.3911Z" fill="black"/>
<path d="M22.7426 7.46777H18.0232V10.2308H22.7426V7.46777Z" fill="black"/>
<path d="M22.7426 11.3003H18.0232V14.0634H22.7426V11.3003Z" fill="black"/>
<path d="M22.7426 15.1328H18.0232V17.8959H22.7426V15.1328Z" fill="black"/>
<path d="M5.61979 18.9653H0.900391V21.7284H5.61979V18.9653Z" fill="black"/>
<path d="M11.3277 18.9653H6.60826V21.7284H11.3277V18.9653Z" fill="black"/>
<path d="M17.0347 18.9653H12.3153V21.7284H17.0347V18.9653Z" fill="black"/>
<path d="M22.7426 18.9653H18.0232V21.7284H22.7426V18.9653Z" fill="black"/>
<path d="M17.0347 15.1328H12.3153V17.8959H17.0347V15.1328Z" fill="black"/>
<path d="M11.3277 15.1328H6.60826V17.8959H11.3277V15.1328Z" fill="black"/>
<path d="M11.3277 11.3003H6.60826V14.0634H11.3277V11.3003Z" fill="black"/>
</svg>
