<svg width="75" height="71" viewBox="0 0 75 71" fill="none" xmlns="http://www.w3.org/2000/svg">
<path d="M14.9378 3H4.97547L0 11.6249L4.97547 20.2498H14.9378L19.9246 11.6249L14.9378 3Z" fill="#FF1241"/>
<path d="M67.8674 44.13C67.7474 44.04 67.7174 44 67.7074 44C67.7074 43.99 67.7174 43.94 67.7674 43.81C68.5474 42.05 69.1774 40.19 69.6274 38.26C70.3274 35.25 70.5574 32.05 70.2974 28.81C70.3074 27.87 70.1574 26.95 70.0074 26.07L69.9974 25.96C68.9574 19.88 66.2274 14.43 61.8874 9.76C60.0874 7.83 57.9374 6.09 55.4974 4.6C52.0174 2.47 48.2274 1.06 44.2374 0.4C43.8774 0.34 43.5174 0.31 43.1574 0.28C42.5774 0.23 42.0374 0.18 41.5174 0.02L36.8674 0L36.7674 0.14C36.7574 0.14 36.7474 0.13 36.7474 0.14C34.5474 0.23 32.2374 0.67 29.7074 1.5C23.0774 3.65 17.6574 7.66 13.5974 13.41C10.9374 17.18 9.19743 21.45 8.40743 26.1C8.15743 27.61 7.91743 29.22 8.02743 30.84C8.00743 33.67 8.28743 36.18 8.87743 38.53C10.9874 46.88 15.7674 53.4 23.0674 57.91C27.9374 60.92 33.4174 62.44 39.3574 62.44C39.4174 62.44 39.4774 62.44 39.5374 62.44C41.4874 62.43 43.4674 62.22 45.6274 61.77C45.7174 61.75 45.8574 61.72 45.8774 61.72C45.8774 61.72 45.9074 61.75 45.9474 61.84C48.4474 67.53 53.5474 70.88 59.5374 70.88C60.1374 70.88 60.7474 70.85 61.3674 70.78C68.2474 70.02 73.8774 64.04 74.1774 57.17C74.4274 51.7 72.3074 47.31 67.8674 44.13ZM45.0274 58.71C45.0374 58.77 45.0374 58.81 45.0374 58.85C45.0074 58.86 44.9774 58.86 44.9374 58.87C32.6574 61.36 20.0374 55.38 14.2374 44.34C12.4274 40.89 11.3674 37.25 11.0874 33.52C11.0374 32.87 11.0174 32.22 11.0074 31.57L10.9874 30.86C11.0574 29.38 11.1574 27.81 11.4474 26.26C11.8474 24.14 12.4674 22.04 13.3074 20.02C14.1674 17.95 15.3574 15.92 16.8474 13.99C19.0874 11.11 21.8074 8.71 24.9374 6.87C28.0474 5.05 31.2974 3.87 34.6174 3.36C36.1874 3.12 37.7374 3 39.2674 3C43.2274 3 47.0374 3.8 50.6374 5.41C54.3074 7.04 57.5174 9.38 60.1974 12.37C63.7074 16.27 65.9674 20.88 66.9274 26.06C67.0474 26.72 67.1374 27.39 67.2374 28.07L67.3674 28.97C67.6774 32.7 67.2274 36.43 66.0174 40.05C65.8474 40.56 65.6474 41.06 65.4474 41.56C65.3074 41.91 65.1674 42.27 65.0374 42.62C59.7874 40.61 54.9374 41.26 50.6374 44.54C46.0774 48.01 44.1774 52.78 45.0274 58.71ZM51.1274 48.02C53.3574 45.76 56.3274 44.52 59.4974 44.52C66.0574 44.52 71.1974 49.63 71.1974 56.16C71.1974 59.31 69.9874 62.26 67.7874 64.47C65.5874 66.68 62.6374 67.9 59.4974 67.9H59.4874C53.0074 67.9 47.8674 62.78 47.7774 56.24C47.7474 53.16 48.9374 50.24 51.1274 48.02Z" fill="black"/>
<path d="M53.5774 35.4701C53.5974 33.8001 53.5874 32.1401 53.5774 30.4701L53.5674 28.3101L53.5774 13.7801C53.5774 13.1101 53.3874 12.6301 53.0174 12.3401C52.6474 12.0501 52.1374 11.9801 51.4874 12.1401C44.9774 13.7401 38.4674 15.3501 31.9574 16.9601C30.8174 17.2401 30.4574 17.7201 30.4574 18.9301V20.1701C30.4574 22.6501 30.4574 25.1201 30.4574 27.6001C30.4574 27.7801 30.4774 27.9701 30.4974 28.1501L30.5174 39.4201C27.9974 38.0601 24.6274 38.3801 22.6074 40.2901C21.4474 41.3901 20.8374 42.8801 20.9374 44.3701C21.0374 45.8701 21.8074 47.2101 23.1074 48.1501C24.3874 49.0701 25.7474 49.5301 27.1474 49.5301C28.2074 49.5301 29.2974 49.2601 30.3774 48.7301C32.3874 47.7401 33.4574 46.1401 33.4774 44.1001C33.5074 40.3301 33.4974 36.5601 33.4774 32.8001L33.4674 28.3801C33.5474 27.5001 33.5474 27.5001 34.4674 27.3101C34.6274 27.2801 34.7874 27.2401 34.9574 27.2001L50.5174 23.3501C50.5574 23.3401 50.6074 23.3301 50.6574 23.3201C50.6574 23.3801 50.6574 23.4301 50.6574 23.4901L50.6874 28.3201L50.6774 29.1301C50.6774 29.6901 50.6674 30.2501 50.6774 30.8101C48.2074 29.5201 45.7074 29.6501 43.4174 31.1901C42.0574 32.1101 41.2074 33.5001 41.0874 35.0101C40.9674 36.5101 41.5874 38.0101 42.7774 39.1101C44.8174 41.0001 47.3274 41.4301 50.0174 40.3501C52.3074 39.4201 53.5474 37.7401 53.5774 35.4701ZM49.9874 36.9001C49.3074 37.5801 48.4174 37.9001 47.2374 37.9301C45.8474 37.8401 44.9074 37.3501 44.2974 36.3901C43.9074 35.7801 43.9274 34.6601 44.5674 34.0201C45.3674 33.2101 46.5574 32.8001 47.7774 32.9201C48.8474 33.0201 49.7574 33.5301 50.2774 34.3101C50.8674 35.2001 50.7574 36.1401 49.9874 36.9001ZM50.6574 17.3801L50.6474 18.4301C50.6374 18.9801 50.6374 19.5401 50.6674 20.0901C50.6774 20.1901 50.6574 20.2301 50.6574 20.2401C50.6474 20.2501 50.6074 20.2801 50.4574 20.3101C48.0774 20.8901 45.7074 21.4701 43.3374 22.0601L37.8674 23.4001C36.4074 23.7501 34.9474 24.1101 33.4974 24.4801C33.5174 22.9301 33.5174 21.3801 33.4974 19.8301C33.4974 19.7501 33.5074 19.7101 33.4974 19.7001C33.5074 19.6901 33.5474 19.6801 33.6174 19.6601C39.3074 18.2601 44.9874 16.8501 50.6674 15.4301C50.6374 15.9701 50.6474 16.5101 50.6474 17.0601L50.6574 17.3801ZM30.4774 44.0601C30.4874 44.6701 30.2174 45.1801 29.5974 45.7101C28.3674 46.7501 26.0374 46.7601 24.8074 45.7101C24.2174 45.2101 23.8974 44.6001 23.9074 43.9901C23.9174 43.3701 24.2474 42.7701 24.8474 42.2801C25.4874 41.7601 26.3174 41.5101 27.1574 41.5101C28.2074 41.5101 29.2574 41.9001 29.9474 42.6501C30.3274 43.0801 30.4774 43.4701 30.4774 44.0601Z" fill="black"/>
<path d="M53.6378 58.7499C53.7678 58.8699 53.7778 58.9099 53.7478 59.0599C53.6078 59.8199 53.4778 60.5899 53.3578 61.3499C53.2478 62.0399 53.1278 62.7299 53.0078 63.4199C52.9278 63.8399 52.7878 64.6299 53.4778 65.2099C54.2578 65.8399 55.0778 65.4099 55.4278 65.2299C55.7778 65.0499 56.1178 64.8699 56.4678 64.6899C57.2978 64.2599 58.1678 63.8099 58.9978 63.3299C59.4078 63.0899 59.6378 63.0899 60.0378 63.3199C60.8678 63.7999 61.7378 64.2499 62.5778 64.6899C62.9978 64.9099 63.4278 65.1299 63.8478 65.3499C64.1078 65.4899 64.3678 65.5599 64.6278 65.5599C64.9578 65.5599 65.2678 65.4499 65.5478 65.2199C65.8678 64.9599 66.2178 64.4899 66.0778 63.7099C65.9778 63.1199 65.8778 62.5399 65.7878 61.9499C65.6378 61.0099 65.4778 60.0699 65.2978 59.1399C65.2578 58.9399 65.2778 58.8799 65.4578 58.7199C66.0778 58.1299 66.6978 57.5199 67.3178 56.9299L68.4478 55.8299C68.7778 55.5099 69.1978 55.1099 69.2778 54.4499L69.2878 54.3899L69.2778 54.3299C69.1878 53.5099 68.6878 52.9899 67.8678 52.8699C67.3678 52.7999 66.8778 52.7199 66.3778 52.6499C65.3678 52.4999 64.3578 52.3399 63.3378 52.2199C63.0978 52.1899 63.0278 52.1399 62.9178 51.9099C62.5378 51.1099 62.1478 50.3099 61.7578 49.5199L61.0378 48.0499C60.8678 47.7099 60.4878 46.9199 59.5678 46.8899C59.5478 46.8899 59.5378 46.8899 59.5278 46.8899C58.5878 46.8899 58.1878 47.6999 58.0178 48.0499L57.2178 49.6699C56.8378 50.4399 56.4578 51.1999 56.0878 51.9699C55.9978 52.1499 55.9478 52.1899 55.7678 52.2199C55.0078 52.3199 54.2478 52.4299 53.4878 52.5499C52.7878 52.6599 52.0878 52.7599 51.3878 52.8599C51.0278 52.9099 50.1778 53.0199 49.8578 53.9199C49.5378 54.8099 50.1378 55.3799 50.4578 55.6999L51.5978 56.7999C52.2678 57.4199 52.9478 58.0899 53.6378 58.7499ZM62.2878 59.3199C62.4378 59.8499 62.5178 60.3999 62.5978 60.9799C62.6178 61.0999 62.6278 61.2099 62.6478 61.3299L62.2678 61.1299C61.6678 60.8199 61.0678 60.5099 60.4778 60.1899C59.8378 59.8399 59.2178 59.8499 58.5278 60.1999C58.2478 60.3399 57.9778 60.4999 57.6978 60.6499C57.2478 60.8999 56.8178 61.1399 56.3778 61.3399C56.4378 60.8099 56.5478 60.2799 56.6578 59.7299C56.7078 59.4899 56.7578 59.2499 56.7978 59.0099C56.9478 58.2099 56.7478 57.5799 56.1678 57.0299C55.5978 56.4899 55.0278 55.9399 54.4678 55.3999L54.5478 55.3899C55.2978 55.2799 56.0278 55.1599 56.7678 55.0699C57.5878 54.9699 58.1478 54.5799 58.4778 53.8599C58.7878 53.1899 59.1178 52.5199 59.4578 51.8599L59.5278 51.7299C59.8878 52.4399 60.2478 53.1499 60.5878 53.8699C60.9178 54.5899 61.4778 54.9899 62.2978 55.0799C63.0178 55.1599 63.7378 55.2699 64.4878 55.3799L64.6078 55.3999C64.1578 55.8699 63.6878 56.2799 63.2278 56.6899L63.1278 56.7799C62.5778 57.2399 61.9178 58.0199 62.2878 59.3199Z" fill="black"/>
</svg>
