<svg width="78" height="70" viewBox="0 0 78 70" fill="none" xmlns="http://www.w3.org/2000/svg">
<path d="M14.7807 5.36572H4.92317L0 13.9L4.92317 22.4342H14.7807L19.7151 13.9L14.7807 5.36572Z" fill="#FF1241"/>
<path d="M29.525 39.7335C26.3943 40.5818 23.3597 41.4126 20.3077 42.2084C19.8879 42.3133 19.9141 42.5494 19.9054 42.8555C19.7917 45.8201 17.4218 48.1288 14.4921 48.1463C11.8773 48.1638 9.64732 46.3361 9.11387 43.7388C8.60665 41.2814 9.9534 38.7365 12.2709 37.7221C14.6583 36.6814 17.4305 37.4598 18.9172 39.5761C19.0484 39.7597 19.162 39.9521 19.3282 40.197C22.5114 39.34 25.7034 38.4829 28.9304 37.6172C28.2045 33.1484 29.2539 29.1956 32.0611 25.7675C30.3034 24.0097 28.5631 22.2607 26.7878 20.4767C24.0418 22.5668 20.9111 23.3713 17.4392 22.593C14.772 21.9896 12.6119 20.5554 10.9941 18.3429C7.69716 13.8129 8.32681 7.60382 12.4633 3.7647C16.521 0.0130318 22.8088 -0.0831647 27.0764 3.55482C31.1954 7.06162 32.4722 13.6555 28.5019 18.7889C30.2509 20.5379 31.9912 22.2782 33.7839 24.0622C35.8215 22.3569 38.2352 21.2375 40.9637 20.844C43.6834 20.4504 46.2895 20.8527 48.8693 21.9808C49.5689 20.7128 50.2598 19.4535 50.9681 18.1767C49.6651 17.0748 48.8518 15.7193 48.5632 14.0402C47.9598 10.4897 50.356 7.15782 54.0202 6.48444C57.3783 5.86353 60.8239 8.21598 61.5148 11.6004C62.503 16.4452 58.2266 20.5554 53.4168 19.366C53.067 19.2786 52.8483 19.2698 52.6472 19.6546C52.07 20.774 51.4491 21.8584 50.8107 23.0215C54.3962 25.5051 56.5388 28.907 57.1684 33.3495C60.8764 33.2096 64.5843 33.0784 68.3185 32.9385C68.6333 31.8716 69.1493 30.9796 70.0326 30.3325C72.0789 28.8458 74.9298 29.3792 76.2853 31.5043C77.6233 33.6031 76.9325 36.3928 74.7637 37.6347C72.5774 38.8852 69.7615 38.0369 68.7033 35.7457C68.4584 35.221 68.1961 35.1161 67.6801 35.1423C64.2345 35.2997 60.7802 35.4221 57.2472 35.5533C57.0373 38.789 55.9616 41.7011 53.9065 44.1323C55.6818 45.9076 57.4395 47.6566 59.2061 49.4144C64.4444 45.3479 71.2306 46.887 74.6762 51.2508C78.1043 55.5884 77.702 62.0424 73.7143 65.8815C69.604 69.843 63.2988 70.0617 58.97 66.4324C54.8247 62.9518 53.4518 56.3755 57.457 51.1546C55.708 49.4144 53.959 47.6828 52.2449 45.995C51.0731 46.6596 49.8925 47.4817 48.5895 48.0589C45.1789 49.5718 41.6808 49.6505 38.1652 48.3999C37.6843 48.225 37.5006 48.3212 37.2907 48.7672C36.6523 50.114 35.9702 51.4258 35.2793 52.8162C37.3957 54.4253 38.5675 56.5679 38.5588 59.2614C38.55 61.1329 37.8854 62.7944 36.6611 64.2199C34.2562 67.0271 30.0935 67.6742 26.8665 65.7416C23.6833 63.8351 22.3453 59.8473 23.6833 56.3493C24.8726 53.2272 28.5543 50.4638 33.3204 51.8105C34.0813 50.2976 34.8421 48.776 35.6292 47.2106C32.752 45.4003 30.7231 42.943 29.525 39.7335ZM42.9751 47.0532C49.6564 47.0357 55.0784 41.6137 55.0609 34.9586C55.0434 28.2424 49.6301 22.8816 42.8876 22.8903C36.2588 22.8991 30.8718 28.3823 30.898 35.0811C30.9243 41.6574 36.39 47.0707 42.9751 47.0532ZM30.9505 53.647C27.9422 53.6208 25.4498 56.0432 25.4061 59.034C25.3624 62.0861 27.7848 64.5872 30.8106 64.6309C33.8539 64.6659 36.3725 62.2347 36.39 59.2177C36.4075 56.1656 33.9763 53.682 30.9505 53.647ZM26.5692 17.5033C29.114 14.8973 29.8311 9.43155 26.1582 5.71487C22.6076 2.12061 16.8358 2.2343 13.4165 5.97722C9.90093 9.81634 10.8804 15.1946 13.1279 17.3634C13.469 16.3315 13.6788 15.1334 14.2473 14.1452C14.8245 13.1482 15.7602 12.3699 16.5647 11.4604C15.0955 9.32661 15.1655 7.11409 16.8271 5.47C18.3313 3.98333 20.7012 3.79094 22.4327 4.99777C23.2898 5.60118 23.8669 6.40573 24.1468 7.41143C24.584 8.98555 24.1555 10.376 23.1673 11.6091C25.581 13.4368 25.9833 14.1364 26.5692 17.5033ZM62.7916 57.7835C61.2262 55.1424 61.3749 52.9474 63.1939 51.3995C64.8292 50.0003 67.2166 49.9828 68.8695 51.3558C69.709 52.0554 70.2162 52.9649 70.3911 54.0405C70.6185 55.431 70.1812 56.6466 69.2717 57.7572C71.4843 59.1302 72.5949 61.1066 72.6736 63.7214C75.612 60.477 75.7606 54.8101 71.7728 51.347C68.0037 48.0764 62.2057 48.671 59.1361 52.5976C55.9441 56.6816 57.3871 61.8237 59.4509 63.6252C59.5034 61.0804 60.6403 59.1302 62.7916 57.7835ZM55.0609 17.3984C57.492 17.3984 59.4597 15.4132 59.4509 12.9821C59.4422 10.5859 57.4833 8.61826 55.0871 8.60951C52.656 8.60077 50.6708 10.5597 50.6621 12.9908C50.6621 15.4132 52.6385 17.3984 55.0609 17.3984ZM14.3959 39.3749C12.6032 39.3837 11.134 40.8616 11.1253 42.6544C11.1165 44.4734 12.6032 45.96 14.4397 45.96C16.2237 45.96 17.7103 44.4734 17.7103 42.6806C17.7103 40.8529 16.2237 39.3662 14.3959 39.3749ZM24.1205 16.279C23.5958 14.2501 21.7856 12.9296 19.7217 13.0083C17.8065 13.0783 16.0488 14.5125 15.7427 16.279C18.5149 16.279 21.2959 16.279 24.1205 16.279ZM70.2512 62.4096C69.7265 60.3808 67.9162 59.0603 65.8524 59.139C63.9372 59.2089 62.1794 60.6431 61.8733 62.4096C64.6543 62.4096 67.4352 62.4096 70.2512 62.4096ZM60.3692 64.6572C63.7798 67.7442 69.0968 67.2719 71.6592 64.6572C67.925 64.6572 64.217 64.6572 60.3692 64.6572ZM14.2648 18.509C17.5792 21.666 23.211 21.0801 25.4848 18.509C21.7768 18.509 18.0776 18.509 14.2648 18.509ZM22.1092 8.58328C22.0917 7.38519 21.1035 6.41448 19.9054 6.41448C18.6811 6.41448 17.6929 7.44641 17.7191 8.67073C17.7541 9.86881 18.7598 10.822 19.9579 10.8045C21.1472 10.7871 22.1266 9.77262 22.1092 8.58328ZM68.2398 54.7402C68.2311 53.5421 67.2603 52.5626 66.0535 52.5539C64.8292 52.5451 63.8235 53.5596 63.8497 54.7839C63.8672 55.982 64.8642 56.9439 66.0623 56.9352C67.2603 56.9352 68.2486 55.9295 68.2398 54.7402ZM72.6036 31.6792C71.4055 31.6967 70.4348 32.6936 70.4523 33.8917C70.4698 35.0898 71.4493 36.0693 72.6474 36.0693C73.8717 36.0693 74.8686 35.0461 74.8424 33.8218C74.8074 32.6237 73.8017 31.6617 72.6036 31.6792Z" fill="black" stroke="black" stroke-width="0.75"/>
<path d="M40.3602 35.4046C38.55 34.259 37.5268 32.6936 37.4918 30.5861C37.4656 29.0207 38.0515 27.6827 39.1709 26.5983C41.4184 24.412 45.0301 24.5869 47.129 26.9568C48.913 28.9682 49.3327 32.9647 45.6335 35.4309C45.8434 35.5271 46.0096 35.597 46.1845 35.6845C48.9305 37.0575 50.4346 39.2787 50.6533 42.3395C50.7232 43.3452 50.2947 43.765 49.2803 43.765C45.0739 43.765 40.8587 43.765 36.6523 43.765C35.6728 43.765 35.2443 43.3452 35.3055 42.3833C35.4979 39.4099 36.9146 37.1974 39.5557 35.7982C39.7918 35.667 40.0367 35.562 40.3602 35.4046ZM48.3096 41.5437C47.8461 38.8677 45.31 36.9788 42.529 37.1799C40.1154 37.3548 37.7454 39.4886 37.7017 41.5437C41.226 41.5437 44.7415 41.5437 48.3096 41.5437ZM46.2719 30.5861C46.2719 28.7671 44.7853 27.2804 42.9575 27.2891C41.1735 27.2891 39.6868 28.7846 39.6956 30.5686C39.6956 32.3963 41.191 33.883 43.01 33.8742C44.8028 33.8567 46.2632 32.3788 46.2719 30.5861Z" fill="black" stroke="black" stroke-width="0.75"/>
</svg>
