<svg width="77" height="67" viewBox="0 0 77 67" fill="none" xmlns="http://www.w3.org/2000/svg">
<path d="M15.0498 0H5.0128L0 8.68961L5.0128 17.3792H15.0498L20.074 8.68961L15.0498 0Z" fill="#FF1241"/>
<path d="M72.1271 3.69784C71.8809 3.62604 71.6348 3.5645 71.3886 3.4927L71.1117 3.4209H19.8466L19.5696 3.46193C18.9747 3.55424 18.4003 3.6363 17.9182 3.88247C15.5283 5.12358 14.2462 6.88781 14 9.28797V60.4505C14.041 60.5428 14.0821 60.6454 14.1026 60.7582C14.7385 64.1328 17.4772 66.4099 20.9133 66.4099C31.3756 66.4099 41.8378 66.4099 52.3001 66.4099C51.1821 65.4867 50.023 64.4508 48.9665 63.2712C48.7101 62.984 48.505 62.902 48.0947 62.902H48.0844C40.2582 62.9122 32.432 62.9122 24.6059 62.902H20.9954C18.9234 62.902 17.5182 61.507 17.5079 59.4248L17.4874 53.9475L17.4977 13.319C17.4977 12.4061 17.5079 11.4933 17.5079 10.5906C17.5079 8.22123 18.8208 6.91858 21.18 6.91858H69.9526C70.0654 6.91858 70.1783 6.91858 70.2911 6.91858C71.7681 6.96986 72.9785 7.93403 73.3887 9.38029C73.4913 9.74954 73.4913 10.088 73.4913 10.3855C73.4913 10.5393 73.4913 10.6932 73.5118 10.8471C73.5221 10.8881 73.5221 10.9189 73.5221 10.9599L73.4913 36.4796C73.4913 36.8591 73.4913 37.2489 73.5323 37.3515C73.5734 37.372 73.9324 37.4951 74.2708 37.6181C74.3632 37.6489 74.4452 37.6899 74.5375 37.7207L74.7016 37.7823C75.5427 38.1002 76.3018 38.5105 76.989 38.9311V10.9701C77.1634 7.4622 75.2555 4.63124 72.1271 3.69784Z" fill="black"/>
<path d="M74.2707 45.0853C71.5936 42.8595 67.2548 42.7877 64.3931 44.9109C64.0033 45.2084 63.4494 45.475 62.7007 44.9519C61.1416 43.8647 59.521 43.3108 57.8593 43.3108C56.7515 43.3108 55.6335 43.5467 54.495 44.0288C52.4333 44.9006 50.905 46.7264 50.2998 49.0343C49.6536 51.5267 50.1972 54.2244 51.7666 56.2348C51.7973 56.2758 51.8281 56.3271 51.8486 56.3784C52.1871 57.0964 52.741 57.7015 53.3564 58.3682C55.8592 61.0556 58.9978 63.466 62.9571 65.7431C63.4187 66.0098 63.6033 66.0098 64.0238 65.7636C68.0856 63.3737 72.2603 60.5735 75.2246 56.2655C75.6759 55.7117 75.9631 55.1167 76.2401 54.4911C77.7273 51.219 76.8863 47.2598 74.2707 45.0853ZM72.4142 53.9782C71.9731 54.7065 71.409 55.4142 70.6704 56.1732L69.5422 57.3015C68.0139 58.8196 66.2701 60.0402 64.4649 61.2505C64.1161 61.4864 63.8084 61.5685 63.5212 61.5685C63.1212 61.5685 62.793 61.3941 62.5365 61.23C60.7723 60.0812 59.2543 58.9221 57.8901 57.7118L56.5772 56.3784C56.5669 56.3681 56.5464 56.3476 56.5361 56.3373L56.3823 56.1732C55.4078 55.168 54.7104 54.2141 54.2078 53.1781C53.6744 52.0806 53.5821 50.9011 53.9616 49.6805C54.2796 48.6342 55.0591 47.7932 56.0848 47.3521C57.1105 46.911 58.2593 46.9418 59.2235 47.4342C60.0851 47.8752 60.8749 48.5112 61.5519 49.3317C62.2288 50.142 62.9263 51.0241 63.5417 51.9986C63.87 51.4652 64.2187 50.9523 64.5777 50.46C65.4188 49.3112 66.2907 48.4188 67.2446 47.7316C68.2498 47.0034 69.5627 46.829 70.7525 47.2803C71.9834 47.7316 72.8962 48.7778 73.204 50.06C73.5937 51.7524 72.9475 53.1063 72.4142 53.9782Z" fill="black"/>
<path d="M55.5311 18.2937H52.0949H48.8434C45.0278 18.2937 41.2224 18.2937 37.417 18.2835C37.4478 19.504 37.4375 20.7349 37.417 21.8016C42.125 21.8016 46.8125 21.7914 51.5 21.7914C56.5465 21.7914 61.593 21.7914 66.6395 21.8016C66.619 20.6939 66.6088 19.4835 66.6498 18.2732C62.9367 18.2937 59.2442 18.2937 55.5311 18.2937Z" fill="black"/>
<path d="M51.9518 36.6642H55.2854C59.0395 36.6642 62.7731 36.6642 66.5169 36.6744C66.4862 35.382 66.4964 34.1922 66.5169 33.1562C56.7727 33.1665 47.1002 33.1665 37.4175 33.1562C37.4483 34.4897 37.438 35.6282 37.4072 36.6744C41.1511 36.6642 44.8847 36.6642 48.6285 36.6642H51.9518Z" fill="black"/>
<path d="M40.9044 51.014C42.2584 51.014 43.6123 51.014 44.956 51.0243C44.9252 49.8345 45.038 48.6754 45.2945 47.5164C44.4226 47.5266 43.5508 47.5266 42.6686 47.5164H41.4788H40.2787C39.3248 47.5164 38.3709 47.5164 37.417 47.5061C37.4375 48.7267 37.4375 49.896 37.417 51.014C38.5966 51.014 39.7556 51.014 40.9044 51.014Z" fill="black"/>
<path d="M30.1855 42.7878H24.6877C22.626 42.7878 20.9541 44.4598 20.9541 46.5214V52.0193C20.9541 54.0809 22.626 55.7528 24.6877 55.7528H30.1855C32.2472 55.7528 33.9191 54.0809 33.9191 52.0193V46.5214C33.9191 44.4598 32.2369 42.7878 30.1855 42.7878ZM30.842 52.0193C30.842 52.3783 30.5445 52.6757 30.1855 52.6757H24.6877C24.3287 52.6757 24.0312 52.3783 24.0312 52.0193V46.5214C24.0312 46.1624 24.3287 45.865 24.6877 45.865H30.1855C30.5445 45.865 30.842 46.1624 30.842 46.5214V52.0193Z" fill="black"/>
<path d="M33.9191 31.905C33.9191 29.8433 32.2472 28.1714 30.1855 28.1714H24.6877C22.626 28.1714 20.9541 29.8433 20.9541 31.905V37.4028C20.9541 39.4645 22.626 41.1364 24.6877 41.1364H30.1855C32.2472 41.1364 33.9191 39.4645 33.9191 37.4028V31.905ZM30.842 37.4028C30.842 37.7618 30.5445 38.0593 30.1855 38.0593H24.6877C24.3287 38.0593 24.0312 37.7618 24.0312 37.4028V31.905C24.0312 31.546 24.3287 31.2485 24.6877 31.2485H30.1855C30.5445 31.2485 30.842 31.546 30.842 31.905V37.4028Z" fill="black"/>
<path d="M33.9191 17.2885C33.9191 15.2268 32.2472 13.5549 30.1855 13.5549H24.6877C22.626 13.5549 20.9541 15.2268 20.9541 17.2885V22.7863C20.9541 24.848 22.626 26.5199 24.6877 26.5199H30.1855C32.2472 26.5199 33.9191 24.848 33.9191 22.7863V17.2885ZM30.842 22.7863C30.842 23.1453 30.5445 23.4428 30.1855 23.4428H24.6877C24.3287 23.4428 24.0312 23.1453 24.0312 22.7863V17.2885C24.0312 16.9295 24.3287 16.6321 24.6877 16.6321H30.1855C30.5445 16.6321 30.842 16.9295 30.842 17.2885V22.7863Z" fill="black"/>
</svg>
