<svg width="93" height="89" viewBox="0 0 93 89" fill="none" xmlns="http://www.w3.org/2000/svg">
<path d="M14.8995 12.2283H4.96272L0 20.8311L4.96272 29.4339H14.8995L19.8735 20.8311L14.8995 12.2283Z" fill="#FF1241"/>
<path d="M45.0632 20.1517C45.4735 19.5084 45.9088 19.0978 46.8224 19.0302C48.923 18.889 50.6584 17.3812 51.2727 15.1927C51.8305 13.1988 51.0157 10.9615 49.3062 9.75697C47.4958 8.48258 45.618 8.37892 43.7261 9.44993C41.9916 10.4324 41.1065 11.9841 41.1108 14.0513C41.1168 15.3668 41.626 16.551 42.6708 17.6572L42.7654 17.7527L42.6812 17.9497C42.658 18.0075 42.6328 18.0739 42.5905 18.1361L41.9475 19.1395C39.9295 22.2551 37.9201 25.3727 35.887 28.4756C35.7304 28.7093 35.3577 28.8633 35.0864 28.8607C33.912 28.8829 32.8806 29.2481 32.0094 29.9604C31.5696 30.3155 31.2382 30.2621 30.844 30.0574C28.905 29.0507 27.0153 28.0651 25.0981 27.1182C24.5154 26.8313 24.3147 26.5016 24.3343 25.8629C24.3648 24.2482 23.6251 22.7451 22.2841 21.739C20.9581 20.7456 19.2563 20.4401 17.7345 20.9216C16.2915 21.3769 15.1507 22.3407 14.518 23.6367C13.8919 24.9433 13.8435 26.4449 14.3927 27.8745C14.4882 28.1152 14.4502 28.5319 14.2571 28.7296C12.683 30.4307 11.0706 32.1407 9.45794 33.8143C9.27547 34.0055 8.8597 34.1128 8.59865 34.0311C7.44531 33.6688 6.33261 33.6608 5.20298 34.0202C3.51488 34.5517 2.24864 35.9563 1.83074 37.7848C1.41909 39.5877 1.93423 41.3805 3.21022 42.5792C5.03185 44.2913 7.68383 44.5653 9.67242 43.246C11.7907 41.8404 12.5651 39.2921 11.6128 36.9125C11.4436 36.4907 11.5595 36.238 11.8035 35.9802C13.1062 34.6118 14.8227 32.8093 16.5177 30.9835C16.802 30.6721 17.0792 30.6127 17.5072 30.7531C19.2749 31.3465 20.9218 31.0587 22.3797 29.9092C22.5349 29.7929 22.6711 29.7173 22.814 29.6887C22.9932 29.6598 23.175 29.695 23.3914 29.8111C25.3454 30.8304 27.3442 31.8517 29.508 32.9402C29.8229 33.0984 30.027 33.3021 29.9936 33.7743C29.9021 34.8576 30.182 35.9045 30.8244 36.8765C31.6005 38.0441 32.8336 38.8608 34.2276 39.1276C35.5789 39.384 36.9312 39.1151 38.0135 38.3545C39.2128 37.5227 39.9997 36.3005 40.2452 34.9194C40.4781 33.5533 40.1534 32.1693 39.3218 31.0063C39.1991 30.8405 39.0657 30.6811 38.9323 30.5218C38.8613 30.4411 38.7903 30.3604 38.7214 30.2711L38.631 30.1585L38.8129 29.8584C38.8869 29.7405 38.9523 29.6204 39.0263 29.5025L40.6953 26.9273C42.1591 24.6737 43.6144 22.418 45.0632 20.1517ZM44.6923 12.7029C45.0208 12.2844 45.4761 12.0146 46.0181 11.9472C46.541 11.8841 47.0587 12.0283 47.4857 12.3588C47.9128 12.6893 48.1784 13.1617 48.2414 13.6845C48.3045 14.2074 48.1603 14.7251 47.8298 15.1521C47.5162 15.547 47.0907 15.8059 46.6085 15.8879C46.5808 15.8903 46.5424 15.899 46.5147 15.9013C45.9919 15.9644 45.4741 15.8203 45.0471 15.4898C44.6286 15.1613 44.3544 14.6868 44.2914 14.164C44.2177 13.6476 44.3639 13.1213 44.6923 12.7029ZM8.44623 40.0929C8.13701 40.507 7.69021 40.7788 7.19744 40.8673C7.17824 40.8717 7.15905 40.8761 7.14194 40.8719C6.62558 40.9456 6.09725 40.808 5.66813 40.486C5.23901 40.1641 4.96274 39.6981 4.88906 39.1817C4.81537 38.6654 4.95304 38.137 5.27499 37.7079C5.58421 37.2938 6.03101 37.022 6.52378 36.9335C6.54298 36.9291 6.56217 36.9247 6.57928 36.9288C7.09564 36.8552 7.624 36.9928 8.05312 37.3148C8.48224 37.6367 8.75848 38.1027 8.83216 38.6191C8.90376 39.144 8.76818 39.6638 8.44623 40.0929ZM21.1396 25.5475C21.2218 26.0659 21.0948 26.5878 20.7793 27.0275C20.4659 27.4587 20.0171 27.7392 19.5051 27.832C19.4965 27.83 19.4944 27.8385 19.4859 27.8364C18.9674 27.9187 18.4456 27.7916 18.0058 27.4762C17.5746 27.1628 17.2877 26.7033 17.2055 26.1848C17.1233 25.6664 17.2503 25.1445 17.5658 24.7047C17.8791 24.2735 18.328 23.9931 18.84 23.9003C18.8485 23.9023 18.8506 23.8938 18.8592 23.8959C19.3776 23.8136 19.8995 23.9407 20.3393 24.2561C20.7705 24.5695 21.0574 25.029 21.1396 25.5475ZM36.7616 35.1952C36.4483 35.6264 35.9973 35.9153 35.4874 35.9997C35.4789 35.9976 35.4789 35.9976 35.4682 36.0041C34.9498 36.0863 34.4258 35.9678 33.9861 35.6523C33.5463 35.3369 33.268 34.8794 33.1772 34.3589C33.0949 33.8405 33.2134 33.3165 33.5289 32.8768C33.8423 32.4456 34.2932 32.1566 34.8031 32.0723C34.8031 32.0723 34.8117 32.0744 34.8138 32.0658C35.3322 31.9836 35.8561 32.102 36.2959 32.4175C36.7357 32.733 37.014 33.1904 37.1048 33.7109C37.1956 34.2315 37.075 34.764 36.7616 35.1952Z" fill="black"/>
<path d="M90.5886 59.787L90.571 59.9186C90.4765 60.6273 90.3832 61.3272 90.29 62.0728L89.8886 65.2839L87.196 63.4888C87.1183 63.437 87.0535 63.3894 87.0066 63.3543C86.9979 63.3477 86.9893 63.3413 86.9813 63.3352C86.9709 63.3273 86.9613 63.32 86.9534 63.314L86.9427 63.3086L86.8569 63.2542C86.5133 63.0363 86.1548 62.8122 85.791 62.5849C85.1802 62.2031 84.5546 61.8121 83.9598 61.4255L83.9501 61.4192L83.9404 61.4127C83.7769 61.3037 83.5295 61.1255 83.2932 60.8821C83.0907 60.6734 82.7334 60.2527 82.5871 59.6316C82.3388 58.6925 81.9086 57.9554 81.2799 57.388L81.2644 57.3739L81.2491 57.3596C80.4549 56.6121 80.1264 55.7638 80.0047 54.9009C78.8268 47.5396 74.9718 42.2121 68.3896 38.7797L90.5886 59.787ZM90.5886 59.787V59.6543M90.5886 59.787V59.6543M90.5886 59.6543V58.7836V57.9085V57.0334V57.0265V57.0197V57.0129V57.0061V56.9992V56.9924V56.9856V56.9788V56.972V56.9651V56.9583V56.9515V56.9447V56.9378V56.931V56.9242V56.9174V56.9106V56.9037V56.8969V56.8901V56.8833V56.8765V56.8696V56.8628V56.856V56.8492V56.8424V56.8356V56.8287V56.8219V56.8151V56.5972V56.5904V56.5836V56.5768V56.57V56.5632V56.5564V56.5496V56.5428V56.536V56.5292V56.5224V56.5156V56.5088V56.502V56.4952V56.4884V56.4816V56.4748V56.468V56.4612V56.4544V56.4476V56.4408V56.434V56.4272V56.4204V56.4137V56.4069V56.4001V56.3933V56.3865V56.3797V56.2711V56.2643V56.2576V56.2508V56.244V56.2372V56.2304V56.2237V56.2169V56.2101V56.2033V56.1966V56.1898V56.183V56.1762V56.1695V56.1627V56.0176L90.5676 55.8741C90.5198 55.5459 90.4728 55.1656 90.4227 54.7604C90.3292 54.0034 90.225 53.1594 90.0842 52.4061C88.7025 44.6547 84.9399 38.1852 78.7773 33.23L78.7773 33.2299C71.3541 27.2613 62.7525 24.9792 53.3515 26.6375C43.2203 28.398 35.6395 34.0483 30.7133 42.9985C28.4053 47.1592 27.2222 51.6879 27.0213 56.3839L27.0211 56.3894C26.9691 57.689 27.0263 59.0557 27.08 60.3401C27.1029 60.8865 27.1251 61.418 27.1381 61.9232L27.2073 64.6234L29.7699 63.7693C30.0384 63.6798 30.18 63.622 30.3385 63.5428L30.6169 63.4036L30.8398 63.1864C31.5402 62.504 32.3912 61.9738 33.3989 61.5571C34.0402 61.3016 34.408 60.8242 34.5703 60.5809C34.7567 60.3012 34.909 59.9701 34.9936 59.6222C35.2408 58.7007 35.6468 57.9908 36.262 57.4288C37.2005 56.6219 37.5028 55.6383 37.6097 54.7829L35.626 54.535L37.6094 54.7851C37.91 52.4021 38.6152 50.1671 39.7394 48.1096L39.7406 48.1075C43.1843 41.7868 48.3786 37.9768 55.4672 36.7845L55.4734 36.7834M90.5886 59.6543L55.4734 36.7834M55.4734 36.7834C60.003 36.0069 64.3479 36.6729 68.3894 38.7796L55.4734 36.7834Z" fill="black" stroke="white" stroke-width="4"/>
<path d="M32.7136 80.0959L32.7096 80.0941C31.4401 79.5266 30.3385 78.7 29.5674 77.5434C28.7915 76.3794 28.4437 75.021 28.459 73.5527L28.4591 73.5479C28.4641 73.1559 28.4709 72.7721 28.4777 72.3945C28.5037 70.9321 28.528 69.5633 28.4394 68.181L28.4387 68.1696L28.4387 68.1696C28.1944 63.9861 31.2744 61.4893 34.3148 60.7678C34.3541 59.716 34.6209 58.7016 35.2151 57.8058C35.861 56.8319 36.7857 56.1613 37.8394 55.7141L32.7136 80.0959ZM32.7136 80.0959C33.2718 80.344 33.8274 80.5037 34.3144 80.6277C34.3152 80.6415 34.3159 80.6558 34.3167 80.6707C34.3361 81.0435 34.3738 81.7668 34.6257 82.4385L34.629 82.4472L34.6324 82.456C35.0977 83.6623 35.8641 84.5989 36.8738 85.2306C37.8569 85.8457 38.9579 86.1024 40.0174 86.1629L40.0181 86.163C42.8477 86.3237 46.378 84.4483 46.378 80.5331L46.378 80.5259M32.7136 80.0959L46.378 80.5259M46.378 80.5259C46.3662 77.2508 46.3662 73.9752 46.3662 70.6953V70.6937C46.3662 67.4166 46.3662 64.1353 46.3544 60.8534C46.3537 59.9373 46.1185 58.8998 45.612 58.0363M46.378 80.5259L45.612 58.0363M45.612 58.0363C44.0663 55.3484 40.4691 54.5971 37.8406 55.7136L45.612 58.0363Z" fill="black" stroke="white" stroke-width="4"/>
<path d="M84.8708 61.342L84.8748 61.3438C86.1435 61.911 87.2476 62.7383 88.0169 63.8989C88.7903 65.0656 89.1308 66.4268 89.1016 67.897C89.0976 68.2251 89.0929 68.5494 89.0883 68.8709C89.0655 70.4537 89.0437 71.9663 89.1005 73.4995L89.1005 73.5002C89.2362 77.1969 86.6256 79.6823 83.8083 80.514C83.6082 80.5751 83.411 80.624 83.2226 80.6645C83.1841 81.7182 82.9174 82.7347 82.3222 83.6321C81.676 84.6063 80.7508 85.2771 79.6967 85.7243C77.0681 86.8407 73.4709 86.0895 71.9252 83.4015C71.4186 82.538 71.1835 81.5004 71.1828 80.5843C71.171 77.3025 71.171 74.0213 71.171 70.7443V70.7426C71.171 67.4627 71.171 64.1871 71.1592 60.912L71.1592 60.9048C71.1592 56.9954 74.6588 55.1142 77.5179 55.2748L77.5182 55.2749C78.5814 55.3348 79.7042 55.5885 80.7024 56.2136C81.7339 56.8595 82.5126 57.8287 82.9514 59.0918L84.8708 61.342ZM84.8708 61.342C84.294 61.0856 83.7199 60.9236 83.2214 60.7978M84.8708 61.342L83.2214 60.7978M83.2214 60.7978C83.2177 60.6962 83.213 60.5826 83.2061 60.47C83.1842 60.1118 83.1342 59.6177 82.9517 59.0928L83.2214 60.7978Z" fill="black" stroke="white" stroke-width="4"/>
</svg>
