<svg width="78" height="67" viewBox="0 0 78 67" fill="none" xmlns="http://www.w3.org/2000/svg">
<path d="M15.0498 3H5.0128L0 11.6896L5.0128 20.3792H15.0498L20.074 11.6896L15.0498 3Z" fill="#FF1241"/>
<path d="M75.6979 26.5916C74.1133 26.3728 72.4871 26.154 70.8608 25.9768C70.5064 25.9351 70.4021 25.8518 70.2666 25.5079C69.5785 23.7261 68.8384 21.9339 68.067 20.1834C67.921 19.8603 67.9314 19.7249 68.1295 19.4852C69.1094 18.2765 70.0685 17.0157 71.0067 15.807L71.0901 15.6924C71.6948 14.9109 71.6531 14.2753 70.9546 13.5771C68.4527 11.0659 65.9403 8.55474 63.4279 6.05397C62.6982 5.33499 62.0936 5.30373 61.2596 5.93935L60.6341 6.41866C59.5708 7.24183 58.5074 8.05459 57.465 8.88818C57.2565 9.0549 57.1522 9.08616 56.8707 8.96112C55.1298 8.20047 53.2846 7.42939 51.3665 6.67916C51.0954 6.57496 51.0433 6.51244 51.012 6.27278C50.9286 5.54339 50.8348 4.814 50.741 4.0846C50.6263 3.23017 50.5221 2.36532 50.4282 1.51089C50.3553 0.791913 50.0321 0.312597 49.4379 0.0208398L37.439 0L37.366 0.0520995C36.7197 0.531415 36.5737 1.19829 36.5112 1.71928C36.4382 2.407 36.3548 3.08429 36.261 3.77201C36.1567 4.56392 36.0629 5.36625 35.9795 6.15816C35.9482 6.48118 35.8648 6.58538 35.5417 6.71042C33.9467 7.33561 32.2683 8.03375 30.0999 8.96112C29.8393 9.07574 29.7455 9.06532 29.5578 8.91944C28.3277 7.93997 27.0872 6.98134 25.7215 5.92893C24.8876 5.29331 24.2829 5.32457 23.5532 6.05397C21.0408 8.55474 18.5389 11.0659 16.0265 13.5771C15.328 14.2753 15.2863 14.9109 15.891 15.6924L16.0056 15.8383C16.923 17.0365 17.8821 18.2765 18.8412 19.4748C19.0393 19.7249 19.0497 19.8499 18.9142 20.1729C18.1427 21.9339 17.3921 23.7261 16.7041 25.4975C16.5686 25.8518 16.4539 25.9456 16.1203 25.9768C15.3176 26.0602 14.5045 26.1644 13.7018 26.2686C12.9616 26.3624 12.2215 26.4561 11.4813 26.5395C10.7516 26.6229 10.2824 26.9355 10.001 27.5294L10.001 39.3351L10.0218 39.4498C10.3033 40.0333 10.7828 40.3563 11.5126 40.4397C12.357 40.5334 13.2014 40.6376 14.0562 40.7523C14.7964 40.846 15.5365 40.9398 16.2767 41.0232C16.5165 41.0544 16.579 41.1065 16.6833 41.3774C17.4547 43.3364 18.2053 45.1286 18.9663 46.8792C19.0914 47.1605 19.0601 47.2647 18.8933 47.4731C18.0697 48.5047 17.2566 49.5571 16.4539 50.6095L15.9848 51.2138C15.2968 52.11 15.328 52.6935 16.0995 53.475C18.5806 55.9549 21.0512 58.4348 23.5323 60.9044C23.9389 61.3107 24.2933 61.5087 24.6686 61.5087C25.0022 61.5087 25.3462 61.3524 25.7424 61.0502L26.5555 60.4355C27.3895 59.7998 28.2652 59.1434 29.0783 58.4453C29.7038 57.9138 30.0582 57.8617 30.5378 58.2577C30.6524 58.3411 30.7775 58.3098 30.9026 58.2785L31.0277 58.2577L32.1432 56.0799L30.5065 55.1317C29.8914 54.7774 29.2868 54.8295 28.7134 55.2776C27.869 55.9549 27.0142 56.6114 26.1594 57.2782L25.6486 57.6742C25.4088 57.8617 25.169 58.0389 24.9709 58.1848L24.9188 58.2264L18.7682 52.11L21.6142 48.4526C22.2605 47.619 22.2814 47.2022 21.7497 46.2852C20.5717 44.2742 19.6752 42.1173 19.0914 39.8457C18.8308 38.8558 18.518 38.5849 17.5068 38.4495C16.3601 38.2723 15.2134 38.1264 14.0666 37.9806L12.7635 37.8138V29.1757C12.8991 29.1445 13.0346 29.1132 13.1701 29.1028L13.6496 29.0403C14.9736 28.8736 16.2871 28.7068 17.6111 28.561C18.3825 28.4776 18.8516 28.0921 19.0184 27.4356C19.6335 24.9869 20.603 22.6425 21.9061 20.4647C22.2397 19.902 22.2084 19.3185 21.7914 18.7767L18.7682 14.9005L24.8875 8.75272C24.9814 8.81524 25.0752 8.88818 25.1794 8.96112L25.8571 9.49253C26.8057 10.2323 27.7648 10.9722 28.703 11.712C29.2868 12.1809 29.9123 12.2225 30.5586 11.837C32.727 10.5554 35.01 9.60715 37.3452 9.03406C38.0749 8.85692 38.4815 8.3776 38.5544 7.62737C38.6378 6.83546 38.7316 6.04355 38.8359 5.25163C38.9193 4.6056 39.0027 3.94914 39.0965 3.30311L39.1695 2.76128H47.822L47.9784 4.02208C48.1348 5.22037 48.2807 6.39782 48.4163 7.58569C48.5101 8.3776 48.8958 8.85692 49.5838 9.02364C52.0024 9.61757 54.3271 10.5866 56.4955 11.8787C57.0688 12.2225 57.6526 12.1809 58.1843 11.7745L62.031 8.7944L68.1816 14.9526L65.3669 18.5787C64.7519 19.381 64.7206 19.8082 65.2314 20.6939C66.3052 22.5383 67.1287 24.4243 67.6708 26.3311L67.7855 26.7479C68.2337 28.3526 68.3171 28.4255 70.0477 28.6235L70.5585 28.686C71.455 28.8006 72.3411 28.9152 73.2376 29.0299L74.228 29.1549V37.8138L72.8728 37.991C71.7365 38.1369 70.6106 38.2827 69.4847 38.4182C68.4944 38.5328 68.1608 38.8246 67.921 39.7624C67.3372 42.0443 66.4407 44.2325 65.2418 46.2644C64.7102 47.1709 64.7415 47.5877 65.3982 48.4317L68.2233 52.0578L62.0519 58.1952L61.1762 57.5075C60.2379 56.7781 59.2789 56.0383 58.3198 55.288C57.7464 54.84 57.2043 54.7462 56.6623 55.0275C56.287 55.2151 55.9221 55.4339 55.5572 55.6527L54.8483 56.0591L55.6823 57.6533L56.068 58.3827L56.287 58.2994C57.246 57.9138 57.246 57.9243 58.0383 58.539L61.2179 61.0086C62.1144 61.6963 62.7086 61.6754 63.4801 60.8939C65.9611 58.4244 68.4422 55.9445 70.9129 53.4645C71.6739 52.7039 71.7156 52.0995 71.0589 51.2451C70.7357 50.8179 70.4021 50.4011 70.0789 49.9843C69.4118 49.1299 68.7446 48.265 68.0982 47.4002C68.0253 47.3064 68.0044 47.0563 68.0565 46.9313C68.411 46.0456 68.7758 45.1703 69.1407 44.2846C69.5473 43.3156 69.9434 42.3361 70.3396 41.367C70.4438 41.117 70.5063 41.0544 70.7565 41.0232C72.2681 40.846 73.8944 40.6481 75.7187 40.398C76.5736 40.2834 77.0114 39.7832 77.0218 38.9184C77.0323 35.3026 77.0323 31.6974 77.0218 28.0816C77.001 27.2064 76.5631 26.7166 75.6979 26.5916Z" fill="black"/>
<path d="M54.8376 54.2148C54.7542 53.1519 54.1912 52.2246 53.2947 51.6515C52.7005 51.2764 52.5233 50.9221 52.6067 50.2448C52.6275 50.0989 52.6379 49.9009 52.6067 49.7134C52.5337 49.3174 52.6588 49.1299 53.1487 48.8381C59.7476 45.0036 63.4693 37.3658 62.4268 29.8322C61.7075 24.6535 59.0075 20.1 54.8167 17.0053C50.6468 13.9314 45.5387 12.6915 40.441 13.525C32.737 14.7754 26.4613 20.746 24.8246 28.363C23.1463 36.1988 26.3779 44.0241 33.0498 48.2963C34.2382 49.0569 34.5927 49.7551 34.3737 50.9012C34.3425 51.068 34.2174 51.2764 34.1027 51.3389C33.0811 51.9328 32.4868 52.7039 32.2679 53.6834C31.9448 55.1734 32.393 56.4342 33.6231 57.4241C33.6127 57.4554 33.6127 57.4762 33.6023 57.497C32.8413 59.4977 33.4876 61.217 35.3849 62.2277C35.4996 62.2902 35.6351 62.4882 35.6977 62.707C36.4587 65.114 38.0641 66.5519 40.3367 66.8437C41.2854 66.9687 42.2444 67 43.2035 67C43.6726 67 44.1417 66.9896 44.6004 66.9896C44.9862 66.9792 45.3614 66.9792 45.7472 66.9792C48.3742 66.9687 50.553 65.2807 51.3036 62.6966C51.3557 62.509 51.5538 62.2694 51.7414 62.1756C53.4094 61.3003 54.1287 59.4977 53.5032 57.7992C53.3885 57.4866 53.4094 57.3824 53.6596 57.1636C54.4935 56.403 54.9314 55.3297 54.8376 54.2148ZM48.3951 62.6132C47.8008 63.6656 46.9356 64.1971 45.7576 64.2387C44.246 64.2908 42.724 64.2908 41.2332 64.2387C40.0657 64.1971 39.2004 63.6656 38.5958 62.6132H48.3951ZM36.2398 55.3922C36 55.3922 35.7498 55.3922 35.5309 55.3297C35.1139 55.2255 34.8741 54.8816 34.9262 54.4544C34.9784 54.0064 35.2181 53.7771 35.6664 53.7146C35.7915 53.7042 35.9062 53.6938 36.0313 53.6938C36.073 53.6938 36.1147 53.6938 36.1564 53.6938H50.8344C51.0117 53.6938 51.1785 53.6938 51.3453 53.7146C51.7935 53.7667 52.0229 54.0064 52.075 54.4544C52.1271 54.8816 51.8874 55.2359 51.4599 55.3297C51.2306 55.3818 50.9804 55.3818 50.7511 55.3922C45.914 55.3922 41.0769 55.3922 36.2398 55.3922ZM49.8649 48.8173C49.8962 49.3383 49.8858 49.8697 49.8858 50.4219C49.8858 50.5886 49.8858 50.7554 49.8754 50.9221H37.1259C37.1259 50.7554 37.1259 50.5782 37.1259 50.4115C37.1259 49.8384 37.1154 49.2862 37.1363 48.7235C37.1676 47.8899 36.834 47.3272 36.073 46.9313C29.8181 43.7115 26.3675 37.1157 27.2849 30.1344C28.171 23.424 33.3 17.9014 40.0448 16.3905C44.517 15.3902 49.2499 16.3697 53.0341 19.0997C56.8391 21.8401 59.2889 26.0498 59.7581 30.6554C60.4461 37.3866 57.0163 43.7636 51.0325 46.8896C50.1673 47.3376 49.8128 47.9316 49.8649 48.8173ZM37.0842 58.1327C38.5853 58.1327 40.0761 58.1327 41.5668 58.1327H43.2973H45.3614C46.946 58.1327 48.5202 58.1327 50.1047 58.1431C50.6155 58.1431 50.9804 58.4869 50.9908 58.9663C50.9908 59.4143 50.6572 59.7582 50.1673 59.8207C50.0317 59.8415 49.8962 59.8311 49.7607 59.8311H37.8869H37.6471C37.4699 59.8311 37.2927 59.8311 37.105 59.8311C36.7089 59.8207 36.3857 59.7165 36.1981 59.5185C36.0625 59.3726 35.9896 59.1851 36 58.9663C36.0208 58.216 36.7714 58.1327 37.0842 58.1327Z" fill="black"/>
<path d="M55.2236 36.553C55.6614 36.4488 56.0888 36.2925 56.5058 36.1466C56.7039 36.0737 56.8915 36.0112 57.0896 35.9382C57.788 35.709 58.1633 35.2088 58.1633 34.4899V30.2698C58.1633 29.5612 57.861 29.0715 57.3189 28.9256C56.1201 28.6026 55.7239 27.8836 55.9429 26.4353C55.9533 26.3415 55.9533 26.2477 55.9533 26.1539V26.0706C55.9429 25.0077 55.6093 24.5805 54.5772 24.32C54.254 24.2367 53.9309 24.1637 53.6077 24.0804C52.9927 23.9345 52.3672 23.7782 51.7521 23.6011C51.6896 23.5802 51.554 23.4239 51.5332 23.3927C51.7208 22.1006 51.0432 21.2878 50.2718 20.5897C49.7505 20.1208 49.2397 19.9228 48.6455 19.9332C47.8324 19.9645 46.9671 19.9645 45.9976 19.9332C45.3513 19.902 44.8613 20.1312 44.4756 20.5897C44.2358 20.871 43.9961 21.1524 43.7459 21.4546L43.5374 21.7046C43.4331 21.6004 43.3393 21.4962 43.2559 21.392C42.9327 21.0378 42.6617 20.7356 42.3385 20.4647C41.9841 20.1729 41.5463 19.9853 41.171 19.9541C40.1702 19.902 39.159 19.9228 38.1791 19.9437H38.0331C37.7621 19.9541 37.3763 19.9958 37.1366 20.2146L36.8864 20.4334C36.0837 21.1315 35.1767 21.9234 35.4582 23.3406C35.4895 23.4864 35.4999 23.5594 35.1663 23.6323C34.5929 23.7574 34.03 23.9032 33.4671 24.0491L32.7686 24.2262C31.2049 24.6222 31.0277 24.8514 31.0277 26.4561V26.529C31.0277 26.602 31.0172 26.6853 31.0381 26.7687C31.2674 27.8732 30.8921 28.5088 29.8184 28.8214C29.1616 29.0194 28.8072 29.5508 28.8176 30.3323C28.828 31.6973 28.828 33.0519 28.8176 34.4169C28.8176 35.1776 29.1825 35.6881 29.9122 35.9174L30.2979 36.0424C30.84 36.2091 31.3925 36.3863 31.9242 36.6051C32.0076 36.6364 32.1431 36.8239 32.1535 36.9177C32.1848 37.3032 32.1848 37.7096 32.1744 38.1056C32.1744 38.2827 32.1744 38.4703 32.1744 38.6474C32.1744 39.3455 32.581 40.1374 33.2169 40.7314C33.7798 41.2524 34.4366 41.5233 35.0203 41.4712C35.9377 41.3983 36.4381 41.6692 36.7404 42.409C36.7613 42.4715 36.7926 42.5132 36.8343 42.5653C37.1053 42.9508 37.3138 43.2738 37.4806 43.5343C38.2833 44.7743 38.3875 44.8264 39.8887 44.7847C40.1806 44.7743 40.5246 44.7743 40.9416 44.7743C41.0042 44.7743 41.0771 44.7743 41.1501 44.7743C41.6818 44.7743 42.1926 44.3992 42.3281 44.2846C42.6617 44.0137 42.9432 43.7115 43.2768 43.3468C43.3497 43.2738 43.4227 43.1905 43.4957 43.1071C44.3922 44.5242 45.6849 44.8472 46.8733 44.8472C47.1756 44.8472 47.4675 44.8264 47.7386 44.7951C48.2285 44.743 48.781 44.6076 49.1772 44.0032C49.3231 43.774 49.4795 43.5448 49.6359 43.3259C49.8965 42.9508 50.1675 42.5549 50.3969 42.1485C50.7096 41.5754 51.0536 41.3878 51.6166 41.4816C52.5652 41.6379 53.222 41.169 53.7849 40.6376C54.6293 39.8561 54.9421 39.0642 54.8066 38.0743C54.817 37.9597 54.8274 37.8034 54.8274 37.6471C54.8378 37.4699 54.8378 37.3032 54.817 37.1365C54.7857 36.7614 54.8691 36.6364 55.2236 36.553ZM49.9799 32.1662L49.9382 32.385C49.8027 33.1665 49.761 34.1564 50.6888 34.865C50.7305 34.8962 50.7722 34.9483 50.8139 34.99L50.8868 35.0734C52.2004 36.3863 52.2004 36.3863 52.0857 38.2514C52.0648 38.6161 51.9189 38.762 51.5123 38.7829C51.2621 38.7829 51.0536 38.7829 50.866 38.7829C49.4587 38.7724 49.3753 38.8141 48.5725 40.0228C48.4475 40.2104 48.3015 40.4292 48.1243 40.6897C47.9992 40.8668 47.8845 41.0544 47.7594 41.2315L47.5405 41.5546C47.3216 41.888 47.0818 42.0755 46.8212 42.1068C46.5501 42.1485 46.2165 42.0234 45.8517 41.7213C45.1011 41.0961 44.7988 40.3771 44.8092 39.2413C44.8718 35.0421 44.8509 30.7699 44.8301 26.6437L44.8196 24.7577C44.8196 24.2992 44.9969 23.997 45.2783 23.5906C45.81 22.8196 46.4772 22.6633 47.2486 22.6633C47.5092 22.6633 47.7698 22.6841 48.0513 22.6945L48.3641 22.7154C48.4683 22.7258 48.6976 22.955 48.7185 23.0592C48.8123 23.6636 48.8436 24.122 48.3745 24.4346C48.2598 24.5076 48.1764 24.6014 48.093 24.6951C48.0617 24.7264 48.0305 24.7577 48.0096 24.7889C46.3833 26.4144 46.2895 26.6958 46.5918 29.0611L46.6231 29.2903H49.271V28.7068C49.271 28.4671 49.271 28.2483 49.2606 28.0295C49.2397 27.6544 49.3336 27.3731 49.5942 27.0292C50.1988 26.2269 50.8556 26.0602 51.7938 26.4457C52.1378 26.5916 52.5027 26.6749 52.8571 26.7479C52.951 26.7687 53.0448 26.7895 53.1386 26.8104V27.6544L52.0753 27.7378V30.4157H52.7008C52.9614 30.4157 53.222 30.4053 53.4826 30.4261L53.6703 30.4365C53.9205 30.4469 54.1602 30.4469 54.3583 30.5199C55.3799 30.9054 55.3799 30.9054 55.3799 32.0412V32.4267C55.3799 33.6146 55.3799 33.6146 54.2853 34.0001L54.2228 34.021C53.8475 34.146 53.6598 34.1043 53.4618 33.8334C53.3367 33.6667 53.1907 33.5312 53.0448 33.3958C52.7008 33.0936 52.5027 32.8852 52.5548 32.4684L52.5965 32.1766H49.9799V32.1662ZM34.9161 36.4905C34.9265 36.3654 34.9995 36.1987 35.1246 36.0528C35.479 35.6569 35.8439 35.2505 36.2505 34.9275C37.0115 34.3127 37.2721 33.5 37.0636 32.3642L37.0219 32.1558H34.447V32.4163C34.447 32.9581 34.0925 33.2603 33.686 33.6146C33.5192 33.7605 33.342 33.9168 33.2064 34.0626C33.1752 34.0731 33.0605 34.0835 32.9771 34.0626C31.5593 33.7084 31.5593 33.7084 31.5593 32.2496V32.1558C31.5593 32.1037 31.5593 32.062 31.5593 32.0099C31.5697 31.8745 31.5697 31.7286 31.5697 31.5723C31.5697 31.3951 31.5593 31.1034 31.601 31.0409C32.0701 30.697 32.706 30.5199 33.2169 30.4157C33.4879 30.3532 33.8006 30.374 34.1238 30.3844C34.2802 30.3948 34.447 30.4053 34.6034 30.4053H34.864V27.9774L34.8014 27.7378L33.8111 27.6544V26.8L34.2906 26.6749C34.9682 26.5082 35.6563 26.3311 36.3443 26.1748C36.3756 26.1644 36.4902 26.2164 36.5632 26.2685L36.6153 26.3102C36.9385 26.602 37.2721 26.9042 37.5327 27.2376C37.637 27.3731 37.6682 27.6648 37.6891 27.8732C37.7099 28.1129 37.7099 28.3525 37.6995 28.613C37.6995 28.7381 37.6995 28.8631 37.6995 28.9881V29.2486H40.41V28.9881C40.41 28.7589 40.41 28.5401 40.41 28.3109C40.4204 27.7378 40.4204 27.1542 40.3891 26.5707C40.3683 26.2581 40.1389 25.9664 39.8991 25.7059C39.6802 25.4662 39.4404 25.237 39.2111 25.0077C38.9505 24.7472 38.6899 24.4972 38.4501 24.2262C38.325 24.0908 38.2416 23.8824 38.2312 23.7157C38.2103 23.2572 38.2103 22.9238 38.325 22.7987C38.4397 22.6737 38.7837 22.6528 39.2632 22.6528H39.2737H39.3571L39.3988 22.6424C40.5976 22.3611 41.3169 23.1009 42.0154 23.9449C42.0883 24.0283 42.13 24.2054 42.13 24.3721C42.1405 29.6967 42.1405 35.0108 42.1196 40.3354C42.1196 40.4917 42.0154 40.7105 41.8694 40.8981C41.6505 41.169 41.3899 41.4087 41.1188 41.6692L40.9312 41.8463C40.7435 42.0234 40.4725 42.1172 40.2119 42.086C39.9513 42.0547 39.7115 41.9192 39.576 41.7108L39.1903 41.1378C38.8671 40.6584 38.5231 40.1583 38.2208 39.6581C37.8455 39.0434 37.3346 38.7412 36.6675 38.7412C36.6049 38.7412 36.5424 38.7412 36.4694 38.7516C36.1566 38.7724 35.8126 38.7724 35.4061 38.7516C35.0725 38.7308 34.9265 38.5849 34.9161 38.2723C34.8952 37.6888 34.8952 37.0844 34.9161 36.4905Z" fill="black"/>
</svg>
