<svg width="88" height="75" viewBox="0 0 88 75" fill="none" xmlns="http://www.w3.org/2000/svg">
<path d="M14.8475 5.18274H4.94541L0 13.7555L4.94541 22.3283H14.8475L19.8042 13.7555L14.8475 5.18274Z" fill="#FF1241"/>
<path d="M88.0005 34.8401C87.9465 34.4193 87.8926 33.9878 87.8386 33.5671C87.72 32.6502 87.6013 31.6901 87.4395 30.7624C86.0263 22.909 82.3801 16.102 76.5872 10.5249C76.1557 10.1149 75.681 9.94233 75.2172 9.90997C74.818 9.92075 74.4405 10.0934 74.1492 10.417C73.4912 11.1182 73.5882 12.0783 74.3973 12.855C76.6627 15.0341 78.5937 17.4613 80.1471 20.0934H76.8461C73.9766 20.0934 71.0963 20.0934 68.2268 20.115C67.86 20.115 67.8493 20.1042 67.7522 19.7482C66.3714 14.5378 64.5914 10.5356 62.1426 7.15913C61.5493 6.32849 60.8697 5.541 60.2009 4.78587C63.75 5.76754 67.1049 7.33174 70.1794 9.4461L70.2873 9.52161C70.3736 9.58634 70.4706 9.65107 70.5677 9.705C71.3876 10.1797 72.3045 10.0071 72.79 9.28429C73.0381 8.91751 73.1244 8.49679 73.0489 8.07608C72.9626 7.65536 72.7037 7.28859 72.3261 7.04047L71.7651 6.67369C70.7727 6.01565 69.7479 5.34682 68.6691 4.78587C57.7737 -0.866822 46.5762 -1.15809 35.3679 3.90129C35.0658 4.04153 34.8501 4.04153 34.5264 3.91207C29.6397 2.03504 24.2459 2.82253 20.0927 6.03723C15.9394 9.26271 13.8143 14.2789 14.4076 19.4678C14.6234 21.334 15.1304 23.211 15.9502 25.196C16.0581 25.4549 16.0797 25.8324 16.0042 26.1021C12.4874 38.2705 14.4831 49.5543 21.9913 59.6838L22.1099 59.8349C22.7464 60.6116 23.6633 60.795 24.3861 60.2879C25.1628 59.7378 25.2815 58.7885 24.6774 57.9147L23.9546 56.8791C23.4692 56.1779 22.9837 55.4875 22.4983 54.7755C22.3904 54.6137 22.2933 54.4519 22.1855 54.2793H25.4325C28.3559 54.2793 31.2686 54.2793 34.192 54.2577C34.4725 54.2577 34.4725 54.2577 34.5588 54.5705C35.9504 59.7701 37.7303 63.7723 40.1576 67.1704C40.7509 68.0011 41.4089 68.767 42.0993 69.5653C41.2579 69.3171 40.4488 69.069 39.6613 68.7886C35.465 67.2783 31.6462 64.9482 28.3128 61.8521L28.2049 61.7551C28.1294 61.6903 28.0539 61.6148 27.9784 61.5501C27.1585 60.8597 26.2308 60.8813 25.5943 61.5933C24.9902 62.2837 25.0765 63.2114 25.8209 63.9126C31.2039 68.9719 37.5685 72.1759 44.7315 73.438C45.7024 73.6106 46.684 73.7293 47.6333 73.8479C48.0756 73.9019 48.5179 73.9558 49.0249 74.0205H53.491L54.7424 73.8587C55.6809 73.7401 56.6194 73.6106 57.5579 73.4596C71.9917 71.1187 84.1493 59.4681 87.1159 45.1422C87.3532 43.9987 87.5042 42.8337 87.6445 41.7117C87.7092 41.1616 87.7847 40.6222 87.8602 40.072C87.8818 39.9642 87.9034 39.8563 87.9249 39.7484L87.9789 34.9048L88.0005 34.8401ZM58.5612 7.73088C60.8697 10.5033 62.5849 13.869 64.106 18.6479C64.2462 19.101 64.3757 19.5648 64.5051 20.0287V20.0395H52.8006V3.76105C52.984 3.8042 53.1674 3.84735 53.34 3.90129C55.2278 4.51618 56.8891 5.72439 58.5612 7.73088ZM62.6712 23.2866H65.2387C65.2602 23.2866 65.2926 23.2866 65.325 23.2866C65.5839 24.84 65.8536 26.3934 66.134 27.9899L66.3174 29.0579C66.0909 29.0363 65.8751 29.0148 65.6702 29.0148C60.298 28.8637 55.9721 30.935 52.7574 35.2068V23.2973C52.8114 23.2973 52.8653 23.2973 52.9085 23.2973L62.6712 23.2866ZM84.6779 35.5844H82.3586C80.7404 35.5844 79.1331 35.5844 77.5257 35.5952C77.2992 35.6168 77.1697 35.552 77.0403 35.3579C75.2172 32.7473 72.7792 30.8918 69.8018 29.8454C69.6184 29.7807 69.5861 29.7699 69.5537 29.4786C69.3595 28.0331 69.133 26.5983 68.9064 25.1636L68.6368 23.4592C68.626 23.4052 68.6152 23.3405 68.6152 23.2866H71.6896C74.9798 23.2866 78.2701 23.2866 81.5603 23.2758C81.7868 23.2973 81.8407 23.2973 81.927 23.4807C83.6099 27.2888 84.57 31.3665 84.7858 35.5736C84.7318 35.5844 84.7102 35.5844 84.6779 35.5844ZM73.4696 52.9524C71.3984 56.0269 68.572 58.7777 64.8287 61.3667C60.7402 58.4541 56.3281 54.6892 54.1382 48.961C52.423 44.4734 52.8977 40.3957 55.5406 36.8358C57.7413 33.8692 61.2365 32.1863 64.8503 32.1863C65.9075 32.1863 66.9755 32.3265 68.0326 32.6286C72.6713 33.9555 76.0586 38.0548 76.4577 42.8336C76.749 46.2425 75.7673 49.5435 73.4696 52.9524ZM52.8114 54.2793C53.1674 54.2901 53.3615 54.4195 53.6097 54.7863C55.4112 57.5479 57.8384 60.0938 61.0423 62.5533C61.1502 62.6396 61.1933 62.6828 61.2041 62.6828C61.2041 62.7044 61.1825 62.7691 61.1178 62.877C59.9959 64.8403 58.3993 67.3214 55.9829 69.1014C54.9042 69.8889 53.8901 70.3743 52.8114 70.6117V54.2793ZM63.8363 64.5598C64.9258 65.2287 65.9075 64.5383 66.5763 64.0636L66.7381 63.9449C70.859 61.097 74.009 57.9902 76.3499 54.4411C76.3822 54.3871 76.4901 54.3116 76.5117 54.3116C77.6012 54.2901 78.6908 54.2901 79.8558 54.2901H80.1255C78.5182 57.0409 76.5117 59.522 74.0305 61.8521C70.1902 65.4552 65.1416 68.26 60.2332 69.576C61.5601 68.1629 62.7144 66.5555 63.8363 64.5598ZM78.5829 51.0754H78.1622C79.9745 46.7388 80.201 42.715 78.8526 38.8423H84.7642C84.7534 39.0149 84.7318 39.1982 84.721 39.3708C84.6563 40.1691 84.6024 40.9566 84.4945 41.7441C84.0738 44.8833 83.2108 47.9362 81.9378 50.838C81.83 51.0861 81.7976 51.1077 81.5495 51.0969C80.9562 51.0862 80.3628 51.0754 79.7587 51.0754C79.3704 51.0646 78.982 51.0754 78.5829 51.0754ZM49.5104 54.3224V70.6009C49.2191 70.5254 48.9279 70.4498 48.6582 70.3528C46.7811 69.6624 45.1414 68.3786 43.4909 66.3074C41.2039 63.4379 38.5286 57.7421 37.7951 54.3224H49.5104ZM49.4996 38.8638V51.0322H36.9968C36.1661 47.2566 35.7131 43.2652 35.6052 38.8638H49.4996ZM18.3882 29.3708C19.9416 31.5283 21.8618 33.5563 24.2135 35.5412H17.4713L18.3882 29.3708ZM49.5104 20.0503H43.944C43.9764 19.8237 43.9979 19.5972 44.0195 19.3707C44.2892 16.0805 43.6527 13.0815 42.1317 10.4601C41.9807 10.2012 41.9914 10.1473 42.1209 9.95312C43.6743 7.61221 45.1198 6.08038 46.7919 4.96926C47.7304 4.34358 48.615 3.94444 49.5212 3.75026V20.0503H49.5104ZM39.3701 24.1819L39.273 24.3869C39.1867 24.5595 39.1004 24.7321 39.0249 24.9155C38.6473 25.8001 38.917 26.6415 39.7153 27.0622C40.1144 27.2672 40.5459 27.3103 40.9343 27.1809C41.355 27.0406 41.7002 26.717 41.9159 26.2639C42.3582 25.3362 42.7466 24.4193 43.0702 23.5562C43.1673 23.2866 43.1781 23.2866 43.3938 23.2866C45.4327 23.3189 47.4715 23.3081 49.4996 23.2973C49.5212 23.2973 49.5427 23.2973 49.5643 23.2973C49.5535 26.21 49.5535 29.1226 49.5535 32.0245L49.532 35.552H35.6052C35.5836 34.6351 35.6915 34.0418 36.3711 33.5132C37.0831 32.963 37.6656 32.2726 38.2266 31.6038C38.41 31.388 38.5826 31.1831 38.766 30.9781C39.1219 30.579 39.2945 30.1043 39.2622 29.6512C39.2298 29.2413 39.0356 28.8637 38.712 28.5833C38.3668 28.292 37.9785 28.1518 37.5793 28.1841C37.2665 28.2057 36.8026 28.3567 36.3495 28.8961C34.343 31.2694 31.9914 33.3729 29.3592 35.1637C29.3053 35.196 29.165 35.2284 29.1974 35.2608C24.3214 31.9058 21.1175 28.443 19.111 24.3437C17.2447 20.5142 16.9966 16.9866 18.3343 13.5346C20.3084 8.48601 25.4864 5.48706 30.945 6.24219C36.1338 6.95417 40.2762 11.3016 40.8048 16.5659C41.0637 19.1118 40.5891 21.6037 39.3701 24.1819ZM38.3237 6.04801L42.1533 4.77508L39.8879 7.43961L38.3237 6.04801ZM32.2179 38.8315L33.5556 51.0754H29.3808C26.5113 51.0754 23.6526 51.0754 20.7831 51.0754C20.5026 51.0754 20.5026 51.0754 20.4486 50.9459C18.7766 47.2026 17.8057 43.1573 17.5792 38.8315H32.2179Z" fill="black"/>
<path d="M33.3071 16.3824C31.7645 15.5086 30.2218 14.6456 28.6576 13.8042C27.8701 13.3727 27.0287 13.3511 26.3814 13.7179C25.7234 14.0955 25.3351 14.829 25.3027 15.7352C25.2811 16.3393 25.2919 16.9434 25.2919 17.5475V18.3781V19.1548C25.2919 19.7482 25.2811 20.3415 25.2919 20.9456C25.3135 21.8949 25.7018 22.65 26.3599 23.0384C26.6619 23.211 27.0071 23.2973 27.3631 23.2973C27.7946 23.2973 28.2477 23.1786 28.7008 22.9305C30.2326 22.0998 31.7644 21.2476 33.2855 20.3846C34.1269 19.91 34.6124 19.1764 34.6124 18.3889C34.6339 17.5799 34.1485 16.8571 33.3071 16.3824ZM30.2973 18.3673L28.5605 19.3274V17.4073L30.2973 18.3673Z" fill="black"/>
<path d="M69.7697 43.0603C68.1084 42.1002 66.4363 41.1724 64.7966 40.3094C64.0847 39.9319 63.308 39.9319 62.6715 40.3094C62.035 40.687 61.6359 41.399 61.6143 42.208C61.6035 42.8337 61.6035 43.4594 61.6035 44.0743V44.9157V47.5371V47.6989C61.6359 48.5296 62.035 49.2415 62.6931 49.6299C63.0059 49.8133 63.3619 49.9104 63.7179 49.9104C64.0739 49.9104 64.4406 49.8241 64.7859 49.6407C66.6197 48.6806 68.2595 47.7636 69.8129 46.8359C70.5141 46.4152 70.9348 45.7248 70.9348 44.9697C70.924 44.1822 70.4925 43.481 69.7697 43.0603ZM66.5982 44.9481L64.8398 45.919V43.9664L66.5982 44.9481Z" fill="black"/>
</svg>
