<svg width="23" height="24" viewBox="0 0 23 24" fill="none" xmlns="http://www.w3.org/2000/svg">
<path d="M19.5883 0.844238H3.41167C2.50761 0.846767 1.64131 1.20702 1.00205 1.84629C0.362783 2.48555 0.00252883 3.35185 0 4.2559L0 20.4326C0.00252883 21.3366 0.362783 22.2029 1.00205 22.8422C1.64131 23.4815 2.50761 23.8417 3.41167 23.8442H19.5883C20.4924 23.8417 21.3587 23.4815 21.998 22.8422C22.6372 22.2029 22.9975 21.3366 23 20.4326V4.2559C22.9975 3.35185 22.6372 2.48555 21.998 1.84629C21.3587 1.20702 20.4924 0.846767 19.5883 0.844238V0.844238ZM21.0833 20.4326C21.0833 20.8291 20.9258 21.2093 20.6455 21.4897C20.3651 21.7701 19.9848 21.9276 19.5883 21.9276H3.41167C3.01517 21.9276 2.63491 21.7701 2.35454 21.4897C2.07418 21.2093 1.91667 20.8291 1.91667 20.4326V4.2559C1.91667 3.85941 2.07418 3.47915 2.35454 3.19878C2.63491 2.91841 3.01517 2.7609 3.41167 2.7609H19.5883C19.9848 2.7609 20.3651 2.91841 20.6455 3.19878C20.9258 3.47915 21.0833 3.85941 21.0833 4.2559V20.4326Z" fill="white"/>
<path d="M11.5 6.59424C10.3628 6.59424 9.25106 6.93147 8.30547 7.56329C7.35989 8.19511 6.6229 9.09313 6.1877 10.1438C5.75249 11.1945 5.63862 12.3506 5.86049 13.466C6.08235 14.5814 6.62999 15.606 7.43414 16.4101C8.23829 17.2143 9.26284 17.7619 10.3782 17.9838C11.4936 18.2056 12.6498 18.0917 13.7004 17.6565C14.7511 17.2213 15.6491 16.4843 16.281 15.5388C16.9128 14.5932 17.25 13.4815 17.25 12.3442C17.25 10.8192 16.6442 9.35671 15.5659 8.27837C14.4875 7.20004 13.025 6.59424 11.5 6.59424ZM11.5 16.1776C10.7418 16.1776 10.0007 15.9527 9.37032 15.5315C8.73993 15.1103 8.2486 14.5116 7.95846 13.8112C7.66833 13.1107 7.59242 12.34 7.74033 11.5964C7.88824 10.8528 8.25333 10.1698 8.78943 9.63366C9.32553 9.09756 10.0086 8.73247 10.7522 8.58456C11.4957 8.43665 12.2665 8.51256 12.967 8.8027C13.6674 9.09284 14.2661 9.58416 14.6873 10.2146C15.1085 10.8449 15.3333 11.5861 15.3333 12.3442C15.3333 13.3609 14.9295 14.3359 14.2106 15.0548C13.4917 15.7737 12.5167 16.1776 11.5 16.1776Z" fill="white"/>
<path d="M17.7285 7.55273C18.5224 7.55273 19.166 6.90914 19.166 6.11523C19.166 5.32133 18.5224 4.67773 17.7285 4.67773C16.9346 4.67773 16.291 5.32133 16.291 6.11523C16.291 6.90914 16.9346 7.55273 17.7285 7.55273Z" fill="white"/>
</svg>
