<svg width="23" height="24" viewBox="0 0 23 24" fill="none" xmlns="http://www.w3.org/2000/svg">
<path fill-rule="evenodd" clip-rule="evenodd" d="M16.2751 16.9503C16.0879 17.2581 15.6895 17.3487 15.3877 17.1676C12.9549 15.6826 9.90026 15.3445 6.29633 16.1715C5.94619 16.25 5.6021 16.0327 5.52362 15.6886C5.44514 15.3385 5.66247 14.9944 6.00656 14.9159C9.94856 14.0164 13.3291 14.4028 16.0577 16.0689C16.3656 16.25 16.4622 16.6484 16.2751 16.9503ZM17.2772 13.0204C14.0837 11.0584 9.41129 10.5091 5.65039 11.65C5.22179 11.7828 4.98635 12.2295 5.11312 12.6581C5.23989 13.0868 5.69265 13.3222 6.12126 13.1954C9.41129 12.1994 13.6551 12.6944 16.432 14.4028C16.8123 14.6382 17.3074 14.5175 17.5428 14.1372C17.7722 13.7508 17.6575 13.2558 17.2772 13.0204ZM18.6354 9.53111C14.7961 7.25526 8.7231 7.03794 5.06483 8.1487C4.55171 8.30566 4.26194 8.84293 4.4189 9.35605C4.57585 9.86917 5.11312 10.1589 5.62625 10.002C8.81365 9.0361 14.3131 9.2172 17.6514 11.1973C18.1102 11.4689 18.7018 11.318 18.9795 10.8592C19.2512 10.4004 19.1003 9.8088 18.6354 9.53111ZM23 12.3442C23 18.6949 17.8507 23.8442 11.5 23.8442C5.14934 23.8442 0 18.6949 0 12.3442C0 5.99358 5.14934 0.844238 11.5 0.844238C17.8567 0.844238 23 5.99358 23 12.3442ZM20.706 12.3442C20.706 9.88728 19.7462 7.57521 18.0136 5.83663C16.2751 4.09804 13.969 3.14424 11.5121 3.14424C9.05512 3.14424 6.74304 4.10408 5.00446 5.83663C3.26588 7.57521 2.31207 9.88125 2.31207 12.3442C2.31207 14.8012 3.27192 17.1133 5.00446 18.8458C6.74304 20.5844 9.04908 21.5382 11.5121 21.5382C13.969 21.5382 16.2811 20.5784 18.0136 18.8458C19.7462 17.1133 20.706 14.8012 20.706 12.3442Z" fill="white"/>
<path d="M16.2751 16.9503C16.0879 17.2581 15.6895 17.3487 15.3877 17.1676C12.9549 15.6826 9.90026 15.3445 6.29633 16.1715C5.94619 16.25 5.6021 16.0327 5.52362 15.6886C5.44514 15.3385 5.66247 14.9944 6.00656 14.9159C9.94856 14.0164 13.3291 14.4028 16.0577 16.0689C16.3656 16.25 16.4622 16.6484 16.2751 16.9503ZM17.2772 13.0204C14.0837 11.0584 9.41129 10.5091 5.65039 11.65C5.22179 11.7828 4.98635 12.2295 5.11312 12.6581C5.23989 13.0868 5.69265 13.3222 6.12126 13.1954C9.41129 12.1994 13.6551 12.6944 16.432 14.4028C16.8123 14.6382 17.3074 14.5175 17.5428 14.1372C17.7722 13.7508 17.6575 13.2558 17.2772 13.0204ZM18.6354 9.53111C14.7961 7.25526 8.7231 7.03794 5.06483 8.1487C4.55171 8.30566 4.26194 8.84293 4.4189 9.35605C4.57585 9.86917 5.11312 10.1589 5.62625 10.002C8.81365 9.0361 14.3131 9.2172 17.6514 11.1973C18.1102 11.4689 18.7018 11.318 18.9795 10.8592C19.2512 10.4004 19.1003 9.8088 18.6354 9.53111ZM23 12.3442C23 18.6949 17.8507 23.8442 11.5 23.8442C5.14934 23.8442 0 18.6949 0 12.3442C0 5.99358 5.14934 0.844238 11.5 0.844238C17.8567 0.844238 23 5.99358 23 12.3442ZM20.706 12.3442C20.706 9.88728 19.7462 7.57521 18.0136 5.83663C16.2751 4.09804 13.969 3.14424 11.5121 3.14424C9.05512 3.14424 6.74304 4.10408 5.00446 5.83663C3.26588 7.57521 2.31207 9.88125 2.31207 12.3442C2.31207 14.8012 3.27192 17.1133 5.00446 18.8458C6.74304 20.5844 9.04908 21.5382 11.5121 21.5382C13.969 21.5382 16.2811 20.5784 18.0136 18.8458C19.7462 17.1133 20.706 14.8012 20.706 12.3442Z" fill="white"/>
</svg>
