<svg width="23" height="20" viewBox="0 0 23 20" fill="none" xmlns="http://www.w3.org/2000/svg">
<path d="M20.6234 5.44424C20.6234 5.67424 20.6234 5.82742 20.6234 6.05742C20.6234 12.2674 15.87 19.4741 7.20669 19.4741C4.52335 19.4741 2.07 18.7076 0 17.3276C0.383333 17.4042 0.766667 17.4047 1.15 17.4047C3.37333 17.4047 5.36665 16.6376 6.97665 15.4109C4.90665 15.3342 3.14335 14.0311 2.60669 12.1144C2.91335 12.1911 3.21998 12.1908 3.52665 12.1908C3.98665 12.1908 4.36996 12.1147 4.7533 12.038C2.60663 11.578 0.996704 9.73802 0.996704 7.43802V7.3609C1.61004 7.74424 2.37665 7.89742 3.14331 7.97409C1.83998 7.13076 1.07335 5.67439 1.07335 4.06439C1.07335 3.22105 1.3033 2.37802 1.68663 1.68802C3.98663 4.52469 7.51335 6.4409 11.4234 6.59424C11.3467 6.2109 11.27 5.90469 11.27 5.52135C11.27 2.91469 13.34 0.844238 15.9467 0.844238C17.3267 0.844238 18.5534 1.3812 19.3967 2.3012C20.47 2.0712 21.4666 1.68787 22.3866 1.1512C22.0033 2.22454 21.3133 3.14409 20.3167 3.75742C21.2367 3.68076 22.1567 3.37409 23 2.99076C22.3867 3.91076 21.5434 4.75424 20.6234 5.44424Z" fill="white"/>
</svg>
