<svg width="81" height="80" viewBox="0 0 81 80" fill="none" xmlns="http://www.w3.org/2000/svg">
<path d="M14.8096 4.74988H4.93278L0 13.3008L4.93278 21.8517H14.8096L19.7536 13.3008L14.8096 4.74988Z" fill="#FF1241"/>
<path d="M46.0355 0.311439L45.2377 0.0417658L43.5185 0.00805664L43.2601 0.075475L43.2039 0.120421C40.5521 0.727186 39.215 2.90705 39.1026 4.69364C38.9453 7.08699 40.0353 8.82863 42.3949 9.98598C42.4399 10.0309 42.4848 10.1545 42.496 10.2219C42.5185 11.413 42.5185 12.6041 42.5185 13.7839V16.3233H46.204V14.2558C46.204 12.9299 46.2153 11.6265 46.1928 10.3231C46.1928 9.99722 46.2153 9.94103 46.4962 9.81743C48.4513 8.9747 49.6199 7.08699 49.5188 4.90713C49.4177 2.82839 48.0581 1.01933 46.0355 0.311439ZM45.867 5.19927C45.8557 5.58131 45.6872 5.95211 45.395 6.21055C45.0692 6.5027 44.6534 6.64877 44.1815 6.63753C43.777 6.61506 43.3837 6.42404 43.1028 6.10942C42.8444 5.81728 42.7095 5.45771 42.732 5.10938C42.7769 4.30036 43.4624 3.6936 44.3051 3.6936C44.3276 3.6936 44.3613 3.6936 44.3838 3.6936C45.2265 3.73854 45.8894 4.41273 45.867 5.19927Z" fill="#141414"/>
<path d="M23.7313 26.7057L22.4728 25.8967C21.248 25.1102 20.0345 24.3236 18.7985 23.5596C18.5176 23.3798 18.4951 23.3236 18.5288 23.0652C18.8097 20.6943 17.5063 18.5144 15.2703 17.6492C13.0792 16.7952 10.5622 17.5031 9.15768 19.3684C7.74189 21.2561 7.76436 23.773 9.21386 25.6271C10.6746 27.4811 13.2253 28.1215 15.4276 27.1664C15.7872 27.0091 16.1242 26.8069 16.4501 26.6046C16.495 26.5709 16.5512 26.5484 16.5962 26.5147L22.4279 30.234L24.3268 27.2676L23.8774 26.8518C23.8212 26.7844 23.7762 26.7395 23.7313 26.7057ZM12.2252 21.4246C12.5286 21.1325 12.9219 20.9752 13.3601 20.9752C13.3713 20.9752 13.3713 20.9752 13.3826 20.9752C14.2365 20.9864 14.9107 21.6269 14.9219 22.4247C14.9219 22.8067 14.7871 23.1775 14.5062 23.4472C14.2141 23.7506 13.8095 23.9191 13.3601 23.9191C12.9106 23.9191 12.5061 23.7506 12.2027 23.4472C11.9331 23.1775 11.7758 22.818 11.787 22.4359C11.7982 22.0651 11.9443 21.7055 12.2252 21.4246Z" fill="#141414"/>
<path d="M78.0031 53.3921C76.1041 52.0325 73.8681 52.0775 71.6882 53.5045L66.3172 50.0774L65.8228 49.8077L63.8677 52.8528L65.7554 54.0663C66.9464 54.8416 68.1038 55.5832 69.2949 56.3024C69.7106 56.5496 69.778 56.6957 69.7331 57.1563C69.4522 59.5385 71.1376 61.8981 73.5647 62.5386C74.0141 62.6622 74.4636 62.7184 74.9131 62.7184C76.9244 62.7184 78.8009 61.5835 79.6773 59.707C80.711 57.4822 80.0144 54.8304 78.0031 53.3921ZM76.0479 58.5721C75.7446 58.8755 75.3063 58.9991 74.8906 59.0328C74.4524 59.0328 74.0479 58.853 73.7557 58.5497C73.486 58.2687 73.34 57.9092 73.3512 57.5271C73.3737 56.6957 74.0479 56.0889 74.9243 56.0889C74.9355 56.0889 74.958 56.0889 74.9692 56.0889C75.812 56.1114 76.4862 56.7743 76.4862 57.5721C76.4862 57.9429 76.3288 58.3025 76.0479 58.5721Z" fill="#141414"/>
<path d="M16.3602 53.1787C16.2029 53.0776 16.0568 52.9765 15.8995 52.8754C13.9444 51.7068 11.4611 51.9315 9.7307 53.4259C8.07895 54.8417 7.51713 57.2463 8.35986 59.2576C9.19136 61.224 11.1015 62.4375 13.2028 62.4375C13.641 62.4375 14.0904 62.3813 14.5286 62.2802C17.0119 61.6735 18.6524 59.3026 18.3715 56.7519C18.3266 56.3137 18.394 56.2013 18.7086 56.0215C19.3266 55.662 19.9334 55.2687 20.5289 54.8754L24.2144 52.5046L22.2368 49.4258L16.3602 53.1787ZM11.6297 57.3137C11.6184 56.9429 11.7645 56.5834 12.0454 56.2912C12.3375 55.9878 12.7533 55.8081 13.1803 55.8081H13.1915C13.6297 55.8081 14.0342 55.9654 14.3264 56.2687C14.6073 56.5384 14.7534 56.9092 14.7534 57.2913C14.7534 57.6733 14.5961 58.0441 14.3264 58.3138C14.023 58.6172 13.6522 58.7969 13.1803 58.7745C12.3263 58.752 11.6409 58.1115 11.6297 57.3137Z" fill="#141414"/>
<path d="M46.2603 70.2355C45.7996 70.0333 45.7322 69.9209 45.7434 69.4153C45.7771 68.1905 45.7771 66.9657 45.7659 65.7297V63.6735H42.0803V65.7747C42.0803 67.0556 42.0691 68.2916 42.0916 69.5389C42.1028 69.9771 42.0466 70.067 41.687 70.2243C39.5072 71.2131 38.3161 73.6177 38.8555 75.9661C39.3948 78.3033 41.541 80 43.9793 80C43.9905 80 44.0017 80 44.013 80C46.4288 79.9887 48.5188 78.337 49.0806 75.9886C49.6424 73.6514 48.4289 71.1794 46.2603 70.2355ZM42.4062 74.82C42.4062 74.4492 42.5635 74.0896 42.8444 73.8199C43.1478 73.5278 43.5523 73.3592 43.9793 73.3592C43.9905 73.3592 43.9905 73.3592 44.0017 73.3592C44.8445 73.3705 45.5299 74.0222 45.5411 74.82C45.5411 75.1908 45.3951 75.5503 45.1254 75.8313C44.822 76.1346 44.4063 76.3032 43.9793 76.3032C43.5411 76.3032 43.1253 76.1346 42.8332 75.8313C42.5523 75.5616 42.4062 75.202 42.4062 74.82Z" fill="#141414"/>
<path d="M70.9579 17.6155H67.5308C65.4745 24.6382 62.4856 34.706 62.4856 34.706C62.4856 34.7173 62.4744 34.7285 62.4744 34.7398C61.8901 37.1331 59.5192 39.7175 56.3169 41.2569C52.71 43.0996 48.8896 42.8412 46.8558 40.8186C45.867 39.9984 45.1816 38.9759 44.9456 37.7848C44.2827 34.4139 47.4513 30.9756 52.1369 29.7957C52.4515 29.7171 52.7662 29.6497 53.092 29.5935C53.6089 29.5036 54.1145 29.4474 54.6202 29.4137C56.5416 29.2901 58.3507 29.571 59.8563 30.189C59.9237 30.2227 59.9912 30.2564 60.0586 30.2901L63.5531 17.6155H38.8555C37.3049 17.6155 36.0352 18.8065 36.0352 20.2897V43.3131C36.0352 44.7851 37.2936 45.9874 38.8555 45.9874H70.9579C72.5085 45.9874 73.7782 44.7963 73.7782 43.3131V20.2785C73.7782 18.8065 72.5198 17.6155 70.9579 17.6155ZM54.5865 20.8291C55.8449 20.8291 56.8562 21.7954 56.8562 22.9865C56.8562 24.1775 55.8337 25.1439 54.5865 25.1439C53.328 25.1439 52.3167 24.1775 52.3167 22.9865C52.3055 21.7954 53.328 20.8291 54.5865 20.8291ZM48.0693 20.8291C49.3278 20.8291 50.3391 21.7954 50.3391 22.9865C50.3391 24.1775 49.3166 25.1439 48.0693 25.1439C46.8109 25.1439 45.7996 24.1775 45.7996 22.9865C45.7996 21.7954 46.8109 20.8291 48.0693 20.8291ZM41.5522 25.1439C40.2938 25.1439 39.2825 24.1775 39.2825 22.9865C39.2825 21.7954 40.305 20.8291 41.5522 20.8291C42.8107 20.8291 43.822 21.7954 43.822 22.9865C43.8332 24.1775 42.8107 25.1439 41.5522 25.1439Z" fill="#0C0C0C"/>
<path d="M57.5416 48.7628C54.6314 52.9764 49.7773 55.7406 44.2827 55.7406C35.4059 55.7406 28.1809 48.5156 28.1809 39.6388C28.1809 35.3578 29.8776 31.47 32.608 28.5822V22.6943C27.2258 26.4136 23.6863 32.6273 23.6863 39.6501C23.6863 51.0101 32.9227 60.2464 44.2827 60.2464C52.3616 60.2464 59.3507 55.5608 62.7216 48.774H57.5416V48.7628Z" fill="#0C0C0C"/>
</svg>
