<svg width="297" height="58" viewBox="0 0 297 58" fill="none" xmlns="http://www.w3.org/2000/svg">
<path d="M50.9403 0.710938H45.9304C42.9283 10.9411 38.5685 25.6457 38.5685 25.6457C38.5685 25.6648 38.5494 25.6839 38.5494 25.6839C37.7081 29.1832 34.2279 32.9502 29.5622 35.1874C24.3037 37.8645 18.7202 37.5012 15.7563 34.5373C14.3031 33.3517 13.3087 31.8411 12.9645 30.1202C11.9893 25.1868 16.6168 20.1769 23.4624 18.4559C23.9213 18.3412 24.3802 18.2456 24.8583 18.15C25.6231 18.0352 26.3689 17.9587 27.0955 17.9205C29.8873 17.7293 32.5261 18.15 34.7251 19.0487C34.8207 19.1061 34.9163 19.1443 35.0119 19.2017L40.1174 0.710938H4.11117C1.83569 0.710938 0 2.45102 0 4.61177V38.1895C0 40.3503 1.83569 42.0904 4.11117 42.0904H50.9403C53.2158 42.0904 55.0515 40.3503 55.0515 38.1895V4.61177C55.0515 2.45102 53.1967 0.710938 50.9403 0.710938ZM27.0381 5.41489C28.8738 5.41489 30.3462 6.82989 30.3462 8.56997C30.3462 10.3101 28.8547 11.7251 27.0381 11.7251C25.2025 11.7251 23.7301 10.3101 23.7301 8.56997C23.7301 6.81077 25.2025 5.41489 27.0381 5.41489ZM17.5346 5.41489C19.3703 5.41489 20.8427 6.82989 20.8427 8.56997C20.8427 10.3101 19.3512 11.7251 17.5346 11.7251C15.6989 11.7251 14.2266 10.3101 14.2266 8.56997C14.2266 6.81077 15.7181 5.41489 17.5346 5.41489ZM8.03113 11.7059C6.19544 11.7059 4.72307 10.2909 4.72307 8.55085C4.72307 6.81077 6.21457 5.39576 8.03113 5.39576C9.86682 5.39576 11.3392 6.81077 11.3392 8.55085C11.3583 10.2909 9.86682 11.7059 8.03113 11.7059Z" fill="#FF1241"/>
<path opacity="0.25" d="M64.634 17.1732L59.1269 7.36377V19.6208L65.418 30.7879L53.7154 51.057H46.5066H32.0696H30.3104L27.0215 45.3204H19.9465L26.792 57.1759H30.4252H57.253L58.8401 54.4224L65.2841 43.2744L72.493 30.7879L64.634 17.1732Z" fill="#FF1241"/>
<path d="M101.061 22.9276L99.7417 25.662C97.9442 24.5147 95.6114 23.769 93.4506 23.769C90.8501 23.769 88.8805 24.6868 88.8805 26.8476C88.8805 31.9913 101.807 29.3525 101.807 37.6705C101.807 42.2406 97.753 44.2675 93.3168 44.2675C90.0278 44.2675 86.6242 43.1202 84.4443 41.0168L85.7637 38.4162C87.7523 40.271 90.7353 41.361 93.4506 41.361C96.1659 41.361 98.384 40.3475 98.4223 38.072C98.5561 32.4885 85.5916 35.3376 85.6298 27.1153C85.6298 22.679 89.4542 20.8242 93.6801 20.8242C96.4336 20.8242 99.1298 21.6082 101.061 22.9276Z" fill="white"/>
<path d="M128.578 32.507C128.578 39.4481 123.702 44.2477 116.837 44.2477C109.973 44.2477 105.097 39.4481 105.097 32.507C105.097 25.604 109.973 20.8618 116.837 20.8618C123.702 20.8618 128.578 25.604 128.578 32.507ZM108.539 32.5643C108.539 37.6698 112.019 41.1882 116.857 41.1882C121.694 41.1882 125.174 37.6698 125.174 32.5643C125.174 27.5162 121.694 23.9978 116.857 23.9978C112.019 23.9978 108.539 27.4971 108.539 32.5643Z" fill="white"/>
<path d="M155.806 29.8306V44.1145H152.384V30.7484C152.384 26.6563 149.917 24.247 145.825 24.247C141.255 24.2853 138.444 27.2874 138.042 31.6854V44.1336H134.619V20.9581H138.042V26.0636C139.668 22.5452 142.784 20.8816 147.01 20.8242C152.556 20.8242 155.806 24.247 155.806 29.8306Z" fill="white"/>
<path d="M183.647 41.7052C183.647 48.4743 179.039 52.7384 172.002 52.7384C168.35 52.7002 165.309 51.5146 162.498 49.3921L164.085 46.7533C166.38 48.6464 168.789 49.6598 171.868 49.6981C176.916 49.6981 180.224 46.6194 180.224 41.7816V38.2632C178.599 41.3418 175.616 43.101 171.696 43.101C165.462 43.101 161.141 38.4927 161.141 31.8957C161.141 25.4326 165.405 20.8625 171.6 20.8242C175.559 20.8242 178.542 22.5834 180.224 25.662V20.9581H183.647V41.7052V41.7052ZM180.224 32.0296C180.224 27.1918 176.935 23.8072 172.308 23.8072C167.642 23.8072 164.391 27.23 164.353 32.0296C164.391 36.7717 167.642 40.2137 172.308 40.2137C176.916 40.2137 180.224 36.7717 180.224 32.0296Z" fill="white"/>
<path d="M216.099 32.4305C216.099 39.6012 211.739 44.3816 205.104 44.3816C201.815 44.3816 199.214 43.0622 197.493 40.6911V52.6422H190.724V20.4603H197.493V23.9405C199.176 21.5694 201.757 20.25 204.97 20.25C211.624 20.25 216.099 25.126 216.099 32.4305ZM209.253 32.2011C209.253 28.415 206.882 25.6997 203.402 25.6997C199.922 25.6997 197.512 28.3767 197.512 32.2011C197.512 36.121 199.941 38.7598 203.402 38.7598C206.863 38.7598 209.253 36.0828 209.253 32.2011Z" fill="white"/>
<path d="M234.319 41.3606C232.732 43.3301 230.189 44.4392 226.88 44.4392C221.832 44.4392 218.754 41.3606 218.754 37.0582C218.754 32.6219 221.966 29.9831 227.76 29.9258H234.261V29.486C234.261 26.981 232.598 25.5278 229.328 25.5278C227.225 25.5278 224.758 26.2353 222.291 27.5929L220.188 22.9272C223.706 21.168 226.747 20.2119 230.877 20.2119C237.206 20.2119 240.858 23.3861 240.897 28.702L240.935 44.1332H234.3V41.3606H234.319ZM234.261 36.0256V33.9222H228.946C226.345 33.9222 225.083 34.7062 225.083 36.5992C225.083 38.3967 226.498 39.5822 228.774 39.5822C231.623 39.6014 233.879 38.0525 234.261 36.0256Z" fill="white"/>
<path d="M268.97 41.9158C268.97 48.6466 263.922 52.9108 256.35 52.9108C252.353 52.9108 248.777 51.6296 246.062 49.7939L248.567 45.0517C250.728 46.6006 253.233 47.4228 255.91 47.4228C259.772 47.4228 262.239 45.3577 262.239 42.1452V39.4682C260.652 41.6672 258.243 42.891 255.126 42.891C249.007 42.891 244.8 38.3209 244.8 31.4562C244.8 24.7636 248.93 20.2508 254.954 20.2508C258.166 20.2126 260.633 21.4746 262.258 23.6736V20.4612H268.989V41.9158H268.97ZM262.239 31.6283C262.239 27.976 260.002 25.4711 256.694 25.4711C253.386 25.4711 251.149 28.0143 251.11 31.6283C251.149 35.2423 253.348 37.7472 256.694 37.7472C260.002 37.7472 262.239 35.2423 262.239 31.6283Z" fill="white"/>
<path d="M296.944 34.3619H279.964C280.748 37.3449 283.043 39.1041 286.083 39.1041C288.321 39.1041 290.443 38.2245 292.068 36.5992L295.625 40.2132C293.254 42.852 289.774 44.3817 285.51 44.3817C277.937 44.3817 273.157 39.5439 273.157 32.3733C273.157 25.0688 278.129 20.231 285.338 20.231C293.636 20.2501 297.518 25.738 296.944 34.3619ZM290.596 30.3655C290.52 27.2486 288.493 25.2217 285.357 25.2217C282.374 25.2217 280.347 27.2486 279.811 30.3655H290.596Z" fill="white"/>
</svg>
