<svg width="250" height="48" viewBox="0 0 250 48" fill="none" xmlns="http://www.w3.org/2000/svg">
<path d="M44.3563 1.66728C44.3416 0.760512 43.625 0.0292505 42.7182 0L33.5336 0.248629C32.5391 0.219378 31.6323 0.804388 31.2521 1.72578L29.5117 5.32358L7.51531 5.79159C6.25754 5.82084 5.17527 6.68373 4.85352 7.89762L37.3215 7.51737C38.2137 7.50274 38.9742 8.16088 39.0912 9.05302L42.7182 37.1042C44.0199 35.4077 44.7219 33.3163 44.6926 31.181L44.3563 1.66728Z" fill="#FF1241"/>
<path d="M35.1871 10.7349L31.6331 10.7787C29.9951 17.4625 27.8013 26.3692 27.8013 26.3692C27.8013 26.3839 27.7867 26.3839 27.7867 26.3985C27.3333 28.6946 25.2566 31.2394 22.4046 32.8043C19.2017 34.6617 15.7355 34.5301 13.8196 32.6581C12.8982 31.9122 12.2547 30.9469 12.0061 29.8208C11.3041 26.6179 14.0536 23.2541 18.2803 21.9817C18.5582 21.8939 18.8507 21.8208 19.1432 21.7623C19.6112 21.6599 20.0646 21.5868 20.518 21.5429C22.2438 21.3674 23.8964 21.5868 25.2712 22.1279C25.3297 22.1572 25.3882 22.1864 25.4613 22.2157L28.0646 10.808L1.0518 11.1151C0.408287 11.1151 -0.0889708 11.7001 0.0134058 12.3436L3.52346 35.3637C3.71359 36.6069 4.78123 37.5283 6.039 37.5429L39.2236 37.733C39.4723 37.733 39.677 37.5137 39.6478 37.265L36.635 12.0073C36.5472 11.276 35.9183 10.7349 35.1871 10.7349Z" fill="#FF1241"/>
<path opacity="0.5" d="M47.9996 7.82446V17.1846L52.1825 24.4241L54.1422 27.8172L45.1916 43.3199H39.6779H27.9923H27.3049L25.4914 40.1901H20.0801L24.5993 48H26.7199H47.8973L49.1112 45.9086L54.0399 37.3674L59.5536 27.8172L47.9996 7.82446Z" fill="#FF1241"/>
<path d="M67.582 36.3874L68.3571 35.0419C69.7026 36.1827 72.0865 37.1626 74.6752 37.1626C78.3754 37.1626 79.8525 35.8463 79.8525 33.8719C79.8525 28.753 68.2108 32.5264 68.2108 25.6379C68.2108 22.9761 70.4339 20.8262 74.8653 20.8262C77.0884 20.8262 79.5015 21.4989 80.8909 22.5373L80.1158 23.8828C78.6386 22.8006 76.7227 22.3033 74.8361 22.3033C71.3991 22.3033 69.8927 23.722 69.8927 25.594C69.8927 30.8737 81.5344 27.1443 81.5344 33.828C81.5344 36.6799 79.0774 38.6397 74.6021 38.6397C71.7209 38.6397 68.9567 37.6598 67.582 36.3874Z" fill="white"/>
<path d="M84.3417 29.7329C84.3417 24.5264 88.0712 20.8262 93.1169 20.8262C98.1626 20.8262 101.892 24.5264 101.892 29.7329C101.892 34.9395 98.1626 38.6397 93.1169 38.6397C88.0712 38.6397 84.3417 34.9395 84.3417 29.7329ZM100.181 29.7329C100.181 25.3307 97.1534 22.3326 93.1169 22.3326C89.0803 22.3326 86.0529 25.3307 86.0529 29.7329C86.0529 34.1351 89.0803 37.1333 93.1169 37.1333C97.1534 37.1333 100.181 34.1351 100.181 29.7329Z" fill="white"/>
<path d="M122.807 28.2559V38.5081H121.125V28.3875C121.125 24.424 119.004 22.3326 115.436 22.3326C111.297 22.3326 108.781 24.9944 108.781 29.1626V38.5081H107.099V20.9579H108.708V24.7604C109.878 22.3034 112.335 20.8262 115.67 20.8262C119.955 20.8116 122.807 23.3418 122.807 28.2559Z" fill="white"/>
<path d="M145.594 20.9578V36.6214C145.594 42.5008 142.742 45.1626 137.082 45.1626C133.894 45.1626 130.822 44.1534 129.038 42.3691L129.945 41.0967C131.7 42.7055 134.215 43.6562 137.038 43.6562C141.718 43.6562 143.897 41.5062 143.897 36.8262V33.8719C142.449 36.4313 139.758 37.8792 136.599 37.8792C131.627 37.8792 127.853 34.3399 127.853 29.3381C127.853 24.3216 131.627 20.8262 136.599 20.8262C139.832 20.8262 142.552 22.3033 143.97 24.9359V20.9724H145.594V20.9578ZM143.941 29.3234C143.941 25.1845 140.914 22.3326 136.746 22.3326C132.607 22.3326 129.579 25.1845 129.579 29.3234C129.579 33.4624 132.607 36.3582 136.746 36.3582C140.914 36.3582 143.941 33.4624 143.941 29.3234Z" fill="white"/>
<path d="M156.547 19.6124V20.6946H161.491V24.0584H156.679V38.5228H152.481V24.0584H149.527V20.6946H152.481V19.5539C152.481 15.7805 154.734 13.3381 158.902 13.3381C160.35 13.3381 161.754 13.6453 162.704 14.318L161.534 17.4771C160.891 17.0383 160.087 16.7312 159.209 16.7312C157.469 16.7166 156.547 17.6965 156.547 19.6124Z" fill="white"/>
<path d="M162.574 29.5281C162.574 24.1461 166.611 20.3435 172.124 20.3435C177.711 20.3435 181.704 24.1461 181.704 29.5281C181.704 34.9102 177.697 38.742 172.124 38.742C166.611 38.742 162.574 34.9102 162.574 29.5281ZM177.477 29.5281C177.477 26.0912 175.196 23.9121 172.124 23.9121C169.097 23.9121 166.815 26.0912 166.815 29.5281C166.815 32.9651 169.097 35.1442 172.124 35.1442C175.196 35.1442 177.477 32.9651 177.477 29.5281Z" fill="white"/>
<path d="M185.754 13.5576H189.951V38.5083H185.754V13.5576V13.5576Z" fill="white"/>
<path d="M213.06 13.5576V38.5083H209.023V36.1828C207.604 37.894 205.528 38.7423 203.07 38.7423C197.864 38.7423 193.988 35.1152 193.988 29.5284C193.988 23.9415 197.849 20.3437 203.07 20.3437C205.396 20.3437 207.443 21.1189 208.862 22.7715V13.5576H213.06V13.5576ZM208.921 29.5284C208.921 26.0914 206.595 23.9123 203.568 23.9123C200.54 23.9123 198.215 26.0914 198.215 29.5284C198.215 32.9653 200.54 35.1445 203.568 35.1445C206.61 35.1445 208.921 32.9653 208.921 29.5284Z" fill="white"/>
<path d="M235.391 30.8739H221.307C221.804 33.4918 223.998 35.1737 227.128 35.1737C229.146 35.1737 230.725 34.5302 231.998 33.2286L234.25 35.8172C232.641 37.7331 230.111 38.7423 227.025 38.7423C221 38.7423 217.109 34.8812 217.109 29.5284C217.109 24.1756 221.044 20.3438 226.396 20.3438C231.647 20.3438 235.479 24.0147 235.479 29.6308C235.464 29.9672 235.435 30.4644 235.391 30.8739ZM221.278 28.0805H231.471C231.135 25.4918 229.146 23.7076 226.396 23.7076C223.661 23.7076 221.672 25.4626 221.278 28.0805Z" fill="white"/>
<path d="M249.899 20.3435V24.3508C249.534 24.2777 249.227 24.2484 248.92 24.2484C245.731 24.2484 243.713 26.1351 243.713 29.7914V38.508H239.516V20.5483H243.523V23.1662C244.722 21.2941 246.901 20.3435 249.899 20.3435Z" fill="white"/>
</svg>
