<svg width="221" height="86" viewBox="0 0 221 86" fill="none" xmlns="http://www.w3.org/2000/svg">
<path d="M104.83 0.00718537L53.0619 19.4233C51.2131 20.1075 48.3104 21.2724 47.8852 23.2325L40.952 51.2287L40.6008 51.0253C37.6748 49.8272 34.5084 49.3332 31.3565 49.583C30.4456 49.6483 29.5385 49.7594 28.6387 49.9158C28.0656 50.0268 27.4925 50.1562 26.9378 50.3041C18.6365 52.5046 13.0345 58.9212 14.2178 65.2083C14.6578 67.4244 15.8457 69.4221 17.5826 70.8667C21.2803 74.565 27.9547 75.1197 34.3332 71.6803C40.0091 68.8141 44.206 63.9879 45.2413 59.5314C45.2413 59.5314 52.4703 34.0686 53.3578 30.1853C53.5566 29.2942 53.9635 28.4627 54.5451 27.7589C55.1267 27.0551 55.8665 26.4989 56.7042 26.1357L97.1198 6.71962C97.24 6.66077 97.3786 6.65206 97.5051 6.69541C97.6317 6.73876 97.7358 6.83061 97.7947 6.95076C97.8535 7.07091 97.8622 7.20953 97.8189 7.3361C97.7755 7.46268 97.6837 7.56685 97.5636 7.6257L58.1278 28.78C57.0443 29.2919 56.1072 30.0684 55.4028 31.0379C54.6984 32.0074 54.2494 33.1387 54.0973 34.3275C53.928 35.0192 54.0075 35.7485 54.3218 36.3875C54.6362 37.0265 55.1654 37.5345 55.8167 37.8224L57.037 38.5435C63.5264 41.4282 68.5922 41.4097 73.011 38.4141C73.0885 38.3627 73.1501 38.2908 73.1889 38.2063C73.2277 38.1218 73.2422 38.0281 73.2307 37.9359C73.2191 37.8436 73.1821 37.7564 73.1237 37.6841C73.0652 37.6117 72.9878 37.5572 72.9 37.5265L57.4252 32.4413C57.3334 32.4038 57.2548 32.3399 57.1995 32.2575C57.1441 32.1752 57.1146 32.0782 57.1146 31.979C57.1146 31.8798 57.1441 31.7829 57.1995 31.7005C57.2548 31.6182 57.3334 31.5542 57.4252 31.5167L57.8505 31.2948C57.9941 31.2353 58.148 31.2047 58.3034 31.2047C58.4589 31.2047 58.6128 31.2353 58.7564 31.2948L71.1436 35.1966C72.5035 35.6322 73.9359 35.7955 75.359 35.6773C79.3842 35.3961 83.2776 34.1247 86.6933 31.9763C90.109 29.8278 92.9412 26.8687 94.9382 23.362C94.9757 23.2905 94.9931 23.2102 94.9883 23.1296C94.9836 23.049 94.9569 22.9712 94.9113 22.9047C94.8657 22.8381 94.8027 22.7852 94.7293 22.7518C94.6558 22.7183 94.5747 22.7055 94.4945 22.7148L68.2779 26.0433C68.2215 26.0604 68.1606 26.0545 68.1086 26.0267C68.0566 25.999 68.0177 25.9517 68.0006 25.8953C67.9834 25.8389 67.9894 25.778 68.0171 25.726C68.0448 25.674 68.0921 25.6351 68.1485 25.618L69.5351 24.9153C70.3315 24.509 71.1859 24.2283 72.068 24.0832C84.4738 21.9936 102.703 18.9425 105.347 3.98287C105.532 2.02276 105.218 -0.140747 104.83 0.00718537Z" fill="#FF1241"/>
<path opacity="0.25" d="M51.8045 48.0483L49.6229 56.1106L52.0819 60.4006L40.767 80.0016H33.8153H18.1556L6.84071 60.4006L18.1556 40.8181H25.1258H39.898L41.5065 34.8823H14.7353L13.2007 37.5451L6.97013 48.3441L0 60.4006L14.7353 85.9374H44.2058L45.7219 83.2746L51.9525 72.4756L58.9226 60.4006L51.8045 48.0483Z" fill="#FF8098"/>
<path d="M77.8917 55.0193C75.3958 55.0193 73.473 55.9069 73.473 58.0335C73.473 63.1002 85.9712 60.5113 85.9712 68.5367C85.9712 72.9191 82.0701 74.8792 77.7623 74.8792C74.6113 74.9354 71.5525 73.8146 69.1837 71.7357L70.4594 69.3133C72.5042 71.1174 75.1283 72.1278 77.8547 72.161C80.4986 72.161 82.6248 71.144 82.6617 68.888C82.7912 63.3405 70.256 66.2067 70.293 58.2924C70.293 54.0393 73.9907 52.2086 78.0766 52.2086C80.6027 52.1968 83.0792 52.9091 85.2131 54.2612L83.9374 56.813C82.1235 55.6749 80.0328 55.0546 77.8917 55.0193V55.0193Z" fill="white"/>
<path d="M111.874 63.5258C111.892 65.7753 111.242 67.9794 110.006 69.8587C108.769 71.7379 107.003 73.2075 104.93 74.0811C102.858 74.9546 100.572 75.1927 98.3644 74.7651C96.1562 74.3375 94.1249 73.2635 92.528 71.6794C90.9312 70.0953 89.8408 68.0724 89.3953 65.8675C88.9497 63.6626 89.169 61.375 90.0254 59.295C90.8819 57.215 92.3367 55.4363 94.2055 54.1846C96.0743 52.9329 98.2727 52.2646 100.522 52.2645C102.022 52.1998 103.519 52.4462 104.92 52.988C106.32 53.5298 107.593 54.3555 108.659 55.413C109.725 56.4706 110.561 57.7372 111.114 59.1334C111.668 60.5295 111.926 62.025 111.874 63.5258ZM92.4793 63.5258C92.5445 65.1009 93.0711 66.6221 93.9935 67.9004C94.9159 69.1787 96.1936 70.1577 97.6677 70.7158C99.1418 71.2739 100.747 71.3865 102.285 71.0396C103.822 70.6926 105.224 69.9015 106.316 68.7644C107.408 67.6273 108.141 66.1944 108.425 64.6438C108.71 63.0933 108.532 61.4933 107.915 60.0428C107.298 58.5922 106.268 57.3551 104.953 56.4851C103.639 55.6151 102.098 55.1505 100.522 55.1492C99.4261 55.1206 98.3365 55.3217 97.3231 55.7394C96.3098 56.1571 95.395 56.7822 94.6375 57.5746C93.8801 58.367 93.2968 59.3091 92.9251 60.3404C92.5534 61.3717 92.4016 62.4693 92.4793 63.5628V63.5258Z" fill="white"/>
<path d="M138.201 60.9736V74.7498H134.873V61.8057C134.955 60.9507 134.848 60.088 134.559 59.2791C134.27 58.4703 133.806 57.7351 133.201 57.1259C132.595 56.5167 131.863 56.0486 131.056 55.7548C130.249 55.461 129.387 55.3488 128.532 55.4261C127.551 55.4114 126.578 55.5919 125.668 55.957C124.757 56.3221 123.929 56.8646 123.23 57.5529C122.532 58.2412 121.977 59.0616 121.599 59.9663C121.22 60.871 121.025 61.842 121.025 62.8227V74.8053H117.697V52.3935H121.025V57.3123C121.787 55.6892 123.024 54.3366 124.573 53.4347C126.122 52.5328 127.909 52.1245 129.696 52.2641C135.04 52.2641 138.201 55.5371 138.201 60.9736Z" fill="white"/>
<path d="M165.101 52.3939V72.4202C165.101 78.9662 160.646 83.0898 153.842 83.0898C150.48 83.0702 147.223 81.9171 144.598 79.8168L146.132 77.3944C148.218 79.2145 150.889 80.2251 153.657 80.2421C154.714 80.3418 155.781 80.2125 156.784 79.8631C157.787 79.5137 158.703 78.9523 159.469 78.2171C160.236 77.482 160.835 76.5903 161.226 75.6027C161.618 74.6152 161.792 73.5549 161.737 72.4941V69.0917C160.95 70.5758 159.756 71.8045 158.296 72.6333C156.835 73.4621 155.168 73.8564 153.491 73.7701C147.445 73.7701 143.285 69.3136 143.285 62.971C143.285 56.6284 147.408 52.3014 153.398 52.2644C155.09 52.1645 156.775 52.5522 158.253 53.3815C159.731 54.2108 160.94 55.4468 161.737 56.9428V52.3939H165.101ZM161.792 63.0635C161.73 61.5598 161.228 60.1075 160.348 58.8872C159.467 57.6669 158.247 56.7324 156.84 56.2C155.433 55.6677 153.9 55.561 152.432 55.8931C150.965 56.2253 149.627 56.9816 148.586 58.0682C147.545 59.1547 146.846 60.5234 146.577 62.004C146.308 63.4845 146.479 65.0116 147.071 66.3953C147.663 67.779 148.648 68.9581 149.905 69.7861C151.161 70.614 152.633 71.0542 154.138 71.0518C155.175 71.0661 156.205 70.8667 157.162 70.466C158.119 70.0652 158.984 69.4717 159.702 68.7224C160.42 67.9731 160.976 67.084 161.335 66.1104C161.695 65.1368 161.85 64.0997 161.792 63.0635V63.0635Z" fill="white"/>
<path d="M181.15 42.778C182.625 42.7813 184.084 43.0832 185.439 43.6656L185.309 48.4734C184.399 47.8522 183.34 47.4822 182.24 47.4009C181.747 47.3712 181.253 47.4466 180.791 47.6219C180.329 47.7973 179.909 48.0687 179.56 48.4182C179.21 48.7678 178.939 49.1874 178.764 49.6496C178.588 50.1117 178.513 50.6058 178.543 51.0992V52.9484H184.274V56.961H178.58V74.7683H173.033V56.961H170.056V52.9484H173.033V50.2671C173.015 49.2242 173.218 48.1894 173.628 47.2304C174.038 46.2714 174.646 45.41 175.413 44.7028C176.179 43.9956 177.087 43.4585 178.075 43.1267C179.064 42.795 180.112 42.6762 181.15 42.778V42.778ZM193.333 43.2033V74.7499H187.787V43.2033H193.333Z" fill="white"/>
<path d="M202.448 83.256C200.377 83.2912 198.365 82.5678 196.791 81.222L199.176 77.0059C199.986 77.7281 201.03 78.1349 202.115 78.1524C202.837 78.1609 203.543 77.9448 204.136 77.5339C204.729 77.1231 205.179 76.5379 205.425 75.8594L206.109 74.3616L196.717 52.0054H202.448L208.9 68.5368L214.817 52.0054H220.363L210.176 77.5976C209.686 79.2576 208.664 80.7105 207.268 81.7329C205.872 82.7552 204.178 83.2904 202.448 83.256V83.256Z" fill="white"/>
</svg>
