<svg width="284" height="60" viewBox="0 0 284 60" fill="none" xmlns="http://www.w3.org/2000/svg">
<path d="M92.1303 29.606C92.1303 35.0509 88.5661 38.8426 83.379 38.8426C80.103 38.8426 77.5853 37.3411 76.2354 34.793V45.5008H73.5206V20.3542H76.2354V24.3279C77.6005 21.7496 80.103 20.248 83.3184 20.248C88.5054 20.2632 92.1303 24.0853 92.1303 29.606ZM89.3851 29.5302C89.3851 25.5868 86.6702 22.6899 82.833 22.6899C78.9655 22.6899 76.2354 25.5564 76.2354 29.5302C76.2354 33.5342 78.9503 36.3704 82.833 36.3704C86.6551 36.3704 89.3851 33.5039 89.3851 29.5302Z" fill="white"/>
<path d="M97.0885 38.736V12.8613H99.8033V38.736H97.0885Z" fill="white"/>
<path d="M118.019 35.9149C116.548 37.9017 114.212 38.8724 111.285 38.8724C107.478 38.8724 105.036 36.4305 105.036 33.2607C105.036 30.0453 107.584 28.0281 111.907 27.9978H117.943V26.9209C117.943 24.2364 116.275 22.6287 113.029 22.6287C111.012 22.6287 109.116 23.4022 107.205 24.7217L106.052 22.7349C108.418 21.1575 110.42 20.2627 113.545 20.2627C118.08 20.2627 120.582 22.6742 120.628 26.6176L120.658 38.7511H118.004V35.9149H118.019ZM117.989 32.3962V30.197H112.271C109.207 30.197 107.599 31.1373 107.599 33.1545C107.599 35.1717 109.237 36.5064 111.816 36.5064C114.91 36.5064 117.291 34.9442 117.989 32.3962Z" fill="white"/>
<path d="M131.836 41.3601C130.684 44.1811 128.773 45.6523 126.331 45.6523C124.799 45.6523 123.57 45.1973 122.463 44.2873L123.616 42.0123C124.45 42.6038 125.284 42.8919 126.194 42.8919C127.62 42.8919 128.803 42.0123 129.546 40.3136L130.32 38.5997L122.721 20.354H125.572L131.67 35.5208L137.494 20.354H140.284L131.836 41.3601Z" fill="white"/>
<path d="M143.667 38.736V12.8613H146.382V38.736H143.667Z" fill="white"/>
<path d="M156.287 15.0911C156.287 16.168 155.513 16.9718 154.512 16.9718C153.511 16.9718 152.738 16.168 152.738 15.0911C152.738 14.0143 153.511 13.2104 154.512 13.2104C155.513 13.2104 156.287 14.0143 156.287 15.0911ZM153.193 38.7362V20.354H155.877V38.7362H153.193Z" fill="white"/>
<path d="M173.243 21.931L172.197 24.0999C170.771 23.1899 168.921 22.5984 167.207 22.5984C165.144 22.5984 163.582 23.3264 163.582 25.0403C163.582 29.1201 173.835 27.0271 173.835 33.6247C173.835 37.2496 170.619 38.8572 167.101 38.8572C164.492 38.8572 161.792 37.9472 160.063 36.2789L161.11 34.2162C162.687 35.6874 165.053 36.5519 167.207 36.5519C169.361 36.5519 171.12 35.748 171.15 33.9432C171.256 29.5145 160.973 31.7743 161.004 25.2526C161.004 21.7339 164.037 20.2627 167.389 20.2627C169.588 20.2627 171.711 20.8845 173.243 21.931Z" fill="white"/>
<path d="M187.787 37.4775C186.498 38.3572 185.102 38.8425 183.631 38.8729C180.947 38.8729 178.96 37.2652 178.96 33.6403V23.1449H176.306V20.9457H178.96V16.0923H181.644V20.9457L187.468 20.9153V23.1449H181.644V33.155C181.644 35.3845 182.524 36.2187 184.086 36.2187C185.026 36.2187 185.997 35.9002 187.013 35.2783L187.787 37.4775Z" fill="white"/>
<path d="M211.477 29.4694C211.477 35.1569 208.019 38.9487 202.756 38.9487C200.148 38.9487 198.085 37.9021 196.72 36.0215V45.5007H191.351V19.9749H196.72V22.7353C198.04 20.8546 200.102 19.8081 202.65 19.8081C207.913 19.8081 211.477 23.6756 211.477 29.4694ZM206.032 29.2874C206.032 26.2843 204.152 24.1307 201.391 24.1307C198.631 24.1307 196.72 26.254 196.72 29.2874C196.72 32.3966 198.646 34.4896 201.391 34.4896C204.137 34.4896 206.032 32.3511 206.032 29.2874Z" fill="white"/>
<path d="M232.848 38.7365H227.509V35.4301C226.22 37.7961 224.051 38.9488 221.23 38.9488C217.074 38.9488 214.465 36.1885 214.465 31.7597V19.9751H219.835V30.2279C219.835 32.5939 221.2 34.0348 223.353 34.0348C225.932 34.0044 227.509 31.9721 227.509 29.2572V19.9751H232.848V38.7365Z" fill="white"/>
<path d="M238.232 38.736V12.8613H243.601V38.736H238.232Z" fill="white"/>
<path d="M262.652 21.825L260.802 25.4802C258.739 24.3275 256.646 23.6602 255.084 23.6602C253.825 23.6602 252.915 24.0848 252.915 25.0555C252.915 27.8766 262.819 26.4509 262.789 33.0788C262.789 36.916 259.406 38.9332 255.144 38.9332C252.111 38.9332 249.138 38.0232 247.015 36.3245L248.759 32.6996C250.716 34.2011 253.218 35.0353 255.281 35.0353C256.646 35.0353 257.647 34.5803 257.647 33.5641C257.647 30.5611 247.91 32.1688 247.91 25.5712C247.91 21.7037 251.216 19.7168 255.311 19.7168C257.905 19.732 260.559 20.5055 262.652 21.825Z" fill="white"/>
<path d="M283.641 31.0013H270.173C270.795 33.3673 272.615 34.7626 275.027 34.7626C276.801 34.7626 278.485 34.065 279.774 32.7758L282.595 35.6423C280.714 37.7353 277.954 38.9487 274.572 38.9487C268.565 38.9487 264.774 35.1115 264.774 29.4239C264.774 23.6302 268.717 19.793 274.435 19.793C281.033 19.8081 284.096 24.161 283.641 31.0013ZM278.621 27.8314C278.545 25.3592 276.953 23.7515 274.465 23.7515C272.099 23.7515 270.492 25.3592 270.067 27.8314H278.621Z" fill="white"/>
<path d="M196.114 59.0736C195.462 59.7106 194.779 59.9684 193.945 59.9684C192.307 59.9684 190.957 58.9826 190.957 56.9805C190.957 54.9785 192.322 53.9927 193.945 53.9927C194.749 53.9927 195.356 54.2202 195.977 54.8269L195.098 55.752C194.764 55.4487 194.354 55.3122 193.96 55.3122C193.02 55.3122 192.337 55.9947 192.337 56.9805C192.337 58.0574 193.065 58.6337 193.93 58.6337C194.37 58.6337 194.825 58.5124 195.158 58.1636L196.114 59.0736Z" fill="white"/>
<path d="M209.551 51.7939V54.9335C210.052 54.2813 210.674 54.0841 211.311 54.0841C212.919 54.0841 213.616 55.1762 213.616 56.8293V59.802H212.221V56.8445C212.221 55.8132 211.69 55.3885 210.947 55.3885C210.128 55.3885 209.551 56.0862 209.551 56.9355V59.8172H208.156V51.8091H209.551V51.7939Z" fill="white"/>
<path d="M230.693 54.1596H232.028V59.8017H230.708L230.647 58.9826C230.329 59.65 229.449 59.9685 228.812 59.9837C227.144 59.9988 225.9 58.9675 225.9 56.9806C225.9 55.0393 227.189 54.0231 228.843 54.0383C229.601 54.0383 230.314 54.3871 230.632 54.9483L230.693 54.1596ZM227.311 56.9655C227.311 58.0423 228.054 58.6793 228.979 58.6793C231.178 58.6793 231.178 55.2668 228.979 55.2668C228.054 55.2668 227.311 55.8886 227.311 56.9655Z" fill="white"/>
<path d="M245.923 54.16L246.029 54.8121C246.469 54.1145 247.045 54.0083 247.621 54.0083C248.198 54.0083 248.759 54.2358 249.077 54.5391L248.44 55.7525C248.152 55.5098 247.894 55.3885 247.439 55.3885C246.711 55.3885 246.029 55.7828 246.029 56.8142V59.7869H244.634V54.1448H245.923V54.16Z" fill="white"/>
<path d="M263.35 52.5674V54.1599H264.912V55.3581H263.35V57.7999C263.35 58.3308 263.653 58.6038 264.078 58.6038C264.29 58.6038 264.548 58.5431 264.745 58.4369L265.139 59.62C264.745 59.7868 264.411 59.8475 263.987 59.8626C262.758 59.9081 261.97 59.2105 261.97 57.7999V55.3581H260.923V54.1599H261.97V52.7039L263.35 52.5674Z" fill="white"/>
<path d="M281.048 55.6615C280.653 55.2823 280.183 55.161 279.652 55.161C278.985 55.161 278.621 55.3733 278.621 55.7221C278.621 56.0861 278.955 56.2985 279.668 56.344C280.729 56.4198 282.079 56.6473 282.079 58.1488C282.079 59.1498 281.26 59.9992 279.652 59.9992C278.758 59.9992 277.863 59.8475 277.044 58.9982L277.726 57.9972C278.121 58.437 279.046 58.7707 279.668 58.7858C280.198 58.801 280.684 58.528 280.684 58.1185C280.684 57.7241 280.365 57.5725 279.561 57.527C278.5 57.4511 277.226 57.0568 277.226 55.7828C277.226 54.4784 278.576 54.0234 279.607 54.0234C280.487 54.0234 281.154 54.1903 281.806 54.7666L281.048 55.6615Z" fill="white"/>
<path d="M47.2057 20.2932C48.0095 19.5501 48.2977 18.3974 47.964 17.366C47.6152 16.3195 46.7052 15.5763 45.6132 15.455L36.7406 14.1507C35.2087 19.7169 32.9792 27.543 32.9792 27.543C32.9792 27.5582 32.964 27.5733 32.964 27.5733C32.3119 30.3944 29.6577 33.4277 26.0935 35.2477C22.0742 37.4166 17.7972 37.1133 15.5222 34.7321C14.415 33.7766 13.6566 32.5632 13.3988 31.1679C12.6556 27.1941 16.1895 23.1446 21.4372 21.7644C21.7861 21.6734 22.1501 21.5976 22.5141 21.5217C23.0904 21.4156 23.6668 21.3549 24.2279 21.3094C26.3665 21.1577 28.3988 21.4914 30.0672 22.2194C30.143 22.2649 30.2188 22.2953 30.2947 22.3408L32.5849 13.1042C32.2815 12.8615 32.0237 12.5581 31.8265 12.2093L26.6546 1.65319C26.1541 0.637007 25.1531 0 24.0459 0C22.9387 0 21.9377 0.637007 21.4676 1.63802L16.2957 12.1941C15.8558 13.0132 15.0672 13.5895 14.1571 13.7412L2.49385 15.4398C1.40183 15.5612 0.491824 16.3044 0.142986 17.3509C-0.205851 18.3974 0.0974857 19.5349 0.901328 20.2781L9.31893 28.5288C10.0166 29.1507 10.3199 30.091 10.1379 31.001L8.15108 42.6188C7.96908 43.6805 8.40891 44.7725 9.27342 45.4095C10.1531 46.0465 11.3058 46.1375 12.2765 45.6522L22.7264 40.1466C23.5606 39.7523 24.5313 39.7523 25.3654 40.1466L35.8154 45.6522C36.7861 46.1527 37.9388 46.0617 38.8184 45.4095C39.6981 44.7725 40.1228 43.6957 39.9408 42.6188L37.9539 31.0162C37.7719 30.1062 38.0904 29.1658 38.7729 28.544L47.2057 20.2932Z" fill="#FF1241"/>
<path opacity="0.3" d="M50.329 22.9775L47.0378 26.6479L52.1035 34.8228L42.8214 50.8845H37.1035H24.2572L20.8447 44.9695L16.5828 47.3052L21.4513 55.7531H45.6273L46.8861 53.5691L51.9973 44.7116L57.7001 34.8228L50.329 22.9775Z" fill="#FF1241"/>
</svg>
