<svg width="88" height="76" viewBox="0 0 88 76" fill="none" xmlns="http://www.w3.org/2000/svg">
<path d="M15.5251 2.03784H5.1711L0 11.0019L5.1711 19.9659H15.5251L20.708 11.0019L15.5251 2.03784Z" fill="#FF1241"/>
<path d="M51.9937 67.8135C51.8759 61.3585 47.5647 56.0578 41.2746 54.5971C40.8387 54.5029 40.4029 54.4205 39.9435 54.338C39.8139 54.3144 39.6844 54.2909 39.5548 54.2673C41.4042 51.6288 41.8989 50.2977 41.9107 47.9772C41.9342 43.9605 41.9224 39.8731 41.9107 35.9152V35.02C41.9107 33.7243 41.2746 33.1 39.9789 33.1L37.8939 33.0882C35.4321 33.0764 32.8877 33.0646 30.3905 33.1C26.1735 33.1707 22.84 36.5395 22.8047 40.7801C22.7811 43.2066 22.7929 45.6213 22.8047 47.9536C22.8165 50.227 23.5585 52.2766 25.0192 54.0553C25.0781 54.126 25.1252 54.2084 25.1841 54.2909C25.1134 54.3027 25.0545 54.3144 24.9956 54.3144C18.4935 55.1154 13.6168 59.9685 12.863 66.3882C12.6863 67.9313 12.6981 69.5215 12.7098 71.0528C12.7216 71.9009 12.7216 72.7843 12.6981 73.6325C12.6627 74.7161 13.0279 75.4229 13.8289 75.8705C13.8524 75.8823 13.8878 75.8941 13.9113 75.8941H50.804C50.8393 75.8941 50.8629 75.8823 50.8865 75.8705C51.6875 75.4229 52.0526 74.7397 52.0291 73.7267C52.0055 72.6901 52.0055 71.6182 52.0173 70.5934C52.0055 69.6982 52.0055 68.7441 51.9937 67.8135ZM21.5679 70.0516C22.7576 70.0398 23.4761 69.439 23.4761 68.426C23.4761 67.9784 23.3347 67.5779 23.052 67.2952C22.7222 66.9536 22.2157 66.7769 21.5914 66.7769C20.2957 66.7651 18.9882 66.7769 17.6689 66.7769H16.0787C16.1847 65.3987 16.597 64.1266 17.3391 62.8898C19.0353 60.051 21.4736 58.3076 24.5951 57.7069C24.9367 57.6362 25.137 57.7069 25.3843 57.966C26.9156 59.5091 28.4469 61.0522 29.99 62.5835L30.8146 63.408C31.9454 64.5389 32.7464 64.5389 33.8536 63.4316L34.8078 62.4775C36.2802 61.0169 37.7997 59.4973 39.2721 57.9896C39.5312 57.7187 39.7433 57.6598 40.132 57.7304C44.9144 58.5903 48.5895 62.8898 48.6837 67.7193C48.7073 68.8619 48.6955 69.9809 48.6955 71.1706C48.6955 71.6535 48.6955 72.1247 48.6955 72.6077H16.0198V70.0633H18.0458C19.212 70.0516 20.3899 70.0516 21.5679 70.0516ZM34.9373 57.5655L32.4166 60.0863L29.8958 57.5655H34.9373ZM26.1029 46.6697C26.1147 46.4106 26.1147 46.1396 26.1147 45.8569H32.6993C32.9937 45.8569 33.2882 45.8687 33.5827 45.8687C34.2541 45.8805 34.9609 45.904 35.6441 45.8334C36.3862 45.7509 37.0929 45.5978 37.8468 45.4329C38.0942 45.374 38.3533 45.3269 38.6125 45.268C38.6125 45.5271 38.6242 45.798 38.6242 46.0572C38.6714 48.0125 38.7185 50.0504 37.305 51.7819C35.5734 53.8904 33.406 54.6443 30.8499 54.02C28.1996 53.3721 26.4327 51.3461 26.1382 48.6015C26.0675 47.9772 26.0911 47.3411 26.1029 46.6697ZM38.6478 37.5525C38.636 38.5656 38.6125 39.5315 38.4475 40.4738C38.2237 41.7106 37.2578 42.4881 35.9386 42.5116C33.5827 42.5587 31.2858 42.5587 28.8357 42.547C27.9287 42.547 27.0099 42.5352 26.0911 42.5352V42.4527C26.0322 40.9567 25.9733 39.555 26.845 38.3182C27.7166 37.0814 28.871 36.4453 30.2845 36.4217C32.2517 36.3864 34.207 36.3864 36.2566 36.3982C37.0576 36.3982 37.8586 36.3982 38.6714 36.41C38.6596 36.7869 38.6596 37.1638 38.6478 37.5525Z" fill="#070707"/>
<path d="M87.9912 34.1009C87.9794 34.042 87.9558 33.9949 87.9441 33.936C87.9087 33.83 87.8734 33.7358 87.8616 33.6415C87.0959 28.011 82.8672 23.3818 77.3663 22.1096C76.8951 22.0036 76.4239 21.9212 75.9292 21.8269C75.7996 21.8034 75.6583 21.7798 75.5287 21.7563L75.7996 21.4147C77.166 19.6949 77.861 17.7984 77.8846 15.7842C77.9199 12.0501 77.9081 8.24543 77.9081 4.5703V2.46181C77.9081 1.24854 77.272 0.600684 76.0705 0.600684L74.3508 0.588905C71.6651 0.577126 68.897 0.565346 66.176 0.612463C62.5479 0.67136 59.3322 3.45127 59.0024 6.79658C58.7786 9.14066 58.8139 11.5554 58.861 13.8759C58.8846 14.8536 58.8964 15.8431 58.8964 16.8207C58.8964 17.0445 58.9435 17.2448 59.0024 17.4568C59.0142 17.5157 59.0377 17.5864 59.0495 17.6453C59.3793 19.1059 60.0507 20.4134 61.1698 21.768C61.0166 21.7916 60.8871 21.8152 60.7575 21.8387C53.9137 22.7222 48.8369 28.3762 48.7073 35.2789C48.6837 36.7395 48.6837 38.2119 48.6955 39.6372C48.6955 40.179 48.6955 40.7327 48.6955 41.2745C48.6955 42.8176 49.2727 43.3948 50.804 43.3948C52.3471 43.3948 53.902 43.3948 55.445 43.3948C57.1884 43.3948 58.9317 43.3712 60.6633 43.3948C60.8517 43.3948 61.0402 43.3948 61.2404 43.3948C61.5231 43.3948 61.8058 43.3948 62.0885 43.3712C62.7011 43.3241 63.2194 43.0296 63.5021 42.5467C63.7612 42.1108 63.7965 41.5925 63.5963 41.1214C63.3018 40.4382 62.7246 40.0966 61.8412 40.0966H61.8294C59.6385 40.0966 57.4357 40.0966 55.2448 40.0966H51.9819C51.9819 39.6136 51.9819 39.1425 51.9819 38.6713C51.9819 37.5287 51.9701 36.445 51.9937 35.3495C52.0762 30.2609 55.6099 26.091 60.6044 25.1958C60.8282 25.1487 61.2051 25.2665 61.3818 25.4432C62.7364 26.7624 64.1028 28.1288 65.4221 29.4599L66.7767 30.8145C67.99 32.0278 68.7203 32.0278 69.9218 30.8263L71.3942 29.3421C72.6663 28.0582 73.9974 26.7389 75.3049 25.4549C75.4934 25.2783 75.8232 25.1369 75.9999 25.1722C79.1685 25.7376 81.6421 27.4692 83.3501 30.3198C84.799 32.7463 84.7636 35.3142 84.7165 38.047C84.7047 38.7184 84.693 39.4134 84.7048 40.0966H81.4772C79.1096 40.0966 76.7302 40.0966 74.3625 40.0966C73.6793 40.0966 73.0904 40.3557 72.7606 40.8151C72.4661 41.2156 72.3954 41.7221 72.5721 42.2522C72.737 42.7587 73.1964 43.3712 74.4332 43.383C75.9527 43.383 77.4723 43.383 78.9918 43.383C81.3241 43.383 83.6564 43.383 85.9887 43.3948H86.0005C86.9899 43.3948 87.6378 42.9707 87.9794 42.1108C87.9912 42.0873 87.9912 42.0637 87.9912 42.0402V34.1481C88.0029 34.1363 88.0029 34.1127 87.9912 34.1009ZM62.1003 14.0997C62.1003 13.8524 62.1121 13.5932 62.1121 13.3223H64.1735C65.8697 13.3223 67.5188 13.3223 69.1914 13.3105C69.5095 13.2987 69.8393 13.3105 70.1573 13.3223C71.7004 13.3459 73.2906 13.3694 74.7513 12.5095C74.7159 12.9925 74.6924 13.4754 74.6688 13.9466C74.6099 15.0539 74.551 16.2082 74.2919 17.2801C73.5616 20.1661 70.711 22.0036 67.5188 21.6502C64.7153 21.3322 62.3477 18.8468 62.1357 15.9844C62.065 15.3719 62.0768 14.7476 62.1003 14.0997ZM74.6452 5.02969C74.6335 6.04271 74.6099 6.99683 74.445 7.95095C74.2094 9.27023 73.0904 10.0359 71.3588 10.0477C69.109 10.0594 66.8591 10.0594 64.6093 10.0477H62.5833C62.4655 10.0477 62.3477 10.0359 62.1946 10.0359H62.0885V9.94165C62.0296 8.35145 61.9708 6.8437 63.0073 5.57154C63.8908 4.48784 64.998 3.92244 66.282 3.89888C68.2491 3.86354 70.2045 3.87532 72.2541 3.87532C73.0433 3.87532 73.856 3.87532 74.6688 3.87532C74.657 4.26404 74.657 4.64097 74.6452 5.02969ZM70.6639 25.0191L68.2609 27.4221L65.8579 25.0191H70.6639Z" fill="#070707"/>
<path d="M87.9323 54.3378C87.9087 54.2907 87.8852 54.2436 87.8734 54.22C86.9664 50.2975 84.1276 48.0477 80.0991 48.0359C78.344 48.0359 76.5888 48.0359 74.8337 48.0359H73.0786C72.0067 48.0359 70.923 48.0359 69.8511 48.0359C67.3774 48.0359 64.8331 48.0241 62.3241 48.0477C59.1909 48.0712 56.8703 49.473 55.3979 52.2058C55.3037 52.3707 54.9974 52.5591 54.7854 52.5591C53.1599 52.6063 51.5108 52.5945 50.109 52.5709C49.4258 52.5591 48.5777 52.6652 48.2008 53.6075C47.8356 54.5263 48.3421 55.1977 48.8369 55.6807C49.4729 56.305 50.0973 56.941 50.7216 57.5653C51.7581 58.6137 52.83 59.6974 53.9255 60.734C54.432 61.2169 54.6323 61.7116 54.6205 62.4537C54.5852 63.9497 54.5969 65.4692 54.5969 66.9416V68.096C54.6087 70.8759 55.6453 73.008 57.6949 74.4097C58.4016 74.8926 59.2262 75.1989 60.0154 75.4934C60.3806 75.623 60.7339 75.7643 61.0873 75.9057C61.1109 75.9174 61.1344 75.9174 61.158 75.9174H81.5008C81.5244 75.9174 81.5479 75.9174 81.5715 75.9057C81.9013 75.7643 82.2429 75.6347 82.5845 75.4934C83.3384 75.1989 84.1276 74.8926 84.8226 74.4568C86.3656 73.4674 87.3787 71.9007 87.838 69.804C87.8498 69.7451 87.8852 69.6862 87.9087 69.6273C87.9323 69.592 87.9441 69.5566 87.9558 69.5213C87.9676 69.4977 87.9676 69.4742 87.9676 69.4506V54.5027C87.9676 54.4792 87.9558 54.4438 87.9441 54.4203C87.9676 54.3967 87.9558 54.3614 87.9323 54.3378ZM57.0235 59.1909C56.1871 58.4017 55.3744 57.5771 54.5145 56.7055C54.2436 56.4227 53.9609 56.14 53.6664 55.8573H54.2082C54.8796 55.8573 55.4804 55.8573 56.0811 55.8573C57.2002 55.8456 57.6713 55.5157 58.0483 54.4792C58.8257 52.2882 60.2039 51.3223 62.5008 51.3223C68.3551 51.3223 74.2094 51.3223 80.0637 51.3223C82.9732 51.3223 84.7165 53.0657 84.7165 55.9751C84.7165 59.9801 84.7165 63.9733 84.7165 67.9782C84.7165 70.8877 82.9732 72.631 80.0637 72.631C74.233 72.631 68.4022 72.631 62.5715 72.631C59.662 72.631 57.9187 70.8995 57.8951 67.99C57.8834 65.7519 57.8716 63.561 57.9069 61.3347C57.9187 60.4513 57.636 59.7681 57.0235 59.1909Z" fill="#070707"/>
<path d="M20.4135 28.4706C22.5102 28.4706 24.6069 28.4706 26.7154 28.4706H29.4128C30.3198 28.4706 31.2269 28.4706 32.1339 28.4706C33.0291 28.4706 33.9361 28.4706 34.8431 28.4706C36.0328 28.4706 37.2225 28.4706 38.4122 28.4589C41.5455 28.4235 43.8542 27.0218 45.2442 24.3126C45.4209 23.971 45.5976 23.9003 45.9392 23.9238C46.6813 23.9356 47.4351 23.9356 48.189 23.9238C48.9782 23.9238 49.7674 23.9238 50.5566 23.9356C51.2634 23.9356 52.0879 23.8414 52.4767 22.9108C52.8654 21.9803 52.3471 21.3088 51.8641 20.8259C50.1326 19.1061 48.295 17.2803 46.4928 15.431C46.269 15.2072 46.1159 14.8067 46.1041 14.4769C46.0805 13.3461 46.0805 12.1799 46.0923 11.0609C46.0923 10.1539 46.0923 9.23508 46.0805 8.32808C46.0216 3.75772 42.8059 0.565538 38.2591 0.565538C32.3105 0.565538 26.362 0.553759 20.4017 0.565538C16.0198 0.577317 12.7098 3.89907 12.6981 8.29274C12.6863 12.5333 12.6863 16.7267 12.6981 20.7317C12.7098 25.1371 16.0316 28.4589 20.4135 28.4706ZM43.6775 17.3157C44.5139 18.1167 45.3384 18.9412 46.2101 19.8129C46.481 20.0838 46.7637 20.3665 47.0464 20.6492H46.5046C45.8332 20.6492 45.2324 20.6492 44.6317 20.6492C43.5126 20.661 43.0297 20.9908 42.6645 22.0274C41.8753 24.2183 40.5089 25.1842 38.212 25.1842C32.3577 25.1842 26.5034 25.1842 20.6491 25.1842C17.7396 25.1842 15.9963 23.4409 15.9963 20.5314C15.9963 16.5265 15.9963 12.5333 15.9963 8.52833C15.9963 5.61885 17.7396 3.87551 20.6491 3.87551C23.5703 3.87551 26.4798 3.87551 29.4011 3.87551C32.3223 3.87551 35.2318 3.87551 38.1531 3.87551C41.0625 3.87551 42.8059 5.60707 42.8294 8.51655C42.8412 10.7546 42.853 12.9456 42.8177 15.1718C42.7823 16.0435 43.065 16.7267 43.6775 17.3157Z" fill="#070707"/>
<path d="M68.3669 43.3832C69.2268 43.3714 69.9924 42.594 69.9807 41.7341C69.9689 40.8742 69.215 40.1204 68.3433 40.1204H68.3316C67.9193 40.1204 67.4952 40.3088 67.189 40.6151C66.8827 40.9214 66.706 41.3454 66.7178 41.7577C66.7178 42.17 66.9063 42.594 67.2243 42.9003C67.5306 43.2065 67.9429 43.3714 68.3433 43.3714C68.3551 43.3832 68.3551 43.3832 68.3669 43.3832Z" fill="#070707"/>
<path d="M27.6577 70.0396C27.6813 70.0396 27.7048 70.0396 27.7402 70.0396C28.1289 70.0396 28.5058 69.8865 28.8003 69.6156C29.1301 69.3211 29.3186 68.9088 29.3422 68.473C29.3775 67.5895 28.6825 66.8239 27.7991 66.7768C27.3868 66.7532 26.9745 66.9064 26.6565 67.2008C26.3267 67.4953 26.1382 67.9076 26.1146 68.3434C26.0911 69.2386 26.7861 69.9925 27.6577 70.0396Z" fill="#070707"/>
<path d="M72.1693 67.3915L72.168 67.393C71.4607 68.1885 70.8365 68.5 70.3133 68.5C69.7852 68.5 69.1795 68.2048 68.4745 67.4324C67.1135 65.9233 65.7524 64.3924 64.4282 62.903C63.8402 62.2106 63.5471 61.5113 63.5053 60.8703C63.4639 60.2358 63.6652 59.6174 64.1419 59.0627L64.1426 59.062C64.5682 58.5648 65.0527 58.3294 65.5493 58.3294H65.5494H65.5495H65.5496H65.5497H65.5498H65.5499H65.55H65.5502H65.5503H65.5504H65.5505H65.5506H65.5507H65.5508H65.5509H65.5511H65.5512H65.5513H65.5514H65.5515H65.5516H65.5517H65.5518H65.552H65.5521H65.5522H65.5523H65.5524H65.5525H65.5526H65.5527H65.5528H65.553H65.5531H65.5532H65.5533H65.5534H65.5535H65.5536H65.5537H65.5539H65.554H65.5541H65.5542H65.5543H65.5544H65.5545H65.5546H65.5547H65.5549H65.555H65.5551H65.5552H65.5553H65.5554H65.5555H65.5556H65.5558H65.5559H65.556H65.5561H65.5562H65.5563H65.5564H65.5565H65.5566H65.5567H65.5569H65.557H65.5571H65.5572H65.5573H65.5574H65.5575H65.5576H65.5577H65.5579H65.558H65.5581H65.5582H65.5583H65.5584H65.5585H65.5586H65.5587H65.5588H65.5589H65.5591H65.5592H65.5593H65.5594H65.5595H65.5596H65.5597H65.5598H65.5599H65.56H65.5601H65.5603H65.5604H65.5605H65.5606H65.5607H65.5608H65.5609H65.561H65.5611H65.5612H65.5613H65.5614H65.5615H65.5617H65.5618H65.5619H65.562H65.5621H65.5622H65.5623H65.5624H65.5625H65.5626H65.5627H65.5628H65.5629H65.563H65.5631H65.5633H65.5634H65.5635H65.5636H65.5637H65.5638H65.5639H65.564H65.5641H65.5642H65.5643H65.5644H65.5645H65.5646H65.5647H65.5648H65.5649H65.565H65.5651H65.5652H65.5653H65.5654H65.5655H65.5657H65.5658H65.5659H65.566H65.5661H65.5662H65.5663H65.5664H65.5665H65.5666H65.5667H65.5668H65.5669H65.567H65.5671H65.5672H65.5673H65.5674H65.5675H65.5676H65.5677H65.5678H65.5679H65.568H65.5681H65.5682H65.5683H65.5684H65.5685H65.5686H65.5687H65.5688H65.5689H65.569H65.5691H65.5692H65.5693H65.5694H65.5695H65.5696H65.5697H65.5698H65.5698H65.5699H65.57H65.5701H65.5702H65.5703H65.5704H65.5705H65.5706H65.5707H65.5708H65.5709H65.571H65.5711H65.5712H65.5713H65.5714H65.5715H65.5716H65.5717H65.5717H65.5718H65.5719H65.572H65.5721H65.5722H65.5723H65.5724H65.5725H65.5726H65.5727H65.5728H65.5729H65.5729H65.573H65.5731H65.5732H65.5733H65.5734H65.5735H65.5736H65.5737H65.5738H65.5738H65.5739H65.574H65.5741H65.5742H65.5743H65.5744H65.5745H65.5745H65.5746H65.5747H65.5748H65.5749H65.575H65.5751H65.5752H65.5752H65.5753H65.5754H65.5755H65.5756H65.5757H65.5757H65.5758H65.5759H65.576H65.5761H65.5762H65.5763H65.5763H65.5764H65.5765H65.5766H65.5767H65.5767H65.5768H65.5769H65.577H65.5771H65.5771H65.5772H65.5773H65.5774H65.5775H65.5775H65.5776H65.5777H65.5778H65.5779H65.5779H65.578H65.5781H65.5782H65.5782H65.5783H65.5784H65.5785H65.5786H65.5786H65.5787H65.5788H65.5789H65.5789H65.579H65.5791H65.5792H65.5792H65.5793H65.5794H65.5794H65.5795H65.5796H65.5797H65.5797H65.5798H65.5799H65.58H65.58H65.5801H65.5802H65.5802H65.5803H65.5804H65.5804H65.5805H65.5806H65.5806H65.5807H65.5808H65.5809H65.5809H65.581H65.5811H65.5811H65.5812H65.5813H65.5813H65.5814H65.5814H65.5815H65.5816H65.5816H65.5817H65.5818H65.5818H65.5819H65.582H65.582H65.5821H65.5821H65.5822H65.5823H65.5823H65.5824H65.5825H65.5825H65.5826H65.5826H65.5827H65.5827H65.5828H65.5829H65.5829H65.583H65.583H65.5831H65.5832H65.5832H65.5833H65.5833H65.5834H65.5834H65.5835H65.5835H65.5836H65.5836H65.5837H65.5838H65.5838H65.5839H65.5839H65.584H65.584H65.5841H65.5841H65.5842H65.5842H65.5843H65.5843H65.5844H65.5844H65.5845H65.5845H65.5846H65.5846H65.5847H65.5847H65.5848H65.5848H65.5848H65.5849H65.5849H65.585H65.585H65.5851H65.5851H65.5852H65.5852H65.5852H65.5853H65.5853H65.5854H65.5854H65.5855H65.5855H65.5855H65.5856H65.5856H65.5857H65.5857H65.5857H65.5858H65.5858H65.5858H65.5859H65.5859H65.586H65.586H65.586H65.5861H65.5861H65.5861H65.5862H65.5862H65.5862H65.5863H65.5863H65.5863H65.5864H65.5864H65.5864H65.5865H65.5865H65.5865H65.5866H65.5866H65.5866H65.5866H65.5867H65.5867H65.5867H65.5868H65.5868H65.5868H65.5868H65.5869H65.5869H65.5869H65.5869H65.587H65.587H65.587H65.587H65.5871H65.5871H65.5871H65.5871H65.5871H65.5872H65.5872H65.5872H65.5872H65.5872H65.5873H65.5873H65.5873H65.5873H65.5873H65.5873H65.5874H65.5874H65.5874H65.5874H65.5874H65.5874H65.5875H65.5875H65.5875H65.5875H65.5875H65.5875H65.5875H65.5875H65.5875H65.5876H65.5876H65.5876H65.5876H65.5876H65.5876H65.5876H65.5876H65.5876H65.5876H65.5876H65.5876H65.5876H65.5876H65.5877H65.5877H65.5877H65.5877C66.1914 58.3294 66.8529 58.6438 67.4808 59.3499C67.9342 59.86 68.3633 60.3934 68.814 60.9538C68.9429 61.1142 69.0737 61.2768 69.2073 61.4417C69.4048 61.7077 69.6013 61.9507 69.8104 62.2073L70.1815 62.6626L70.5717 62.2236L71.8972 60.7328L71.8972 60.7328L71.8992 60.7304C73.4155 59.0034 74.874 57.3629 76.3325 55.7441L76.3347 55.7416C76.7363 55.2898 77.1226 54.8691 77.5731 54.6833L77.5732 54.6833L77.5787 54.6809C78.0446 54.4822 78.476 54.4558 78.8536 54.5599C79.232 54.6643 79.5944 54.9103 79.9025 55.3207C80.2684 55.8089 80.456 56.2928 80.4931 56.7664C80.53 57.239 80.4198 57.7364 80.1337 58.2574C79.9605 58.5688 79.7519 58.8629 79.4869 59.1609L79.1795 59.5066L79.1782 59.5081C76.8547 62.1431 74.512 64.7781 72.1693 67.3915Z" fill="#070707" stroke="white"/>
<path d="M31.3093 5.58367C28.5412 5.3952 26.1147 7.46835 25.7731 10.2836C25.6317 11.4615 26.1853 12.3096 27.1983 12.4274C28.1289 12.5452 28.7768 11.9327 29.0359 10.7194C29.1537 10.1894 29.4364 9.64752 29.778 9.30592C30.3081 8.77585 31.0502 8.68162 31.8158 9.05855C32.5461 9.42371 32.9349 10.0362 32.9113 10.8372C32.8995 11.6853 32.499 12.2625 31.7098 12.6159C29.7309 13.4876 29.2597 14.1472 29.3422 15.973C29.3893 16.9978 29.9783 17.681 30.8853 17.7399C30.9206 17.7399 30.9559 17.7399 31.003 17.7399C31.7687 17.7399 32.3694 17.1863 32.6168 16.2321C32.6757 15.9965 32.8877 15.7256 33.0762 15.6432C34.9609 14.7479 36.1035 13.1931 36.2095 11.3791C36.2095 11.3791 36.2095 11.3791 36.2095 11.3673C36.2213 8.21045 34.1599 5.77214 31.3093 5.58367Z" fill="#070707"/>
<path d="M30.9795 20.0837C30.9677 20.0837 30.9559 20.0837 30.9442 20.0837C30.0725 20.1073 29.3539 20.8612 29.3657 21.7446C29.3775 22.1687 29.5542 22.5809 29.8722 22.8872C30.1785 23.1817 30.5672 23.3466 30.9795 23.3466C30.9913 23.3466 31.0148 23.3348 31.0148 23.3466C31.4389 23.3348 31.8512 23.1464 32.1456 22.8401C32.4401 22.5221 32.6168 22.1098 32.605 21.6975C32.5815 20.8258 31.8276 20.0837 30.9795 20.0837Z" fill="#070707"/>
</svg>
