<svg width="104" height="82" viewBox="0 0 104 82" fill="none" xmlns="http://www.w3.org/2000/svg">
<path d="M14.8951 10.5841H4.96126L0 19.1844L4.96126 27.7846H14.8951L19.8676 19.1844L14.8951 10.5841Z" fill="#FF1241"/>
<path d="M85.8228 18.1689C85.8228 17.796 85.8002 17.4117 85.7663 17.0388C85.4386 13.6597 82.7376 11.083 79.3246 10.9248L79.0308 10.9135C79.0421 10.9022 79.0421 10.8909 79.0534 10.8683C79.7766 9.13921 79.8671 7.41011 79.302 5.74883C78.3527 2.92351 76.3185 1.20572 73.4253 0.764966C70.6 0.335517 68.2267 1.33003 66.5542 3.61289C65.1076 5.60191 63.7401 7.70395 62.4179 9.72688L61.9545 10.4502C61.7172 10.8231 61.5251 10.9248 61.073 10.9248C56.27 10.9248 51.4557 10.9248 46.6526 10.9248C38.1654 10.9361 29.3843 10.9361 20.7388 10.8909C18.7498 10.8909 16.8851 11.6142 15.5402 12.959C14.218 14.2813 13.4947 16.1008 13.506 18.1011C13.5286 25.7521 13.5286 33.403 13.5286 41.054C13.5286 46.3543 13.5286 51.6659 13.5399 56.9662C13.5399 57.8816 13.6755 58.7744 13.9354 59.5542C14.8734 62.4247 17.4275 64.1425 20.7614 64.1425C26.1634 64.1538 31.5541 64.1425 36.9448 64.1425H43.6804L42.3468 69.827C42.3242 69.9175 42.3016 70.0079 42.2903 70.1096C42.2564 70.2791 42.2225 70.4486 42.1773 70.539C42.1547 70.5729 42.053 70.6294 42.0191 70.6407C41.4992 70.6633 40.9907 70.652 40.4708 70.652C39.7701 70.652 39.0356 70.652 38.3123 70.6973C35.8712 70.8555 34.0065 72.5168 33.5544 74.9352C33.4753 75.3534 33.4527 75.7715 33.4301 76.201C33.4301 76.2236 33.4301 76.2462 33.4301 76.2688H32.6051C31.5089 76.2688 30.424 76.2688 29.3504 76.2688C28.2315 76.2801 27.4179 76.8451 27.1692 77.8058C26.7963 79.2297 27.7569 79.9643 28.5141 80.3937L28.6497 80.4729H70.7356L70.8712 80.3937C71.6284 79.9643 72.589 79.2184 72.2161 77.8058C72.0353 77.1051 71.4589 76.2688 69.8089 76.2688H65.9326V76.2462C65.8987 72.7541 63.774 70.6633 60.2594 70.652L59.5135 70.6407C58.858 70.6294 58.1912 70.6294 57.5357 70.6633C57.208 70.6746 57.208 70.6746 57.1402 70.3582C56.9029 69.2168 56.6203 68.0754 56.3491 66.9452C56.2135 66.4141 56.0892 65.8829 55.9649 65.3404C55.8745 64.9449 55.784 64.5494 55.6936 64.1425H61.1069C66.8706 64.1425 72.6229 64.1425 78.3866 64.1312C79.0195 64.1312 79.8558 64.0973 80.6469 63.9165C83.8564 63.148 85.8454 60.4583 85.8454 56.8871C85.8341 43.981 85.8341 31.075 85.8228 18.1689ZM37.6681 76.2349C37.6229 75.7715 37.6907 75.4325 37.8602 75.2291C38.0637 74.9804 38.5044 74.8448 39.1712 74.8448C46.1328 74.8448 53.083 74.8448 60.0446 74.8448C60.7905 74.8448 61.2426 74.9465 61.446 75.1726C61.6155 75.3534 61.6946 75.6924 61.6946 76.2349H37.6681ZM17.7327 50.8409C17.7327 50.7957 17.7327 50.7505 17.7327 50.7053H20.1737C20.5806 50.7053 20.9761 50.7053 21.383 50.7053C22.7165 50.6714 23.6093 49.8803 23.6545 48.6937C23.6771 48.1286 23.485 47.6087 23.1121 47.2132C22.7052 46.7838 22.095 46.5351 21.4056 46.5125C20.445 46.4899 19.4957 46.5012 18.5012 46.5012H17.7214V38.1609V18.135C17.7214 16.0782 18.682 15.1176 20.7501 15.1176H58.8015L54.7782 21.1299C54.055 22.2148 53.3204 23.311 52.5745 24.3846C52.4954 24.4976 52.3033 24.6107 52.2355 24.622C45.692 25.0853 41.8722 29.1538 41.7592 35.7989C41.714 38.1157 42.0643 40.5454 42.8102 43.2352C43.0249 44.0149 43.5787 44.6026 44.2794 44.806C44.9687 45.0095 45.6807 44.8173 46.2571 44.2975C47.5002 43.1673 49.0598 42.6701 51.1053 42.6927C51.5122 42.6927 51.919 42.7153 52.3259 42.7266C53.3769 42.7605 54.4618 42.8057 55.5354 42.6927C59.8299 42.2519 62.8586 38.6129 62.5761 34.1489C62.5422 33.55 62.497 32.9284 62.3049 32.3294C62.1919 31.9678 62.2484 31.7757 62.5874 31.3575C66.9045 26.125 71.2103 20.8812 75.4935 15.6148C75.8212 15.208 76.0924 15.0837 76.5671 15.1063C77.0417 15.1402 77.5277 15.1289 78.0023 15.1289C78.3753 15.1289 78.7482 15.1176 79.1212 15.1289C80.4434 15.1854 81.404 16.0669 81.5736 17.4004C81.6075 17.6604 81.6075 17.9203 81.6075 18.1689V46.5125H34.662C34.2551 46.5125 33.837 46.5125 33.4075 46.5916C32.3904 46.7951 31.6897 47.6879 31.7462 48.7276C31.8027 49.7673 32.5712 50.5697 33.611 50.6827C33.8935 50.7166 34.1873 50.7166 34.4812 50.7166H34.6733H81.1441C81.3136 50.7166 81.4944 50.7166 81.6075 50.7279C81.6188 50.8522 81.6188 51.0217 81.6188 51.1799V52.9429C81.6188 54.2991 81.6188 55.6553 81.6188 57.0114C81.6075 58.9213 80.6016 59.9384 78.6917 59.9384C59.3326 59.9384 39.9736 59.9384 20.6145 59.9384C18.7611 59.9384 17.7327 58.9213 17.7214 57.0679C17.7101 55.4405 17.7101 53.8244 17.7214 52.1971L17.7327 50.8409ZM56.4282 26.2606L58.7337 22.8251L62.1241 25.3452L59.5022 28.5435L56.4282 26.2606ZM57.1402 37.6749C56.4508 38.3078 55.5806 38.579 54.2471 38.5903C53.7046 38.5903 53.1622 38.579 52.6197 38.5677C51.6365 38.5338 50.6194 38.5112 49.6136 38.6016C48.6869 38.6807 47.7827 38.9068 46.9012 39.1215C46.6978 39.1667 46.4831 39.2232 46.2797 39.2684C45.9067 37.0308 45.7598 34.6688 46.6865 32.3746C47.5228 30.3404 49.9413 28.8147 52.1676 28.8147C52.3598 28.8147 52.5519 28.826 52.744 28.8486C52.7666 28.8486 52.8796 28.8712 53.083 29.0295C54.6652 30.1935 56.2474 31.3688 57.8183 32.5441C57.9652 32.6572 58.0556 32.7363 58.0782 32.7702C58.3381 33.4822 59.0162 35.9684 57.1402 37.6749ZM74.5781 10.1563C72.5099 12.6539 70.4531 15.1628 68.3963 17.6717L64.7912 22.0679L61.0617 19.3104L66.2038 11.6255C67.4018 9.82859 68.5997 8.03168 69.8089 6.25738C70.5548 5.17246 71.5719 4.72041 72.8377 4.92383C74.0921 5.11596 74.9284 5.83924 75.3013 7.04847C75.6517 8.1334 75.4144 9.15051 74.5781 10.1563ZM46.4831 70.5842L48.0088 64.1877H51.3427L52.8683 70.5842H46.4831Z" fill="#0A0A0A"/>
<path d="M27.6668 50.707C27.6781 50.707 27.6894 50.707 27.712 50.707C28.8534 50.707 29.7688 49.8368 29.8027 48.6954C29.8253 48.1303 29.6106 47.5765 29.215 47.1697C28.8195 46.7628 28.277 46.5255 27.712 46.5255C27.712 46.5255 27.712 46.5255 27.7007 46.5255C26.5592 46.5255 25.6212 47.4635 25.6099 48.6049C25.6099 49.7577 26.5027 50.6844 27.6668 50.707Z" fill="#0A0A0A"/>
<path d="M7.73982 81.3149C7.06174 81.3149 6.38366 81.0098 5.93161 80.4221C5.17443 79.4276 5.37785 78.015 6.37236 77.2578L100.376 6.02585C101.371 5.26867 102.795 5.47209 103.541 6.4666C104.298 7.46111 104.094 8.87377 103.1 9.63096L9.10727 80.8516C8.68912 81.168 8.21447 81.3149 7.73982 81.3149Z" fill="#0A0A0A"/>
</svg>
