<svg width="354" height="54" viewBox="0 0 354 54" fill="none" xmlns="http://www.w3.org/2000/svg">
<g clip-path="url(#clip0)">
<path fill-rule="evenodd" clip-rule="evenodd" d="M3.39387 30.6832C1.91665 28.1767 1.91665 25.0658 3.39387 22.5593L13.179 5.95635C14.6172 3.51609 17.2386 2.01827 20.0711 2.01827H39.9288C42.7613 2.01827 45.3827 3.51609 46.8209 5.95635L56.606 22.5593C58.0832 25.0658 58.0832 28.1767 56.606 30.6832L46.8209 47.2862C45.3827 49.7264 42.7613 51.2242 39.9288 51.2242L20.0711 51.2242C17.2385 51.2242 14.6172 49.7264 13.179 47.2862L3.39387 30.6832Z" fill="#DB2529"/>
<path fill-rule="evenodd" clip-rule="evenodd" d="M21.9401 16.3264V13.499L34.1603 12.4426C38.4003 12.0949 42.5665 15.2844 42.5665 19.9952V34.6773C42.5665 36.9081 39.7786 38.9567 36.3397 39.2529C32.9007 39.549 30.1128 37.9808 30.1128 35.7499V31.7107L33.2263 31.4426C36.6652 31.1464 39.4531 28.2496 39.4531 24.1431V22.1235C39.4531 18.6229 36.6652 16.4033 33.2263 16.6995L25.0535 17.4047V36.1534C25.0535 38.3841 22.2657 40.4327 18.8267 40.7288C15.3877 41.025 12.5999 39.4567 12.5999 37.226C12.5999 34.9951 15.3877 32.9466 18.8267 32.6504C20.5462 32.5023 21.9401 31.4781 21.9401 30.3627V17.6728V16.3264ZM31.3037 27.5816C31.1716 27.6745 30.9859 27.7127 30.7959 27.6926C30.7138 27.6839 30.6309 27.6644 30.5512 27.6337C30.2872 27.532 30.1128 27.3289 30.1128 27.1229V21.1533C30.1128 20.9738 30.2456 20.8223 30.4603 20.7567C30.5646 20.7249 30.6803 20.7158 30.796 20.728C30.9184 20.7409 31.0407 20.7777 31.1491 20.8369L35.5557 23.4048C35.7302 23.4999 35.8485 23.6418 35.8784 23.7917C35.9082 23.9417 35.8466 24.084 35.7103 24.1799L31.3037 27.5816Z" fill="url(#paint0_linear)"/>
<path fill-rule="evenodd" clip-rule="evenodd" d="M21.9401 16.3264V13.499L34.1603 12.4426C38.4003 12.0949 42.5665 15.2844 42.5665 19.9952V34.6773C42.5665 36.9081 39.7786 38.9567 36.3397 39.2529C32.9007 39.549 30.1128 37.9808 30.1128 35.7499V31.7107L33.2263 31.4426C36.6652 31.1464 39.4531 28.2496 39.4531 24.1431V22.1235C39.4531 18.6229 36.6652 16.4033 33.2263 16.6995L25.0535 17.4047V36.1534C25.0535 38.3841 22.2657 40.4327 18.8267 40.7288C15.3877 41.025 12.5999 39.4567 12.5999 37.226C12.5999 34.9951 15.3877 32.9466 18.8267 32.6504C20.5462 32.5023 21.9401 31.4781 21.9401 30.3627V17.6728V16.3264ZM31.3037 27.5816C31.1716 27.6745 30.9859 27.7127 30.7959 27.6926C30.7138 27.6839 30.6309 27.6644 30.5512 27.6337C30.2872 27.532 30.1128 27.3289 30.1128 27.1229V21.1533C30.1128 20.9738 30.2456 20.8223 30.4603 20.7567C30.5646 20.7249 30.6803 20.7158 30.796 20.728C30.9184 20.7409 31.0407 20.7777 31.1491 20.8369L35.5557 23.4048C35.7302 23.4999 35.8485 23.6418 35.8784 23.7917C35.9082 23.9417 35.8466 24.084 35.7103 24.1799L31.3037 27.5816Z" fill="white"/>
<path d="M94.92 17.4C96.6933 17.4 98.2333 17.6987 99.54 18.296C100.847 18.8747 101.855 19.7147 102.564 20.816C103.273 21.8987 103.628 23.1773 103.628 24.652C103.628 26.1267 103.273 27.4053 102.564 28.488C101.855 29.5707 100.847 30.4107 99.54 31.008C98.2333 31.5867 96.6933 31.876 94.92 31.876H91.504V37H85.96V17.4H94.92ZM94.584 27.508C95.7227 27.508 96.5813 27.2653 97.16 26.78C97.7387 26.276 98.028 25.5667 98.028 24.652C98.028 23.7373 97.7387 23.028 97.16 22.524C96.5813 22.02 95.7227 21.768 94.584 21.768H91.504V27.508H94.584ZM106.331 17.4H111.875V32.604H121.227V37H106.331V17.4ZM136.772 33.192H128.484L126.944 37H121.288L129.94 17.4H135.4L144.08 37H138.312L136.772 33.192ZM135.148 29.104L132.628 22.832L130.108 29.104H135.148ZM154.921 29.972V37H149.377V29.888L141.901 17.4H147.753L152.401 25.184L157.049 17.4H162.425L154.921 29.972ZM163.753 17.4H169.297V32.604H178.649V37H163.753V17.4ZM180.843 17.4H186.387V37H180.843V17.4ZM197.219 37.392C195.632 37.392 194.092 37.196 192.599 36.804C191.106 36.412 189.892 35.8893 188.959 35.236L190.779 31.148C191.656 31.7267 192.674 32.1933 193.831 32.548C194.988 32.9027 196.127 33.08 197.247 33.08C199.375 33.08 200.439 32.548 200.439 31.484C200.439 30.924 200.131 30.5133 199.515 30.252C198.918 29.972 197.947 29.6827 196.603 29.384C195.128 29.0667 193.896 28.7307 192.907 28.376C191.918 28.0027 191.068 27.4147 190.359 26.612C189.65 25.8093 189.295 24.7267 189.295 23.364C189.295 22.1693 189.622 21.096 190.275 20.144C190.928 19.1733 191.899 18.408 193.187 17.848C194.494 17.288 196.09 17.008 197.975 17.008C199.263 17.008 200.532 17.1573 201.783 17.456C203.034 17.736 204.135 18.156 205.087 18.716L203.379 22.832C201.512 21.824 199.702 21.32 197.947 21.32C196.846 21.32 196.043 21.488 195.539 21.824C195.035 22.1413 194.783 22.5613 194.783 23.084C194.783 23.6067 195.082 23.9987 195.679 24.26C196.276 24.5213 197.238 24.792 198.563 25.072C200.056 25.3893 201.288 25.7347 202.259 26.108C203.248 26.4627 204.098 27.0413 204.807 27.844C205.535 28.628 205.899 29.7013 205.899 31.064C205.899 32.24 205.572 33.304 204.919 34.256C204.266 35.208 203.286 35.9733 201.979 36.552C200.672 37.112 199.086 37.392 197.219 37.392ZM212.359 21.796H206.339V17.4H223.895V21.796H217.903V37H212.359V21.796ZM241.696 32.716V37H225.96V17.4H241.332V21.684H231.448V24.988H240.156V29.132H231.448V32.716H241.696ZM253.341 31.792H250.317V37H244.773V17.4H253.733C255.506 17.4 257.046 17.6987 258.353 18.296C259.659 18.8747 260.667 19.7147 261.377 20.816C262.086 21.8987 262.441 23.1773 262.441 24.652C262.441 26.0707 262.105 27.312 261.433 28.376C260.779 29.4213 259.837 30.2427 258.605 30.84L262.833 37H256.897L253.341 31.792ZM256.841 24.652C256.841 23.7373 256.551 23.028 255.973 22.524C255.394 22.02 254.535 21.768 253.397 21.768H250.317V27.508H253.397C254.535 27.508 255.394 27.2653 255.973 26.78C256.551 26.276 256.841 25.5667 256.841 24.652Z" fill="#F4F4F5"/>
<path d="M267.487 37.252C266.591 37.252 265.835 36.9533 265.219 36.356C264.603 35.7587 264.295 35.0027 264.295 34.088C264.295 33.1547 264.594 32.3987 265.191 31.82C265.807 31.2413 266.572 30.952 267.487 30.952C268.42 30.952 269.186 31.2413 269.783 31.82C270.38 32.3987 270.679 33.1547 270.679 34.088C270.679 35.0027 270.371 35.7587 269.755 36.356C269.158 36.9533 268.402 37.252 267.487 37.252Z" fill="#2EC4B6"/>
<path d="M283.173 37.224C281.213 37.224 279.439 36.7947 277.853 35.936C276.285 35.0587 275.053 33.864 274.157 32.352C273.261 30.8213 272.813 29.104 272.813 27.2C272.813 25.296 273.261 23.588 274.157 22.076C275.053 20.5453 276.294 19.3507 277.881 18.492C279.467 17.6147 281.241 17.176 283.201 17.176C284.731 17.176 286.131 17.4373 287.401 17.96C288.67 18.464 289.753 19.22 290.649 20.228L288.829 21.992C287.354 20.4427 285.515 19.668 283.313 19.668C281.857 19.668 280.541 19.9947 279.365 20.648C278.189 21.3013 277.265 22.2067 276.593 23.364C275.939 24.5027 275.613 25.7813 275.613 27.2C275.613 28.6187 275.939 29.9067 276.593 31.064C277.265 32.2027 278.189 33.0987 279.365 33.752C280.541 34.4053 281.857 34.732 283.313 34.732C285.497 34.732 287.335 33.948 288.829 32.38L290.649 34.144C289.753 35.152 288.661 35.9173 287.373 36.44C286.103 36.9627 284.703 37.224 283.173 37.224ZM294.643 17.4H297.443V34.564H308.055V37H294.643V17.4ZM319.06 37.224C316.447 37.224 314.412 36.4773 312.956 34.984C311.5 33.4907 310.772 31.344 310.772 28.544V17.4H313.572V28.432C313.572 32.632 315.411 34.732 319.088 34.732C320.88 34.732 322.252 34.2187 323.204 33.192C324.156 32.1467 324.632 30.56 324.632 28.432V17.4H327.348V28.544C327.348 31.3627 326.62 33.5187 325.164 35.012C323.708 36.4867 321.673 37.224 319.06 37.224ZM346.276 26.836C347.415 27.1533 348.311 27.732 348.964 28.572C349.618 29.3933 349.944 30.4387 349.944 31.708C349.944 33.4067 349.3 34.7133 348.012 35.628C346.743 36.5427 344.886 37 342.44 37H333.088V17.4H341.88C344.12 17.4 345.847 17.848 347.06 18.744C348.292 19.64 348.908 20.8813 348.908 22.468C348.908 23.4947 348.666 24.3813 348.18 25.128C347.714 25.8747 347.079 26.444 346.276 26.836ZM335.888 19.668V25.94H341.628C343.066 25.94 344.167 25.6787 344.932 25.156C345.716 24.6147 346.108 23.8307 346.108 22.804C346.108 21.7773 345.716 21.0027 344.932 20.48C344.167 19.9387 343.066 19.668 341.628 19.668H335.888ZM342.328 34.732C343.915 34.732 345.11 34.4707 345.912 33.948C346.715 33.4253 347.116 32.604 347.116 31.484C347.116 29.3 345.52 28.208 342.328 28.208H335.888V34.732H342.328Z" fill="#D4D4D4"/>
</g>
<defs>
<linearGradient id="paint0_linear" x1="12.7126" y1="12.4167" x2="12.7126" y2="40.5515" gradientUnits="userSpaceOnUse">
<stop stop-color="white"/>
<stop offset="1" stop-color="#FFBFE2" stop-opacity="0.8"/>
</linearGradient>
<clipPath id="clip0">
<rect width="354" height="54" fill="white"/>
</clipPath>
</defs>
</svg>
