<svg width="312" height="45" viewBox="0 0 312 45" fill="none" xmlns="http://www.w3.org/2000/svg">
<path fill-rule="evenodd" clip-rule="evenodd" d="M0.992584 25.681C-0.330861 23.4354 -0.330861 20.6483 0.992584 18.4028L9.75911 3.52814C11.0476 1.3419 13.3961 0 15.9338 0H33.7243C36.262 0 38.6105 1.3419 39.899 3.52814L48.6655 18.4028C49.9889 20.6483 49.9889 23.4354 48.6655 25.681L39.899 40.5557C38.6105 42.7419 36.262 44.0837 33.7243 44.0837H15.9338C13.396 44.0837 11.0476 42.7419 9.75911 40.5557L0.992584 25.681Z" fill="#FF133E"/>
<path fill-rule="evenodd" clip-rule="evenodd" d="M17.6101 12.8181V10.285L28.5582 9.33861C32.3568 9.02711 36.0894 11.8846 36.0894 16.105V29.2587C36.0894 31.2573 33.5917 33.0927 30.5107 33.358C27.4297 33.6233 24.932 32.2184 24.932 30.2197V26.601L27.7214 26.3608C30.8024 26.0954 33.3 23.5002 33.3 19.8211V18.0118C33.3 14.8756 30.8024 12.887 27.7214 13.1524L20.3994 13.7842V30.5812C20.3994 32.5797 17.9018 34.415 14.8208 34.6803C11.7398 34.9457 9.24219 33.5406 9.24219 31.5421C9.24219 29.5435 11.7398 27.7082 14.8208 27.4428C16.3613 27.3102 17.6101 26.3926 17.6101 25.3933V14.0244V12.8181ZM25.999 22.9017C25.8806 22.9849 25.7143 23.0191 25.544 23.0011C25.4705 22.9933 25.3962 22.9759 25.3248 22.9484C25.0883 22.8573 24.932 22.6753 24.932 22.4907V17.1426C24.932 16.9817 25.051 16.846 25.2434 16.7872C25.3368 16.7588 25.4405 16.7506 25.5441 16.7615C25.6538 16.7731 25.7634 16.8061 25.8605 16.8591L29.8084 19.1597C29.9647 19.2449 30.0707 19.372 30.0975 19.5063C30.1242 19.6407 30.069 19.7682 29.9469 19.8541L25.999 22.9017Z" fill="url(#paint0_linear_63_1470)"/>
<path fill-rule="evenodd" clip-rule="evenodd" d="M17.6101 12.8181V10.285L28.5582 9.33861C32.3568 9.02711 36.0894 11.8846 36.0894 16.105V29.2587C36.0894 31.2573 33.5917 33.0927 30.5107 33.358C27.4297 33.6233 24.932 32.2184 24.932 30.2197V26.601L27.7214 26.3608C30.8024 26.0954 33.3 23.5002 33.3 19.8211V18.0118C33.3 14.8756 30.8024 12.887 27.7214 13.1524L20.3994 13.7842V30.5812C20.3994 32.5797 17.9018 34.415 14.8208 34.6803C11.7398 34.9457 9.24219 33.5406 9.24219 31.5421C9.24219 29.5435 11.7398 27.7082 14.8208 27.4428C16.3613 27.3102 17.6101 26.3926 17.6101 25.3933V14.0244V12.8181ZM25.999 22.9017C25.8806 22.9849 25.7143 23.0191 25.544 23.0011C25.4705 22.9933 25.3962 22.9759 25.3248 22.9484C25.0883 22.8573 24.932 22.6753 24.932 22.4907V17.1426C24.932 16.9817 25.051 16.846 25.2434 16.7872C25.3368 16.7588 25.4405 16.7506 25.5441 16.7615C25.6538 16.7731 25.7634 16.8061 25.8605 16.8591L29.8084 19.1597C29.9647 19.2449 30.0707 19.372 30.0975 19.5063C30.1242 19.6407 30.069 19.7682 29.9469 19.8541L25.999 22.9017Z" fill="white"/>
<path d="M82.9921 13.7794C84.5808 13.7794 85.9605 14.047 87.1312 14.5821C88.3022 15.1006 89.2052 15.8532 89.8404 16.8398C90.4756 17.8098 90.7937 18.9553 90.7937 20.2765C90.7937 21.5977 90.4756 22.7432 89.8404 23.7132C89.2052 24.6832 88.3022 25.4357 87.1312 25.9709C85.9605 26.4893 84.5808 26.7485 82.9921 26.7485H79.9317V31.3391H74.9648V13.7794H82.9921ZM82.6911 22.8352C83.7113 22.8352 84.4805 22.6178 84.999 22.183C85.5174 21.7315 85.7766 21.096 85.7766 20.2765C85.7766 19.457 85.5174 18.8216 84.999 18.37C84.4805 17.9185 83.7113 17.6927 82.6911 17.6927H79.9317V22.8352H82.6911ZM93.2153 13.7794H98.1822V27.4007H106.561V31.3391H93.2153V13.7794ZM120.487 27.9275H113.062L111.683 31.3391H106.615L114.367 13.7794H119.258L127.035 31.3391H121.867L120.487 27.9275ZM119.033 24.2651L116.775 18.646L114.517 24.2651H119.033ZM136.747 25.0427V31.3391H131.78V24.9675L125.083 13.7794H130.325L134.49 20.7531L138.654 13.7794H143.47L136.747 25.0427ZM144.66 13.7794H149.627V27.4007H158.005V31.3391H144.66V13.7794ZM159.971 13.7794H164.938V31.3391H159.971V13.7794ZM174.642 31.6903C173.22 31.6903 171.841 31.5147 170.503 31.1635C169.165 30.8123 168.078 30.344 167.242 29.7587L168.873 26.0963C169.658 26.6148 170.57 27.0328 171.607 27.3506C172.643 27.6683 173.664 27.8272 174.667 27.8272C176.574 27.8272 177.527 27.3506 177.527 26.3973C177.527 25.8956 177.251 25.5277 176.699 25.2936C176.164 25.0427 175.294 24.7835 174.09 24.5159C172.769 24.2317 171.665 23.9306 170.779 23.6128C169.893 23.2784 169.131 22.7516 168.496 22.0325C167.861 21.3133 167.543 20.3434 167.543 19.1226C167.543 18.0522 167.836 17.0907 168.421 16.2378C169.006 15.3681 169.876 14.6825 171.03 14.1808C172.201 13.6791 173.631 13.4282 175.319 13.4282C176.473 13.4282 177.61 13.562 178.731 13.8296C179.852 14.0804 180.838 14.4567 181.691 14.9584L180.161 18.646C178.488 17.7429 176.867 17.2914 175.294 17.2914C174.308 17.2914 173.589 17.4419 173.137 17.7429C172.685 18.0272 172.46 18.4034 172.46 18.8717C172.46 19.34 172.728 19.6912 173.262 19.9253C173.797 20.1594 174.659 20.4019 175.846 20.6528C177.184 20.9371 178.288 21.2465 179.157 21.5809C180.044 21.8987 180.805 22.4171 181.44 23.1362C182.092 23.8386 182.419 24.8002 182.419 26.021C182.419 27.0746 182.126 28.0279 181.541 28.8808C180.956 29.7337 180.078 30.4193 178.907 30.9378C177.736 31.4395 176.315 31.6903 174.642 31.6903ZM188.206 17.7178H182.813V13.7794H198.541V17.7178H193.173V31.3391H188.206V17.7178ZM214.489 27.5011V31.3391H200.391V13.7794H214.163V17.6175H205.308V20.5775H213.11V24.2902H205.308V27.5011H214.489ZM224.922 26.6733H222.213V31.3391H217.246V13.7794H225.273C226.862 13.7794 228.241 14.047 229.412 14.5821C230.582 15.1006 231.485 15.8532 232.121 16.8398C232.757 17.8098 233.075 18.9553 233.075 20.2765C233.075 21.5475 232.774 22.6596 232.172 23.6128C231.586 24.5493 230.742 25.2852 229.638 25.8204L233.426 31.3391H228.108L224.922 26.6733ZM228.058 20.2765C228.058 19.457 227.798 18.8216 227.28 18.37C226.761 17.9185 225.992 17.6927 224.972 17.6927H222.213V22.8352H224.972C225.992 22.8352 226.761 22.6178 227.28 22.183C227.798 21.7315 228.058 21.096 228.058 20.2765Z" fill="#F4F4F5"/>
<path d="M237.596 31.5661C236.793 31.5661 236.116 31.2985 235.564 30.7633C235.012 30.2282 234.736 29.5509 234.736 28.7314C234.736 27.8953 235.004 27.218 235.539 26.6995C236.091 26.1811 236.776 25.9219 237.596 25.9219C238.432 25.9219 239.118 26.1811 239.653 26.6995C240.188 27.218 240.456 27.8953 240.456 28.7314C240.456 29.5509 240.18 30.2282 239.628 30.7633C239.093 31.2985 238.416 31.5661 237.596 31.5661Z" fill="#2EC4B6"/>
<path d="M251.647 31.5407C249.891 31.5407 248.301 31.156 246.881 30.3867C245.476 29.6008 244.372 28.5304 243.569 27.1758C242.767 25.8045 242.365 24.2659 242.365 22.5601C242.365 20.8543 242.767 19.3241 243.569 17.9695C244.372 16.5982 245.484 15.5279 246.906 14.7586C248.327 13.9726 249.916 13.5796 251.672 13.5796C253.043 13.5796 254.297 13.8137 255.435 14.282C256.572 14.7335 257.542 15.4108 258.345 16.3139L256.714 17.8943C255.393 16.5062 253.745 15.8122 251.772 15.8122C250.468 15.8122 249.289 16.1049 248.235 16.6902C247.182 17.2755 246.354 18.0866 245.752 19.1234C245.166 20.1436 244.874 21.2891 244.874 22.5601C244.874 23.8311 245.166 24.9851 245.752 26.0219C246.354 27.0421 247.182 27.8448 248.235 28.4301C249.289 29.0154 250.468 29.3081 251.772 29.3081C253.729 29.3081 255.376 28.6057 256.714 27.2009L258.345 28.7813C257.542 29.6843 256.564 30.37 255.41 30.8383C254.272 31.3066 253.018 31.5407 251.647 31.5407ZM261.923 13.7803H264.431V29.1576H273.939V31.34H261.923V13.7803ZM283.798 31.5407C281.457 31.5407 279.634 30.8717 278.329 29.5338C277.025 28.196 276.373 26.2727 276.373 23.7642V13.7803H278.881V23.6639C278.881 27.4267 280.529 29.3081 283.823 29.3081C285.429 29.3081 286.658 28.8482 287.511 27.9284C288.364 26.9919 288.79 25.5704 288.79 23.6639V13.7803H291.223V23.7642C291.223 26.2895 290.571 28.2211 289.267 29.5589C287.962 30.8801 286.139 31.5407 283.798 31.5407ZM308.181 22.234C309.201 22.5183 310.004 23.0367 310.589 23.7893C311.175 24.5251 311.467 25.4617 311.467 26.5989C311.467 28.1207 310.89 29.2913 309.736 30.1108C308.599 30.9303 306.936 31.34 304.744 31.34H296.366V13.7803H304.243C306.249 13.7803 307.797 14.1816 308.883 14.9844C309.987 15.7871 310.539 16.8992 310.539 18.3207C310.539 19.2405 310.322 20.0348 309.887 20.7038C309.469 21.3728 308.9 21.8828 308.181 22.234ZM298.874 15.8122V21.4313H304.017C305.305 21.4313 306.292 21.1972 306.977 20.7289C307.679 20.2439 308.03 19.5416 308.03 18.6217C308.03 17.7019 307.679 17.0079 306.977 16.5397C306.292 16.0547 305.305 15.8122 304.017 15.8122H298.874ZM304.644 29.3081C306.066 29.3081 307.136 29.074 307.855 28.6057C308.574 28.1374 308.934 27.4016 308.934 26.3982C308.934 24.4415 307.504 23.4632 304.644 23.4632H298.874V29.3081H304.644Z" fill="#D4D4D4"/>
<defs>
<linearGradient id="paint0_linear_63_1470" x1="9.34316" y1="9.31541" x2="9.34316" y2="34.5215" gradientUnits="userSpaceOnUse">
<stop stop-color="white"/>
<stop offset="1" stop-color="#FFBFE2" stop-opacity="0.8"/>
</linearGradient>
</defs>
</svg>
