<svg width="219" height="122" viewBox="0 0 219 122" fill="none" xmlns="http://www.w3.org/2000/svg">
<g filter="url(#filter0_d_620_5043)">
<rect x="30" y="20" width="159" height="62" rx="5" fill="#FF1241"/>
<path d="M80.3569 63.3614C80.3569 55.2866 68.5479 57.4888 68.5479 53.627C68.5479 52.5418 69.5373 51.9992 71.0055 51.9992C72.8247 51.9992 75.7929 52.9567 78.1547 54.3291L80.2931 49.8928C78.3781 48.648 75.761 47.7544 73.08 47.4671V42.9031H68.8671V47.6267C65.0052 48.3608 62.5796 50.7226 62.5796 54.1376C62.5796 62.0529 74.3886 59.6911 74.3886 63.6487C74.3886 64.9253 73.2715 65.5956 71.4842 65.5956C69.1543 65.5956 65.7074 64.2551 63.4094 62.2444L61.2072 66.6169C63.2498 68.3084 65.9946 69.5213 68.8671 69.9681V74.9151H73.08V70.0957C77.261 69.617 80.3569 67.319 80.3569 63.3614ZM87.9388 60.7762L94.5773 47.6586H89.1197L82.0662 61.2869V65.0849H92.6624V70H97.9285V65.0849H100.961V60.7762H97.9285V55.9888H92.6624V60.7762H87.9388ZM112.636 47.4671C106.253 47.4671 102.71 51.5205 102.71 58.7974C102.71 66.1062 106.253 70.1596 112.636 70.1596C118.955 70.1596 122.498 66.1062 122.498 58.7974C122.498 51.5205 118.955 47.4671 112.636 47.4671ZM112.636 51.6163C115.445 51.6163 116.689 53.6908 116.689 58.7974C116.689 63.904 115.445 66.0105 112.636 66.0105C109.763 66.0105 108.551 63.904 108.551 58.7974C108.551 53.6908 109.763 51.6163 112.636 51.6163ZM127.321 73.5427L137.63 44.1159H133.002L122.694 73.5427H127.321Z" fill="white"/>
<path d="M67.9762 28.504C65.9602 28.504 64.6282 29.488 64.6282 31.036C64.6282 34.012 69.0682 33.124 69.0682 34.612C69.0682 35.092 68.6482 35.344 67.9762 35.344C67.1002 35.344 65.8042 34.84 64.9402 34.084L64.1122 35.728C65.1082 36.544 66.5482 37.072 67.9522 37.072C69.8242 37.072 71.3122 36.184 71.3122 34.504C71.3122 31.468 66.8722 32.296 66.8722 30.844C66.8722 30.436 67.2442 30.232 67.7962 30.232C68.4802 30.232 69.5962 30.592 70.4842 31.108L71.2882 29.44C70.4242 28.876 69.1882 28.504 67.9762 28.504ZM76.2269 35.212C75.9149 35.344 75.6389 35.428 75.4229 35.428C75.0389 35.44 74.8229 35.224 74.8229 34.72V32.188H76.5149V30.82H74.8229V29.032H72.7589V30.832H71.8589V32.188H72.7589V35.044C72.7589 36.388 73.6589 37.096 74.9069 37.096C75.5309 37.096 76.1669 36.928 76.6349 36.652L76.2269 35.212ZM80.5777 30.436C79.4977 30.436 78.5857 30.7 77.5777 31.168L78.1657 32.536C78.8497 32.188 79.5577 31.996 80.0977 31.996C80.9377 31.996 81.3577 32.38 81.3577 33.016V33.112H79.6537C78.0457 33.124 77.1697 33.844 77.1697 35.068C77.1697 36.256 78.0097 37.096 79.3897 37.096C80.2657 37.096 80.9497 36.808 81.3697 36.256V37H83.3977V32.776C83.3857 31.312 82.3537 30.436 80.5777 30.436ZM80.0257 35.692C79.4497 35.692 79.1137 35.392 79.1137 34.924C79.1137 34.444 79.4257 34.228 80.0497 34.228H81.3577V34.804C81.2257 35.332 80.6737 35.692 80.0257 35.692ZM86.945 30.532H84.869V37H86.945V33.676C87.053 32.764 87.845 32.2 89.045 32.308V30.436C88.121 30.448 87.389 30.868 86.945 31.624V30.532ZM93.7581 35.212C93.4461 35.344 93.1701 35.428 92.9541 35.428C92.5701 35.44 92.3541 35.224 92.3541 34.72V32.188H94.0461V30.82H92.3541V29.032H90.2901V30.832H89.3901V32.188H90.2901V35.044C90.2901 36.388 91.1901 37.096 92.4381 37.096C93.0621 37.096 93.6981 36.928 94.1661 36.652L93.7581 35.212ZM96.249 27.58C95.613 27.58 95.157 28.036 95.157 28.672C95.157 29.32 95.613 29.776 96.249 29.776C96.885 29.776 97.341 29.32 97.341 28.672C97.341 28.036 96.885 27.58 96.249 27.58ZM97.269 37V30.532H95.205V37H97.269ZM103.168 30.436C102.208 30.448 101.464 30.832 101.008 31.588V30.532H98.9315V37H101.008V33.58C101.092 32.812 101.572 32.272 102.328 32.272C103.024 32.272 103.468 32.74 103.468 33.496V37H105.532V32.92C105.532 31.408 104.596 30.436 103.168 30.436ZM113.186 30.532H111.122V31.324C110.69 30.76 110.042 30.448 109.214 30.46C107.594 30.46 106.478 31.684 106.478 33.52C106.478 35.404 107.63 36.652 109.262 36.652C110.066 36.652 110.702 36.34 111.122 35.788V36.472C111.122 37.276 110.522 37.804 109.526 37.804C108.83 37.804 108.11 37.564 107.522 37.156L106.802 38.56C107.534 39.052 108.554 39.412 109.682 39.412C111.77 39.412 113.186 38.248 113.186 36.412V30.532ZM109.778 35.152C108.962 35.152 108.41 34.504 108.41 33.58C108.41 32.644 108.962 31.996 109.778 31.996C110.582 31.996 111.122 32.632 111.122 33.58C111.122 34.504 110.582 35.152 109.778 35.152ZM120.468 30.436C119.388 30.436 118.476 30.7 117.468 31.168L118.056 32.536C118.74 32.188 119.448 31.996 119.988 31.996C120.828 31.996 121.248 32.38 121.248 33.016V33.112H119.544C117.936 33.124 117.06 33.844 117.06 35.068C117.06 36.256 117.9 37.096 119.28 37.096C120.156 37.096 120.84 36.808 121.26 36.256V37H123.288V32.776C123.276 31.312 122.244 30.436 120.468 30.436ZM119.916 35.692C119.34 35.692 119.004 35.392 119.004 34.924C119.004 34.444 119.316 34.228 119.94 34.228H121.248V34.804C121.116 35.332 120.564 35.692 119.916 35.692ZM128.528 35.212C128.216 35.344 127.94 35.428 127.724 35.428C127.34 35.44 127.124 35.224 127.124 34.72V32.188H128.816V30.82H127.124V29.032H125.06V30.832H124.16V32.188H125.06V35.044C125.06 36.388 125.96 37.096 127.208 37.096C127.832 37.096 128.468 36.928 128.936 36.652L128.528 35.212ZM133.82 27.58C133.136 27.58 132.644 28.036 132.644 28.684C132.644 29.32 133.136 29.776 133.82 29.776C134.516 29.776 134.996 29.32 134.996 28.684C134.996 28.036 134.516 27.58 133.82 27.58ZM134.864 30.532H132.788V37.06C132.788 37.552 132.536 37.78 132.152 37.768C131.912 37.768 131.66 37.684 131.42 37.54L130.892 38.992C131.336 39.268 131.912 39.412 132.512 39.412C133.832 39.424 134.864 38.644 134.864 37.192V30.532ZM142.896 30.532H140.82V33.724C140.82 34.6 140.352 35.248 139.56 35.26C138.9 35.26 138.48 34.792 138.48 34.024V30.532H136.404V34.612C136.404 36.124 137.316 37.084 138.72 37.084C139.656 37.084 140.376 36.7 140.82 35.932V37H142.896V30.532ZM146.869 30.436C145.369 30.436 144.241 31.156 144.241 32.488C144.229 34.756 147.577 34.264 147.577 35.212C147.577 35.512 147.277 35.656 146.869 35.656C146.149 35.656 145.309 35.368 144.577 34.852L143.917 36.172C144.697 36.772 145.741 37.084 146.821 37.084C148.381 37.084 149.545 36.352 149.545 35.02C149.557 32.764 146.149 33.196 146.149 32.308C146.149 32.008 146.413 31.864 146.785 31.864C147.325 31.864 148.045 32.092 148.825 32.512L149.533 31.168C148.741 30.7 147.805 30.436 146.869 30.436ZM154.473 35.212C154.161 35.344 153.885 35.428 153.669 35.428C153.285 35.44 153.069 35.224 153.069 34.72V32.188H154.761V30.82H153.069V29.032H151.005V30.832H150.105V32.188H151.005V35.044C151.005 36.388 151.905 37.096 153.153 37.096C153.777 37.096 154.413 36.928 154.881 36.652L154.473 35.212Z" fill="white"/>
<path d="M146.84 53.008L148.94 50.824V49.612H143.396V51.244H146.456L144.584 53.188V54.328H145.928C146.768 54.328 147.236 54.676 147.236 55.384C147.236 56.068 146.78 56.476 145.94 56.476C145.184 56.476 144.464 56.128 143.84 55.456L142.976 57.076C143.744 57.688 144.956 58.096 146.108 58.096C148.064 58.096 149.324 56.968 149.324 55.36C149.324 54.064 148.46 53.26 147.236 53.068L146.84 53.008ZM153.915 49.528C151.515 49.528 150.183 51.052 150.183 53.788C150.183 56.536 151.515 58.06 153.915 58.06C156.291 58.06 157.623 56.536 157.623 53.788C157.623 51.052 156.291 49.528 153.915 49.528ZM153.915 51.088C154.971 51.088 155.439 51.868 155.439 53.788C155.439 55.708 154.971 56.5 153.915 56.5C152.835 56.5 152.379 55.708 152.379 53.788C152.379 51.868 152.835 51.088 153.915 51.088ZM150.344 59.096H148.268V62.384C147.812 61.784 147.128 61.448 146.276 61.448C144.488 61.448 143.3 62.756 143.3 64.736C143.3 66.74 144.5 68.084 146.324 68.084C147.152 68.084 147.812 67.748 148.268 67.148V68H150.344V59.096ZM146.828 66.476C145.964 66.476 145.388 65.78 145.376 64.784C145.388 63.788 145.964 63.104 146.828 63.104C147.692 63.104 148.268 63.788 148.268 64.784C148.268 65.78 147.692 66.476 146.828 66.476ZM154.959 61.436C153.879 61.436 152.967 61.7 151.959 62.168L152.547 63.536C153.231 63.188 153.939 62.996 154.479 62.996C155.319 62.996 155.739 63.38 155.739 64.016V64.112H154.035C152.427 64.124 151.551 64.844 151.551 66.068C151.551 67.256 152.391 68.096 153.771 68.096C154.647 68.096 155.331 67.808 155.751 67.256V68H157.779V63.776C157.767 62.312 156.735 61.436 154.959 61.436ZM154.407 66.692C153.831 66.692 153.495 66.392 153.495 65.924C153.495 65.444 153.807 65.228 154.431 65.228H155.739V65.804C155.607 66.332 155.055 66.692 154.407 66.692ZM165.372 61.532H163.308L161.904 65.828L160.32 61.532H158.184L160.872 67.856L160.716 68.18C160.548 68.528 160.284 68.696 159.912 68.696C159.612 68.696 159.36 68.588 159.06 68.348L158.196 69.764C158.772 70.208 159.36 70.424 160.08 70.424C161.28 70.424 162.096 69.848 162.576 68.672L165.372 61.532ZM168.351 61.436C166.851 61.436 165.723 62.156 165.723 63.488C165.711 65.756 169.059 65.264 169.059 66.212C169.059 66.512 168.759 66.656 168.351 66.656C167.631 66.656 166.791 66.368 166.059 65.852L165.399 67.172C166.179 67.772 167.223 68.084 168.303 68.084C169.863 68.084 171.027 67.352 171.027 66.02C171.039 63.764 167.631 64.196 167.631 63.308C167.631 63.008 167.895 62.864 168.267 62.864C168.807 62.864 169.527 63.092 170.307 63.512L171.015 62.168C170.223 61.7 169.287 61.436 168.351 61.436Z" fill="white"/>
</g>
<defs>
<filter id="filter0_d_620_5043" x="0" y="0" width="219" height="122" filterUnits="userSpaceOnUse" color-interpolation-filters="sRGB">
<feFlood flood-opacity="0" result="BackgroundImageFix"/>
<feColorMatrix in="SourceAlpha" type="matrix" values="0 0 0 0 0 0 0 0 0 0 0 0 0 0 0 0 0 0 127 0" result="hardAlpha"/>
<feOffset dy="10"/>
<feGaussianBlur stdDeviation="15"/>
<feComposite in2="hardAlpha" operator="out"/>
<feColorMatrix type="matrix" values="0 0 0 0 0 0 0 0 0 0 0 0 0 0 0 0 0 0 0.6 0"/>
<feBlend mode="normal" in2="BackgroundImageFix" result="effect1_dropShadow_620_5043"/>
<feBlend mode="normal" in="SourceGraphic" in2="effect1_dropShadow_620_5043" result="shape"/>
</filter>
</defs>
</svg>
