<svg width="227" height="135" viewBox="0 0 227 135" fill="none" xmlns="http://www.w3.org/2000/svg">
<rect x="1" y="1" width="225" height="133" rx="9" stroke="#FF1241" stroke-width="2"/>
<path d="M56.5941 72.6C56.5941 59.95 38.0941 63.4 38.0941 57.35C38.0941 55.65 39.6441 54.8 41.9441 54.8C44.7941 54.8 49.4441 56.3 53.1441 58.45L56.4941 51.5C53.4941 49.55 49.3941 48.15 45.1941 47.7V40.55H38.5941V47.95C32.5441 49.1 28.7441 52.8 28.7441 58.15C28.7441 70.55 47.2441 66.85 47.2441 73.05C47.2441 75.05 45.4941 76.1 42.6941 76.1C39.0441 76.1 33.6441 74 30.0441 70.85L26.5941 77.7C29.7941 80.35 34.0941 82.25 38.5941 82.95V90.7H45.1941V83.15C51.7441 82.4 56.5941 78.8 56.5941 72.6ZM74.8019 59.88L91.4419 27H77.7619L60.0819 61.16V70.68H86.6419V83H99.8419V70.68H107.442V59.88H99.8419V47.88H86.6419V59.88H74.8019ZM136.707 26.52C120.707 26.52 111.827 36.68 111.827 54.92C111.827 73.24 120.707 83.4 136.707 83.4C152.547 83.4 161.427 73.24 161.427 54.92C161.427 36.68 152.547 26.52 136.707 26.52ZM136.707 36.92C143.747 36.92 146.867 42.12 146.867 54.92C146.867 67.72 143.747 73 136.707 73C129.507 73 126.467 67.72 126.467 54.92C126.467 42.12 129.507 36.92 136.707 36.92ZM173.517 91.88L199.357 18.12H187.757L161.917 91.88H173.517Z" fill="white"/>
<path d="M92.725 104.325C90.5 104.35 88.85 105.375 87.975 107.375C87.3 105.475 85.675 104.325 83.475 104.325C81.5 104.35 79.95 105.15 79.025 106.75V104.525H74.725V118H79.025V111.325C79.025 109.5 80.05 108.175 81.7 108.125C83.125 108.125 84 109.1 84 110.7V118H88.325V111.325C88.325 109.5 89.325 108.175 90.95 108.125C92.375 108.125 93.275 109.1 93.275 110.7V118H97.575V109.5C97.575 106.35 95.675 104.325 92.725 104.325ZM106.903 104.375C102.478 104.375 99.5277 107.1 99.5277 111.25C99.5277 115.4 102.478 118.15 106.903 118.15C111.303 118.15 114.253 115.4 114.253 111.25C114.253 107.1 111.303 104.375 106.903 104.375ZM106.903 107.8C108.678 107.8 109.903 109.225 109.903 111.3C109.903 113.4 108.678 114.8 106.903 114.8C105.103 114.8 103.878 113.4 103.878 111.3C103.878 109.225 105.103 107.8 106.903 107.8ZM125.396 104.325C123.396 104.35 121.846 105.15 120.896 106.725V104.525H116.571V118H120.896V110.875C121.071 109.275 122.071 108.15 123.646 108.15C125.096 108.15 126.021 109.125 126.021 110.7V118H130.321V109.5C130.321 106.35 128.371 104.325 125.396 104.325ZM141.242 114.275C140.592 114.55 140.017 114.725 139.567 114.725C138.767 114.75 138.317 114.3 138.317 113.25V107.975H141.842V105.125H138.317V101.4H134.017V105.15H132.142V107.975H134.017V113.925C134.017 116.725 135.892 118.2 138.492 118.2C139.792 118.2 141.117 117.85 142.092 117.275L141.242 114.275ZM153.231 104.325C151.231 104.35 149.656 105.15 148.706 106.75V99.45H144.381V118H148.706V111.35C148.706 109.5 149.756 108.15 151.456 108.15C152.931 108.15 153.831 109.125 153.831 110.7V118H158.156V109.5C158.156 106.35 156.206 104.325 153.231 104.325Z" fill="white"/>
</svg>
