<svg width="133" height="57" viewBox="0 0 133 57" fill="none" xmlns="http://www.w3.org/2000/svg">
<rect width="132.05" height="57" rx="5" fill="#FF1241"/>
<path d="M31.929 38.2019C31.929 30.9914 21.384 32.9579 21.384 29.5094C21.384 28.5404 22.2675 28.0559 23.5785 28.0559C25.203 28.0559 27.8535 28.9109 29.9625 30.1364L31.872 26.1749C30.162 25.0634 27.825 24.2654 25.431 24.0089L25.431 19.9334H21.669L21.669 24.1514C18.2205 24.8069 16.0545 26.9159 16.0545 29.9654C16.0545 37.0334 26.5995 34.9244 26.5995 38.4584C26.5995 39.5984 25.602 40.1969 24.006 40.1969C21.9255 40.1969 18.8475 38.9999 16.7955 37.2044L14.829 41.1089C16.653 42.6194 19.104 43.7024 21.669 44.1014L21.669 48.5189H25.431L25.431 44.2154C29.1645 43.7879 31.929 41.7359 31.929 38.2019ZM45.5108 44.4624C54.8683 44.4624 60.9008 37.5749 60.9008 26.9824C60.9008 16.7699 55.4858 10.4524 46.5558 10.4524C39.0508 10.4524 34.1108 14.9174 34.1108 21.9474C34.1108 28.4074 38.2908 32.6824 44.8458 32.6824C48.5508 32.6824 51.2108 31.3524 52.7783 29.1199C52.8733 34.5824 50.3083 37.9549 44.9883 37.9549C42.4233 37.9549 39.9058 37.1949 38.0058 35.8174L34.7758 41.7074C37.5783 43.4174 41.8058 44.4624 45.5108 44.4624ZM46.7458 26.5074C43.7058 26.5074 41.9483 24.8449 41.9483 21.9949C41.9483 18.9074 43.8483 17.1974 46.8883 17.1974C50.3083 17.1974 51.8758 19.3824 51.8758 21.8524C51.8758 24.5599 50.0233 26.5074 46.7458 26.5074Z" fill="white"/>
<path d="M67.4491 12.9601L67.4491 26.2601H70.8311L70.8311 22.5171H73.2441C76.6451 22.5171 78.6021 20.7121 78.6021 17.5961C78.6021 14.6321 76.6451 12.9601 73.2441 12.9601H67.4491ZM70.8311 15.6201H73.0731C74.5551 15.6201 75.4101 16.3231 75.4101 17.7101C75.4101 19.1161 74.5551 19.8571 73.0731 19.8571H70.8311L70.8311 15.6201ZM90.7752 15.6201L90.7752 12.9601H80.3632L80.3632 26.2601H90.9842L90.9842 23.6001H83.7452L83.7452 20.9211H90.0912L90.0912 18.2611H83.7452L83.7452 15.6201H90.7752ZM101.184 26.2601H105.022L102.229 21.8711C103.787 21.0921 104.642 19.6291 104.642 17.5961C104.642 14.6321 102.628 12.9601 99.1129 12.9601H93.1659L93.1659 26.2601H96.5479L96.5479 22.5171H99.1129H99.2079L101.184 26.2601ZM96.5479 19.8571L96.5479 15.6201H99.1129C100.576 15.6201 101.431 16.3231 101.431 17.7101C101.431 19.1161 100.576 19.8571 99.1129 19.8571H96.5479ZM74.3081 37.9661L79.1341 28.9601H75.7521L72.6171 34.7551L69.4061 28.9601H66.0241L70.9451 38.0611L70.9451 42.2601H74.3081L74.3081 37.9661ZM90.7752 31.6201L90.7752 28.9601H80.3632L80.3632 42.2601H90.9842L90.9842 39.6001H83.7452L83.7452 36.9211H90.0912L90.0912 34.2611H83.7452L83.7452 31.6201H90.7752ZM102.001 39.8091L102.951 42.2601H106.561L100.956 28.9601H97.4789L91.7409 42.2601H95.2179L96.1869 39.8091H102.001ZM101.013 37.2441H97.1749L99.1129 32.3231L101.013 37.2441ZM115.805 42.2601H119.643L116.85 37.8711C118.408 37.0921 119.263 35.6291 119.263 33.5961C119.263 30.6321 117.249 28.9601 113.734 28.9601H107.787L107.787 42.2601H111.169L111.169 38.5171H113.734H113.829L115.805 42.2601ZM111.169 35.8571L111.169 31.6201H113.734C115.197 31.6201 116.052 32.3231 116.052 33.7101C116.052 35.1161 115.197 35.8571 113.734 35.8571H111.169Z" fill="white"/>
</svg>
