<svg width="38" height="38" viewBox="0 0 38 38" fill="none" xmlns="http://www.w3.org/2000/svg">
<g clip-path="url(#clip0_90_148)">
<path d="M30.994 14.0731C31.491 13.5756 31.6898 12.8792 31.491 12.1828C31.2922 11.4864 30.6957 10.989 29.9999 10.8895L24.2344 9.99416C23.2404 13.6751 21.7493 18.7489 21.7493 18.7489C21.3517 20.6391 19.5624 22.6288 17.2761 23.8227C14.5922 25.2155 11.8089 25.0165 10.3178 23.5242C9.62198 22.9273 9.12496 22.1314 8.92615 21.236C8.42912 18.6494 10.7154 15.9633 14.1946 15.0679C14.3934 14.9684 14.6916 14.9684 14.8904 14.869C15.288 14.7695 15.6857 14.7695 15.9839 14.7695C17.3755 14.67 18.6678 14.869 19.8606 15.3664C19.9601 15.3664 19.9601 15.4659 19.9601 15.4659L21.4511 9.39725C21.2523 9.19828 21.0535 8.99931 20.9541 8.70085L17.5743 1.73686C17.2761 1.04046 16.5803 0.642517 15.8845 0.642517C15.1886 0.642517 14.4928 1.04046 14.1946 1.73686L10.8148 8.70085C10.5166 9.19828 10.0196 9.59622 9.42317 9.69571L1.76902 10.79C1.07319 10.8895 0.47676 11.387 0.277951 12.0834C0.0791422 12.7798 0.277951 13.4762 0.774974 13.9736L6.34163 19.3458C6.83865 19.7438 7.03746 20.3407 6.83865 20.9376L5.54639 28.598C5.44699 29.2944 5.7452 29.9908 6.24222 30.3887C6.83865 30.7867 7.53448 30.8861 8.23032 30.5877L15.0892 27.0062C15.6857 26.7077 16.2821 26.7077 16.7791 27.0062L23.638 30.5877C24.2344 30.8861 25.0297 30.8861 25.6261 30.3887C26.2225 29.9908 26.5208 29.2944 26.3219 28.598L24.9303 21.1366C24.8309 20.5396 25.0297 19.9427 25.4273 19.5448L30.994 14.0731Z" fill="#848484"/>
<path opacity="0.3" d="M33.0807 15.8637L30.8938 18.2514L34.2736 23.6236L28.1105 34.1691H24.4325H15.9831L13.6968 30.2892L10.9135 31.7814L14.1939 37.3526H29.9992L30.7944 35.8603L34.1742 30.0902L37.9516 23.6236L33.0807 15.8637Z" fill="white"/>
</g>
<defs>
<clipPath id="clip0_90_148">
<rect width="37.8731" height="36.6107" fill="white" transform="translate(0.0794067 0.741943)"/>
</clipPath>
</defs>
</svg>
