<svg width="102" height="77" viewBox="0 0 102 77" fill="none" xmlns="http://www.w3.org/2000/svg">
<path d="M16.0847 0.671387H5.35751L0 9.95855L5.35751 19.2457H16.0847L21.4545 9.95855L16.0847 0.671387Z" fill="#FF1241"/>
<path d="M95.8736 29.1795H86.855C86.855 22.2111 86.855 15.2549 86.855 8.28645C86.855 3.41709 83.4623 0.0244078 78.6051 0.0244078H61.9224C47.5096 0.0366117 33.0968 0.0366117 18.684 0C18.6718 0 18.6718 0 18.6596 0C14.4859 0 11.0932 2.69706 10.4098 6.49247L10.2633 6.69994V57.9563L10.3853 58.42C10.7637 59.5916 11.142 60.7998 12.0085 61.8249C13.6438 63.7776 15.7551 64.7661 18.2813 64.7661C22.7845 64.7783 27.2755 64.7661 31.7788 64.7661H37.5024H38.1858C38.1614 64.8271 38.137 64.8759 38.1126 64.9247C37.5024 66.1451 36.5383 66.7553 35.1348 66.8041C30.9977 66.9506 27.9712 70.148 28.0932 74.2363C28.1298 75.3591 28.5447 76.1157 29.3624 76.5306L29.46 76.5794L51.305 76.555L68.305 76.5794L68.4027 76.5306C69.2203 76.1157 69.6353 75.3591 69.6719 74.2363C69.7939 70.148 66.7673 66.9506 62.6302 66.8041C61.239 66.7553 60.2627 66.1329 59.6525 64.9247C59.6281 64.8759 59.6037 64.8271 59.5793 64.7661H73.6992V70.5141C73.6992 73.9068 76.4572 76.6649 79.8499 76.6649H95.8492C99.2419 76.6649 102 73.9068 102 70.5141V35.3181C102.012 31.9376 99.2541 29.1795 95.8736 29.1795ZM98.351 35.3181V62.3985H77.3847V35.3181C77.3847 33.9512 78.4953 32.8285 79.8743 32.8285H95.8736C97.2405 32.8407 98.351 33.9512 98.351 35.3181ZM14.1441 8.38408C14.1441 5.49175 15.7429 3.89304 18.6352 3.89304H59.323H63.277H66.1327H72.2591H78.5197C81.3632 3.89304 82.9863 5.51616 82.9863 8.33526V29.1795H79.8865C78.9468 29.1795 78.0559 29.4114 77.2505 29.7897V16.28C77.2505 13.5097 74.9928 11.252 72.2225 11.252H27.1901C24.4198 11.252 22.1621 13.5097 22.1621 16.28V41.2126C22.1621 43.9828 24.4198 46.2406 27.1901 46.2406H72.2103C72.735 46.2406 73.2354 46.1307 73.7236 45.9843V52.0008H63.2648V51.9886H59.3108H52.0983H14.1441V8.38408ZM73.5771 16.28V41.2126C73.5771 41.9692 72.9669 42.5794 72.2103 42.5794H27.1901C26.4335 42.5794 25.8233 41.9692 25.8233 41.2126V16.28C25.8233 15.5234 26.4335 14.9132 27.1901 14.9132H72.2103C72.9669 14.9132 73.5771 15.5234 73.5771 16.28ZM62.5082 70.6728C63.9971 70.7582 64.9978 71.4172 65.5592 72.6864H52.7451H49.2425H32.2303C32.7917 71.4294 33.7924 70.7704 35.2813 70.6728C38.7838 70.4653 41.4565 68.2686 42.1033 65.0834C42.1521 64.8515 42.1643 64.7905 42.2985 64.7783H45.3007C48.6202 64.7783 51.9518 64.7783 55.2835 64.7661C55.6374 64.7783 55.6252 64.7661 55.6984 65.0834C56.333 68.2686 59.0057 70.4531 62.5082 70.6728ZM57.8829 60.8974C45.142 60.8852 31.974 60.8852 19.0135 60.9463C17.3294 60.9341 15.9869 60.4337 15.1449 59.4818C14.3882 58.6275 14.0465 57.4193 14.1441 55.9671H73.7236V60.9096L57.8829 60.8974ZM95.8736 73.0037H79.8743C78.5075 73.0037 77.3847 71.8932 77.3847 70.5141V66.0719H98.351V70.5141C98.351 71.8809 97.2405 73.0037 95.8736 73.0037Z" fill="#0C0C0C"/>
<path d="M42.6161 18.8553H33.2923C31.6936 18.8553 30.4 20.149 30.4 21.7477V31.0714C30.4 32.6702 31.6936 33.9638 33.2923 33.9638H42.6161C44.2148 33.9638 45.5084 32.6702 45.5084 31.0714V21.7477C45.5084 20.1612 44.2148 18.8553 42.6161 18.8553ZM41.8473 30.3148H34.0612V22.5287H41.8473V30.3148Z" fill="#0C0C0C"/>
<path d="M79.3495 50.8024C79.3495 52.4011 80.6431 53.6947 82.2418 53.6947H93.4938C95.0925 53.6947 96.3861 52.3889 96.3861 50.8024V41.4908C96.3861 39.8921 95.0925 38.5985 93.4938 38.5985H82.2418C80.6431 38.5985 79.3495 39.9043 79.3495 41.4908V50.8024ZM83.0107 42.2475H92.7372V50.0336H83.0107V42.2475Z" fill="#0C0C0C"/>
<path d="M55.4175 18.8553H51.3414C49.7426 18.8553 48.449 20.149 48.449 21.7477V25.8238C48.449 27.4225 49.7426 28.7161 51.3414 28.7161H55.4175C57.0162 28.7161 58.3098 27.4225 58.3098 25.8238V21.7477C58.322 20.1612 57.0162 18.8553 55.4175 18.8553ZM54.6608 25.0671H52.1102V22.5165H54.6608V25.0671Z" fill="#0C0C0C"/>
<path d="M67.0487 18.8553H62.9726C61.3739 18.8553 60.0803 20.149 60.0803 21.7477V25.8238C60.0803 27.4225 61.3739 28.7161 62.9726 28.7161H67.0487C68.6474 28.7161 69.941 27.4225 69.941 25.8238V21.7477C69.9532 20.1612 68.6474 18.8553 67.0487 18.8553ZM66.292 25.0671H63.7414V22.5165H66.292V25.0671Z" fill="#0C0C0C"/>
</svg>
