<svg width="71" height="75" viewBox="0 0 71 75" fill="none" xmlns="http://www.w3.org/2000/svg">
<path d="M15.0829 2.83679H5.02381L0 11.5455L5.02381 20.2542H15.0829L20.1181 11.5455L15.0829 2.83679Z" fill="#FF1241"/>
<path d="M68.5481 51.4727C67.026 50.7174 65.5155 49.882 64.0392 49.0809C63.0093 48.5087 61.9679 47.948 60.9265 47.3987C60.5489 47.2042 60.4459 47.0211 60.4459 46.5519C60.4573 43.1073 60.4573 39.6627 60.4573 36.2182V32.087C60.4573 30.5535 59.7936 28.9743 58.7293 27.9787C57.7566 27.0746 56.4978 26.6283 55.0788 26.7313C54.9529 26.7313 54.827 26.7313 54.6897 26.7198H54.6782V26.697C54.6782 26.491 54.6782 26.2964 54.6782 26.1019C54.6553 25.564 54.6439 25.0376 54.6325 24.4998C54.6096 23.3096 54.5867 22.0737 54.4494 20.8721C53.3965 11.9688 46.8507 4.33587 38.1763 1.87546C37.1464 1.57792 36.0707 1.40627 35.0408 1.22317C34.5487 1.14306 34.068 1.05151 33.5989 0.959961C33.576 0.959961 33.5645 0.959961 33.5416 0.959961L30.0398 0.971405L29.8682 1.01718C29.7537 1.04007 29.6393 1.0744 29.5249 1.08584C24.4324 1.63514 20.0037 3.66069 16.3417 7.1167C11.5239 11.6599 9.0749 17.3589 9.06345 24.042V26.7427H8.22806C6.54583 26.7427 5.19547 27.4866 4.22275 28.9514C3.60479 29.8669 3.2958 30.9311 3.28436 32.087C3.27292 34.7305 3.26147 37.3854 3.28436 40.0289C3.2958 41.1046 3.98243 41.8714 4.96659 41.8943C5.42434 41.8943 5.8592 41.7455 6.17963 41.4365C6.53439 41.0932 6.72893 40.5897 6.74037 40.0289C6.75182 38.4497 6.75182 36.859 6.75182 35.2798C6.75182 34.4329 6.75182 33.5746 6.75182 32.7278V32.6363C6.75182 32.3044 6.75182 32.0069 6.79759 31.6979C6.94636 30.7023 7.51855 30.1987 8.49127 30.1987H55.2962C56.1545 30.1987 56.6008 30.5192 56.8411 31.2859C56.9555 31.6635 57.0128 32.0984 57.0128 32.6134C57.0128 34.616 57.0242 36.6072 57.0242 38.6099C57.0242 41.2649 57.0242 43.9198 57.0356 46.5633C57.0356 47.0211 56.9327 47.2042 56.5436 47.4101C55.5136 47.948 54.4951 48.5087 53.4766 49.0695C51.989 49.882 50.4555 50.7174 48.922 51.4841C47.1597 52.3538 46.3815 53.7271 46.4845 55.7984C46.6218 58.522 47.2169 61.1426 48.2583 63.5916C48.5444 64.2439 48.8419 64.8847 49.1623 65.5485C49.2539 65.7316 49.334 65.9147 49.4256 66.0978C49.4141 66.0978 49.4027 66.0978 49.3912 66.0978H39.1262C28.8497 66.0978 18.5847 66.0978 8.30817 66.1092C7.6902 66.1092 7.27823 65.8689 7.09513 65.3883C6.88914 64.8504 6.76326 64.2439 6.76326 63.6946C6.74037 61.6004 6.74037 59.5062 6.74037 57.412C6.74037 56.0273 6.74037 54.6311 6.74037 53.2465C6.74037 52.1021 6.06519 51.3468 5.03525 51.3353C5.02381 51.3353 5.01237 51.3353 5.00092 51.3353C4.52029 51.3353 4.10831 51.4956 3.79933 51.8045C3.46746 52.125 3.2958 52.5942 3.28436 53.132L3.27292 55.5581C3.25003 58.4762 3.23859 61.486 3.31869 64.4499C3.41024 67.6084 5.48156 69.5652 8.73159 69.5652H14.7739C26.8585 69.5652 38.9431 69.5652 51.0277 69.5538C51.0277 69.5538 51.0277 69.5538 51.0391 69.5538C51.5426 69.5538 51.7944 69.6682 52.0691 70.023C53.1219 71.4077 54.4951 72.6779 56.2575 73.9139C57.1158 74.5089 57.9511 74.8065 58.7637 74.8065C59.599 74.8065 60.4344 74.4975 61.2584 73.8795C61.3843 73.788 61.5216 73.6964 61.6475 73.6049C61.7734 73.5248 61.8992 73.4332 62.0251 73.3417C64.3482 71.6251 66.2479 69.3478 67.9988 66.1436C69.887 62.699 70.8597 59.3002 70.997 55.7412C71.0542 53.6928 70.2875 52.3424 68.5481 51.4727ZM67.5296 55.6496C67.5296 55.6725 67.5181 55.6954 67.5181 55.7183C67.3007 59.5977 66.0533 63.0881 63.57 66.6929C62.3112 68.5124 60.9151 69.9314 59.2901 71.0071C58.8781 71.2818 58.6034 71.2818 58.1915 71.0186C56.0286 69.611 54.2548 67.6084 52.6298 64.6902C50.8675 61.5317 49.9863 58.5106 49.952 55.4551C49.952 54.9973 50.055 54.7914 50.444 54.5968C52.7328 53.3952 55.1818 52.0677 58.3746 50.3283C58.5119 50.2482 58.6263 50.2139 58.7408 50.2139C58.8666 50.2139 58.9925 50.2596 59.1413 50.3397L60.2399 50.9463C62.2998 52.0792 64.4398 53.2465 66.5683 54.3451C67.5639 54.8371 67.6783 55.2262 67.5296 55.6496ZM45.4088 15.4134C41.8155 9.66865 35.2468 6.81916 28.6552 8.14664C22.2352 9.43978 17.2 14.7153 16.1242 21.2726C15.9869 22.0851 15.964 22.9205 15.9411 23.733L15.9297 24.1679C15.9068 24.8087 15.9183 25.4496 15.9183 26.1133V26.7198H12.5538C11.9702 18.6749 14.5908 12.4724 20.347 8.28396C27.0874 3.38604 34.4114 2.97406 41.5408 7.09381C48.5215 11.1335 51.7601 17.7251 51.165 26.6855H47.812V24.0534C47.812 20.8606 47.0109 17.9539 45.4088 15.4134ZM22.5442 15.4134C24.9703 12.7012 28.4835 11.1678 32.237 11.2822C38.6684 11.4195 43.9669 16.5578 44.2988 22.9777C44.3445 23.8703 44.3331 24.7515 44.3216 25.6899C44.3216 26.0218 44.3102 26.3651 44.3102 26.697H19.4429C18.7449 21.0323 20.7361 17.439 22.5442 15.4134Z" fill="#0F0F0F"/>
<path d="M10.8487 56.9656C10.7572 58.1786 11.1234 59.3001 11.8787 60.1241C12.6225 60.9366 13.6868 61.3829 14.8769 61.3829C17.0856 61.3943 19.34 61.3943 21.6402 61.3943C23.8603 61.3943 26.1147 61.3943 28.4034 61.3829C29.5821 61.3829 30.635 60.948 31.3674 60.1927C32.0998 59.4374 32.466 58.3732 32.4202 57.2059C32.2829 53.5439 30.5205 50.58 27.179 48.3713L26.8357 48.1425C28.3806 46.6204 29.2388 44.6864 29.2732 42.6495C29.3075 40.5438 28.4721 38.5068 26.9844 37.0535C23.9976 34.1353 19.1683 34.1811 16.2159 37.1565C14.7739 38.6213 13.9729 40.6468 14.0187 42.7296C14.0644 44.7437 14.9342 46.6662 16.4562 48.1539L16.2387 48.2912C12.9429 50.3969 11.1348 53.3265 10.8487 56.9656ZM21.6402 46.7005C19.3514 46.7005 17.4861 44.8352 17.4747 42.535C17.4632 40.2348 19.3171 38.3466 21.6059 38.3237C21.6173 38.3237 21.6287 38.3237 21.6402 38.3237C22.7502 38.3237 23.7916 38.7586 24.5812 39.5368C25.3823 40.3378 25.8286 41.3906 25.8172 42.5236C25.8172 44.8238 23.9404 46.7005 21.6402 46.7005ZM27.7283 53.6126C28.5179 54.7798 28.9184 55.9471 28.9642 57.1945C28.9756 57.492 28.9299 57.6865 28.8383 57.7895C28.7468 57.8925 28.5408 57.9383 28.2432 57.9383C26.6411 57.9497 25.039 57.9383 23.4369 57.9383H21.5944H19.6604C18.1613 57.9383 16.6622 57.9383 15.1516 57.9383C14.7511 57.9383 14.5222 57.8925 14.4306 57.7895C14.3276 57.6865 14.3047 57.4462 14.3276 57.0228C14.4878 54.0932 16.9025 51.2437 19.9236 50.3969C22.7617 49.6073 25.8973 50.9004 27.7283 53.6126Z" fill="#0F0F0F"/>
<path d="M35.6244 42.6153C36.4369 42.6153 37.2494 42.6153 38.0619 42.6153C38.6685 42.6153 39.275 42.6153 39.8815 42.6153H41.7011H43.5435C44.974 42.6153 46.4159 42.6153 47.8463 42.6153C49.0365 42.6153 49.8261 41.9401 49.8376 40.9216C49.849 40.4524 49.6888 40.0404 49.3798 39.7314C49.0251 39.3767 48.4986 39.1821 47.8807 39.1821C43.7838 39.1821 39.6755 39.1821 35.5786 39.1821C34.9492 39.1821 34.4343 39.3652 34.091 39.7085C33.7934 40.0175 33.6332 40.4295 33.6332 40.9216C33.6675 41.9744 34.3999 42.6153 35.6244 42.6153Z" fill="#0F0F0F"/>
<path d="M34.1024 49.8132C34.4457 50.1565 34.9492 50.351 35.5672 50.351C36.5628 50.351 37.5469 50.351 38.5425 50.351H39.7785H41.003C41.4149 50.351 41.8269 50.351 42.2274 50.351C42.8111 50.351 43.3947 50.351 43.9898 50.351C45.1341 50.3396 45.8666 49.6644 45.8666 48.623C45.8666 47.5816 45.1227 46.9065 43.9783 46.9065C41.1746 46.895 38.3594 46.9065 35.5557 46.9065C34.3885 46.9065 33.6561 47.5473 33.6446 48.5887C33.6446 49.0808 33.8048 49.5042 34.1024 49.8132Z" fill="#0F0F0F"/>
<path d="M4.9895 48.3257C5.42437 48.3257 5.85923 48.1426 6.1911 47.8222C6.52297 47.4903 6.71751 47.0326 6.71751 46.5863C6.71751 45.6593 5.95078 44.904 5.02384 44.8926C5.01239 44.8926 5.00095 44.8926 4.9895 44.8926C4.05112 44.8926 3.31872 45.5906 3.28439 46.529C3.27294 46.9982 3.43315 47.4445 3.76502 47.7878C4.08545 48.1197 4.50887 48.3143 4.96662 48.3257C4.97806 48.3257 4.9895 48.3257 4.9895 48.3257Z" fill="#0F0F0F"/>
<path d="M61.6704 56.7825C61.4644 56.977 61.2584 57.183 61.0639 57.389C60.9037 57.5607 60.732 57.7323 60.5604 57.904C59.828 58.6021 59.0841 59.3001 58.3288 60.0096L57.5964 60.6963L57.4248 60.5246C57.1272 60.2385 56.8068 59.941 56.4749 59.6549C55.7197 59.0255 54.7469 59.0598 54.0832 59.7235C53.3966 60.4331 53.4195 61.4516 54.1404 62.1725C54.9186 62.9392 55.7425 63.7174 56.6123 64.4841C56.9899 64.816 57.3904 64.9762 57.791 64.9762C58.2144 64.9762 58.6264 64.7931 58.9926 64.4269C60.7778 62.6417 62.5058 60.8565 64.1423 59.1399C64.806 58.4418 64.7717 57.4234 64.0736 56.7482C63.387 56.1188 62.3914 56.1302 61.6704 56.7825Z" fill="#0F0F0F"/>
</svg>
