<svg width="95" height="78" viewBox="0 0 95 78" fill="none" xmlns="http://www.w3.org/2000/svg">
<path d="M14.2753 2.51514H4.75483L0 10.7576L4.75483 19H14.2753L19.041 10.7576L14.2753 2.51514Z" fill="#FF1241"/>
<path d="M9.01738 65.8222C9.72244 64.8574 9.72244 64.8574 11.8747 64.5606C11.8747 64.2389 11.8747 63.9173 11.8747 63.5834C11.8747 49.3089 11.8747 35.0345 11.8747 20.7477C11.8747 17.8409 13.0375 15.5649 15.7093 14.3032C16.6865 13.8456 17.8616 13.6476 18.9501 13.6105C21.9188 13.5239 24.8875 13.5734 27.8561 13.5734C28.153 13.5734 28.4622 13.5734 28.8457 13.5734C28.8457 13.091 28.8457 12.6705 28.8457 12.2623C28.8457 8.9596 28.8457 5.65694 28.8457 2.35428C28.8457 1.99556 28.8704 1.62448 28.9694 1.27813C29.1921 0.5607 29.7487 0.177245 30.4785 0.164876C31.2454 0.152506 31.8391 0.548331 32.0618 1.30287C32.1855 1.6987 32.1855 2.13163 32.1855 2.53982C32.1978 12.1138 32.1855 21.6878 32.1855 31.2618C32.1855 31.5958 32.1855 31.9298 32.1855 32.3875C32.5195 32.3875 32.8163 32.3875 33.1132 32.3875C48.2535 32.3875 63.4061 32.3875 78.5464 32.3998C79.1278 32.3998 79.536 32.239 79.9442 31.8308C83.2097 28.5282 86.5124 25.2502 89.7903 21.96C92.2766 19.4613 92.2889 16.4555 89.815 13.9693C86.5247 10.6542 83.2097 7.35156 79.9194 4.02416C79.536 3.62834 79.1401 3.4799 78.5959 3.4799C67.4262 3.49227 56.2565 3.49227 45.0869 3.49227C44.7034 3.49227 44.2952 3.49227 43.9241 3.39332C43.1572 3.23251 42.6748 2.56456 42.6748 1.82239C42.6872 1.08022 43.182 0.424635 43.9365 0.239093C44.2334 0.164876 44.5426 0.152506 44.8518 0.152506C56.4173 0.152506 67.9705 0.152506 79.536 0.140137C80.3771 0.140137 81.0327 0.412266 81.6264 1.006C85.1765 4.58079 88.7513 8.14321 92.2889 11.718C95.8019 15.268 95.9008 20.2282 92.5858 23.9391C92.3508 24.1988 92.1652 24.607 92.1652 24.9534C92.1529 37.9785 92.1529 50.9912 92.1529 64.0039C92.1529 64.1895 92.1652 64.3874 92.1776 64.5482C92.2889 64.5977 92.326 64.6224 92.3755 64.6348C94.7505 64.7956 95.0102 65.0801 94.9979 67.4798C94.9731 72.9966 90.9035 77.0661 85.3867 77.0785C63.134 77.0909 40.8812 77.0909 18.6285 77.0785C13.7673 77.0785 10.1183 74.048 9.15344 69.2362C9.12871 69.1002 9.05449 68.9765 9.01738 68.8528C9.01738 67.8385 9.01738 66.8365 9.01738 65.8222ZM82.5789 64.6224C82.5789 64.2018 82.5789 63.8679 82.5789 63.5339C82.5789 55.8648 82.5789 48.1957 82.5789 40.5266C82.5789 39.1536 83.185 38.3496 84.2364 38.3248C85.3002 38.3001 85.931 39.1288 85.9434 40.5513C85.9434 40.7245 85.9434 40.8853 85.9434 41.0585C85.9434 48.5915 85.9434 56.1245 85.9434 63.6452C85.9434 63.9668 85.9434 64.2884 85.9434 64.61C86.9453 64.61 87.8359 64.61 88.7389 64.61C88.7389 52.3642 88.7389 40.1555 88.7389 27.8231C88.4296 28.1076 88.207 28.3179 87.9967 28.5282C85.8815 30.6434 83.754 32.7585 81.6512 34.8861C81.045 35.5046 80.3647 35.7767 79.4865 35.7767C63.3566 35.7643 47.2392 35.7643 31.1093 35.7643C29.3652 35.7643 28.821 35.2077 28.821 33.4265C28.821 28.2437 28.821 23.0732 28.821 17.8904C28.821 17.5935 28.821 17.2966 28.821 16.9503C25.5554 16.9503 22.3888 16.9503 19.2346 16.9503C16.5009 16.9503 15.2145 18.2244 15.2145 20.9333C15.2145 35.183 15.2145 49.4326 15.2145 63.6823C15.2145 63.9792 15.2145 64.2761 15.2145 64.5977C16.2164 64.5977 17.1194 64.5977 18.0719 64.5977C18.0719 64.2142 18.0719 63.8802 18.0719 63.5462C18.0719 49.8285 18.0719 36.1107 18.0719 22.3929C18.0719 20.4632 18.5666 19.9808 20.521 19.9685C21.4116 19.9685 22.3146 19.9685 23.2052 19.9685C25.741 19.9685 26.5202 20.3767 26.5079 21.6755C26.4955 22.9371 25.7162 23.333 23.2423 23.333C22.661 23.333 22.0796 23.333 21.4735 23.333C21.4735 37.1373 21.4735 50.8675 21.4735 64.6224C41.8584 64.6224 62.1692 64.6224 82.5789 64.6224ZM12.3571 68.0488C12.4685 68.5559 12.518 69.0259 12.6664 69.4589C13.5446 72.2049 15.7464 73.714 18.8883 73.714C40.9678 73.714 63.0474 73.714 85.127 73.714C85.4857 73.714 85.8568 73.714 86.2155 73.6645C89.2213 73.3305 91.386 71.0793 91.5962 68.0364C65.2121 68.0488 38.8279 68.0488 12.3571 68.0488Z" fill="black"/>
<path d="M58.3717 17.9769C58.3593 13.3878 62.1568 9.56562 66.7211 9.55325C71.2731 9.54088 75.1324 13.3631 75.1571 17.9274C75.1819 22.467 71.3226 26.3387 66.783 26.351C62.1939 26.3634 58.3841 22.566 58.3717 17.9769ZM61.7362 17.915C61.7115 20.6858 63.9256 22.9494 66.684 22.9865C69.4301 23.0236 71.7926 20.7106 71.7803 17.9522C71.7803 15.2309 69.4919 12.9301 66.7583 12.9178C64.0122 12.9054 61.7486 15.1566 61.7362 17.915Z" fill="black"/>
<path d="M42.1429 9.56571C44.9384 9.63992 47.165 11.6562 47.3505 14.2785C47.4247 15.3423 46.8928 16.0844 45.9527 16.2452C45.0621 16.3937 44.32 15.7999 44.0849 14.7485C43.7386 13.2642 42.5511 12.5715 41.2152 13.091C40.5473 13.3508 40.0649 13.7961 40.0525 14.5754C40.0401 15.3917 40.5473 15.8742 41.2523 16.1092C41.6729 16.2452 42.1306 16.27 42.5759 16.3195C45.6682 16.6782 47.6597 19.0655 47.3258 22.0094C47.066 24.2978 44.9508 26.1532 42.3656 26.3388C39.4464 26.549 36.824 24.372 36.688 21.6012C36.6385 20.5375 37.1828 19.8077 38.1352 19.6716C39.0011 19.5603 39.7185 20.1416 39.9535 21.1312C40.3122 22.6403 41.4502 23.333 42.7985 22.8382C43.5036 22.5784 44.0107 22.1084 43.9984 21.3044C43.986 20.5004 43.4788 20.0179 42.7614 19.7953C42.3408 19.6592 41.8832 19.6469 41.4379 19.5974C38.4197 19.2263 36.453 16.9008 36.7127 14.0435C36.9477 11.5077 39.4093 9.49149 42.1429 9.56571Z" fill="black"/>
<path d="M52.4344 19.6344C52.4344 20.8095 52.4344 21.8609 52.4344 22.9989C54.0671 22.9989 55.6504 22.9989 57.2461 22.9989C58.0006 22.9989 58.6315 23.234 58.9902 23.939C59.5345 24.9904 58.8541 26.2769 57.6172 26.3263C55.2917 26.4006 52.9663 26.3882 50.6532 26.3387C49.5894 26.314 49.0575 25.5471 49.0451 24.273C49.0328 22.3434 49.0451 20.4137 49.0451 18.4841C49.0451 16.2699 49.0451 14.0682 49.0451 11.854C49.0451 10.1718 49.6512 9.57802 51.3211 9.57802C53.3373 9.57802 55.3536 9.55329 57.3698 9.59039C58.7428 9.61513 59.5592 10.7779 59.0521 11.9159C58.7181 12.6704 58.0625 12.9425 57.2708 12.9425C55.6875 12.9425 54.0919 12.9425 52.4591 12.9425C52.4591 14.0682 52.4591 15.1196 52.4591 16.307C53.4858 16.307 54.5124 16.307 55.5267 16.307C56.2813 16.307 56.8998 16.5792 57.2461 17.2966C57.7904 18.4099 56.974 19.6097 55.6257 19.6592C54.5743 19.6592 53.5476 19.6344 52.4344 19.6344Z" fill="black"/>
<path d="M77.3218 17.9522C77.3218 15.1938 79.5607 12.9301 82.3191 12.9178C85.0899 12.9054 87.3906 15.2309 87.3535 17.9893C87.3164 20.7477 85.0528 22.9989 82.3068 22.9742C79.5607 22.9742 77.3218 20.7106 77.3218 17.9522ZM82.3686 16.2823C81.478 16.2575 80.7111 16.9997 80.6987 17.9151C80.6863 18.8304 81.4038 19.5973 82.3068 19.622C83.1974 19.6468 83.9643 18.8922 83.989 17.9893C84.0014 17.0739 83.2716 16.307 82.3686 16.2823Z" fill="black"/>
<path d="M39.0135 1.82243C39.0135 2.70067 38.2465 3.49232 37.3559 3.49232C36.4653 3.49232 35.7108 2.73778 35.6984 1.8348C35.6984 0.931827 36.453 0.164917 37.3436 0.164917C38.2218 0.164917 39.0011 0.944196 39.0135 1.82243Z" fill="black"/>
<path d="M52.0138 47.0082C44.6787 47.0082 37.3559 47.0082 30.0208 47.0082C28.4993 47.0082 27.683 46.4268 27.6706 45.3507C27.6582 44.2622 28.487 43.656 29.9961 43.656C44.6292 43.656 59.2623 43.656 73.8955 43.656C74.1428 43.656 74.4026 43.6437 74.65 43.6684C75.6024 43.7797 76.2209 44.4353 76.2333 45.3136C76.2457 46.2042 75.6272 46.8721 74.6871 46.9958C74.415 47.0329 74.1305 47.0206 73.846 47.0206C66.5727 47.0082 59.2871 47.0082 52.0138 47.0082Z" fill="black"/>
<path d="M66.548 52.055C69.059 52.055 71.5824 52.055 74.0934 52.055C74.4521 52.055 74.8355 52.0797 75.1571 52.191C75.8622 52.4384 76.2209 52.9827 76.2209 53.7249C76.2209 54.4794 75.8498 54.9989 75.1448 55.2587C74.9098 55.3453 74.65 55.3947 74.4026 55.3947C69.1456 55.4071 63.8885 55.4071 58.6315 55.3947C57.2832 55.3947 56.4668 54.3433 56.875 53.1806C57.1719 52.3147 57.8769 52.0426 58.7304 52.0426C61.3528 52.055 63.9504 52.055 66.548 52.055Z" fill="black"/>
<path d="M37.2199 55.4071C34.6718 55.4071 32.136 55.4194 29.5879 55.4071C28.1901 55.3947 27.349 54.3186 27.7943 53.1558C28.0788 52.4136 28.6602 52.0673 29.4271 52.0549C34.6594 52.0426 39.8793 52.0426 45.1116 52.0549C46.163 52.0549 46.8681 52.7476 46.8928 53.6877C46.9176 54.6402 46.1878 55.3823 45.1116 55.3947C42.4769 55.4318 39.8546 55.4071 37.2199 55.4071Z" fill="black"/>
<path d="M52.0509 52.0672C52.9292 52.092 53.7084 52.896 53.6837 53.7742C53.659 54.6525 52.8549 55.4317 51.9767 55.407C51.0985 55.3823 50.3192 54.5782 50.3439 53.7C50.3687 52.8094 51.1851 52.0425 52.0509 52.0672Z" fill="black"/>
<path d="M52.0014 72.5389C49.7007 72.5389 47.4124 72.5513 45.1116 72.5265C44.7529 72.5265 44.3818 72.4894 44.0478 72.3781C43.3675 72.1431 43.0212 71.5865 43.0088 70.8938C42.9964 70.1763 43.3428 69.595 44.0602 69.3352C44.3447 69.2362 44.6663 69.1868 44.9632 69.1868C49.6636 69.1744 54.364 69.1744 59.0644 69.1868C60.2395 69.1868 60.9941 69.8424 61.0188 70.8195C61.0436 71.8215 60.2643 72.5265 59.0521 72.5389C56.7019 72.5513 54.3516 72.5389 52.0014 72.5389Z" fill="black"/>
</svg>
