<svg width="58" height="49" viewBox="0 0 58 49" fill="none" xmlns="http://www.w3.org/2000/svg">
<g id="songfly-active-icon">
<g id="Frame" clip-path="url(#clip0_90_122)">
<g id="Group">
<path id="Vector" d="M56.7199 0.728535L28.8134 11.583C27.8167 11.9965 26.222 12.6168 26.0227 13.7539L22.3351 29.3636C22.2354 29.3636 22.2354 29.2603 22.1357 29.2603C20.7404 28.64 18.9464 28.3299 17.1524 28.4332C16.6541 28.4332 16.1558 28.5366 15.6574 28.64C15.3584 28.7434 15.0594 28.7434 14.7604 28.8468C10.2755 30.0873 7.28547 33.7054 7.88347 37.2202C8.0828 38.4607 8.78047 39.4945 9.67746 40.4248C11.6708 42.4924 15.2588 42.8025 18.7471 40.8383C21.8367 39.1843 24.0294 36.4966 24.6274 34.0155C24.6274 34.0155 28.5144 19.7497 29.0127 17.5788C29.212 16.545 29.9097 15.718 30.8067 15.3045L52.5339 4.45006C52.8329 4.34669 53.1319 4.76019 52.7332 4.96694L31.5044 16.8552C30.109 17.6822 29.7104 18.4058 29.3117 19.9564C29.1124 20.7834 29.511 21.6104 30.2087 21.9206L30.9064 22.3341C34.3947 23.9881 37.0857 23.8847 39.4776 22.2307C39.677 22.1273 39.677 21.8172 39.378 21.7138L31.006 18.9227C30.8067 18.8193 30.707 18.5092 31.006 18.4058L31.2054 18.3024C31.4047 18.199 31.5044 18.199 31.7037 18.3024L38.3813 20.4733C39.079 20.6801 39.8763 20.7834 40.6736 20.7834C45.6569 20.2666 49.2449 17.4754 51.2383 13.8573C51.3379 13.6505 51.2382 13.4438 51.0389 13.5471L36.986 15.2011C36.8863 15.2011 36.7867 14.9944 36.8863 14.9944L37.6837 14.5809C38.0823 14.3741 38.5806 14.1674 39.079 14.064C45.7566 12.9269 55.6236 11.1695 57.0189 2.79605C57.1186 1.86567 56.9192 0.625159 56.7199 0.728535Z" fill="white"/>
<g id="Group_2">
<path id="Vector_2" opacity="0.25" d="M28.1175 27.6063L26.9215 32.0514L28.3169 34.5324L22.2372 45.4903H18.4499H9.97828L3.89865 34.5324L9.97828 23.5746H13.7656H21.7389L22.6359 20.2666H8.18429L7.28729 21.7138L3.99831 27.7096L0.210999 34.5324L8.18429 48.7983H24.0312L24.8285 47.2477L28.2172 41.2519L32.0045 34.5324L28.1175 27.6063Z" fill="white"/>
</g>
</g>
</g>
</g>
<defs>
<clipPath id="clip0_90_122">
<rect width="56.8097" height="48.0697" fill="white" transform="translate(0.210999 0.728516)"/>
</clipPath>
</defs>
</svg>
