<svg width="186" height="40" viewBox="0 0 186 40" fill="none" xmlns="http://www.w3.org/2000/svg">
<path d="M60.9948 17.9642L60.1537 19.7112C58.9983 18.981 57.5102 18.5003 56.1329 18.5003C54.4784 18.5003 53.2121 19.0919 53.2121 20.4691C53.2121 23.7596 61.4847 22.0682 61.4847 27.383C61.4847 30.3038 58.8966 31.5978 56.059 31.5978C53.9516 31.5978 51.7887 30.8676 50.3745 29.5181L51.2156 27.8636C52.4819 29.0467 54.3952 29.7492 56.1329 29.7492C57.8707 29.7492 59.2848 29.1022 59.3126 27.6418C59.3958 24.0739 51.1047 25.8948 51.1324 20.6355C51.1324 17.7978 53.5818 16.6147 56.2808 16.6147C58.0463 16.6147 59.7655 17.1231 60.9948 17.9642Z" fill="white"/>
<path d="M78.6034 24.1017C78.6034 28.5476 75.4792 31.6071 71.098 31.6071C66.7075 31.6071 63.5925 28.5384 63.5925 24.1017C63.5925 19.6835 66.7167 16.6517 71.098 16.6517C75.4792 16.6425 78.6034 19.6835 78.6034 24.1017ZM65.7739 24.1294C65.7739 27.3922 67.9923 29.6383 71.0887 29.6383C74.1852 29.6383 76.4035 27.3922 76.4035 24.1294C76.4035 20.8943 74.1852 18.6482 71.0887 18.6482C67.9923 18.6482 65.7739 20.8943 65.7739 24.1294Z" fill="white"/>
<path d="M96.0083 22.3824V31.5239H93.8177V22.974C93.8177 20.3582 92.2464 18.8146 89.6306 18.8146C86.7005 18.8423 84.9073 20.7556 84.6485 23.5655V31.5239H82.4487V16.6979H84.6393V19.9607C85.6837 17.7146 87.6803 16.6424 90.3793 16.6147C93.9286 16.6147 96.0083 18.8146 96.0083 22.3824Z" fill="white"/>
<path d="M113.801 29.9804C113.801 34.3155 110.844 37.0422 106.352 37.0422C104.013 37.0144 102.081 36.2565 100.279 34.907L101.296 33.2155C102.756 34.4264 104.309 35.0734 106.278 35.1011C109.513 35.1011 111.62 33.1323 111.62 30.0359V27.7898C110.585 29.7586 108.672 30.8863 106.167 30.8863C102.174 30.8863 99.4192 27.9377 99.4192 23.7136C99.4192 19.5819 102.146 16.6518 106.111 16.6241C108.644 16.6241 110.557 17.7518 111.62 19.7206V16.7073H113.811V29.9804H113.801ZM111.611 23.7875C111.611 20.6911 109.503 18.5282 106.546 18.5282C103.569 18.5282 101.48 20.7188 101.453 23.7875C101.48 26.8285 103.56 29.0191 106.546 29.0191C109.503 29.0191 111.611 26.8285 111.611 23.7875Z" fill="white"/>
<path d="M127.554 30.6826C126.427 31.3296 125.022 31.7271 123.617 31.7271C120.918 31.7271 118.866 30.1835 118.866 27.0593V20.053H116.758V17.0767H118.866V12.9173H123.173V17.0767H127.277V20.0807H123.173V26.3291C123.173 27.5954 123.709 28.1038 124.633 28.076C125.197 28.076 125.872 27.8819 126.658 27.5122L127.554 30.6826Z" fill="white"/>
<path d="M144.986 23.9538C144.986 28.5661 141.724 31.6903 136.889 31.6903C132.028 31.6903 128.765 28.5661 128.765 23.9538C128.765 19.3137 132.028 16.245 136.889 16.245C141.724 16.2543 144.986 19.3137 144.986 23.9538ZM133.118 24.0092C133.118 26.4864 134.634 28.1687 136.889 28.1687C139.108 28.1687 140.661 26.4772 140.661 24.0092C140.661 21.5321 139.117 19.8498 136.889 19.8498C134.634 19.8498 133.118 21.5413 133.118 24.0092Z" fill="white"/>
<path d="M162.781 23.9538C162.781 28.5661 159.518 31.6903 154.684 31.6903C149.822 31.6903 146.559 28.5661 146.559 23.9538C146.559 19.3137 149.822 16.245 154.684 16.245C159.518 16.2543 162.781 19.3137 162.781 23.9538ZM150.913 24.0092C150.913 26.4864 152.429 28.1687 154.684 28.1687C156.902 28.1687 158.455 26.4772 158.455 24.0092C158.455 21.5321 156.912 19.8498 154.684 19.8498C152.429 19.8498 150.913 21.5413 150.913 24.0092Z" fill="white"/>
<path d="M165.784 31.5239V10.6529H170.119V31.5239H165.784Z" fill="white"/>
<path d="M185.472 17.8811L183.984 20.8389C182.32 19.9146 180.638 19.3785 179.371 19.3785C178.355 19.3785 177.624 19.7205 177.624 20.5062C177.624 22.78 185.61 21.6339 185.583 26.9764C185.583 30.0728 182.856 31.6996 179.427 31.6996C176.977 31.6996 174.593 30.9694 172.873 29.5922L174.278 26.6714C175.85 27.8822 177.874 28.5569 179.538 28.5569C180.638 28.5569 181.451 28.1965 181.451 27.3738C181.451 24.9521 173.604 26.2462 173.604 20.9314C173.604 17.8072 176.275 16.2081 179.565 16.2081C181.645 16.1989 183.78 16.8182 185.472 17.8811Z" fill="white"/>
<path d="M34.9383 13.7034C34.7257 12.585 34.1249 11.9749 33.0342 11.7716C30.1134 11.2355 28.4866 8.44405 29.4571 5.63414C29.8083 4.60816 29.5588 3.7393 28.7177 3.04607C28.4219 2.7965 28.1076 2.57467 27.7933 2.34359C27.3589 4.15524 26.8968 6.07781 26.7489 6.61391C26.4254 7.77855 26.1018 8.93394 25.7968 10.0154C24.854 13.3799 24.1053 16.0327 24.1053 16.0327C24.1053 16.0419 24.0961 16.0511 24.0961 16.0604C23.6339 18.0661 21.7483 20.229 19.2065 21.5231C16.3411 23.0667 13.3094 22.8448 11.6826 21.1533C11.6733 21.1441 11.6733 21.1441 11.6641 21.1349C10.8877 20.4509 10.3516 19.6005 10.1667 18.6115C10.0558 18.0014 10.0835 17.3914 10.2407 16.7998C10.4625 15.9125 10.9616 15.0621 11.6733 14.3227C12.6993 13.2505 14.1597 12.3816 15.8882 11.9195C16.1378 11.8548 16.3873 11.7993 16.6461 11.7438C16.8125 11.7161 16.9696 11.6884 17.1268 11.6699C17.3763 11.6329 17.6167 11.6144 17.857 11.596C19.3821 11.4943 20.8148 11.7254 22.0164 12.243C22.0718 12.2707 22.1273 12.2984 22.1735 12.3262L22.7836 10.0154L23.6709 6.61391L25.0019 0.698317C24.6045 0.513454 24.1885 0.337835 23.7726 0.171459C22.7928 -0.198266 21.887 0.0328119 21.203 0.836963C19.1972 3.16623 16.0084 3.16623 14.0026 0.836963C13.3094 0.0328119 12.4128 -0.198266 11.4238 0.180702C9.79698 0.799991 8.28111 1.63187 6.90388 2.70407C5.93336 3.45277 5.67455 4.33086 6.09049 5.47701C7.10723 8.31465 5.31407 11.2355 2.3193 11.6144C1.21012 11.7531 0.498402 12.4463 0.295053 13.5185C-0.0561856 15.4503 -0.102401 17.3729 0.202622 19.314C0.368998 20.3584 1.0345 21.0702 2.07898 21.218C2.80918 21.329 3.50242 21.5231 4.14019 21.9205C6.04427 23.1221 6.78372 25.4976 5.90563 27.605C5.43423 28.7235 5.66531 29.62 6.59886 30.3687C7.69879 31.2561 8.87267 32.014 10.1575 32.6056C10.8507 32.9291 11.5347 33.2988 12.2094 33.3358C13.0228 33.3265 13.5774 33.0492 14.0118 32.5131C14.169 32.3283 14.3076 32.1249 14.474 31.9401C16.3873 29.8419 19.6501 29.9805 21.471 32.2358C22.2382 33.1786 23.1533 33.4097 24.2717 32.9383C25.8523 32.2728 27.3127 31.3947 28.6437 30.304C29.5126 29.5923 29.7529 28.705 29.3554 27.6513C28.2832 24.8044 30.0117 21.8743 33.0249 21.4214C33.9862 21.2735 34.7164 20.5988 34.9013 19.6652C35.2803 17.6872 35.3172 15.6907 34.9383 13.7034Z" fill="#FF1241"/>
<path opacity="0.25" d="M37.8243 14.3688L37.242 21.1995L38.3604 23.1313L30.8827 36.0902H26.2704H15.9181L15.04 34.5743C13.0989 35.0642 11.4999 34.7314 10.5294 34.5835L13.6535 40H33.138L34.1548 38.2438L38.2772 31.1081L42.8803 23.1313L37.8243 14.3688Z" fill="#FF1241"/>
</svg>
