<svg width="42" height="35" viewBox="0 0 42 35" fill="none" xmlns="http://www.w3.org/2000/svg">
<g clip-path="url(#clip0_90_146)">
<path d="M30.5766 2.05083C30.5766 1.43797 30.0736 0.927246 29.4699 0.927246L23.1315 1.13153C22.4272 1.13153 21.8236 1.54011 21.5217 2.15297L20.3144 4.70657L5.22291 5.013C4.41803 5.013 3.61314 5.62586 3.41192 6.44301L25.7474 6.13658C26.351 6.13658 26.8541 6.54515 26.9547 7.26016L29.4699 26.8718C30.3754 25.646 30.8785 24.216 30.8785 22.786L30.5766 2.05083Z" fill="#848484"/>
<path d="M24.3402 8.38373H21.9256C20.7182 13.0823 19.2091 19.3131 19.2091 19.3131C18.9073 20.9474 17.4987 22.6839 15.4865 23.8074C13.2731 25.1353 10.8585 25.0332 9.55052 23.7053C8.94686 23.1946 8.44381 22.4796 8.3432 21.7646C7.84015 19.5174 9.75175 17.1681 12.6694 16.2488C12.8707 16.1467 13.0719 16.1467 13.2731 16.0445C13.5749 15.9424 13.8768 15.9424 14.1786 15.9424C15.3859 15.8402 16.4926 15.9424 17.4987 16.3509C17.4987 16.3509 17.5993 16.3509 17.5993 16.4531L19.4103 8.48587L0.797448 8.69016C0.395008 8.69016 -0.0074324 9.09873 0.0931777 9.50731L2.50782 25.5439C2.60843 26.4632 3.41331 27.076 4.21819 27.076L27.0567 27.1782C27.2579 27.1782 27.3585 26.9739 27.3585 26.8718L25.3463 9.30302C25.2457 8.7923 24.8433 8.38373 24.3402 8.38373Z" fill="#848484"/>
<path opacity="0.5" d="M33.0925 6.34082V12.9802L36.0102 17.9852L37.3181 20.3345L31.1809 31.1618H27.3577H19.3089H18.9065L17.5985 29.0167H13.876L16.9949 34.4304H18.504H33.0925L33.8974 33.0003L37.3181 26.9739L41.0407 20.3345L33.0925 6.34082Z" fill="#848484"/>
</g>
<defs>
<clipPath id="clip0_90_146">
<rect width="40.9483" height="33.5032" fill="white" transform="translate(0.0917664 0.927246)"/>
</clipPath>
</defs>
</svg>
