<svg width="89" height="80" viewBox="0 0 89 80" fill="none" xmlns="http://www.w3.org/2000/svg">
<path d="M14.811 4.73804H4.93326L0 13.2898L4.93326 21.8415H14.811L19.7555 13.2898L14.811 4.73804Z" fill="#FF1241"/>
<path d="M88.6523 3.70931L58.0751 15.1716C56.985 15.5761 55.2657 16.2953 55.0185 17.4191L50.928 33.9382C50.8606 33.9045 50.7932 33.8595 50.7145 33.8258C49.1412 33.1515 47.2533 32.8369 45.2531 32.9717C44.7249 33.0055 44.1967 33.0729 43.6573 33.174C43.3202 33.2414 42.9831 33.3089 42.6572 33.3988C37.7577 34.7023 34.4426 38.4781 35.1393 42.1977C35.3866 43.5013 36.0945 44.6363 37.1284 45.5353C39.2635 47.7715 43.2528 48.0525 47.0174 46.0185C50.3661 44.3216 52.8496 41.4785 53.4564 38.8377C53.4564 38.8265 53.4677 38.8152 53.4677 38.804C53.4677 38.804 57.7379 23.7795 58.2549 21.487C58.4908 20.4195 59.2325 19.5317 60.2439 19.0934L84.1011 7.66491C84.4607 7.50758 84.7079 8.02451 84.3708 8.21555L61.0979 20.6892C59.5809 21.532 59.1314 22.2849 58.7156 23.9705C58.5133 24.8133 58.9291 25.6786 59.727 26.027L60.4574 26.454C64.2781 28.1509 67.2673 28.1396 69.8857 26.3753C70.0879 26.2405 70.0542 25.9258 69.8182 25.8472L60.6821 22.858C60.4349 22.7793 60.4012 22.431 60.6372 22.3074L60.8844 22.1725C61.053 22.0826 61.244 22.0714 61.4238 22.1276L68.7394 24.42C69.5373 24.6672 70.3913 24.7908 71.2229 24.7122C76.7293 24.2177 80.6399 21.1948 82.7863 17.4303C82.8874 17.2505 82.7301 17.0257 82.5278 17.0482L67.0538 19.0148C66.8965 19.0373 66.8403 18.835 66.9751 18.7563L67.7955 18.3405C68.2675 18.1045 68.7731 17.936 69.2901 17.8461C76.6169 16.61 87.3824 14.8232 88.9669 5.99052C89.0793 4.90049 88.8882 3.61941 88.6523 3.70931Z" fill="#0C0C0C"/>
<path d="M46.0404 0.303412L45.2426 0.0337125L43.5232 0L43.2648 0.0674249L43.2086 0.112375C40.5565 0.719199 39.2193 2.89927 39.1069 4.68603C38.9496 7.07962 40.0396 8.82143 42.3995 9.97889C42.4444 10.0238 42.4894 10.1475 42.5006 10.2149C42.5231 11.4061 42.5231 12.5972 42.5231 13.7772V16.3168H46.209V14.2491C46.209 12.9231 46.2202 11.6196 46.1978 10.316C46.1978 9.99013 46.2202 9.93394 46.5012 9.81033C48.4565 8.96752 49.6252 7.07962 49.5241 4.89955C49.4229 2.82061 48.0632 1.01137 46.0404 0.303412ZM45.8719 5.19172C45.8606 5.5738 45.6921 5.94463 45.3999 6.2031C45.074 6.49527 44.6582 6.64136 44.1862 6.63012C43.7817 6.60765 43.3884 6.41661 43.1074 6.10196C42.849 5.80978 42.7141 5.45018 42.7366 5.10182C42.7816 4.29272 43.467 3.6859 44.3099 3.6859C44.3323 3.6859 44.366 3.6859 44.3885 3.6859C45.2313 3.73085 45.8943 4.4051 45.8719 5.19172Z" fill="#141414"/>
<path d="M23.7338 26.6984L22.4752 25.8893C21.2503 25.1026 20.0367 24.316 18.8006 23.5519C18.5196 23.3721 18.4972 23.3159 18.5309 23.0574C18.8118 20.6863 17.5083 18.5062 15.272 17.6409C13.0807 16.7869 10.5635 17.4949 9.1588 19.3603C7.74287 21.2482 7.76535 23.7654 9.21498 25.6196C10.6759 27.4737 13.2268 28.1143 15.4293 27.1591C15.7889 27.0018 16.126 26.7995 16.4519 26.5972C16.4969 26.5635 16.5531 26.541 16.598 26.5073L22.4303 30.2269L24.3294 27.2602L23.8799 26.8444C23.8237 26.777 23.7788 26.7321 23.7338 26.6984ZM12.2266 21.4167C12.53 21.1246 12.9234 20.9672 13.3616 20.9672C13.3729 20.9672 13.3729 20.9672 13.3841 20.9672C14.2381 20.9785 14.9124 21.619 14.9236 22.4169C14.9236 22.799 14.7888 23.1698 14.5078 23.4395C14.2157 23.7429 13.8111 23.9115 13.3616 23.9115C12.9121 23.9115 12.5076 23.7429 12.2042 23.4395C11.9345 23.1698 11.7771 22.8102 11.7884 22.4281C11.7996 22.0573 11.9457 21.6977 12.2266 21.4167Z" fill="#141414"/>
<path d="M78.0105 53.3897C76.1114 52.03 73.8751 52.0749 71.6951 53.5021L66.3235 50.0746L65.8291 49.8049L63.8738 52.8503L65.7617 54.0639C66.9528 54.8393 68.1103 55.581 69.3015 56.3002C69.7173 56.5474 69.7847 56.6935 69.7397 57.1543C69.4588 59.5366 71.1444 61.8965 73.5717 62.537C74.0212 62.6606 74.4707 62.7168 74.9202 62.7168C76.9317 62.7168 78.8084 61.5818 79.6849 59.7052C80.7188 57.4801 80.022 54.8281 78.0105 53.3897ZM76.0552 58.5702C75.7518 58.8736 75.3135 58.9972 74.8977 59.0309C74.4595 59.0309 74.0549 58.8511 73.7628 58.5477C73.4931 58.2668 73.347 57.9072 73.3582 57.5251C73.3807 56.6935 74.0549 56.0867 74.9315 56.0867C74.9427 56.0867 74.9652 56.0867 74.9764 56.0867C75.8192 56.1092 76.4935 56.7722 76.4935 57.57C76.4935 57.9409 76.3361 58.3005 76.0552 58.5702Z" fill="#141414"/>
<path d="M16.362 53.1763C16.2047 53.0752 16.0586 52.974 15.9013 52.8729C13.946 51.7042 11.4625 51.9289 9.73193 53.4235C8.08002 54.8394 7.51814 57.2443 8.36095 59.2558C9.19253 61.2223 11.1029 62.436 13.2043 62.436C13.6426 62.436 14.0921 62.3798 14.5303 62.2787C17.0138 61.6718 18.6545 59.3007 18.3736 56.7498C18.3286 56.3116 18.396 56.1992 18.7107 56.0194C19.3287 55.6598 19.9356 55.2665 20.5312 54.8732L24.2171 52.502L22.2393 49.423L16.362 53.1763ZM11.6311 57.3117C11.6198 56.9409 11.7659 56.5813 12.0469 56.2891C12.339 55.9857 12.7548 55.8059 13.1818 55.8059H13.1931C13.6313 55.8059 14.0359 55.9632 14.3281 56.2666C14.609 56.5363 14.7551 56.9071 14.7551 57.2892C14.7551 57.6713 14.5978 58.0421 14.3281 58.3118C14.0246 58.6152 13.6538 58.795 13.1818 58.7726C12.3278 58.7501 11.6423 58.1096 11.6311 57.3117Z" fill="#141414"/>
<path d="M46.2655 70.2344C45.8048 70.0322 45.7374 69.9198 45.7486 69.4141C45.7823 68.1892 45.7823 66.9643 45.7711 65.7282V63.6718H42.0852V65.7732C42.0852 67.0542 42.0739 68.2904 42.0964 69.5377C42.1077 69.976 42.0515 70.0659 41.6919 70.2232C39.5118 71.2121 38.3206 73.6169 38.86 75.9656C39.3994 78.303 41.5458 79.9998 43.9843 79.9998C43.9956 79.9998 44.0068 79.9998 44.018 79.9998C46.4341 79.9886 48.5243 78.3367 49.0861 75.988C49.648 73.6506 48.4344 71.1784 46.2655 70.2344ZM42.4111 74.8193C42.4111 74.4485 42.5684 74.0889 42.8493 73.8192C43.1527 73.527 43.5573 73.3585 43.9843 73.3585C43.9956 73.3585 43.9956 73.3585 44.0068 73.3585C44.8496 73.3697 45.5351 74.0215 45.5463 74.8193C45.5463 75.1902 45.4002 75.5498 45.1305 75.8307C44.8271 76.1341 44.4113 76.3027 43.9843 76.3027C43.5461 76.3027 43.1303 76.1341 42.8381 75.8307C42.5572 75.561 42.4111 75.2014 42.4111 74.8193Z" fill="#141414"/>
<path d="M60.6603 27.1963L58.9859 33.1072C59.8737 35.1075 60.3906 37.3212 60.3906 39.6474C60.3906 48.525 53.1649 55.7507 44.2873 55.7507C35.4097 55.7507 28.184 48.525 28.184 39.6474C28.184 30.7698 35.4097 23.5441 44.2873 23.5441C46.2539 23.5441 48.1193 23.9149 49.8611 24.5554L51.0186 20.1953C48.9059 19.4649 46.6472 19.0378 44.2761 19.0378C32.915 19.0378 23.6777 28.2751 23.6777 39.6362C23.6777 50.9973 32.9262 60.2345 44.2873 60.2345C55.6484 60.2345 64.8856 50.9973 64.8856 39.6362C64.8856 34.9614 63.3011 30.6574 60.6603 27.1963Z" fill="#0C0C0C"/>
</svg>
