<svg width="41" height="37" viewBox="0 0 41 37" fill="none" xmlns="http://www.w3.org/2000/svg">
<g id="Group 2768">
<g id="vuesax/linear/home">
<g id="Frame" clip-path="url(#clip0_90_132)">
<path id="Vector" opacity="0.25" d="M36.9225 14.3025L36.3858 13.4224L34.9905 10.7819V17.8232L35.6345 19.1434L36.8151 21.2338L30.2678 32.8959H26.2965H18.1392H17.1732L15.7779 30.4754H11.8066L15.1339 36.4165H16.3146H17.1732H32.3072L33.1658 34.8762L36.8151 28.3851L40.7865 21.2338L36.9225 14.3025Z" fill="white"/>
<path id="Vector_2" d="M30.1605 6.05108C29.1945 4.84086 28.0139 3.85068 26.7259 2.97053C26.4039 3.9607 26.1892 5.0609 25.8672 6.05108C25.5452 7.26129 25.2232 8.47151 24.9012 9.5717C23.9352 13.0923 23.1839 15.8428 23.1839 15.8428C22.7545 17.9332 20.8226 20.1336 18.2466 21.4538C15.3486 22.9941 12.2359 22.7741 10.6259 21.1238C9.87461 20.4636 9.33795 19.5835 9.12329 18.4833C9.01595 17.8232 9.01595 17.2731 9.23062 16.613C9.44528 15.7328 9.98195 14.8526 10.6259 14.0825C11.6993 12.9823 13.0946 12.1022 14.9193 11.5521C15.1339 11.442 15.4559 11.442 15.6706 11.332C15.8852 11.332 15.9926 11.332 16.2072 11.222C16.4219 11.222 16.7439 11.112 16.9586 11.112C18.4612 11.002 19.9639 11.222 21.1446 11.7721C21.2519 11.7721 21.2519 11.8821 21.2519 11.8821L21.8959 9.46168L22.7545 5.94106L23.9352 1.32023C21.7886 0.550098 19.2126 0 16.6366 0C7.40596 0 0 6.38113 0 14.3025C0 17.7131 1.39533 20.7937 3.64931 23.2141L2.89798 29.0452C2.79065 29.8153 3.54198 30.3654 4.29331 30.1454L10.1966 27.5049C11.5919 28.055 13.0946 28.385 14.7046 28.4951C15.3486 28.6051 15.9926 28.6051 16.6366 28.6051C25.6525 28.6051 32.9512 22.444 33.2732 14.7426C33.2732 14.6326 33.2732 14.4126 33.2732 14.3025C33.1658 11.222 32.0925 8.36149 30.1605 6.05108Z" fill="#848484"/>
</g>
</g>
</g>
<defs>
<clipPath id="clip0_90_132">
<rect width="40.7865" height="36.4165" fill="white"/>
</clipPath>
</defs>
</svg>
