<svg width="257" height="58" viewBox="0 0 257 58" fill="none" xmlns="http://www.w3.org/2000/svg">
<path opacity="0.3" d="M59.3006 22.3714L58.5244 21.0432L56.1441 16.9036V27.9599L57.317 29.978L59.2316 33.3069L48.6755 51.5904H42.1728H29.1501H27.6667H27.5632L25.4072 47.8475H19.0252L24.3895 57.1099H26.2351H27.6667H51.8665L53.2981 54.6262L59.1109 44.5702L65.6136 33.3069L59.3006 22.3714Z" fill="#FF1241"/>
<path d="M48.4684 9.50395C46.9333 7.67561 45.0877 6.05424 43.0006 4.69161C42.5694 6.26123 42.1037 7.88259 41.6553 9.50395C41.1206 11.4013 40.6031 13.2641 40.1029 15.0235C38.5678 20.4913 37.3604 24.7862 37.3604 24.7862C37.3604 24.8034 37.3431 24.8207 37.3431 24.8379C36.5842 28.0979 33.5312 31.5994 29.3915 33.7037C24.7344 36.2047 19.8186 35.8597 17.1796 33.1C17.1623 33.1 17.1623 33.0827 17.1623 33.0827C15.9032 31.9788 15.0235 30.5989 14.7303 28.9948C14.5405 28.0117 14.6095 27.0112 14.851 26.0453C15.2132 24.6137 16.0239 23.2338 17.1796 22.0264C18.8354 20.2843 21.2157 18.8699 24.0272 18.1282C24.424 18.0247 24.8379 17.9212 25.2691 17.8523C25.5279 17.8005 25.7866 17.766 26.0453 17.7315C26.442 17.6798 26.8388 17.628 27.2355 17.6108C29.702 17.4383 32.0478 17.835 33.9797 18.6629C34.0659 18.7147 34.1521 18.7492 34.2384 18.8009L35.2215 15.0407L36.6704 9.5212L38.5505 2.3458C34.9628 0.845179 30.9439 0 26.6835 0C11.9532 0 0 10.0559 0 22.4404C0 27.7184 2.17332 32.5653 5.79551 36.3945L4.63986 45.5017C4.48462 46.7091 5.69202 47.6233 6.79593 47.1575L16.3344 43.1731L16.3689 43.1559C18.6457 43.9666 21.0777 44.5013 23.6305 44.7428C24.6309 44.8462 25.6658 44.898 26.7008 44.898C41.1723 44.898 52.9531 35.2043 53.367 23.1131C53.367 22.8888 53.3843 22.6819 53.3843 22.4576C53.367 17.628 51.5387 13.1606 48.4684 9.50395Z" fill="#FF1241"/>
<path d="M91.1586 25.9074L89.9685 28.374C88.3471 27.339 86.2428 26.6663 84.2937 26.6663C81.9479 26.6663 80.1713 27.4943 80.1713 29.4434C80.1713 34.0832 91.8313 31.7029 91.8313 39.206C91.8313 43.3284 88.1746 45.1568 84.1729 45.1568C81.2062 45.1568 78.1532 44.1219 76.1696 42.2245L77.3598 39.8787C79.1536 41.5346 81.8444 42.535 84.3109 42.535C86.7775 42.535 88.7438 41.6208 88.7956 39.5683C88.9163 34.5317 77.2218 37.1017 77.2563 29.6848C77.2563 25.6832 80.706 24.0101 84.5179 24.0101C86.9845 23.9928 89.3993 24.7173 91.1586 25.9074Z" fill="white"/>
<path d="M115.979 34.5488C115.979 40.81 111.581 45.1394 105.389 45.1394C99.1964 45.1394 94.798 40.81 94.798 34.5488C94.798 28.3221 99.1964 24.0444 105.389 24.0444C111.581 24.0444 115.979 28.3221 115.979 34.5488ZM97.9028 34.5833C97.9028 39.1887 101.042 42.3624 105.406 42.3624C109.77 42.3624 112.909 39.1887 112.909 34.5833C112.909 30.0297 109.77 26.8559 105.406 26.8559C101.042 26.8559 97.9028 30.0297 97.9028 34.5833Z" fill="white"/>
<path d="M140.541 32.1342V45.0189H137.454V32.9622C137.454 29.271 135.229 27.0977 131.537 27.0977C127.415 27.1322 124.88 29.8402 124.517 33.7901V45.0189H121.43V24.1137H124.517V28.719C125.983 25.5453 128.795 24.0447 132.607 23.9929C137.609 23.9929 140.541 27.0977 140.541 32.1342Z" fill="white"/>
<path d="M165.655 42.8452C165.655 48.9512 161.498 52.7976 155.151 52.7976C151.856 52.7631 149.131 51.6937 146.578 49.7791L148.01 47.3988C150.08 49.1064 152.253 50.0206 155.03 50.0551C159.584 50.0551 162.568 47.2781 162.568 42.9142V39.7404C161.101 42.5175 158.411 44.1043 154.875 44.1043C149.234 44.1043 145.354 39.9474 145.354 33.9967C145.354 28.1667 149.2 24.0443 154.789 24.0098C158.359 24.0098 161.05 25.5966 162.568 28.3737V24.1305H165.655V42.8452ZM162.568 34.1174C162.568 29.7535 159.601 26.7005 155.427 26.7005C151.218 26.7005 148.286 29.788 148.251 34.1174C148.286 38.3951 151.218 41.4998 155.427 41.4998C159.584 41.4825 162.568 38.3951 162.568 34.1174Z" fill="white"/>
<path d="M194.926 34.4799C194.926 40.9481 190.993 45.2603 185.008 45.2603C182.041 45.2603 179.695 44.0701 178.143 41.9313V45.0188H172.037V15.5928H178.143V26.8216C179.644 24.6828 181.989 23.4926 184.887 23.4926C190.89 23.4754 194.926 27.891 194.926 34.4799ZM188.734 34.273C188.734 30.8577 186.595 28.4084 183.456 28.4084C180.316 28.4084 178.143 30.8232 178.143 34.273C178.143 37.7917 180.334 40.1892 183.456 40.1892C186.578 40.1892 188.734 37.7572 188.734 34.273Z" fill="white"/>
<path d="M199.135 45.0188V15.5928H205.241V45.0188H199.135Z" fill="white"/>
<path d="M232.424 34.3422C232.424 40.8449 227.819 45.2433 221.006 45.2433C214.141 45.2433 209.535 40.8449 209.535 34.3422C209.535 27.805 214.141 23.4756 221.006 23.4756C227.819 23.4756 232.424 27.805 232.424 34.3422ZM215.676 34.4284C215.676 37.9126 217.815 40.2929 220.988 40.2929C224.128 40.2929 226.301 37.9126 226.301 34.4284C226.301 30.9442 224.11 28.5639 220.988 28.5639C217.832 28.5639 215.676 30.9442 215.676 34.4284Z" fill="white"/>
<path d="M256.469 43.0352C256.469 49.1067 251.915 52.9532 245.085 52.9532C241.48 52.9532 238.254 51.7975 235.805 50.1416L238.065 45.864C240.014 47.2611 242.273 48.0028 244.688 48.0028C248.172 48.0028 250.397 46.14 250.397 43.2422V40.8274C248.966 42.811 246.792 43.9149 243.981 43.9149C238.461 43.9149 234.667 39.7925 234.667 33.6003C234.667 27.5633 238.392 23.4754 243.826 23.4754C246.723 23.4409 248.948 24.5793 250.414 26.5629V23.6651H256.486V43.0352H256.469ZM250.397 33.7555C250.397 30.461 248.379 28.2015 245.395 28.2015C242.411 28.2015 240.393 30.4955 240.359 33.7555C240.393 36.9982 242.377 39.275 245.395 39.275C248.362 39.275 250.397 37.0155 250.397 33.7555Z" fill="white"/>
</svg>
