<svg width="42" height="37" viewBox="0 0 42 37" fill="none" xmlns="http://www.w3.org/2000/svg">
<g clip-path="url(#clip0_90_132)">
<path opacity="0.25" d="M37.7665 14.5013L37.2298 13.6211L35.8345 10.9807V18.0219L36.4785 19.3421L37.6591 21.4325L31.1118 33.0946H27.1405H18.9832H18.0172L16.6219 30.6742H12.6506L15.9779 36.6152H17.1586H18.0172H33.1511L34.0098 35.0749L37.6591 28.5838L41.6304 21.4325L37.7665 14.5013Z" fill="white"/>
<path d="M31.0045 6.24981C30.0385 5.03959 28.8578 4.04942 27.5698 3.16926C27.2478 4.15943 27.0332 5.25963 26.7112 6.24981C26.3892 7.46002 26.0672 8.67024 25.7452 9.77043C24.7792 13.2911 24.0279 16.0415 24.0279 16.0415C23.5985 18.1319 21.6665 20.3323 19.0905 21.6525C16.1926 23.1928 13.0799 22.9728 11.4699 21.3225C10.7186 20.6624 10.1819 19.7822 9.96726 18.682C9.85993 18.0219 9.85993 17.4718 10.0746 16.8117C10.2893 15.9315 10.8259 15.0514 11.4699 14.2812C12.5433 13.181 13.9386 12.3009 15.7632 11.7508C15.9779 11.6408 16.2999 11.6408 16.5146 11.5307C16.7292 11.5307 16.8366 11.5307 17.0512 11.4207C17.2659 11.4207 17.5879 11.3107 17.8026 11.3107C19.3052 11.2007 20.8079 11.4207 21.9885 11.9708C22.0959 11.9708 22.0959 12.0808 22.0959 12.0808L22.7399 9.66041L23.5985 6.13979L24.7792 1.51897C22.6325 0.748828 20.0565 0.19873 17.4806 0.19873C8.24994 0.19873 0.843979 6.57987 0.843979 14.5013C0.843979 17.9119 2.23931 20.9924 4.49329 23.4129L3.74196 29.2439C3.63463 30.014 4.38596 30.5641 5.13729 30.3441L11.0406 27.7036C12.4359 28.2537 13.9386 28.5838 15.5486 28.6938C16.1926 28.8038 16.8366 28.8038 17.4806 28.8038C26.4965 28.8038 33.7951 22.6427 34.1171 14.9414C34.1171 14.8313 34.1171 14.6113 34.1171 14.5013C34.0098 11.4207 32.9365 8.56022 31.0045 6.24981Z" fill="white"/>
</g>
<defs>
<clipPath id="clip0_90_132">
<rect width="40.7865" height="36.4165" fill="white" transform="translate(0.843979 0.19873)"/>
</clipPath>
</defs>
</svg>
