<svg width="42" height="34" viewBox="0 0 42 34" fill="none" xmlns="http://www.w3.org/2000/svg">
<g clip-path="url(#clip0_90_138)">
<path d="M29.2452 0.19873H26.3966C24.6436 6.33284 22.1237 14.966 22.1237 14.966C21.6854 17.0107 19.6038 19.2826 16.9743 20.6457C13.9066 22.2361 10.7293 22.0089 9.0859 20.305C8.20941 19.6234 7.6616 18.7146 7.44248 17.6923C6.89467 14.7388 9.52414 11.7854 13.4683 10.763C13.6875 10.6494 14.0162 10.6494 14.2353 10.5358C14.7831 10.5358 15.2213 10.4222 15.6596 10.4222C17.303 10.3086 18.7273 10.5358 20.042 11.1038C20.1516 11.1038 20.1516 11.2174 20.2612 11.2174L23.1097 0.19873H2.40266C1.19748 0.19873 0.101868 1.22108 0.101868 2.47062V22.4633C0.101868 23.7128 1.19748 24.7352 2.40266 24.7352H29.2452C30.5599 24.7352 31.546 23.7128 31.546 22.4633V2.47062C31.6555 1.22108 30.5599 0.19873 29.2452 0.19873ZM15.55 3.03859C16.6456 3.03859 17.4126 3.83376 17.4126 4.85611C17.4126 5.87846 16.5361 6.67362 15.55 6.67362C14.4544 6.67362 13.6875 5.87846 13.6875 4.85611C13.6875 3.83376 14.564 3.03859 15.55 3.03859ZM10.1815 3.03859C11.2771 3.03859 12.0441 3.83376 12.0441 4.85611C12.0441 5.87846 11.1676 6.67362 10.1815 6.67362C9.0859 6.67362 8.31897 5.87846 8.31897 4.85611C8.20941 3.83376 9.0859 3.03859 10.1815 3.03859ZM4.70344 6.67362C3.60783 6.67362 2.8409 5.87846 2.8409 4.85611C2.8409 3.83376 3.71739 3.03859 4.70344 3.03859C5.79906 3.03859 6.56599 3.83376 6.56599 4.85611C6.56599 5.87846 5.79906 6.67362 4.70344 6.67362Z" fill="#848484"/>
<path opacity="0.25" d="M37.1339 9.96779L33.9566 4.17447V11.4445L37.5722 18.033L30.8889 30.074H26.7256H18.5085H17.5224L15.5503 26.6662H11.4966L15.4408 33.7091H17.5224H32.861L33.8471 32.1187L37.4626 25.5302L41.6259 18.033L37.1339 9.96779Z" fill="white"/>
</g>
<defs>
<clipPath id="clip0_90_138">
<rect width="41.5237" height="33.5104" fill="white" transform="translate(0.101868 0.19873)"/>
</clipPath>
</defs>
</svg>
