<svg width="259" height="50" viewBox="0 0 259 50" fill="none" xmlns="http://www.w3.org/2000/svg">
<path d="M44.3644 0H40.0013C37.3867 8.90952 33.5897 21.7159 33.5897 21.7159C33.5897 21.7326 33.5731 21.7492 33.5731 21.7492C32.8403 24.7968 29.8094 28.0775 25.746 30.0259C21.1664 32.3574 16.3036 32.041 13.7223 29.4597C12.4567 28.4272 11.5907 27.1116 11.2909 25.6128C10.4416 21.3162 14.4717 16.9531 20.4336 15.4543C20.8333 15.3544 21.233 15.2711 21.6493 15.1878C22.3154 15.0879 22.9649 15.0213 23.5978 14.988C26.0291 14.8215 28.3273 15.1878 30.2424 15.9705C30.3257 16.0205 30.409 16.0538 30.4922 16.1038L34.9387 0H3.58046C1.59872 0 0 1.51545 0 3.39728V32.6405C0 34.5223 1.59872 36.0378 3.58046 36.0378H44.3644C46.3462 36.0378 47.9449 34.5223 47.9449 32.6405V3.39728C47.9449 1.51545 46.3295 0 44.3644 0ZM23.5478 4.09672C25.1465 4.09672 26.4288 5.32906 26.4288 6.84451C26.4288 8.35997 25.1299 9.59231 23.5478 9.59231C21.9491 9.59231 20.6668 8.35997 20.6668 6.84451C20.6668 5.31241 21.9491 4.09672 23.5478 4.09672ZM15.2711 4.09672C16.8698 4.09672 18.1521 5.32906 18.1521 6.84451C18.1521 8.35997 16.8532 9.59231 15.2711 9.59231C13.6724 9.59231 12.3901 8.35997 12.3901 6.84451C12.3901 5.31241 13.689 4.09672 15.2711 4.09672ZM6.99439 9.57566C5.39567 9.57566 4.11337 8.34331 4.11337 6.82786C4.11337 5.31241 5.41233 4.08006 6.99439 4.08006C8.59311 4.08006 9.87542 5.31241 9.87542 6.82786C9.89207 8.34331 8.59311 9.57566 6.99439 9.57566Z" fill="#FF1241"/>
<path opacity="0.25" d="M56.2906 14.3373L51.4944 5.79419V16.469L56.9734 26.1945L46.7815 43.847H40.5032H27.93H26.3979L23.5335 38.851H17.3718L23.3337 49.1761H26.4978H49.8624L51.2446 46.778L56.8568 37.0691L63.1351 26.1945L56.2906 14.3373Z" fill="#FF1241"/>
<path d="M88.0156 19.3472L86.8665 21.7287C85.3011 20.7295 83.2694 20.08 81.3876 20.08C79.1227 20.08 77.4075 20.8794 77.4075 22.7612C77.4075 27.2409 88.6651 24.9428 88.6651 32.187C88.6651 36.1671 85.1346 37.9324 81.271 37.9324C78.4067 37.9324 75.4424 36.9331 73.5439 35.1013L74.693 32.8364C76.4249 34.4518 79.0228 35.401 81.3876 35.401C83.7524 35.401 85.6842 34.5184 85.7175 32.5367C85.834 27.6739 74.5431 30.1552 74.5764 22.9943C74.5764 19.1308 77.9071 17.5154 81.5874 17.5154C83.9855 17.5154 86.3336 18.1982 88.0156 19.3472Z" fill="white"/>
<path d="M111.98 27.6878C111.98 33.7329 107.734 37.9129 101.755 37.9129C95.7768 37.9129 91.5302 33.7329 91.5302 27.6878C91.5302 21.6759 95.7768 17.5459 101.755 17.5459C107.734 17.5459 111.98 21.6759 111.98 27.6878ZM94.5278 27.7377C94.5278 32.1842 97.5587 35.2484 101.772 35.2484C105.985 35.2484 109.016 32.1842 109.016 27.7377C109.016 23.3413 105.985 20.277 101.772 20.277C97.5587 20.277 94.5278 23.3246 94.5278 27.7377Z" fill="white"/>
<path d="M135.694 25.3591V37.7991H132.713V26.1585C132.713 22.5946 130.564 20.4963 127 20.4963C123.02 20.5296 120.572 23.1442 120.223 26.9745V37.8158H117.242V17.632H120.223V22.0784C121.638 19.0142 124.353 17.5653 128.033 17.5154C132.862 17.5154 135.694 20.4963 135.694 25.3591Z" fill="white"/>
<path d="M159.94 35.7008C159.94 41.5961 155.927 45.3098 149.799 45.3098C146.618 45.2765 143.97 44.244 141.522 42.3954L142.904 40.0973C144.902 41.746 147.001 42.6286 149.682 42.6619C154.078 42.6619 156.959 39.9807 156.959 35.7674V32.7032C155.544 35.3844 152.946 36.9165 149.532 36.9165C144.103 36.9165 140.339 32.903 140.339 27.1577C140.339 21.5288 144.053 17.5487 149.449 17.5154C152.896 17.5154 155.494 19.0475 156.959 21.7287V17.632H159.94V35.7008ZM156.959 27.2742C156.959 23.0609 154.095 20.1133 150.065 20.1133C146.002 20.1133 143.171 23.0942 143.137 27.2742C143.171 31.4042 146.002 34.4018 150.065 34.4018C154.078 34.4018 156.959 31.4042 156.959 27.2742Z" fill="white"/>
<path d="M188.203 27.6233C188.203 33.8683 184.406 38.0316 178.628 38.0316C175.763 38.0316 173.499 36.8825 172 34.8175V45.2259H166.104V17.1983H172V20.2292C173.465 18.1642 175.713 17.0151 178.511 17.0151C184.307 17.0151 188.203 21.2617 188.203 27.6233ZM182.241 27.4235C182.241 24.1261 180.176 21.7613 177.146 21.7613C174.115 21.7613 172.016 24.0928 172.016 27.4235C172.016 30.8374 174.131 33.1355 177.146 33.1355C180.16 33.1355 182.241 30.8041 182.241 27.4235Z" fill="white"/>
<path d="M204.071 35.3998C202.689 37.1151 200.474 38.081 197.593 38.081C193.197 38.081 190.515 35.3998 190.515 31.6528C190.515 27.7892 193.313 25.491 198.359 25.4411H204.021V25.0581C204.021 22.8765 202.572 21.6108 199.725 21.6108C197.893 21.6108 195.745 22.227 193.596 23.4094L191.764 19.346C194.829 17.8139 197.477 16.9812 201.074 16.9812C206.586 16.9812 209.767 19.7457 209.8 24.3753L209.833 37.8145H204.055V35.3998H204.071ZM204.021 30.7535V28.9216H199.392C197.127 28.9216 196.028 29.6044 196.028 31.2531C196.028 32.8185 197.26 33.851 199.242 33.851C201.723 33.8677 203.688 32.5187 204.021 30.7535Z" fill="white"/>
<path d="M234.249 35.8841C234.249 41.746 229.852 45.4597 223.258 45.4597C219.777 45.4597 216.663 44.344 214.298 42.7452L216.48 38.6152C218.362 39.9641 220.543 40.6802 222.875 40.6802C226.239 40.6802 228.387 38.8817 228.387 36.0839V33.7525C227.005 35.6676 224.906 36.7334 222.192 36.7334C216.863 36.7334 213.199 32.7533 213.199 26.7747C213.199 20.9461 216.796 17.0159 222.042 17.0159C224.84 16.9826 226.988 18.0817 228.404 19.9968V17.1991H234.266V35.8841H234.249ZM228.387 26.9246C228.387 23.7438 226.438 21.5622 223.557 21.5622C220.676 21.5622 218.728 23.7771 218.695 26.9246C218.728 30.0721 220.643 32.2537 223.557 32.2537C226.438 32.2537 228.387 30.0721 228.387 26.9246Z" fill="white"/>
<path d="M258.613 29.3051H243.824C244.507 31.903 246.506 33.4351 249.154 33.4351C251.102 33.4351 252.95 32.6691 254.366 31.2535L257.464 34.401C255.399 36.6992 252.368 38.0314 248.654 38.0314C242.059 38.0314 237.896 33.8181 237.896 27.5731C237.896 21.2116 242.226 16.9983 248.504 16.9983C255.732 17.0149 259.112 21.7944 258.613 29.3051ZM253.084 25.8246C253.017 23.1101 251.252 21.3448 248.521 21.3448C245.923 21.3448 244.158 23.1101 243.691 25.8246H253.084Z" fill="white"/>
</svg>
