<svg width="106" height="31" viewBox="0 0 106 31" fill="none" xmlns="http://www.w3.org/2000/svg">
<path d="M15.896 0C7.11704 0 0 6.93957 0 15.4997C0 24.0607 7.11704 31 15.896 31C24.6753 31 31.7921 24.0608 31.7921 15.4997C31.7921 6.9401 24.6758 0.000740357 15.8958 0.000740357L15.896 0ZM23.1859 22.3551C22.9004 22.8117 22.2903 22.9548 21.8235 22.6766C18.0907 20.452 13.3923 19.9495 7.85907 21.182C7.32584 21.3012 6.79435 20.9753 6.67286 20.4555C6.55083 19.9356 6.88351 19.4173 7.41804 19.2989C13.4733 17.949 18.6673 18.53 22.8572 21.0264C23.3242 21.306 23.4722 21.9001 23.1855 22.3554L23.1859 22.3551ZM25.1315 18.1352C24.7719 18.7041 24.0092 18.8825 23.4267 18.5331C19.1547 15.9727 12.6408 15.2309 7.58682 16.7269C6.93134 16.9199 6.2391 16.5598 6.04017 15.9218C5.84275 15.2827 6.2123 14.6089 6.86669 14.4146C12.6397 12.7066 19.8163 13.534 24.7232 16.4741C25.306 16.8239 25.49 17.568 25.1312 18.1355L25.1315 18.1352ZM25.2985 13.7405C20.1745 10.7734 11.7226 10.5005 6.83112 11.9481C6.0457 12.1803 5.21505 11.748 4.97696 10.9821C4.73887 10.2159 5.18196 9.40644 5.96803 9.17365C11.5831 7.51155 20.9175 7.83266 26.8159 11.247C27.5224 11.6559 27.7541 12.5456 27.3354 13.2336C26.9178 13.9225 26.0029 14.1496 25.2987 13.7405H25.2985ZM43.2478 14.3091C40.5033 13.6709 40.0146 13.223 40.0146 12.2818C40.0146 11.3926 40.8731 10.7942 42.1499 10.7942C43.3875 10.7942 44.6147 11.2486 45.9013 12.184C45.9402 12.2124 45.989 12.2236 46.037 12.2162C46.085 12.2091 46.1276 12.1834 46.1557 12.1448L47.4958 10.3028C47.5509 10.2269 47.5358 10.1224 47.4616 10.0644C45.9304 8.8663 44.206 8.28385 42.1905 8.28385C39.227 8.28385 37.157 10.018 37.157 12.499C37.157 15.1596 38.9426 16.1018 42.0283 16.8289C44.6547 17.4188 45.0979 17.913 45.0979 18.7964C45.0979 19.7753 44.2015 20.3839 42.7591 20.3839C41.157 20.3839 39.8503 19.8577 38.3884 18.6234C38.3522 18.5928 38.3024 18.5789 38.2566 18.5816C38.2082 18.5855 38.1639 18.6073 38.1331 18.6433L36.6305 20.3871C36.5675 20.4594 36.5755 20.5675 36.6484 20.6301C38.3492 22.1106 40.441 22.8927 42.6983 22.8927C45.8916 22.8927 47.9551 21.1913 47.9551 18.5581C47.9608 16.3351 46.596 15.1043 43.2534 14.3114L43.2478 14.3091ZM55.1799 11.6696C53.7957 11.6696 52.6604 12.2012 51.7242 13.2905V12.0644C51.7242 11.9677 51.6437 11.8888 51.5446 11.8888H49.087C48.9878 11.8888 48.9074 11.9677 48.9074 12.0644V25.6873C48.9074 25.7841 48.9876 25.863 49.087 25.863H51.5446C51.6436 25.863 51.7242 25.7842 51.7242 25.6873V21.3871C52.6606 22.4118 53.796 22.9125 55.1799 22.9125C57.7518 22.9125 60.3553 20.982 60.3553 17.2917C60.3591 13.6005 57.7548 11.6694 55.1827 11.6694L55.1799 11.6696ZM57.4975 17.2918C57.4975 19.171 56.3103 20.4824 54.6105 20.4824C52.93 20.4824 51.6625 19.1115 51.6625 17.2918C51.6625 15.4724 52.9301 14.1013 54.6105 14.1013C56.2829 14.101 57.4977 15.4426 57.4977 17.2917L57.4975 17.2918ZM67.0284 11.6696C63.7162 11.6696 61.1215 14.1565 61.1215 17.3319C61.1215 20.4727 63.6984 22.9334 66.9879 22.9334C70.3118 22.9334 72.9146 20.4549 72.9146 17.2917C72.9146 14.1394 70.3292 11.6699 67.0283 11.6699L67.0284 11.6696ZM67.0284 20.501C65.2667 20.501 63.9385 19.1208 63.9385 17.2908C63.9385 15.453 65.2207 14.1196 66.9877 14.1196C68.7609 14.1196 70.098 15.4998 70.098 17.331C70.098 19.1684 68.8072 20.501 67.0286 20.501H67.0284V20.501ZM79.9873 11.8889H77.283V9.1928C77.283 9.09613 77.203 9.01733 77.1036 9.01733H74.6464C74.5469 9.01733 74.4662 9.09623 74.4662 9.1928V11.8889H73.2845C73.1856 11.8889 73.1056 11.9677 73.1056 12.0645V14.124C73.1056 14.2207 73.1857 14.2997 73.2845 14.2997H74.4662V19.6285C74.4662 21.782 75.5654 22.8738 77.7334 22.8738C78.6149 22.8738 79.3463 22.6964 80.0355 22.3153C80.0915 22.2847 80.1262 22.2259 80.1262 22.1633V20.2021C80.1262 20.1416 80.0939 20.0844 80.0407 20.0528C79.9871 20.02 79.9205 20.0184 79.8657 20.0448C79.3923 20.2771 78.9347 20.3842 78.4231 20.3842C77.6347 20.3842 77.2829 20.0352 77.2829 19.2528V14.3005H79.9872C80.0865 14.3005 80.1664 14.2216 80.1664 14.1248V12.0655C80.1702 11.9687 80.0905 11.8898 79.9899 11.8898L79.9873 11.8889ZM89.41 11.8993V11.5682C89.41 10.5941 89.793 10.1596 90.6522 10.1596C91.1645 10.1596 91.576 10.2588 92.0369 10.4087C92.0936 10.4261 92.1528 10.4173 92.199 10.3842C92.2465 10.3511 92.2732 10.2979 92.2732 10.2417V8.22261C92.2732 8.1454 92.2224 8.07719 92.146 8.05434C91.6591 7.91314 91.0361 7.76824 90.1033 7.76824C87.8334 7.76824 86.6336 9.01458 86.6336 11.3713V11.8785H85.453C85.3539 11.8785 85.2727 11.9574 85.2727 12.054V14.124C85.2727 14.2207 85.3539 14.2997 85.453 14.2997H86.6336V22.5193C86.6336 22.6161 86.7137 22.695 86.8128 22.695H89.2704C89.3696 22.695 89.4506 22.6161 89.4506 22.5193V14.3003H91.7451L95.26 22.5178C94.861 23.3813 94.4686 23.5531 93.933 23.5531C93.5 23.5531 93.0441 23.427 92.5779 23.1782C92.5341 23.1548 92.482 23.1508 92.4348 23.1651C92.388 23.1812 92.3485 23.2153 92.3285 23.2597L91.4956 25.0415C91.4559 25.1257 91.4899 25.2246 91.5731 25.2683C92.4426 25.7275 93.2275 25.9235 94.1977 25.9235C96.0123 25.9235 97.0153 25.0993 97.8996 22.8819L102.163 12.1393C102.185 12.0853 102.178 12.0241 102.144 11.9762C102.11 11.9286 102.056 11.9 101.996 11.9H99.4379C99.3612 11.9 99.2926 11.9476 99.2676 12.0177L96.6468 19.3172L93.7762 12.0128C93.75 11.9449 93.6828 11.8999 93.6084 11.8999H89.4096L89.41 11.8993ZM83.947 11.8889H81.4894C81.3902 11.8889 81.3092 11.9677 81.3092 12.0645V22.5193C81.3092 22.6161 81.3901 22.695 81.4894 22.695H83.947C84.046 22.695 84.1271 22.6161 84.1271 22.5193V12.0653C84.1274 11.9685 84.0471 11.8898 83.9478 11.8896C83.9475 11.8896 83.9472 11.8896 83.9469 11.8896L83.947 11.8889ZM82.7321 7.12847C81.7585 7.12847 80.9686 7.89696 80.9686 8.84631C80.9686 9.79619 81.7587 10.5656 82.7321 10.5656C83.7053 10.5656 84.4946 9.79619 84.4946 8.84631C84.4946 7.89717 83.705 7.12847 82.7331 7.12847H82.7321ZM104.261 15.2502C103.289 15.2502 102.532 14.4886 102.532 13.5637C102.532 12.6387 103.299 11.8684 104.271 11.8684C105.243 11.8684 106 12.63 106 13.554C106 14.4789 105.233 15.2502 104.261 15.2502H104.261V15.2502ZM104.271 12.0362C103.385 12.0362 102.715 12.7229 102.715 13.5638C102.715 14.4043 103.38 15.0817 104.262 15.0817C105.148 15.0817 105.819 14.3956 105.819 13.5541C105.819 12.7136 105.152 12.0362 104.272 12.0362H104.271ZM104.654 13.7275L105.144 14.3953H104.731L104.291 13.7826H103.912V14.3953H103.567V12.6251H104.376C104.798 12.6251 105.075 12.8356 105.075 13.1898C105.077 13.48 104.905 13.6574 104.656 13.7275H104.654ZM104.362 12.9288H103.912V13.4888H104.362C104.587 13.4888 104.721 13.3816 104.721 13.2085C104.721 13.0264 104.586 12.9288 104.362 12.9288H104.362Z" fill="black"/>
</svg>
