<svg width="106" height="78" viewBox="0 0 106 78" fill="none" xmlns="http://www.w3.org/2000/svg">
<path d="M15.7177 0.748413H5.23527L0 9.82368L5.23527 18.899H15.7177L20.9649 9.82368L15.7177 0.748413Z" fill="#FF1241"/>
<path d="M27.2256 54.8531C27.5953 55.0678 28.0127 55.1751 28.4182 55.1751C28.8355 55.1751 29.241 55.0678 29.6107 54.8531C38.0778 49.9398 45.6981 45.5513 52.913 41.4131C53.6524 40.9838 54.1175 40.1967 54.1175 39.3381C54.1175 38.4795 53.6643 37.6924 52.913 37.2631C43.8616 32.0874 36.4559 27.8181 29.6107 23.8231C28.8713 23.3938 27.9531 23.3938 27.2137 23.8231C26.4743 24.2524 26.0211 25.0514 26.0331 25.91C26.0688 28.9987 26.0688 32.0874 26.0569 35.1761L26.045 39.2904V39.3023L26.0569 44.3229C26.0569 47.1254 26.0688 49.9398 26.045 52.7423C26.0331 53.6367 26.4862 54.4238 27.2256 54.8531ZM30.8271 35.2238C30.8271 33.5066 30.839 31.7893 30.839 30.072C35.7285 32.9103 40.9757 35.9393 46.9384 39.3619C41.8462 42.2837 36.5275 45.3485 30.8271 48.6519C30.8271 47.2208 30.8271 45.7898 30.8271 44.3468L30.8152 39.3262L30.8271 35.2238Z" fill="#070707"/>
<path d="M78.8749 17.3471H70.4198C63.181 6.91238 51.4106 0.699219 38.6504 0.699219C17.3396 0.699219 0 18.0388 0 39.3496C0 60.6604 17.3396 78 38.6504 78C51.2556 78 63.1095 71.8226 70.3483 61.4832L70.1574 61.3521H78.863C80.1748 61.3521 81.2481 60.2788 81.2481 58.967V43.1419C81.2481 41.8301 80.1748 40.7568 78.863 40.7568H61.8693C60.5575 40.7568 59.4842 41.8301 59.4842 43.1419V58.967C59.4842 60.2788 60.5575 61.3521 61.8693 61.3521H64.3974C57.9935 68.8412 48.5962 73.2298 38.6504 73.2298C19.9751 73.2298 4.77018 58.0368 4.77018 39.3496C4.77018 20.6624 19.9751 5.4694 38.6504 5.4694C48.6797 5.4694 58.0173 9.84604 64.4094 17.3471H61.8693C60.5575 17.3471 59.4842 18.4204 59.4842 19.7322V35.5573C59.4842 36.8691 60.5575 37.9424 61.8693 37.9424H78.8749C80.1867 37.9424 81.26 36.8691 81.26 35.5573V19.7322C81.26 18.4204 80.1867 17.3471 78.8749 17.3471ZM64.2543 45.527H76.4899V56.5819H64.2543V45.527ZM76.4899 33.1722H64.2543V22.1173H76.4899V33.1722Z" fill="#070707"/>
<path d="M102.821 17.3496H85.8267C84.5149 17.3496 83.4417 18.4229 83.4417 19.7347V35.5598C83.4417 36.8716 84.5149 37.9449 85.8267 37.9449H102.832C104.144 37.9449 105.218 36.8716 105.218 35.5598V19.7347C105.206 18.4229 104.144 17.3496 102.821 17.3496ZM100.435 33.1747H88.2118V22.1198H100.447V33.1747H100.435Z" fill="#070707"/>
<path d="M102.821 40.7589H85.8267C84.5149 40.7589 83.4417 41.8322 83.4417 43.144V58.9691C83.4417 60.2809 84.5149 61.3542 85.8267 61.3542H102.832C104.144 61.3542 105.218 60.2809 105.218 58.9691V43.144C105.206 41.8322 104.144 40.7589 102.821 40.7589ZM100.435 56.584H88.2118V45.5291H100.447V56.584H100.435Z" fill="#070707"/>
</svg>
