<svg width="122" height="17" viewBox="0 0 122 17" fill="none" xmlns="http://www.w3.org/2000/svg">
<path d="M44.3071 15.712H41.1957V4.67913H37.1732V2.01268H48.3295V4.67913H44.3071V15.712Z" fill="black"/>
<path d="M60.7668 2.01268H57.6381V15.712H60.7668V2.01268Z" fill="black"/>
<path d="M115.986 13.0086H121.397V15.712H112.856V2.01268H115.986V13.0086Z" fill="black"/>
<path d="M74.2195 13.0267H76.1604C78.7702 13.0267 80.5106 11.3987 80.5106 8.80694C80.5106 6.34409 78.7514 4.67913 76.2335 4.67913H74.2195V13.0267ZM71.1836 2.01268H76.2523C79.9926 2.01268 83.714 3.99365 83.714 8.8258C83.714 13.3797 80.0665 15.712 76.4379 15.712H71.1844V2.01268H71.1836Z" fill="black"/>
<path d="M95.1408 10.5757L97.2051 5.21682L99.2498 10.5757H95.1408ZM101.081 15.712H104.52L98.8756 2.01268H95.6455L89.9471 15.712H93.2927L94.3029 13.0094H100.08L101.081 15.712Z" fill="black"/>
<path d="M16.2512 4.00832L12.2421 8.01899L8.23141 4.00832L12.2421 0L16.2512 4.00832Z" fill="black"/>
<path d="M16.2512 12.0302L12.2421 16.0393L8.23141 12.0302L12.2421 8.0195L16.2512 12.0302Z" fill="black"/>
<path d="M8.23169 4.0091L4.22102 8.01978L0.211914 4.0091L4.22102 0L8.23169 4.0091Z" fill="black"/>
<path d="M24.2718 4.0091L20.2619 8.01978L16.252 4.0091L20.2619 0L24.2718 4.0091Z" fill="black"/>
</svg>
