<svg width="105" height="75" viewBox="0 0 105 75" fill="none" xmlns="http://www.w3.org/2000/svg">
<path d="M15.5845 0.651123H5.19088L0 9.64943L5.19088 18.6477H15.5845L20.7872 9.64943L15.5845 0.651123Z" fill="#FF1241"/>
<path d="M105 53.1863C104.385 54.9363 104.019 56.8164 103.12 58.4008C100.85 62.3974 97.2905 64.5731 92.7027 65.0106C92.4898 65.0343 92.277 65.0697 91.8986 65.1289C92.0642 66.6778 92.1824 68.2268 92.3834 69.7522C92.8327 73.0512 90.3142 75.0731 87.228 73.8434C83.3496 72.3062 80.3581 69.7403 78.5371 65.9447C78.1942 65.2471 77.7804 65.0697 77.0591 65.0697C72.4594 65.0697 67.8598 65.188 63.2719 64.9633C56.7804 64.6441 51.4121 59.1457 51.0811 52.6424C50.9392 49.7099 51.0101 46.7539 50.9865 43.8096C50.9865 43.4076 50.9865 43.0174 50.9865 42.4853C50.6081 42.4853 50.277 42.4853 49.9577 42.4853C46.1858 42.4853 42.4138 42.5089 38.6419 42.4734C37.9679 42.4616 37.6132 42.6508 37.3175 43.2775C35.4729 47.1441 32.4341 49.7218 28.4966 51.2944C25.5405 52.465 22.9865 50.3957 23.424 47.2387C23.6368 45.7015 23.7669 44.1407 23.9206 42.6863C22.348 42.3079 20.8581 42.0832 19.4628 41.5748C14.4138 39.742 10.9375 34.9177 10.8429 29.5376C10.7483 24.0866 10.7483 18.6238 10.8311 13.161C10.9375 5.75892 16.8615 0.0359521 24.3699 0.0123034C36.005 -0.0113452 47.6638 0.000479102 59.3108 0.0359521C60.5523 0.0359521 61.8175 0.225141 63.0236 0.544398C68.6284 2.02244 72.6723 7.1542 72.7905 12.9245C72.8496 15.7741 72.8142 18.6238 72.8142 21.4853C72.8142 21.8164 72.8142 22.1474 72.8142 22.6322C73.228 22.6322 73.5827 22.6322 73.9375 22.6322C79.7669 22.6322 85.5844 22.6086 91.4138 22.6441C98 22.6795 103.215 26.8653 104.681 33.215C104.775 33.6289 104.882 34.0309 104.988 34.4329C105 40.6762 105 46.9312 105 53.1863ZM50.9746 38.8079C50.9746 37.9447 50.9746 37.2116 50.9746 36.4785C50.9865 34.1137 51.424 31.8552 52.5473 29.7505C52.9257 29.041 53.4577 28.5799 54.2736 28.5799C54.9949 28.5799 55.6925 28.8873 55.8581 29.5968C56 30.1998 55.8936 30.8974 55.7517 31.5241C55.4442 32.9194 54.7702 34.291 54.7466 35.6745C54.6402 41.3383 54.6875 47.014 54.7584 52.6897C54.7821 54.5224 55.5743 56.1305 56.6976 57.5613C58.7669 60.2099 61.5101 61.4278 64.8564 61.416C69.3969 61.4042 73.9257 61.416 78.4662 61.416C80.3817 61.416 80.6182 61.5934 81.3513 63.3197C81.6588 64.0528 82.0017 64.7859 82.4155 65.4481C83.9054 67.8248 86.0101 69.4566 88.6824 70.4616C88.5287 68.4988 88.3395 66.6424 88.2449 64.7859C88.1148 62.3738 88.2804 61.3687 91.4729 61.3687C96.9594 61.3569 101.228 57.1829 101.287 51.8856C101.346 46.5174 101.346 41.1491 101.287 35.7927C101.24 31.5123 98.2483 27.7049 94.0743 26.6762C92.7618 26.3569 91.3429 26.3332 89.9831 26.3332C82.38 26.2978 74.777 26.3214 67.174 26.3214C65.6132 26.3214 64.7027 25.6238 64.7145 24.4532C64.7263 23.2826 65.5895 22.6441 67.1976 22.6322C67.8243 22.6322 68.4628 22.6322 69.1368 22.6322C69.1368 20.5275 69.1486 18.5647 69.1368 16.6137C69.125 15.0765 69.2432 13.5275 69.0186 12.0258C68.2618 7.07142 64.2534 3.72514 59.2162 3.71332C53.304 3.70149 47.38 3.71332 41.4679 3.71332C35.7094 3.71332 29.9392 3.67784 24.1807 3.72514C19.0135 3.76061 14.6385 7.86366 14.5321 12.9126C14.4138 18.4937 14.402 24.0748 14.5439 29.6559C14.6267 33.1086 16.4358 35.7218 19.3919 37.5191C21.2483 38.6424 23.2821 38.8789 25.3986 38.8552C26.853 38.8316 27.5507 39.541 27.5388 40.9954C27.527 42.2488 27.4561 43.5022 27.3733 44.7555C27.3023 45.7724 27.1723 46.7893 27.054 47.9126C27.3969 47.7826 27.598 47.7234 27.7871 47.6289C30.8496 46.2454 33.0963 44.0579 34.3733 40.9126C35.1655 38.9498 35.3547 38.8434 37.5067 38.8434C40.9358 38.8434 44.3767 38.8434 47.8057 38.8434C48.8226 38.8079 49.8277 38.8079 50.9746 38.8079Z" fill="black"/>
<path d="M42.532 24.938C44.5185 26.3687 46.4222 27.7403 48.3378 29.1001C48.7398 29.3839 49.1891 29.5968 49.5912 29.8805C50.5844 30.5782 50.8209 31.5951 50.2415 32.5055C49.6976 33.3569 48.6334 33.6289 47.6638 32.9667C45.4172 31.4414 43.2179 29.8333 41.0067 28.2488C40.7111 28.036 40.4628 27.7758 40.3682 27.693C37.7195 29.5022 35.1891 31.2522 32.6351 32.9903C31.9374 33.4633 31.0979 33.5461 30.5185 32.943C30.1047 32.5174 29.7499 31.737 29.8445 31.2049C29.9391 30.6491 30.5185 30.0816 31.027 29.7032C32.5523 28.5799 34.1604 27.5748 35.7094 26.4751C36.3834 26.0022 36.9628 25.411 37.554 24.8907C36.5844 23.2826 35.6385 21.7218 34.728 20.1491C34.3141 19.4278 34.2905 18.6829 34.8108 17.9971C35.2601 17.4177 35.9341 17.0866 36.5962 17.3586C37.1402 17.5833 37.6604 18.0562 38.0033 18.541C38.7483 19.617 39.3631 20.7876 40.0844 22.0174C41.657 19.9008 42.8631 17.7843 43.4307 15.1947C42.9814 15.1947 42.6503 15.1947 42.331 15.1947C38.902 15.1947 35.4729 15.1947 32.032 15.1947C30.3412 15.1947 29.4662 14.568 29.4543 13.362C29.4425 12.1559 30.3293 11.5174 32.0084 11.5174C34.054 11.5174 36.0996 11.5174 38.2989 11.5174C38.2989 10.6187 38.2635 9.80285 38.3108 8.98697C38.3699 7.67447 39.0912 6.92953 40.2027 6.95318C41.0895 6.97683 41.8108 7.55622 41.9054 8.44305C41.9881 9.1998 42 9.96839 41.9645 10.737C41.9408 11.3518 42.1655 11.5292 42.7567 11.5174C44.7195 11.4937 46.6824 11.4937 48.6452 11.5174C49.9459 11.5292 50.6317 12.0613 50.7736 13.0782C50.9155 14.0714 50.3479 14.911 49.3547 15.1001C48.9645 15.1711 48.5625 15.2184 48.1722 15.1829C47.4746 15.1238 47.1672 15.3366 47.0016 16.0816C46.3749 18.8603 45.1334 21.3789 43.4543 23.6846C43.1942 24.0157 42.9459 24.3704 42.532 24.938Z" fill="black"/>
<path d="M77.8159 33.1205C79.625 33.1324 80.3818 33.6999 80.9257 35.4618C82.522 40.6645 84.1183 45.8672 85.7145 51.0817C86.1284 52.4415 85.9274 52.9263 84.6385 53.4466C84.1419 53.6476 83.5862 53.7303 83.0423 53.7776C82.3091 53.8368 81.8362 53.4702 81.647 52.7253C81.4341 51.8621 81.1385 51.0226 80.9612 50.1594C80.8547 49.6155 80.5828 49.4854 80.0743 49.4972C78.5372 49.5209 77.0118 49.5209 75.4747 49.4972C74.9899 49.4854 74.7652 49.6391 74.647 50.1121C74.4341 51.0107 74.1504 51.8857 73.9375 52.7726C73.7602 53.482 73.299 53.8131 72.6132 53.7776C72.1047 53.754 71.5727 53.6949 71.0997 53.5057C69.7162 52.9736 69.4797 52.4297 69.8936 51.0462C71.4781 45.8435 73.0743 40.629 74.6588 35.4263C75.1791 33.6881 75.9831 33.1087 77.8159 33.1205ZM75.7585 46.0327C77.1656 46.0327 78.4544 46.0327 79.826 46.0327C79.1639 43.6087 78.5254 41.2911 77.8987 38.9618C77.8277 38.9618 77.7686 38.9618 77.6977 38.9618C77.0591 41.2911 76.4206 43.6087 75.7585 46.0327Z" fill="black"/>
<path d="M60.9662 25.6948C60.9662 26.6644 60.1266 27.5157 59.1452 27.5157C58.152 27.5157 57.3361 26.7117 57.3243 25.7066C57.3243 24.7015 58.1165 23.8975 59.1216 23.8975C60.1148 23.8975 60.9662 24.7252 60.9662 25.6948Z" fill="black"/>
</svg>
