<svg width="91" height="82" viewBox="0 0 91 82" fill="none" xmlns="http://www.w3.org/2000/svg">
<path d="M14.8853 6.9458H4.95801L0 15.5404L4.95801 24.1351H14.8853L19.8546 15.5404L14.8853 6.9458Z" fill="#FF1241"/>
<path d="M84.422 0.998535C64.0817 0.998535 43.7301 0.998535 23.3786 0.998535C19.8662 0.998535 17.6865 3.17825 17.6752 6.70194V15.0029V18.4589V22.4117C17.6752 25.5627 17.6752 28.7137 17.6865 31.8534C17.6978 35.0835 19.8888 37.2858 23.1414 37.3196C23.9546 37.3309 24.7677 37.3422 25.5809 37.3196C26.8797 37.2858 27.8284 36.3935 27.8284 35.2077C27.8284 34.0218 26.8797 33.1296 25.5809 33.0844C25.1065 33.0731 24.6322 33.0731 24.1579 33.0731H23.3899C22.2153 33.0731 21.933 32.7795 21.933 31.6162C21.933 23.3152 21.933 15.0029 21.933 6.70194C21.933 5.53867 22.2379 5.24503 23.3899 5.24503H84.4333C85.5965 5.24503 85.8902 5.54997 85.8902 6.70194C85.8902 15.0029 85.8902 23.3152 85.8902 31.6162C85.8902 32.7908 85.6078 33.0731 84.422 33.0731H83.0215C80.3223 33.0731 77.6231 33.0844 74.9238 33.0618C74.9125 33.0618 74.9125 33.0618 74.9012 33.0618C73.9977 33.0618 73.2523 33.3781 72.6425 34.0105C72.202 34.4623 71.7615 34.914 71.3098 35.3545C70.971 35.6933 70.6209 36.0321 70.282 36.3822C69.7512 36.9244 69.2317 37.4778 68.6783 38.0537L68.2491 38.5055C68.0797 38.3361 67.9103 38.1667 67.7409 38.0086C67.1423 37.4326 66.5664 36.8792 66.1259 36.2806C64.2511 33.7282 61.7665 32.7004 58.3331 33.028C56.6729 33.1974 54.9337 33.1522 53.2735 33.1183C52.3812 33.0957 51.489 33.0844 50.6081 33.0844C50.2693 33.107 50.2015 33.0506 50.0773 32.7682C49.1399 30.7127 47.6265 29.1993 45.5936 28.2958C44.7805 27.9344 43.9108 27.6634 43.0864 27.4036L42.6008 27.2568C40.8163 26.6921 39.8789 27.1664 39.2352 28.9509C38.919 29.8205 38.614 30.7014 38.2978 31.5711C37.5976 33.5588 36.8635 35.6256 36.0729 37.6133C35.5308 38.9685 34.7967 40.3125 33.9609 41.4984C32.7299 43.2263 30.9116 44.1637 28.9803 45.1576C28.5738 45.3722 28.1672 45.5868 27.7606 45.8013C26.4392 44.4687 24.779 44.3105 23.6383 44.3105C23.627 44.3105 23.6157 44.3105 23.6045 44.3105C21.2666 44.3218 18.9175 44.3105 16.5684 44.3105H14.6484C12.7172 44.3105 11.2377 45.0108 10.2664 46.3886C9.96145 46.8178 9.75816 47.3034 9.56617 47.7665C9.48711 47.9585 9.40805 48.1505 9.3177 48.3425L9.26123 48.4554V77.571L9.28382 77.7291C9.82592 79.5587 10.7181 80.7107 12.096 81.3545C12.3783 81.49 12.6833 81.5916 12.9769 81.7046L13.3496 81.8401L24.7677 81.874L24.9032 81.8514C25.9197 81.5916 27.2072 81.1399 28.0994 79.9992C30.3356 80.9027 32.696 81.5352 35.192 81.874H58.6381L58.8752 81.8062C58.9882 81.7723 59.1011 81.7385 59.214 81.7046C61.6874 81.0495 63.2685 79.491 63.9123 77.0402C64.2624 75.7301 64.1382 74.3748 63.5509 73.0196C65.1659 72.2742 66.284 71.0996 66.9052 69.5185C67.5263 67.926 67.4812 66.2884 66.7696 64.6508C69.0397 63.4763 70.3837 61.2627 70.3272 58.7667C70.2707 56.2934 68.8138 54.1701 66.4986 53.0972C67.2214 51.3579 67.1875 49.6413 66.3969 47.9924C65.245 45.5642 63.1895 44.3331 60.287 44.3218C57.6894 44.3218 55.0918 44.3218 52.4942 44.3218H49.0947L51.1615 37.3196H52.7088C55.4306 37.3196 58.1411 37.3083 60.8629 37.3422C60.9759 37.3422 61.2244 37.4552 61.3938 37.6246C62.6135 38.8104 63.8106 40.0189 65.0191 41.2273L66.2501 42.4584C67.7296 43.9379 68.7348 43.9379 70.2369 42.4358L71.5131 41.1596C72.6763 39.985 73.8509 38.8104 75.0368 37.6698C75.2175 37.5003 75.545 37.3648 75.7822 37.3535C77.8038 37.3309 79.8141 37.3309 81.8357 37.3309H84.422C87.9344 37.3309 90.1141 35.1399 90.1141 31.6162C90.1141 23.3152 90.1141 15.0029 90.1141 6.70194C90.1367 3.17825 87.9457 0.998535 84.422 0.998535ZM61.2244 52.5777C60.942 52.6341 60.6258 52.668 60.1853 52.668C58.6719 52.6793 57.1698 52.6793 55.6565 52.668H52.7201C52.4377 52.668 52.1215 52.668 51.794 52.7471C50.8566 52.9842 50.2806 53.6732 50.2128 54.6444C50.1451 55.6496 50.7436 56.5192 51.681 56.7677C52.0537 56.858 52.4603 56.9032 52.9798 56.9032C55.1257 56.9032 57.2828 56.9145 59.4286 56.9145H64.0365C64.9513 56.9145 65.5725 57.3098 65.9339 58.1117C66.284 58.8909 66.1711 59.5912 65.5951 60.2688C65.1885 60.7431 64.6464 60.9577 63.8897 60.9577H63.8784C60.2192 60.9464 56.56 60.9577 52.9008 60.9577C52.5845 60.9577 52.2231 60.969 51.8504 61.0594C50.7775 61.3078 50.1564 62.1323 50.2128 63.2165C50.2693 64.2555 51.0373 65.0461 52.0989 65.1703C52.3361 65.2042 52.5732 65.1929 52.8104 65.1929H55.3515C57.215 65.1929 59.0898 65.1929 60.9646 65.2042C61.981 65.2155 62.749 65.7576 63.0201 66.6498C63.2798 67.5195 62.9862 68.423 62.3199 68.807C61.8568 69.078 61.2131 69.2361 60.6032 69.2587C58.9882 69.3039 57.3393 69.2926 55.7355 69.2926L53.4768 69.2813C53.1718 69.2813 52.8782 69.2813 52.5732 69.2813C51.0937 69.3265 50.1789 70.1396 50.1902 71.4046C50.2015 72.6808 51.1163 73.4939 52.5958 73.5165C53.3186 73.5278 54.0527 73.5278 54.7756 73.5278C55.8598 73.5278 56.944 73.5278 58.0282 73.5617C58.9769 73.5956 59.7449 74.3523 59.8465 75.3461C59.9481 76.3287 59.3157 77.2322 58.3444 77.492C58.0395 77.571 57.6894 77.5823 57.407 77.5823C55.0692 77.5936 52.7201 77.5823 50.3709 77.5823H45.0063C42.3636 77.5823 39.7208 77.571 37.078 77.5936C34.5821 77.571 32.0297 77.0289 29.3304 75.8656C29.2966 75.8318 29.2401 75.6962 29.1949 75.572C29.1949 75.5155 29.2062 75.4478 29.2062 75.3913V70.6253C29.2062 63.8264 29.2062 57.0387 29.1949 50.2398C29.1949 49.8671 29.2514 49.7655 29.5676 49.5961L30.0307 49.3476C31.3746 48.6361 32.7751 47.8907 34.0739 47.0324C36.7957 45.2254 38.7721 42.6278 39.9467 39.3299C40.6017 37.489 41.2794 35.6481 41.957 33.796L42.7137 31.7066C44.1028 32.0567 45.2435 32.8699 45.9663 34.0444C46.7908 35.3997 46.9489 37.0599 46.4181 38.7201C45.955 40.1544 45.4694 41.5661 44.9838 42.9892C44.724 43.7459 44.4642 44.5025 44.2045 45.2705C43.8657 46.2644 43.9108 47.0663 44.3174 47.6422C44.7353 48.2182 45.4807 48.5119 46.5423 48.5119H51.9069C54.7191 48.5119 57.52 48.5119 60.3321 48.5119C61.2921 48.5119 62.478 48.8168 62.7264 50.2398C62.9184 51.3579 62.2521 52.3518 61.2244 52.5777ZM14.5581 77.6162C13.7562 77.6162 13.519 77.3677 13.5077 76.5433C13.5077 67.5872 13.5077 58.6312 13.5077 49.6751C13.5077 48.8281 13.7562 48.5796 14.6145 48.5683C14.9872 48.557 15.3599 48.557 15.7439 48.557C16.0376 48.557 16.3425 48.557 16.6587 48.557H17.1218V66.3901C17.1218 66.7402 17.1331 67.1581 17.2008 67.5759C17.3702 68.5698 18.206 69.27 19.2337 69.27H19.245C20.2615 69.27 21.0972 68.5811 21.2779 67.5872C21.3457 67.1919 21.357 66.7854 21.357 66.4014V63.736C21.357 58.778 21.3683 53.8313 21.3457 48.8733C21.3457 48.6474 21.3683 48.5458 21.357 48.5345C21.3909 48.5232 21.4699 48.5119 21.6393 48.5345C22.1137 48.5796 22.588 48.5683 23.0623 48.557C23.3786 48.5458 23.6948 48.5458 23.9997 48.557C24.7225 48.5796 24.971 48.8394 24.971 49.5622C24.971 58.5747 24.971 67.5759 24.971 76.5772C24.971 77.3338 24.7113 77.5936 23.9546 77.6049C20.8375 77.6275 17.6978 77.6275 14.5581 77.6162Z" fill="#0C0C0C"/>
<path d="M81.9828 19.4294C82.7959 18.571 83.0331 17.5998 82.683 16.572C82.3216 15.5104 81.531 14.8667 80.3339 14.686C80.0967 14.6521 79.8595 14.6182 79.6224 14.5843C79.1819 14.5278 78.7189 14.4601 78.2784 14.3584C78.0638 14.302 77.8041 14.1326 77.7024 13.9631C77.4878 13.6017 77.2958 13.2065 77.1038 12.8225C76.9683 12.5401 76.8328 12.2465 76.6747 11.9754C76.1326 10.959 75.2855 10.4395 74.1787 10.4395H74.1674C73.1736 10.462 72.3943 10.8912 71.9087 11.6818C71.5134 12.3368 71.1858 12.9693 70.9261 13.5792C70.655 14.2116 70.384 14.4262 69.8532 14.4262H69.8419C69.424 14.4375 68.9948 14.5052 68.5996 14.573C68.4301 14.6069 68.272 14.6408 68.1026 14.6634C66.8942 14.8554 66.1036 15.4765 65.7422 16.5381C65.3356 17.724 65.6293 18.8195 66.5328 19.4633C68.08 20.5926 68.5092 21.914 67.9106 23.7436C67.5944 24.7262 67.9558 25.7427 68.8932 26.4655C69.424 26.872 69.9887 27.0753 70.5647 27.0753C70.9826 27.0753 71.4004 26.9737 71.8183 26.7704C72.4282 26.4768 73.0719 26.1492 73.6931 25.7878C74.0658 25.562 74.3256 25.562 74.6757 25.7652C75.4098 26.2057 76.0761 26.5558 76.7198 26.8156C77.6459 27.1996 78.6737 27.0979 79.4417 26.5445C80.2097 25.9911 80.6162 25.0537 80.5485 24.0599C80.492 23.3371 80.3565 22.6143 80.2209 21.9253L80.1871 21.7333C80.1193 21.3606 80.1871 21.1348 80.4581 20.9089C80.9663 20.4797 81.4407 20.0054 81.9828 19.4294ZM76.5053 22.4787C75.7147 22.027 74.9467 21.8124 74.1787 21.8124C73.422 21.8124 72.6766 22.0383 71.9425 22.4787C72.3039 20.6265 71.7957 19.2035 70.3953 18.1532C70.5308 18.1193 70.655 18.0854 70.7906 18.0628C71.5134 17.8934 72.2023 17.7353 72.7444 17.34C73.2978 16.9334 73.6705 16.3236 74.0545 15.6798C74.1223 15.5782 74.1787 15.4765 74.2465 15.3636C74.8564 17.0464 76.0874 17.9838 77.9057 18.1532C76.573 19.339 76.11 20.7734 76.5053 22.4787Z" fill="#0C0C0C"/>
<path d="M28.3138 23.4286C28.2912 23.6206 28.2686 23.79 28.2347 23.9481V23.9933C28.2235 25.134 28.6865 26.1053 29.4997 26.6474C29.9288 26.941 30.4371 27.0878 30.9453 27.0878C31.3293 27.0878 31.7246 27.0088 32.1085 26.8394C32.8088 26.5344 33.4977 26.1843 34.1414 25.7778C34.4577 25.5745 34.6948 25.5858 35.0562 25.8003C35.7904 26.2295 36.4228 26.557 37.0214 26.8168C37.9814 27.2347 38.9865 27.1669 39.7771 26.6135C40.5677 26.0714 40.9855 25.1566 40.9291 24.1176C40.8952 23.5077 40.8048 22.9204 40.6467 22.367C40.3983 21.5087 40.5677 20.9779 41.2114 20.5261C41.5276 20.3002 41.7987 20.0179 42.0585 19.7468C42.1488 19.6565 42.2279 19.5661 42.3182 19.4758C43.154 18.6287 43.3911 17.6123 43.0297 16.5507C42.6344 15.3987 41.7422 14.7098 40.6128 14.7098C38.7606 14.6985 37.6877 13.9305 37.1456 12.2251C36.7955 11.1296 35.8468 10.4633 34.5932 10.4633C34.5819 10.4633 34.5819 10.4633 34.5706 10.4633C33.2944 10.4633 32.3457 11.1183 31.9843 12.259C31.4422 13.9531 30.3919 14.7098 28.5849 14.7098H28.5736C27.4216 14.7098 26.4955 15.41 26.1002 16.5845C25.7388 17.6687 26.0211 18.6965 26.9021 19.5661L27.2183 19.8823C27.5458 20.2099 27.8959 20.56 28.2573 20.8762C28.6074 21.1811 28.6865 21.407 28.5849 21.8023C28.4606 22.3444 28.3703 22.943 28.3138 23.4286ZM36.8746 22.4799C35.2708 21.5877 33.7687 21.5877 32.3118 22.4912C32.6507 20.7068 32.1876 19.2725 30.9001 18.1544C32.6845 17.9511 33.9043 17.0815 34.5819 15.5003C35.3047 17.1153 36.5132 17.985 38.275 18.1431C36.9423 19.3515 36.4793 20.7859 36.8746 22.4799Z" fill="#0C0C0C"/>
<path d="M62.2299 19.3497C62.9527 18.5252 63.1898 17.4749 62.8736 16.5375C62.5574 15.6001 61.7329 14.9112 60.6826 14.7079C60.3551 14.6401 60.0163 14.6175 59.6774 14.595C59.0789 14.5611 58.5255 14.5159 58.1641 14.2561C57.7688 13.9738 57.5316 13.4091 57.2831 12.8331C57.1589 12.5395 57.0347 12.2458 56.8766 11.9748C56.2893 10.9244 55.4084 10.4049 54.279 10.4501C53.0366 10.4953 52.1105 11.2181 51.6701 12.483C51.128 14.0528 50.247 14.6966 48.824 14.6175C48.6885 14.6062 48.553 14.6401 48.4287 14.6627C48.3836 14.674 48.3384 14.6853 48.3045 14.6853C47.1074 14.866 46.2829 15.4985 45.9328 16.5488C45.5714 17.6217 45.8198 18.6382 46.6443 19.4739L46.8363 19.6659C47.2429 20.0838 47.6608 20.5017 48.1125 20.8969C48.4287 21.168 48.4965 21.3939 48.4061 21.7666C48.2706 22.3426 48.1803 22.9185 48.1125 23.4268C48.0786 23.6188 48.056 23.7995 48.0334 23.9802V24.014C47.9996 25.0983 48.4513 26.0469 49.2532 26.6116C49.7049 26.9279 50.2245 27.086 50.7553 27.086C51.1054 27.086 51.4668 27.0182 51.8169 26.8714C52.4607 26.6116 53.127 26.2728 53.7933 25.8549C54.2338 25.5726 54.5613 25.5726 54.9792 25.8324C55.6342 26.2389 56.3006 26.589 56.9556 26.8488C57.8591 27.2215 58.853 27.1199 59.6097 26.589C60.3664 26.0582 60.7842 25.1886 60.7504 24.206C60.7165 23.3025 60.5358 22.3877 60.389 21.6988C60.3099 21.3487 60.3777 21.1567 60.6713 20.8969C61.1118 20.5017 61.699 19.9595 62.2299 19.3497ZM56.6959 22.4894C55.9053 22.0376 55.1373 21.8117 54.3806 21.8117C53.6239 21.8117 52.8785 22.0376 52.1444 22.4781C52.4832 20.6936 52.0202 19.2706 50.7327 18.1525C52.551 17.9605 53.7707 17.0231 54.3919 15.3516C54.4597 15.4646 54.5274 15.5662 54.5839 15.6792C54.9566 16.3116 55.318 16.8989 55.8488 17.2942C56.3796 17.6895 57.0686 17.8589 57.7801 18.0283C57.9156 18.0622 58.0624 18.0961 58.2092 18.1412C56.7975 19.2367 56.2893 20.6936 56.6959 22.4894Z" fill="#0C0C0C"/>
<path d="M32.4247 33.0983C31.8826 33.0644 31.3518 33.2677 30.9339 33.6404C30.516 34.0244 30.2563 34.5665 30.245 35.1199C30.1998 36.2718 31.092 37.2544 32.2327 37.3109C32.2666 37.3109 32.3004 37.3109 32.3343 37.3109C32.8425 37.3109 33.3282 37.1189 33.7122 36.7575C34.1301 36.3735 34.3898 35.8314 34.4011 35.2893C34.4689 34.1486 33.5767 33.1547 32.4247 33.0983Z" fill="#0C0C0C"/>
<path d="M19.2566 70.6804H19.2453C18.6806 70.6804 18.1498 70.9176 17.7545 71.3242C17.3592 71.742 17.1447 72.3067 17.1672 72.8827C17.2124 74.0234 18.1272 74.893 19.2566 74.893C19.2792 74.893 19.2905 74.893 19.3131 74.893C20.4763 74.8592 21.3686 73.9218 21.346 72.7585C21.3234 71.6178 20.386 70.6804 19.2566 70.6804Z" fill="#0C0C0C"/>
</svg>
