<svg width="104" height="27" viewBox="0 0 104 27" fill="none" xmlns="http://www.w3.org/2000/svg">
<path d="M54.2266 10.3512C53.5434 13.8153 53.0257 18.0373 52.7535 19.7827H52.5613C52.3425 17.984 51.8247 13.7833 51.1148 10.3779L49.3694 1.90182H44.0532V24.7734H47.3518V5.92102L47.6774 7.68242L51.0294 24.7734H54.328L57.6267 7.68242L57.9789 5.91034V17.242V24.7734H61.2776V1.90182H55.908L54.2266 10.3512Z" fill="black"/>
<path d="M70.2015 21.337C69.9026 21.9615 69.2461 22.3992 68.5949 22.3992C67.8316 22.3992 67.5327 21.8013 67.5327 20.3282V8.0624H63.7697V20.547C63.7697 23.6268 64.7786 25.0466 67.015 25.0466C68.5415 25.0466 69.7692 24.3634 70.6125 22.7301H70.6926L71.0182 24.7744H73.9645V8.0624H70.2015V21.337Z" fill="black"/>
<path d="M81.2402 14.658C80.0125 13.7559 79.2492 13.1581 79.2492 11.8504C79.2492 10.9217 79.6869 10.4039 80.7224 10.4039C81.7846 10.4039 82.1422 11.1405 82.1689 13.6492L85.3288 13.5104C85.5743 9.44851 84.2399 7.75649 80.7758 7.75649C77.5572 7.75649 75.9773 9.20298 75.9773 12.1707C75.9773 14.8715 77.285 16.0938 79.4147 17.7058C81.2402 19.1255 82.3023 19.9155 82.3023 21.0578C82.3023 21.9278 81.7579 22.5309 80.8025 22.5309C79.6869 22.5309 79.0304 21.4687 79.1959 19.6166L76.004 19.67C75.5129 23.1341 76.906 25.1517 80.6103 25.1517C83.8556 25.1517 85.5423 23.6518 85.5423 20.6521C85.5476 17.9299 84.1865 16.8357 81.2402 14.658Z" fill="black"/>
<path d="M91.2164 8.0624H87.6188V24.7744H91.2164V8.0624Z" fill="black"/>
<path d="M89.4443 1.46417C88.0565 1.46417 87.4 1.98191 87.4 3.78068C87.4 5.63282 88.0565 6.09719 89.4443 6.09719C90.8641 6.09719 91.4886 5.63282 91.4886 3.78068C91.4886 2.06198 90.8641 1.46417 89.4443 1.46417Z" fill="black"/>
<path d="M103.321 18.7465L100.023 18.581C100.023 21.5274 99.6972 22.4774 98.5763 22.4774C97.4607 22.4774 97.2686 21.4153 97.2686 17.9512V14.7059C97.2686 11.3539 97.4874 10.2917 98.603 10.2917C99.6385 10.2917 99.9107 11.3005 99.9107 14.407L103.183 14.1882C103.401 11.5994 103.076 9.82737 102.067 8.81857C101.33 8.08198 100.215 7.7297 98.6617 7.7297C95.0108 7.7297 93.5109 9.69393 93.5109 15.197V17.5402C93.5109 23.2087 94.7919 25.0341 98.5283 25.0341C100.108 25.0341 101.197 24.7086 101.934 23.9987C102.996 23.0272 103.401 21.3352 103.321 18.7465Z" fill="black"/>
<path d="M37.8535 4.16865C37.4158 2.53001 36.1241 1.23832 34.4802 0.7953C31.5071 0 19.583 0 19.583 0C19.583 0 7.66415 0 4.69111 0.7953C3.05248 1.23298 1.76078 2.52468 1.31776 4.16865C0.522461 7.14169 0.522461 13.344 0.522461 13.344C0.522461 13.344 0.522461 19.5462 1.31776 22.5193C1.75544 24.1579 3.04714 25.4496 4.69111 25.8926C7.66415 26.6879 19.583 26.6879 19.583 26.6879C19.583 26.6879 31.5071 26.6879 34.4802 25.8926C36.1188 25.4549 37.4105 24.1632 37.8535 22.5193C38.6488 19.5462 38.6488 13.344 38.6488 13.344C38.6488 13.344 38.6488 7.14169 37.8535 4.16865ZM15.7719 19.0605V7.62741L25.6785 13.344L15.7719 19.0605Z" fill="black"/>
</svg>
