<svg width="119" height="47" viewBox="0 0 119 47" fill="none" xmlns="http://www.w3.org/2000/svg">
<path d="M56.7001 0.0038569L28.6801 10.5039C27.6901 10.8739 26.1101 11.5339 25.8801 12.5639L22.1301 27.7039C22.0701 27.6639 22.0101 27.6339 21.9401 27.5939C20.5001 26.9739 18.7701 26.6839 16.9301 26.8139C16.4501 26.8439 15.9601 26.9039 15.4701 26.9939C15.1601 27.0539 14.8501 27.1239 14.5501 27.2039C10.0601 28.3939 7.03006 31.8639 7.66006 35.2639C7.88006 36.4639 8.54006 37.4939 9.49006 38.3139C11.4401 40.3639 15.1001 40.6139 18.5501 38.7639C21.6101 37.2039 23.8901 34.6039 24.4501 32.1839C24.4501 32.1739 24.4601 32.1639 24.4601 32.1539C24.4601 32.1539 28.3801 18.3839 28.8501 16.2839C29.0701 15.3039 29.7501 14.4939 30.6701 14.0939L52.5301 3.63386C52.8501 3.49386 53.0801 3.96386 52.7801 4.13386L31.4401 15.5739C30.0501 16.3439 29.6401 17.0439 29.2601 18.5839C29.0701 19.3539 29.4601 20.1539 30.1801 20.4739L30.8501 20.8639C34.3601 22.4139 37.0901 22.4039 39.4901 20.7839C39.6801 20.6539 39.6401 20.3739 39.4301 20.3039L31.0601 17.5539C30.8301 17.4739 30.8001 17.1639 31.0201 17.0539L31.2501 16.9339C31.4001 16.8539 31.5801 16.8339 31.7401 16.8839L38.4401 18.9839C39.1801 19.2139 39.9501 19.3239 40.7201 19.2539C45.7701 18.8039 49.3501 16.0339 51.3101 12.5839C51.4101 12.4139 51.2601 12.2139 51.0701 12.2339L36.8901 14.0339C36.7501 14.0539 36.6901 13.8639 36.8201 13.8039L37.5701 13.4239C38.0001 13.2039 38.4601 13.0539 38.9401 12.9739C45.6501 11.8439 55.5101 10.2039 56.9701 2.10386C57.0801 1.10386 56.9101 -0.0761431 56.7001 0.0038569Z" fill="#FF1241"/>
<path opacity="0.25" d="M28.0201 25.9839L26.8401 30.3439L28.1701 32.6639L22.0601 43.2639H18.2801H9.82006L3.70006 32.6639L9.82006 22.0639H13.5901H21.5801L22.4501 18.8639H7.97006L7.14006 20.3039L3.77006 26.1439L6.10352e-05 32.6639L7.97006 46.4639H23.9001L24.7301 45.0339L28.1001 39.1939L31.8701 32.6639L28.0201 25.9839Z" fill="#FF8098"/>
<path d="M46.1101 29.3439L45.4201 30.7739C44.4801 30.1739 43.2601 29.7839 42.1301 29.7839C40.7701 29.7839 39.7401 30.2639 39.7401 31.3939C39.7401 34.0839 46.5001 32.7039 46.5001 37.0539C46.5001 39.4439 44.3801 40.5039 42.0601 40.5039C40.3401 40.5039 38.5601 39.9039 37.4201 38.8039L38.1101 37.4439C39.1501 38.4139 40.7101 38.9839 42.1301 38.9839C43.5501 38.9839 44.7101 38.4539 44.7301 37.2639C44.8001 34.3439 38.0201 35.8339 38.0401 31.5339C38.0401 29.2139 40.0401 28.2439 42.2501 28.2439C43.7001 28.2439 45.1001 28.6539 46.1101 29.3439Z" fill="#17171C"/>
<path d="M60.5097 34.3539C60.5097 37.9839 57.9597 40.4939 54.3697 40.4939C50.7797 40.4939 48.2297 37.9839 48.2297 34.3539C48.2297 30.7439 50.7797 28.2639 54.3697 28.2639C57.9597 28.2639 60.5097 30.7439 60.5097 34.3539ZM50.0197 34.3839C50.0197 37.0539 51.8397 38.8939 54.3697 38.8939C56.8997 38.8939 58.7197 37.0539 58.7197 34.3839C58.7197 31.7439 56.8997 29.9039 54.3697 29.9039C51.8397 29.9039 50.0197 31.7339 50.0197 34.3839Z" fill="#17171C"/>
<path d="M74.7501 32.9539V40.4239H72.9601V33.4339C72.9601 31.2939 71.6701 30.0339 69.5301 30.0339C67.1401 30.0539 65.6701 31.6239 65.4601 33.9239V40.4339H63.6701V28.3139H65.4601V30.9839C66.3101 29.1439 67.9401 28.2739 70.1501 28.2439C73.0401 28.2439 74.7501 30.0339 74.7501 32.9539Z" fill="#17171C"/>
<path d="M89.3005 39.1639C89.3005 42.7039 86.8905 44.9339 83.2105 44.9339C81.3005 44.9139 79.7105 44.2939 78.2405 43.1839L79.0705 41.8039C80.2705 42.7939 81.5305 43.3239 83.1405 43.3439C85.7805 43.3439 87.5105 41.7339 87.5105 39.2039V37.3639C86.6605 38.9739 85.1005 39.8939 83.0505 39.8939C79.7905 39.8939 77.5305 37.4839 77.5305 34.0339C77.5305 30.6539 79.7605 28.2639 83.0005 28.2439C85.0705 28.2439 86.6305 29.1639 87.5105 30.7739V28.3139H89.3005V39.1639V39.1639ZM87.5105 34.1039C87.5105 31.5739 85.7905 29.8039 83.3705 29.8039C80.9305 29.8039 79.2305 31.5939 79.2105 34.1039C79.2305 36.5839 80.9305 38.3839 83.3705 38.3839C85.7905 38.3839 87.5105 36.5839 87.5105 34.1039Z" fill="#17171C"/>
<path d="M97.6297 23.2239C98.5697 23.2239 99.4897 23.4539 100.11 23.9339L99.4397 25.6139C98.9797 25.2739 98.3797 25.0339 97.7397 25.0339C96.4297 25.0339 95.7597 25.7739 95.7597 27.1739V28.2339H99.2997V30.0539H95.7997V40.4239H93.5897V30.0539H91.5197V28.2339H93.5897V27.1539C93.6097 24.7939 95.0297 23.2239 97.6297 23.2239ZM103.61 23.3639V40.4239H101.4V23.3639H103.61Z" fill="#17171C"/>
<path d="M118.6 28.2439L112.69 41.6539C111.61 44.2339 110.21 45.0339 108.34 45.0339C107.17 45.0339 105.97 44.6439 105.21 43.9039L106.15 42.2439C106.75 42.8239 107.51 43.1439 108.33 43.1439C109.39 43.1439 110.05 42.6639 110.65 41.2539L111.04 40.4039L105.66 28.2439H107.96L112.21 37.9939L116.42 28.2439H118.6V28.2439Z" fill="#17171C"/>
</svg>
