<svg width="169" height="33" viewBox="0 0 169 33" fill="none" xmlns="http://www.w3.org/2000/svg">
<path d="M30.3302 1.14C30.3202 0.52 29.8302 0.02 29.2102 0L22.9302 0.17C22.2502 0.15 21.6302 0.55 21.3702 1.18L20.1802 3.64L5.14019 3.96C4.28019 3.98 3.54019 4.57 3.32019 5.4L25.5202 5.14C26.1302 5.13 26.6502 5.58 26.7302 6.19L29.2102 25.37C30.1002 24.21 30.5802 22.78 30.5602 21.32L30.3302 1.14Z" fill="#FF1241"/>
<path d="M24.0601 7.34003L21.6301 7.37003C20.5101 11.94 19.0101 18.03 19.0101 18.03C19.0101 18.04 19.0001 18.04 19.0001 18.05C18.6901 19.62 17.2701 21.36 15.3201 22.43C13.1301 23.7 10.7601 23.61 9.45014 22.33C8.82014 21.82 8.38014 21.16 8.21014 20.39C7.73014 18.2 9.61014 15.9 12.5001 15.03C12.6901 14.97 12.8901 14.92 13.0901 14.88C13.4101 14.81 13.7201 14.76 14.0301 14.73C15.2101 14.61 16.3401 14.76 17.2801 15.13C17.3201 15.15 17.3601 15.17 17.4101 15.19L19.1901 7.39003L0.720143 7.60003C0.280143 7.60003 -0.0598572 8.00003 0.0101428 8.44003L2.41014 24.18C2.54014 25.03 3.27014 25.66 4.13014 25.67L26.8201 25.8C26.9901 25.8 27.1301 25.65 27.1101 25.48L25.0501 8.21003C24.9901 7.71003 24.5601 7.34003 24.0601 7.34003Z" fill="#FF1241"/>
<path opacity="0.5" d="M32.8201 5.34998V11.75L35.6801 16.7L37.0201 19.02L30.9001 29.62H27.1301H19.1401H18.6701L17.4301 27.48H13.7301L16.8201 32.82H18.2701H32.7501L33.5801 31.39L36.9501 25.55L40.7201 19.02L32.8201 5.34998Z" fill="#FF1241"/>
<path d="M54.8101 15.24L54.1201 16.67C53.1801 16.07 51.9601 15.68 50.8301 15.68C49.4701 15.68 48.4401 16.16 48.4401 17.29C48.4401 19.98 55.2001 18.6 55.2001 22.95C55.2001 25.34 53.0801 26.4 50.7601 26.4C49.0401 26.4 47.2601 25.8 46.1201 24.7L46.8101 23.34C47.8501 24.31 49.4101 24.88 50.8301 24.88C52.2501 24.88 53.4101 24.35 53.4301 23.16C53.5001 20.24 46.7201 21.73 46.7401 17.43C46.7401 15.11 48.7401 14.14 50.9501 14.14C52.4001 14.14 53.8001 14.56 54.8101 15.24Z" fill="#17171C"/>
<path d="M69.2102 20.26C69.2102 23.89 66.6602 26.4 63.0702 26.4C59.4802 26.4 56.9302 23.89 56.9302 20.26C56.9302 16.65 59.4802 14.17 63.0702 14.17C66.6602 14.16 69.2102 16.65 69.2102 20.26ZM58.7202 20.28C58.7202 22.95 60.5402 24.79 63.0702 24.79C65.6002 24.79 67.4202 22.95 67.4202 20.28C67.4202 17.64 65.6002 15.8 63.0702 15.8C60.5402 15.8 58.7202 17.64 58.7202 20.28Z" fill="#17171C"/>
<path d="M83.4501 18.86V26.33H81.6601V19.34C81.6601 17.2 80.3701 15.94 78.2301 15.94C75.8401 15.96 74.3701 17.53 74.1601 19.83V26.34H72.3701V14.21H74.1601V16.88C75.0101 15.04 76.6401 14.17 78.8501 14.14C81.7401 14.14 83.4501 15.94 83.4501 18.86Z" fill="#17171C"/>
<path d="M98.0101 25.06C98.0101 28.6 95.6001 30.83 91.9201 30.83C90.0101 30.81 88.4201 30.19 86.9501 29.08L87.7801 27.7C88.9801 28.69 90.2401 29.22 91.8501 29.24C94.4901 29.24 96.2201 27.63 96.2201 25.1V23.26C95.3701 24.87 93.8101 25.79 91.7601 25.79C88.5001 25.79 86.2401 23.38 86.2401 19.93C86.2401 16.55 88.4701 14.16 91.7101 14.14C93.7801 14.14 95.3401 15.06 96.2201 16.67V14.21H98.0101V25.06V25.06ZM96.2101 20.01C96.2101 17.48 94.4901 15.71 92.0701 15.71C89.6301 15.71 87.9301 17.5 87.9101 20.01C87.9301 22.49 89.6301 24.29 92.0701 24.29C94.4901 24.28 96.2101 22.49 96.2101 20.01Z" fill="#17171C"/>
<path d="M105.78 13.47V14.51H108.7V16.97H105.78V26.33H102.26V16.97H100.6V14.51H102.26V13.34C102.26 10.58 104.33 9.10999 106.81 9.10999C107.96 9.10999 109.18 9.40999 110.05 9.97999L108.79 12.56C108.33 12.22 107.75 12.03 107.25 12.03C106.42 12.03 105.78 12.49 105.78 13.47Z" fill="#17171C"/>
<path d="M122.13 20.14C122.13 23.91 119.46 26.46 115.51 26.46C111.53 26.46 108.86 23.91 108.86 20.14C108.86 16.35 111.53 13.84 115.51 13.84C119.46 13.84 122.13 16.35 122.13 20.14ZM112.43 20.19C112.43 22.21 113.67 23.59 115.51 23.59C117.33 23.59 118.59 22.21 118.59 20.19C118.59 18.17 117.33 16.79 115.51 16.79C113.67 16.79 112.43 18.17 112.43 20.19Z" fill="#17171C"/>
<path d="M124.6 26.33V9.26996H128.14V26.33H124.6Z" fill="#17171C"/>
<path d="M143.89 26.33H140.37V24.51C139.5 25.77 138.16 26.46 136.46 26.46C132.94 26.46 130.62 23.91 130.62 20.09C130.62 16.32 132.92 13.81 136.37 13.81C138.12 13.81 139.47 14.5 140.37 15.76V9.26996H143.89V26.33ZM140.37 20.19C140.37 18.17 139.11 16.76 137.29 16.76C135.45 16.76 134.19 18.18 134.16 20.19C134.18 22.21 135.42 23.62 137.29 23.62C139.11 23.61 140.37 22.21 140.37 20.19Z" fill="#17171C"/>
<path d="M158.82 21.22H149.94C150.35 22.78 151.55 23.7 153.14 23.7C154.31 23.7 155.42 23.24 156.27 22.39L158.13 24.28C156.89 25.66 155.07 26.46 152.84 26.46C148.88 26.46 146.38 23.93 146.38 20.18C146.38 16.36 148.98 13.83 152.75 13.83C157.09 13.84 159.11 16.72 158.82 21.22ZM155.5 19.13C155.45 17.5 154.4 16.44 152.76 16.44C151.2 16.44 150.14 17.5 149.86 19.13H155.5Z" fill="#17171C"/>
<path d="M164.71 16.19C165.56 14.67 166.96 13.84 168.8 13.82V17.15C166.27 16.92 164.71 18.28 164.71 20.37V26.33H161.17V13.96H164.71V16.19Z" fill="#17171C"/>
</svg>
