<svg width="156" height="30" viewBox="0 0 156 30" fill="none" xmlns="http://www.w3.org/2000/svg">
<path d="M26.6399 -0.000152588H24.0199C22.4499 5.34985 20.1699 13.0398 20.1699 13.0398C20.1699 13.0498 20.1599 13.0598 20.1599 13.0598C19.7199 14.8898 17.8999 16.8598 15.4599 18.0298C12.7099 19.4298 9.78994 19.2398 8.23994 17.6898C7.47994 17.0698 6.95994 16.2798 6.77994 15.3798C6.26994 12.7998 8.68994 10.1798 12.2699 9.27985C12.5099 9.21985 12.7499 9.16985 12.9999 9.11985C13.3999 9.05985 13.7899 9.01985 14.1699 8.99985C15.6299 8.89985 17.0099 9.11985 18.1599 9.58985C18.2099 9.61985 18.2599 9.63985 18.3099 9.66985L20.9799 -0.000152588H2.14994C0.959939 -0.000152588 -6.10352e-05 0.909847 -6.10352e-05 2.03985V19.5998C-6.10352e-05 20.7298 0.959939 21.6398 2.14994 21.6398H26.6399C27.8299 21.6398 28.7899 20.7298 28.7899 19.5998V2.03985C28.7899 0.909847 27.8199 -0.000152588 26.6399 -0.000152588ZM14.1399 2.45985C15.0999 2.45985 15.8699 3.19985 15.8699 4.10985C15.8699 5.01985 15.0899 5.75985 14.1399 5.75985C13.1799 5.75985 12.4099 5.01985 12.4099 4.10985C12.4099 3.18985 13.1799 2.45985 14.1399 2.45985ZM9.16994 2.45985C10.1299 2.45985 10.8999 3.19985 10.8999 4.10985C10.8999 5.01985 10.1199 5.75985 9.16994 5.75985C8.20994 5.75985 7.43994 5.01985 7.43994 4.10985C7.43994 3.18985 8.21994 2.45985 9.16994 2.45985ZM4.19994 5.74985C3.23994 5.74985 2.46994 5.00985 2.46994 4.09985C2.46994 3.18985 3.24994 2.44985 4.19994 2.44985C5.15994 2.44985 5.92994 3.18985 5.92994 4.09985C5.93994 5.00985 5.15994 5.74985 4.19994 5.74985Z" fill="#FF1241"/>
<path opacity="0.25" d="M33.7996 8.60983L30.9196 3.47983V9.88983L34.2096 15.7298L28.0896 26.3298H24.3196H16.7696H15.8496L14.1296 23.3298H10.4296L14.0096 29.5298H15.9096H29.9396L30.7696 28.0898L34.1396 22.2598L37.9096 15.7298L33.7996 8.60983Z" fill="#FF1241"/>
<path d="M52.85 11.6198L52.16 13.0498C51.22 12.4498 50 12.0598 48.87 12.0598C47.51 12.0598 46.48 12.5398 46.48 13.6698C46.48 16.3598 53.24 14.9798 53.24 19.3298C53.24 21.7198 51.12 22.7798 48.8 22.7798C47.08 22.7798 45.3 22.1798 44.16 21.0798L44.85 19.7198C45.89 20.6898 47.45 21.2598 48.87 21.2598C50.29 21.2598 51.45 20.7298 51.47 19.5398C51.54 16.6198 44.76 18.1098 44.78 13.8098C44.78 11.4898 46.78 10.5198 48.99 10.5198C50.43 10.5198 51.84 10.9298 52.85 11.6198Z" fill="#17171C"/>
<path d="M67.24 16.6298C67.24 20.2598 64.69 22.7698 61.1 22.7698C57.51 22.7698 54.96 20.2598 54.96 16.6298C54.96 13.0198 57.51 10.5398 61.1 10.5398C64.69 10.5398 67.24 13.0198 67.24 16.6298ZM56.76 16.6598C56.76 19.3298 58.58 21.1698 61.11 21.1698C63.64 21.1698 65.46 19.3298 65.46 16.6598C65.46 14.0198 63.64 12.1798 61.11 12.1798C58.58 12.1798 56.76 14.0098 56.76 16.6598Z" fill="#17171C"/>
<path d="M81.48 15.2298V22.6998H79.69V15.7098C79.69 13.5698 78.4 12.3098 76.26 12.3098C73.87 12.3298 72.4 13.8998 72.19 16.1998V22.7098H70.4V10.5898H72.19V13.2598C73.04 11.4198 74.67 10.5498 76.88 10.5198C79.78 10.5198 81.48 12.3098 81.48 15.2298Z" fill="#17171C"/>
<path d="M96.0403 21.4398C96.0403 24.9798 93.6303 27.2098 89.9503 27.2098C88.0403 27.1898 86.4503 26.5698 84.9803 25.4598L85.8103 24.0798C87.0103 25.0698 88.2703 25.5998 89.8803 25.6198C92.5203 25.6198 94.2503 24.0098 94.2503 21.4798V19.6398C93.4003 21.2498 91.8403 22.1698 89.7903 22.1698C86.5303 22.1698 84.2703 19.7598 84.2703 16.3098C84.2703 12.9298 86.5003 10.5398 89.7403 10.5198C91.8103 10.5198 93.3703 11.4398 94.2503 13.0498V10.5898H96.0403V21.4398ZM94.2503 16.3798C94.2503 13.8498 92.5303 12.0798 90.1103 12.0798C87.6703 12.0798 85.9703 13.8698 85.9503 16.3798C85.9703 18.8598 87.6703 20.6598 90.1103 20.6598C92.5203 20.6598 94.2503 18.8598 94.2503 16.3798Z" fill="#17171C"/>
<path d="M113.01 16.5898C113.01 20.3398 110.73 22.8398 107.26 22.8398C105.54 22.8398 104.18 22.1498 103.28 20.9098V27.1598H99.74V10.3298H103.28V12.1498C104.15 10.9098 105.51 10.2198 107.19 10.2198C110.67 10.2198 113.01 12.7698 113.01 16.5898ZM109.43 16.4698C109.43 14.4898 108.19 13.0698 106.37 13.0698C104.55 13.0698 103.29 14.4698 103.29 16.4698C103.29 18.5198 104.56 19.8998 106.37 19.8998C108.18 19.8998 109.43 18.4998 109.43 16.4698Z" fill="#17171C"/>
<path d="M122.54 21.2598C121.71 22.2898 120.38 22.8698 118.65 22.8698C116.01 22.8698 114.4 21.2598 114.4 19.0098C114.4 16.6898 116.08 15.3098 119.11 15.2798H122.51V15.0498C122.51 13.7398 121.64 12.9798 119.93 12.9798C118.83 12.9798 117.54 13.3498 116.25 14.0598L115.15 11.6198C116.99 10.6998 118.58 10.1998 120.74 10.1998C124.05 10.1998 125.96 11.8598 125.98 14.6398L126 22.7098H122.53V21.2598H122.54ZM122.51 18.4698V17.3698H119.73C118.37 17.3698 117.71 17.7798 117.71 18.7698C117.71 19.7098 118.45 20.3298 119.64 20.3298C121.13 20.3398 122.31 19.5298 122.51 18.4698Z" fill="#17171C"/>
<path d="M140.66 21.5498C140.66 25.0698 138.02 27.2998 134.06 27.2998C131.97 27.2998 130.1 26.6298 128.68 25.6698L129.99 23.1898C131.12 23.9998 132.43 24.4298 133.83 24.4298C135.85 24.4298 137.14 23.3498 137.14 21.6698V20.2698C136.31 21.4198 135.05 22.0598 133.42 22.0598C130.22 22.0598 128.02 19.6698 128.02 16.0798C128.02 12.5798 130.18 10.2198 133.33 10.2198C135.01 10.1998 136.3 10.8598 137.15 12.0098V10.3298H140.67V21.5498H140.66ZM137.14 16.1698C137.14 14.2598 135.97 12.9498 134.24 12.9498C132.51 12.9498 131.34 14.2798 131.32 16.1698C131.34 18.0598 132.49 19.3698 134.24 19.3698C135.97 19.3698 137.14 18.0598 137.14 16.1698Z" fill="#17171C"/>
<path d="M155.29 17.5998H146.41C146.82 19.1598 148.02 20.0798 149.61 20.0798C150.78 20.0798 151.89 19.6198 152.74 18.7698L154.6 20.6598C153.36 22.0398 151.54 22.8398 149.31 22.8398C145.35 22.8398 142.85 20.3098 142.85 16.5598C142.85 12.7398 145.45 10.2098 149.22 10.2098C153.56 10.2198 155.59 13.0898 155.29 17.5998ZM151.97 15.5098C151.92 13.8798 150.87 12.8198 149.23 12.8198C147.67 12.8198 146.61 13.8798 146.33 15.5098H151.97Z" fill="#17171C"/>
</svg>
