<svg width="149" height="34" viewBox="0 0 149 34" fill="none" xmlns="http://www.w3.org/2000/svg">
<path opacity="0.3" d="M34.38 12.97L33.93 12.2L32.55 9.8V16.21L33.23 17.38L34.34 19.31L28.22 29.91H24.45H16.9H16.04H15.98L14.73 27.74H11.03L14.14 33.11H15.21H16.04H30.07L30.9 31.67L34.27 25.84L38.04 19.31L34.38 12.97Z" fill="#FF1241"/>
<path d="M28.1 5.51C27.21 4.45 26.14 3.51 24.93 2.72C24.68 3.63 24.41 4.57 24.15 5.51C23.84 6.61 23.54 7.69 23.25 8.71C22.36 11.88 21.66 14.37 21.66 14.37C21.66 14.38 21.65 14.39 21.65 14.4C21.21 16.29 19.44 18.32 17.04 19.54C14.34 20.99 11.49 20.79 9.96 19.19C9.95 19.19 9.95 19.18 9.95 19.18C9.22 18.54 8.71 17.74 8.54 16.81C8.43 16.24 8.47 15.66 8.61 15.1C8.82 14.27 9.29 13.47 9.96 12.77C10.92 11.76 12.3 10.94 13.93 10.51C14.16 10.45 14.4 10.39 14.65 10.35C14.8 10.32 14.95 10.3 15.1 10.28C15.33 10.25 15.56 10.22 15.79 10.21C17.22 10.11 18.58 10.34 19.7 10.82C19.75 10.85 19.8 10.87 19.85 10.9L20.42 8.72L21.26 5.52L22.35 1.36C20.27 0.49 17.94 0 15.47 0C6.93 0 0 5.83 0 13.01C0 16.07 1.26 18.88 3.36 21.1L2.69 26.38C2.6 27.08 3.3 27.61 3.94 27.34L9.47 25.03L9.49 25.02C10.81 25.49 12.22 25.8 13.7 25.94C14.28 26 14.88 26.03 15.48 26.03C23.87 26.03 30.7 20.41 30.94 13.4C30.94 13.27 30.95 13.15 30.95 13.02C30.94 10.22 29.88 7.63 28.1 5.51Z" fill="#FF1241"/>
<path d="M52.85 15.02L52.16 16.45C51.22 15.85 50 15.46 48.87 15.46C47.51 15.46 46.48 15.94 46.48 17.07C46.48 19.76 53.24 18.38 53.24 22.73C53.24 25.12 51.12 26.18 48.8 26.18C47.08 26.18 45.3 25.58 44.16 24.48L44.85 23.12C45.89 24.09 47.45 24.66 48.87 24.66C50.29 24.66 51.45 24.13 51.47 22.94C51.54 20.02 44.76 21.51 44.78 17.21C44.78 14.89 46.78 13.92 48.99 13.92C50.43 13.91 51.84 14.33 52.85 15.02Z" fill="#17171C"/>
<path d="M67.2401 20.03C67.2401 23.66 64.6901 26.17 61.1001 26.17C57.5101 26.17 54.9601 23.66 54.9601 20.03C54.9601 16.42 57.5101 13.94 61.1001 13.94C64.6901 13.94 67.2401 16.42 67.2401 20.03ZM56.7601 20.05C56.7601 22.72 58.5801 24.56 61.1101 24.56C63.6401 24.56 65.4601 22.72 65.4601 20.05C65.4601 17.41 63.6401 15.57 61.1101 15.57C58.5801 15.57 56.7601 17.41 56.7601 20.05Z" fill="#17171C"/>
<path d="M81.48 18.63V26.1H79.69V19.11C79.69 16.97 78.4 15.71 76.26 15.71C73.87 15.73 72.4 17.3 72.19 19.6V26.11H70.4V13.98H72.19V16.65C73.04 14.81 74.67 13.94 76.88 13.91C79.78 13.91 81.48 15.71 81.48 18.63Z" fill="#17171C"/>
<path d="M96.04 24.84C96.04 28.38 93.63 30.61 89.95 30.61C88.04 30.59 86.45 29.97 84.98 28.86L85.81 27.48C87.01 28.47 88.27 29 89.88 29.02C92.52 29.02 94.25 27.41 94.25 24.88V23.04C93.4 24.65 91.84 25.57 89.79 25.57C86.53 25.57 84.27 23.16 84.27 19.71C84.27 16.33 86.5 13.94 89.74 13.92C91.81 13.92 93.37 14.84 94.25 16.45V13.99H96.04V24.84ZM94.25 19.78C94.25 17.25 92.53 15.48 90.11 15.48C87.67 15.48 85.97 17.27 85.95 19.78C85.97 22.26 87.67 24.06 90.11 24.06C92.52 24.05 94.25 22.26 94.25 19.78Z" fill="#17171C"/>
<path d="M113.01 19.98C113.01 23.73 110.73 26.23 107.26 26.23C105.54 26.23 104.18 25.54 103.28 24.3V26.09H99.74V9.03998H103.28V15.55C104.15 14.31 105.51 13.62 107.19 13.62C110.67 13.61 113.01 16.17 113.01 19.98ZM109.43 19.87C109.43 17.89 108.19 16.47 106.37 16.47C104.55 16.47 103.29 17.87 103.29 19.87C103.29 21.92 104.56 23.3 106.37 23.3C108.18 23.3 109.43 21.89 109.43 19.87Z" fill="#17171C"/>
<path d="M115.45 26.1V9.03998H118.99V26.1H115.45Z" fill="#17171C"/>
<path d="M134.75 19.92C134.75 23.69 132.08 26.24 128.13 26.24C124.15 26.24 121.48 23.69 121.48 19.92C121.48 16.13 124.15 13.62 128.13 13.62C132.08 13.61 134.75 16.12 134.75 19.92ZM125.04 19.96C125.04 21.98 126.28 23.36 128.12 23.36C129.94 23.36 131.2 21.98 131.2 19.96C131.2 17.94 129.94 16.56 128.12 16.56C126.29 16.56 125.04 17.94 125.04 19.96Z" fill="#17171C"/>
<path d="M148.69 24.95C148.69 28.47 146.05 30.7 142.09 30.7C140 30.7 138.13 30.03 136.71 29.07L138.02 26.59C139.15 27.4 140.46 27.83 141.86 27.83C143.88 27.83 145.17 26.75 145.17 25.07V23.67C144.34 24.82 143.08 25.46 141.45 25.46C138.25 25.46 136.05 23.07 136.05 19.48C136.05 15.98 138.21 13.62 141.36 13.62C143.04 13.6 144.33 14.26 145.18 15.41V13.73H148.7V24.95H148.69ZM145.17 19.57C145.17 17.66 144 16.35 142.27 16.35C140.54 16.35 139.37 17.68 139.35 19.57C139.37 21.46 140.52 22.77 142.27 22.77C144 22.77 145.17 21.46 145.17 19.57Z" fill="#17171C"/>
</svg>
