<svg width="216" height="33" viewBox="0 0 216 33" fill="none" xmlns="http://www.w3.org/2000/svg">
<path fill-rule="evenodd" clip-rule="evenodd" d="M0.7125 18.9835C-0.2375 17.3635 -0.2375 15.3635 0.7125 13.7435L7.0225 3.04355C7.9525 1.48355 9.6425 0.51355 11.4625 0.51355H24.2625C26.0925 0.51355 27.7725 1.48355 28.7025 3.05355L35.0125 13.7535C35.9625 15.3735 35.9625 17.3735 35.0125 18.9935L28.7025 29.6936C27.7725 31.2635 26.0825 32.2335 24.2625 32.2335H11.4625C9.6325 32.2335 7.9525 31.2635 7.0225 29.6936L0.7125 18.9835Z" fill="#DB2529"/>
<path fill-rule="evenodd" clip-rule="evenodd" d="M18.7025 16.9835C18.6125 17.0435 18.5025 17.0635 18.3725 17.0535C18.3225 17.0435 18.2625 17.0335 18.2125 17.0135C18.0425 16.9435 17.9325 16.8135 17.9325 16.6835V12.8335C17.9325 12.7135 18.0225 12.6235 18.1525 12.5735C18.2225 12.5535 18.2925 12.5435 18.3725 12.5535C18.4525 12.5635 18.5325 12.5835 18.6025 12.6235L21.4425 14.2735C21.5525 14.3335 21.6325 14.4235 21.6525 14.5235C21.6725 14.6235 21.6325 14.7135 21.5425 14.7735L18.7025 16.9835ZM12.6725 9.73355V7.91355L20.5525 7.23355C23.2825 7.01355 25.9725 9.06355 25.9725 12.1035V21.5635C25.9725 23.0035 24.1725 24.3235 21.9625 24.5135C19.7425 24.7035 17.9525 23.6935 17.9525 22.2535V19.6535L19.9625 19.4835C22.1825 19.2935 23.9725 17.4235 23.9725 14.7835V13.4835C23.9725 11.2235 22.1725 9.79355 19.9625 9.98355L14.6925 10.4335V22.5135C14.6925 23.9535 12.8925 25.2735 10.6825 25.4635C8.46249 25.6535 6.67249 24.6435 6.67249 23.2035C6.67249 21.7635 8.47249 20.4435 10.6825 20.2535C11.7925 20.1535 12.6925 19.4935 12.6925 18.7835V10.6035V9.73355H12.6725Z" fill="white"/>
<path d="M155.792 15.1036C155.792 14.5136 155.602 14.0536 155.232 13.7336C154.862 13.4136 154.302 13.2436 153.572 13.2436H151.592V16.9436H153.572C154.302 16.9436 154.862 16.7836 155.232 16.4736C155.602 16.1436 155.792 15.6936 155.792 15.1036ZM153.532 19.7036H151.582V23.0636H148.012V10.4236H153.782C154.922 10.4236 155.912 10.6136 156.762 11.0036C157.602 11.3736 158.252 11.9136 158.712 12.6236C159.172 13.3236 159.402 14.1436 159.402 15.0936C159.402 16.0036 159.182 16.8036 158.752 17.4936C158.332 18.1636 157.722 18.6936 156.932 19.0836L159.652 23.0536H155.822L153.532 19.7036ZM146.032 20.2936V23.0536H135.892V10.4236H145.802V13.1836H139.432V15.3136H145.042V17.9836H139.432V20.2936H146.032ZM127.122 13.2636H123.242V10.4236H134.552V13.2536H130.692V23.0536H127.122V13.2636ZM117.372 23.3136C116.352 23.3136 115.352 23.1836 114.392 22.9336C113.432 22.6836 112.652 22.3436 112.042 21.9236L113.212 19.2936C113.782 19.6636 114.432 19.9636 115.182 20.1936C115.932 20.4236 116.662 20.5336 117.382 20.5336C118.752 20.5336 119.442 20.1936 119.442 19.5036C119.442 19.1436 119.242 18.8736 118.842 18.7136C118.462 18.5336 117.832 18.3436 116.962 18.1536C116.012 17.9536 115.222 17.7336 114.582 17.5036C113.942 17.2636 113.392 16.8836 112.942 16.3636C112.482 15.8436 112.252 15.1536 112.252 14.2736C112.252 13.5036 112.462 12.8136 112.882 12.1936C113.302 11.5636 113.932 11.0736 114.762 10.7136C115.602 10.3536 116.632 10.1736 117.852 10.1736C118.682 10.1736 119.502 10.2736 120.302 10.4636C121.112 10.6436 121.822 10.9136 122.432 11.2736L121.332 13.9236C120.132 13.2736 118.962 12.9536 117.832 12.9536C117.122 12.9536 116.602 13.0636 116.282 13.2736C115.962 13.4736 115.792 13.7536 115.792 14.0836C115.792 14.4236 115.982 14.6736 116.372 14.8436C116.752 15.0136 117.372 15.1836 118.232 15.3636C119.192 15.5636 119.992 15.7936 120.612 16.0336C121.252 16.2636 121.802 16.6336 122.252 17.1536C122.722 17.6636 122.952 18.3536 122.952 19.2336C122.952 19.9936 122.742 20.6736 122.322 21.2936C121.902 21.9036 121.272 22.4036 120.432 22.7736C119.592 23.1336 118.572 23.3136 117.372 23.3136ZM106.812 10.4236H110.382V23.0536H106.812V10.4236ZM95.8024 10.4236H99.3724V20.2236H105.402V23.0536H95.8024V10.4236ZM90.1124 18.5236V23.0536H86.5424V18.4736L81.7224 10.4236H85.4924L88.4924 15.4436L91.4924 10.4236H94.9524L90.1124 18.5236ZM77.3724 17.9636L75.7524 13.9236L74.1324 17.9636H77.3724ZM78.4124 20.6036H73.0724L72.0824 23.0536H68.4424L74.0224 10.4236H77.5424L83.1324 23.0536H79.4124L78.4124 20.6036ZM58.8024 10.4236H62.3724V20.2236H68.4024V23.0536H58.8024V10.4236ZM51.2324 16.9436C51.9624 16.9436 52.5224 16.7836 52.8924 16.4736C53.2624 16.1536 53.4524 15.6936 53.4524 15.1036C53.4524 14.5136 53.2624 14.0536 52.8924 13.7336C52.5224 13.4136 51.9624 13.2436 51.2324 13.2436H49.2524V16.9436H51.2324ZM51.4424 10.4236C52.5824 10.4236 53.5824 10.6136 54.4224 11.0036C55.2624 11.3736 55.9124 11.9136 56.3724 12.6236C56.8324 13.3236 57.0624 14.1436 57.0624 15.0936C57.0624 16.0436 56.8324 16.8636 56.3724 17.5636C55.9124 18.2636 55.2624 18.8036 54.4224 19.1836C53.5824 19.5536 52.5924 19.7436 51.4424 19.7436H49.2424V23.0436H45.6724V10.4236H51.4424Z" fill="#17171C"/>
<path d="M162.652 23.2236C162.072 23.2236 161.592 23.0336 161.192 22.6436C160.792 22.2636 160.592 21.7736 160.592 21.1836C160.592 20.5836 160.782 20.0936 161.172 19.7236C161.572 19.3536 162.062 19.1636 162.652 19.1636C163.252 19.1636 163.742 19.3536 164.132 19.7236C164.512 20.0936 164.712 20.5836 164.712 21.1836C164.712 21.7736 164.512 22.2636 164.112 22.6436C163.732 23.0236 163.242 23.2236 162.652 23.2236Z" fill="#2EC4B6"/>
<path d="M210.883 21.5936C211.903 21.5936 212.673 21.4236 213.193 21.0836C213.713 20.7436 213.973 20.2136 213.973 19.4936C213.973 18.0836 212.943 17.3836 210.883 17.3836H206.733V21.5836H210.883V21.5936ZM206.733 11.8836V15.9236H210.433C211.363 15.9236 212.073 15.7536 212.563 15.4136C213.073 15.0636 213.323 14.5636 213.323 13.8936C213.323 13.2336 213.073 12.7336 212.563 12.3936C212.073 12.0436 211.363 11.8736 210.433 11.8736H206.733V11.8836ZM213.423 16.5036C214.153 16.7036 214.733 17.0836 215.153 17.6236C215.573 18.1536 215.783 18.8236 215.783 19.6436C215.783 20.7336 215.363 21.5836 214.533 22.1736C213.713 22.7636 212.523 23.0536 210.943 23.0536H204.913V10.4236H210.583C212.023 10.4236 213.143 10.7136 213.923 11.2936C214.713 11.8736 215.113 12.6736 215.113 13.6936C215.113 14.3536 214.953 14.9236 214.643 15.4036C214.353 15.8836 213.943 16.2536 213.423 16.5036ZM195.893 23.2036C194.213 23.2036 192.893 22.7236 191.963 21.7636C191.023 20.8036 190.553 19.4136 190.553 17.6136V10.4236H192.353V17.5336C192.353 20.2436 193.543 21.5936 195.903 21.5936C197.053 21.5936 197.943 21.2636 198.553 20.6036C199.163 19.9336 199.473 18.9036 199.473 17.5336V10.4236H201.223V17.6036C201.223 19.4236 200.753 20.8136 199.813 21.7736C198.883 22.7236 197.573 23.2036 195.893 23.2036ZM180.153 10.4236H181.953V21.4836H188.793V23.0536H180.153V10.4236ZM172.763 23.2036C171.503 23.2036 170.353 22.9236 169.333 22.3736C168.323 21.8036 167.533 21.0336 166.953 20.0636C166.373 19.0736 166.083 17.9736 166.083 16.7436C166.083 15.5136 166.373 14.4136 166.953 13.4436C167.533 12.4536 168.333 11.6836 169.353 11.1336C170.373 10.5636 171.523 10.2836 172.783 10.2836C173.773 10.2836 174.673 10.4536 175.493 10.7936C176.313 11.1136 177.013 11.6036 177.583 12.2536L176.413 13.3936C175.463 12.3936 174.273 11.8936 172.863 11.8936C171.923 11.8936 171.073 12.1036 170.323 12.5236C169.563 12.9436 168.973 13.5236 168.533 14.2736C168.113 15.0036 167.903 15.8336 167.903 16.7436C167.903 17.6536 168.113 18.4836 168.533 19.2336C168.963 19.9636 169.563 20.5436 170.323 20.9636C171.083 21.3836 171.933 21.5936 172.863 21.5936C174.273 21.5936 175.453 21.0836 176.413 20.0736L177.583 21.2136C177.003 21.8636 176.303 22.3536 175.473 22.6936C174.653 23.0336 173.753 23.2036 172.763 23.2036Z" fill="#17171C"/>
</svg>
