<svg width="188" height="40" viewBox="0 0 188 40" fill="none" xmlns="http://www.w3.org/2000/svg">
<path d="M60.7446 19.52C60.7446 23.11 58.3946 25.61 54.9746 25.61C52.8146 25.61 51.1546 24.62 50.2646 22.94V30H48.4746V13.42H50.2646V16.04C51.1646 14.34 52.8146 13.35 54.9346 13.35C58.3546 13.35 60.7446 15.88 60.7446 19.52ZM58.9346 19.47C58.9346 16.87 57.1446 14.96 54.6146 14.96C52.0646 14.96 50.2646 16.85 50.2646 19.47C50.2646 22.11 52.0546 23.98 54.6146 23.98C57.1346 23.98 58.9346 22.09 58.9346 19.47Z" fill="#17171C"/>
<path d="M64.0146 25.54V8.47998H65.8046V25.54H64.0146Z" fill="#17171C"/>
<path d="M77.8149 23.68C76.8449 24.99 75.3049 25.63 73.3749 25.63C70.8649 25.63 69.2549 24.02 69.2549 21.93C69.2549 19.81 70.9349 18.48 73.7849 18.46H77.7649V17.75C77.7649 15.98 76.6649 14.92 74.5249 14.92C73.1949 14.92 71.9449 15.43 70.6849 16.3L69.9249 14.99C71.4849 13.95 72.8049 13.36 74.8749 13.36C77.8649 13.36 79.5149 14.95 79.5449 17.55L79.5649 25.55H77.8149V23.68ZM77.7949 21.36V19.91H74.0249C72.0049 19.91 70.9449 20.53 70.9449 21.86C70.9449 23.19 72.0249 24.07 73.7249 24.07C75.7649 24.07 77.3349 23.04 77.7949 21.36Z" fill="#17171C"/>
<path d="M86.9241 27.27C86.1641 29.13 84.9041 30.1 83.2941 30.1C82.2841 30.1 81.4741 29.8 80.7441 29.2L81.5041 27.7C82.0541 28.09 82.6041 28.28 83.2041 28.28C84.1441 28.28 84.9241 27.7 85.4141 26.58L85.9241 25.45L80.8941 13.42H82.7741L86.8041 23.42L90.6441 13.42H92.4841L86.9241 27.27Z" fill="#17171C"/>
<path d="M94.7246 25.54V8.47998H96.5146V25.54H94.7246Z" fill="#17171C"/>
<path d="M103.045 9.94996C103.045 10.66 102.535 11.19 101.875 11.19C101.205 11.19 100.705 10.66 100.705 9.94996C100.705 9.23996 101.215 8.70996 101.875 8.70996C102.545 8.70996 103.045 9.23996 103.045 9.94996ZM101.005 25.54V13.42H102.775V25.54H101.005Z" fill="#17171C"/>
<path d="M114.224 14.46L113.534 15.89C112.594 15.29 111.374 14.9 110.244 14.9C108.884 14.9 107.854 15.38 107.854 16.51C107.854 19.2 114.614 17.82 114.614 22.17C114.614 24.56 112.494 25.62 110.174 25.62C108.454 25.62 106.684 25.02 105.534 23.92L106.224 22.56C107.264 23.53 108.824 24.1 110.254 24.1C111.684 24.1 112.824 23.57 112.854 22.38C112.924 19.46 106.144 20.95 106.164 16.65C106.164 14.33 108.164 13.36 110.374 13.36C111.804 13.35 113.214 13.77 114.224 14.46Z" fill="#17171C"/>
<path d="M123.814 24.71C122.964 25.29 122.044 25.61 121.074 25.63C119.304 25.63 117.994 24.57 117.994 22.18V15.26H116.244V13.81H117.994V10.61H119.764V13.81L123.604 13.79V15.26H119.764V21.86C119.764 23.33 120.334 23.88 121.374 23.88C121.994 23.88 122.644 23.67 123.304 23.26L123.814 24.71Z" fill="#17171C"/>
<path d="M139.435 19.43C139.435 23.18 137.155 25.68 133.685 25.68C131.965 25.68 130.605 24.99 129.705 23.75V30H126.165V13.17H129.705V14.99C130.575 13.75 131.935 13.06 133.615 13.06C137.085 13.06 139.435 15.61 139.435 19.43ZM135.845 19.31C135.845 17.33 134.605 15.91 132.785 15.91C130.965 15.91 129.705 17.31 129.705 19.31C129.705 21.36 130.975 22.74 132.785 22.74C134.595 22.74 135.845 21.33 135.845 19.31Z" fill="#17171C"/>
<path d="M153.535 25.54H150.015V23.36C149.165 24.92 147.735 25.68 145.875 25.68C143.135 25.68 141.415 23.86 141.415 20.94V13.17H144.955V19.93C144.955 21.49 145.855 22.44 147.275 22.44C148.975 22.42 150.015 21.08 150.015 19.29V13.17H153.535V25.54Z" fill="#17171C"/>
<path d="M157.074 25.54V8.47998H160.614V25.54H157.074Z" fill="#17171C"/>
<path d="M173.174 14.39L171.954 16.8C170.594 16.04 169.214 15.6 168.184 15.6C167.354 15.6 166.754 15.88 166.754 16.52C166.754 18.38 173.284 17.44 173.264 21.81C173.264 24.34 171.034 25.67 168.224 25.67C166.224 25.67 164.264 25.07 162.864 23.95L164.014 21.56C165.304 22.55 166.954 23.1 168.314 23.1C169.214 23.1 169.874 22.8 169.874 22.13C169.874 20.15 163.454 21.21 163.454 16.86C163.454 14.31 165.644 13 168.334 13C170.044 13.01 171.794 13.52 173.174 14.39Z" fill="#17171C"/>
<path d="M187.014 20.44H178.134C178.544 22 179.744 22.92 181.334 22.92C182.504 22.92 183.614 22.46 184.464 21.61L186.324 23.5C185.084 24.88 183.264 25.68 181.034 25.68C177.074 25.68 174.574 23.15 174.574 19.4C174.574 15.58 177.174 13.05 180.944 13.05C185.294 13.06 187.314 15.93 187.014 20.44ZM183.704 18.35C183.654 16.72 182.604 15.66 180.964 15.66C179.404 15.66 178.344 16.72 178.064 18.35H183.704Z" fill="#17171C"/>
<path d="M129.304 38.95C128.874 39.37 128.424 39.54 127.874 39.54C126.794 39.54 125.904 38.89 125.904 37.57C125.904 36.25 126.804 35.6 127.874 35.6C128.404 35.6 128.804 35.75 129.214 36.15L128.634 36.76C128.414 36.56 128.144 36.47 127.884 36.47C127.264 36.47 126.814 36.92 126.814 37.57C126.814 38.28 127.294 38.66 127.864 38.66C128.154 38.66 128.454 38.58 128.674 38.35L129.304 38.95Z" fill="#17171C"/>
<path d="M138.164 34.15V36.22C138.494 35.79 138.904 35.66 139.324 35.66C140.384 35.66 140.844 36.38 140.844 37.47V39.43H139.924V37.48C139.924 36.8 139.574 36.52 139.084 36.52C138.544 36.52 138.164 36.98 138.164 37.54V39.44H137.244V34.16H138.164V34.15Z" fill="#17171C"/>
<path d="M152.104 35.71H152.984V39.43H152.114L152.074 38.89C151.864 39.33 151.284 39.54 150.864 39.55C149.764 39.56 148.954 38.88 148.954 37.57C148.954 36.29 149.804 35.62 150.894 35.63C151.394 35.63 151.864 35.86 152.074 36.23L152.104 35.71ZM149.874 37.56C149.874 38.27 150.364 38.69 150.974 38.69C152.424 38.69 152.424 36.44 150.974 36.44C150.364 36.44 149.874 36.85 149.874 37.56Z" fill="#17171C"/>
<path d="M162.145 35.71L162.215 36.14C162.505 35.68 162.885 35.61 163.265 35.61C163.645 35.61 164.015 35.76 164.225 35.96L163.815 36.76C163.625 36.6 163.455 36.52 163.155 36.52C162.675 36.52 162.225 36.78 162.225 37.46V39.42H161.305V35.7H162.145V35.71Z" fill="#17171C"/>
<path d="M173.634 34.66V35.71H174.664V36.5H173.634V38.11C173.634 38.46 173.834 38.64 174.114 38.64C174.254 38.64 174.424 38.6 174.564 38.53L174.824 39.31C174.564 39.42 174.344 39.46 174.064 39.47C173.254 39.5 172.734 39.04 172.734 38.11V36.5H172.044V35.71H172.734V34.75L173.634 34.66Z" fill="#17171C"/>
<path d="M185.304 36.7C185.044 36.45 184.744 36.37 184.384 36.37C183.944 36.37 183.704 36.51 183.704 36.74C183.704 36.98 183.924 37.12 184.394 37.15C185.094 37.2 185.984 37.35 185.984 38.34C185.984 39 185.444 39.56 184.384 39.56C183.794 39.56 183.204 39.46 182.664 38.9L183.114 38.24C183.374 38.53 183.984 38.75 184.394 38.76C184.744 38.77 185.064 38.59 185.064 38.32C185.064 38.06 184.854 37.96 184.324 37.93C183.624 37.88 182.784 37.62 182.784 36.78C182.784 35.92 183.674 35.62 184.354 35.62C184.934 35.62 185.374 35.73 185.804 36.11L185.304 36.7Z" fill="#17171C"/>
<path d="M31.1243 13.38C31.6543 12.89 31.8443 12.13 31.6243 11.45C31.3943 10.76 30.7943 10.27 30.0743 10.19L24.2243 9.33C23.2143 13 21.7443 18.16 21.7443 18.16C21.7443 18.17 21.7343 18.18 21.7343 18.18C21.3043 20.04 19.5543 22.04 17.2043 23.24C14.5543 24.67 11.7343 24.47 10.2343 22.9C9.50427 22.27 9.00428 21.47 8.83428 20.55C8.34428 17.93 10.6743 15.26 14.1343 14.35C14.3643 14.29 14.6043 14.24 14.8443 14.19C15.2243 14.12 15.6043 14.08 15.9743 14.05C17.3843 13.95 18.7243 14.17 19.8243 14.65C19.8743 14.68 19.9243 14.7 19.9743 14.73L21.4843 8.64C21.2843 8.48 21.1143 8.28 20.9843 8.05L17.5743 1.09C17.2443 0.42 16.5843 0 15.8543 0C15.1243 0 14.4643 0.42 14.1543 1.08L10.7443 8.04C10.4543 8.58 9.93428 8.96 9.33428 9.06L1.64428 10.18C0.924276 10.26 0.324276 10.75 0.0942755 11.44C-0.135724 12.13 0.0642756 12.88 0.594276 13.37L6.14428 18.81C6.60428 19.22 6.80428 19.84 6.68428 20.44L5.37428 28.1C5.25428 28.8 5.54428 29.52 6.11428 29.94C6.69428 30.36 7.45428 30.42 8.09428 30.1L14.9843 26.47C15.5343 26.21 16.1743 26.21 16.7243 26.47L23.6143 30.1C24.2543 30.43 25.0143 30.37 25.5943 29.94C26.1743 29.52 26.4543 28.81 26.3343 28.1L25.0243 20.45C24.9043 19.85 25.1143 19.23 25.5643 18.82L31.1243 13.38Z" fill="#FF1241"/>
<path opacity="0.3" d="M33.1846 15.15L31.0146 17.57L34.3546 22.96L28.2346 33.55H24.4646H15.9946L13.7446 29.65L10.9346 31.19L14.1446 36.76H30.0846L30.9146 35.32L34.2846 29.48L38.0446 22.96L33.1846 15.15Z" fill="#FF1241"/>
</svg>
